<?xml version="1.0" standalone="no"?>
<!DOCTYPE svg PUBLIC "-//W3C//DTD SVG 1.1//EN" "http://www.w3.org/Graphics/SVG/1.1/DTD/svg11.dtd" >
<svg xmlns="http://www.w3.org/2000/svg">
<metadata>
Created by FontForge 20120731 at Sat May  4 11:28:51 2013
 By Stephen Hutchings
(c) Stephen Hutchings 2012
</metadata>
<defs>
<font id="typicons" horiz-adv-x="750" >
  <font-face 
    font-family="Typicons"
    font-weight="400"
    font-stretch="normal"
    units-per-em="1000"
    panose-1="2 0 5 3 0 0 0 0 0 0"
    ascent="850"
    descent="-150"
    bbox="-1.46316 -150.031 1000 850"
    underline-thickness="50"
    underline-position="-100"
    unicode-range="U+2710-27CF"
  />
<missing-glyph horiz-adv-x="364" 
d="M33 0v666h265v-666h-265zM66 33h199v600h-199v-600z" />
    <glyph glyph-name=".notdef" horiz-adv-x="364" 
d="M33 0v666h265v-666h-265zM66 33h199v600h-199v-600z" />
    <glyph glyph-name="glyph1" unicode="&#x2711;" 
d="M333 600q0 42 42 42t42 -42t-42 -42t-42 42zM42 392q0 51 37 88t88 37h17q-17 38 -17 83q0 86 61 147t147 61t147 -61t61 -147q0 -45 -17 -83h17q36 0 64.5 -18t44.5 -45q16 -28 16 -62q0 -26 -8 -46q50 -37 50 -100q0 -107 -53 -192t-134 -133q-88 -50 -188 -50
q-107 0 -192 53t-133 134q-50 88 -50 188q0 63 50 100q-8 20 -8 46zM125 288q-17 0 -29.5 -12.5t-12.5 -29.5q0 -120 86 -206t206 -86t206 86t86 206q0 17 -12.5 29.5t-29.5 12.5t-29.5 -12.5t-12.5 -29.5q0 -76 -48.5 -133t-117.5 -71v308h166q17 0 29.5 12.5t12.5 29.5
t-12.5 29t-29.5 12h-166v50q36 13 59.5 44t23.5 73q0 52 -36.5 88.5t-88.5 36.5t-88.5 -36.5t-36.5 -88.5q0 -41 24 -72.5t59 -44.5v-50h-166q-17 0 -29.5 -12t-12.5 -29t12.5 -29.5t29.5 -12.5h166v-308q-69 14 -117.5 71t-48.5 133q0 17 -12.5 29.5t-29.5 12.5zM180 308
q28 -25 28 -62q0 -95 84 -144v206h-112zM458 102q36 21 60 58.5t24 85.5q0 37 28 62h-112v-206zM333 600q0 42 42 42t42 -42t-42 -42t-42 42z" />
    <glyph glyph-name="glyph2" unicode="&#x2712;" horiz-adv-x="792" 
d="M583 17h-375q-52 0 -88.5 36.5t-36.5 88.5v333h84v-333q0 -17 12 -29.5t29 -12.5h375q17 0 29.5 12.5t12.5 29.5v333h83v-333q0 -52 -36.5 -88.5t-88.5 -36.5zM458 308h-125q-9 0 -15 6t-6 15t6 15t15 6h125q9 0 15 -6t6 -15t-6 -15t-15 -6zM750 558h-708
q-17 0 -29.5 12.5t-12.5 29.5t12.5 29.5t29.5 12.5h708q17 0 29.5 -12.5t12.5 -29.5t-12.5 -29.5t-29.5 -12.5zM667 433h-542q-17 0 -29.5 12.5t-12.5 29.5t12.5 29.5t29.5 12.5h542q17 0 29 -12.5t12 -29.5t-12 -29.5t-29 -12.5z" />
    <glyph glyph-name="glyph0" unicode="&#x2710;" horiz-adv-x="667" 
d="M333 683q138 0 236 -97.5t98 -235.5t-98 -235.5t-236 -97.5t-235.5 97.5t-97.5 235.5t97.5 235.5t235.5 97.5zM333 100v500q-103 0 -176.5 -73t-73.5 -177t73.5 -177t176.5 -73z" />
    <glyph glyph-name="glyph3" unicode="&#x2713;" 
d="M750 58q0 -17 -12 -29t-30 -12q-21 0 -34 19q-48 74 -110.5 106.5t-146.5 38.5v-60q0 -34 -25 -59q-24 -24 -59 -23.5t-58 23.5l-263 258q-12 12 -12 30t12 30l262 258q23 23 58.5 23.5t59.5 -23.5q25 -25 25 -59v-71q145 -29 239 -144t94 -264v-42zM375 266
q175 0 283 -88q-24 101 -103 171t-185 82l-37 2v146l-232 -229l232 -229v146q31 -1 42 -1z" />
    <glyph glyph-name="glyph4" unicode="&#x2714;" horiz-adv-x="417" 
d="M404 296q12 -12 12 -29.5t-12 -29.5l-196 -196l-196 196q-12 12 -12 29.5t12 29.5t29.5 12t29.5 -12l96 -95v316q0 17 12 29t29 12t29.5 -12t12.5 -29v-316l96 95q12 12 29 12t29 -12z" />
    <glyph glyph-name="glyph5" unicode="&#x2715;" 
d="M42 17q-18 0 -30 12.5t-12 28.5v42q0 149 94 264t239 144v71q0 34 25 59q24 24 59.5 23.5t58.5 -23.5l262 -258q12 -12 12 -30t-12 -30l-263 -258q-23 -23 -58 -23.5t-59 23.5q-25 25 -25 59v60q-84 -6 -146.5 -38.5t-110.5 -106.5q-13 -19 -34 -19zM92 178
q108 88 283 88l42 1v-146l232 229l-232 229v-146q-16 0 -37 -2q-106 -12 -185 -82t-103 -171z" />
    <glyph glyph-name="glyph6" unicode="&#x2716;" horiz-adv-x="517" 
d="M476 392q17 0 29 -12.5t12 -29.5t-12 -29.5t-29 -12.5h-316l95 -95q12 -12 12 -29.5t-12 -29.5t-29 -12q-18 0 -30 12l-196 196l196 196q12 12 29.5 12t29.5 -12t12 -29.5t-12 -29.5l-95 -95h316z" />
    <glyph glyph-name="glyph7" unicode="&#x2717;" horiz-adv-x="667" 
d="M333 -38l-296 297q-37 37 -37 88t37 88q34 34 84.5 35.5t86.5 -30.5v202q0 52 36.5 88.5t88.5 36.5t88.5 -36.5t36.5 -88.5v-202q36 32 87 30.5t85 -35.5q37 -37 37 -88t-37 -88zM125 389q-18 0 -30 -12t-12 -29.5t12 -29.5l238 -238l238 238q12 12 12 29.5t-12 29.5
t-29.5 12t-29.5 -12l-137 -138v403q0 17 -12.5 29t-29.5 12t-29 -12t-12 -29v-403l-138 138q-12 12 -29 12z" />
    <glyph glyph-name="glyph8" unicode="&#x2718;" horiz-adv-x="805" 
d="M510 100q0 -51 -37 -88t-88 -37t-88 37l-297 296l297 297q35 35 88 35t88 -35q37 -37 37 -88q0 -49 -32 -84h202q52 0 88.5 -36.5t36.5 -88.5t-36.5 -88.5t-88.5 -36.5h-202q32 -35 32 -83zM118 308l238 -237q12 -12 29.5 -12t29.5 12t12 29t-12 29l-138 138h403
q17 0 29 12t12 29t-12 29.5t-29 12.5h-403l138 137q12 12 12 30q0 17 -12 29t-29.5 12t-29.5 -12z" />
    <glyph glyph-name="glyph9" unicode="&#x2719;" horiz-adv-x="805" 
d="M420 -25q-51 0 -88 37t-37 88q0 49 31 83h-201q-52 0 -88.5 36.5t-36.5 88.5t36.5 88.5t88.5 36.5h201q-31 34 -31 84q0 52 36 88q35 35 88.5 35t88.5 -35l297 -297l-297 -296q-37 -37 -88 -37zM125 350q-17 0 -29.5 -12.5t-12.5 -29.5t12.5 -29t29.5 -12h402l-137 -138
q-12 -12 -12 -29t12 -29t29.5 -12t29.5 12l238 237l-238 238q-12 12 -29.5 12t-29.5 -12t-12 -29q0 -18 12 -30l137 -137h-402z" />
    <glyph glyph-name="glyph10" unicode="&#x271a;" horiz-adv-x="667" 
d="M333 -28q-52 0 -88.5 36.5t-36.5 88.5v201q-36 -32 -86.5 -30.5t-84.5 35.5q-37 37 -37 88.5t37 88.5l296 297l297 -297q37 -37 37 -88.5t-37 -88.5q-34 -34 -85 -35.5t-87 30.5v-201q0 -52 -36.5 -88.5t-88.5 -36.5zM292 499v-402q0 -17 12 -29.5t29 -12.5t29.5 12.5
t12.5 29.5v402l137 -137q12 -12 29.5 -12t29.5 12t12 29.5t-12 29.5l-238 238l-238 -238q-12 -12 -12 -29.5t12 -29.5t29.5 -12t29.5 12z" />
    <glyph glyph-name="glyph11" unicode="&#x271b;" horiz-adv-x="792" 
d="M604 475q77 0 132.5 -61t55.5 -147t-61.5 -147.5t-147.5 -61.5h-375q-86 0 -147 61.5t-61 147.5t61 147t147 61h42q17 0 29.5 -12.5t12.5 -29.5t-12.5 -29t-29.5 -12h-42q-52 0 -88.5 -36.5t-36.5 -88.5t36.5 -88.5t88.5 -36.5h375q52 0 88.5 36.5t36.5 88.5t-30.5 88.5
t-73.5 36.5h-87l54 -54q12 -12 12 -29.5t-12 -29.5t-29 -12q-18 0 -30 12l-154 154l154 155q12 12 29.5 12t29.5 -12t12 -29.5t-12 -29.5l-54 -54h87z" />
    <glyph glyph-name="glyph12" unicode="&#x271c;" horiz-adv-x="625" 
d="M407 642h218v-209q0 -17 -12.5 -29t-29.5 -12t-29 12t-12 29v66l-138 -137q-12 -12 -29 -12t-29 12t-12 29.5t12 29.5l137 137h-76q-17 0 -29.5 12.5t-12.5 29.5t12.5 29.5t29.5 12.5zM221 296q12 12 29 12t29 -12t12 -29.5t-12 -29.5l-137 -137h66q17 0 29.5 -12.5
t12.5 -29.5t-12.5 -29t-29.5 -12h-208v208q0 17 12.5 29.5t29.5 12.5t29 -12.5t12 -29.5v-66zM125 306q-17 0 -29.5 12t-12.5 29v211h211q17 0 29.5 -12t12.5 -29t-12.5 -29.5t-29.5 -12.5h-127v-128q0 -17 -12.5 -29t-29.5 -12zM500 353q17 0 29.5 -12.5t12.5 -29.5v-211
h-206q-17 0 -29.5 12.5t-12.5 29.5t12.5 29t29.5 12h122v128q0 17 12.5 29.5t29.5 12.5z" />
    <glyph glyph-name="glyph13" unicode="&#x271d;" horiz-adv-x="851" 
d="M696 463l155 -155l-155 -154q-12 -12 -29 -12q-18 0 -30 12t-12 29.5t12 29.5l54 54h-163q-26 0 -44.5 -18.5t-18.5 -44.5q0 -60 -43 -103t-103 -43h-77q-13 -37 -45 -60t-72 -23q-52 0 -88.5 36.5t-36.5 88.5t36.5 88.5t88.5 36.5q40 0 72 -23t45 -60h77q26 0 44.5 18.5
t18.5 43.5q0 62 44 104q-44 42 -44 104q0 26 -19 44.5t-44 18.5h-77q-13 -37 -45 -60t-72 -23q-52 0 -88.5 36.5t-36.5 88.5t36.5 88.5t88.5 36.5q40 0 72 -23.5t45 -60.5h77q60 0 103 -43t43 -103q0 -25 18.5 -43.5t44.5 -18.5h163l-54 54q-12 12 -12 29.5t12 29.5t29.5 12
t29.5 -12zM125 475q17 0 29.5 12.5t12.5 29.5t-12.5 29t-29.5 12t-29.5 -12t-12.5 -29t12.5 -29.5t29.5 -12.5zM125 58q17 0 29.5 12.5t12.5 29.5t-12.5 29.5t-29.5 12.5t-29.5 -12.5t-12.5 -29.5t12.5 -29.5t29.5 -12.5z" />
    <glyph glyph-name="glyph14" unicode="&#x271e;" horiz-adv-x="625" 
d="M88 308h204v-208q0 -17 -12.5 -29.5t-29.5 -12.5t-29.5 12.5t-12.5 29.5v71l-139 -142q-12 -12 -27 -12q-18 0 -30 12t-12 29.5t12 29.5l137 137h-61q-17 0 -29 12.5t-12 29.5t12 29t29 12zM125 347q-17 0 -29.5 12.5t-12.5 29.5v169h170q17 0 29 -12t12 -29t-12 -29.5
t-29 -12.5h-86v-86q0 -17 -12.5 -29.5t-29.5 -12.5zM500 311q17 0 29.5 -12.5t12.5 -29.5v-169h-164q-17 0 -29.5 12.5t-12.5 29.5t12.5 29t29.5 12h80v86q0 17 12.5 29.5t29.5 12.5zM613 629q12 -12 12 -29.5t-12 -29.5l-137 -137h66q17 0 29 -12t12 -29t-12 -29.5
t-29 -12.5h-209v208q0 17 12.5 29.5t29.5 12.5t29.5 -12.5t12.5 -29.5v-66l137 137q12 12 29.5 12t29.5 -12z" />
    <glyph glyph-name="glyph15" unicode="&#x271f;" horiz-adv-x="951" 
d="M927 409q25 -24 25 -58.5t-25 -59.5l-393 -392q-25 -25 -58 -25q-34 0 -59 25l-393 392q-25 25 -25 59.5t25 58.5l393 392q25 25 59 25q33 0 58 -25zM684 183q16 0 29 13l155 154l-155 154q-13 13 -29 13q-17 0 -30 -13q-12 -12 -12 -29t12 -29l54 -54h-191v191l54 -54
q12 -12 30 -12q17 0 29 12t12 29.5t-12 29.5l-154 154l-155 -154q-12 -12 -12 -29.5t12 -29.5t30 -12q17 0 29 12l54 54v-191h-191l54 54q12 12 12 29t-12 29q-13 13 -30 13q-16 0 -29 -13l-155 -154l155 -154q13 -13 29 -13q17 0 30 13q12 12 12 29t-12 29l-54 54h191v-191
l-54 54q-12 12 -29 12q-18 0 -30 -12t-12 -29.5t12 -29.5l155 -154l154 154q12 12 12 29.5t-12 29.5t-29 12q-18 0 -30 -12l-54 -54v191h191l-54 -54q-12 -12 -12 -29t12 -29q13 -13 30 -13zM612 267h-53v-53q20 11 42 11q0 22 11 42zM339 267q12 -22 12 -42q21 0 41 -11v53
h-53zM339 433h53v53q-20 -11 -41 -11q0 -20 -12 -42zM612 433q-11 20 -11 42q-22 0 -42 11v-53h53z" />
    <glyph glyph-name="glyph16" unicode="&#x2720;" horiz-adv-x="792" 
d="M604 475q77 0 132.5 -61t55.5 -147t-61.5 -147.5t-147.5 -61.5h-41q-17 0 -29.5 12.5t-12.5 29.5t12.5 29.5t29.5 12.5h41q52 0 88.5 36.5t36.5 88.5t-30.5 88.5t-73.5 36.5h-87l54 -54q12 -12 12 -29.5t-12 -29.5t-29 -12q-18 0 -30 12l-154 154l154 155q12 12 29.5 12
t29.5 -12t12 -29.5t-12 -29.5l-54 -54h87zM221 254q12 12 29 12t29 -12l155 -154l-155 -154q-13 -13 -29 -13t-29 13q-12 12 -12 29t12 29l53 54h-86q-77 0 -132.5 61.5t-55.5 147.5t61 147t147 61h42q17 0 29.5 -12.5t12.5 -29.5t-12.5 -29t-29.5 -12h-42
q-52 0 -88.5 -36.5t-36.5 -88.5t31 -88.5t74 -36.5h86l-53 54q-12 12 -12 29t12 29zM42 267z" />
    <glyph glyph-name="glyph17" unicode="&#x2721;" horiz-adv-x="517" 
d="M262 546q12 12 29.5 12t29.5 -12l196 -196l-196 -196q-12 -12 -29 -12q-18 0 -30 12t-12 29.5t12 29.5l96 95h-316q-17 0 -29.5 12.5t-12.5 29.5t12.5 29.5t29.5 12.5h316l-96 95q-12 12 -12 29.5t12 29.5z" />
    <glyph glyph-name="glyph18" unicode="&#x2722;" horiz-adv-x="851" 
d="M637 296q12 12 29.5 12t29.5 -12l155 -154l-155 -155q-12 -12 -29 -12q-18 0 -30 12t-12 29.5t12 29.5l54 54h-115q-71 0 -128 49q26 35 39 78q36 -44 89 -44h115l-54 54q-12 12 -12 29.5t12 29.5zM125 392q-52 0 -88.5 36.5t-36.5 88.5t36.5 88.5t88.5 36.5
q40 0 72 -23.5t45 -60.5h29q68 0 119 -48q-26 -32 -42 -76q-31 41 -77 41h-29q-13 -37 -45 -60t-72 -23zM125 558q-17 0 -29.5 -12t-12.5 -29t12.5 -29.5t29.5 -12.5t29.5 12.5t12.5 29.5t-12.5 29t-29.5 12zM458 350v-42q0 -86 -55 -147t-132 -61h-29q-13 -37 -45 -60
t-72 -23q-52 0 -88.5 36.5t-36.5 88.5t36.5 88.5t88.5 36.5q40 0 72 -23.5t45 -60.5h29q43 0 73.5 36.5t30.5 88.5v42q0 86 59 147t142 61h115l-54 54q-12 12 -12 29.5t12 29.5t29.5 12t29.5 -12l155 -154l-155 -155q-12 -12 -29 -12q-18 0 -30 12t-12 29.5t12 29.5l54 54
h-115q-49 0 -83.5 -36.5t-34.5 -88.5zM125 100q17 0 29.5 12.5t12.5 29.5t-12.5 29t-29.5 12t-29.5 -12t-12.5 -29t12.5 -29.5t29.5 -12.5z" />
    <glyph glyph-name="glyph19" unicode="&#x2723;" horiz-adv-x="851" 
d="M637 254q12 12 29.5 12t29.5 -12l155 -154l-155 -154q-13 -13 -29 -13q-17 0 -30 13q-12 12 -12 29t12 29l54 54h-149q-60 0 -103 43t-43 103q0 26 -19 44.5t-44 18.5h-91q-13 -37 -45 -60.5t-72 -23.5q-52 0 -88.5 36.5t-36.5 88.5t36.5 88.5t88.5 36.5q40 0 72 -23
t45 -60h91q26 0 44.5 18.5t18.5 43.5q0 60 43 103t103 43h149l-54 54q-12 12 -12 29.5t12 29.5t29.5 12t29.5 -12l155 -154l-155 -155q-12 -12 -29 -12q-18 0 -30 12t-12 29.5t12 29.5l54 54h-149q-26 0 -44.5 -18.5t-18.5 -44.5q0 -62 -44 -104q44 -42 44 -104
q0 -25 18.5 -43.5t44.5 -18.5h149l-54 54q-12 12 -12 29t12 29zM125 267q17 0 29.5 12t12.5 29t-12.5 29.5t-29.5 12.5t-29.5 -12.5t-12.5 -29.5t12.5 -29t29.5 -12z" />
    <glyph glyph-name="glyph20" unicode="&#x2724;" horiz-adv-x="625" 
d="M480 532q12 12 29.5 12t29.5 -12q86 -86 86 -202q0 -129 -92 -221q-87 -87 -205 -91l56 -55q12 -12 12 -29.5t-12 -29.5t-30 -12q-17 0 -29 12l-155 154l155 155q12 12 29.5 12t29.5 -12t12 -29.5t-12 -29.5l-52 -52q82 6 142 66q68 68 68 162q0 44 -14 76.5t-48 66.5
q-12 12 -12 29.5t12 29.5zM83 329q0 -44 14 -76.5t48 -66.5q12 -12 12 -29.5t-12 -29.5t-29 -12q-18 0 -30 12q-86 86 -86 202q0 129 92 221q85 85 204 91l-55 55q-12 12 -12 29t12 29t29.5 12t29.5 -12l155 -154l-155 -154q-13 -13 -29 -13q-17 0 -30 13q-12 12 -12 29
t12 29l54 54q-84 -6 -145 -67q-67 -67 -67 -162z" />
    <glyph glyph-name="glyph21" unicode="&#x2725;" horiz-adv-x="417" 
d="M208 617l196 -196q12 -12 12 -29.5t-12 -29.5t-29 -12t-29 12l-96 96v-316q0 -17 -12.5 -29.5t-29.5 -12.5t-29 12.5t-12 29.5v316l-96 -96q-12 -12 -29.5 -12t-29.5 12t-12 29.5t12 29.5z" />
    <glyph glyph-name="glyph22" unicode="&#x2726;" 
d="M375 725q155 0 265 -110t110 -265v-21q0 -60 -43 -103t-103 -43q-66 0 -110 51q-49 -51 -119 -51q-69 0 -118 49t-49 118t49 118t118 49q48 0 87 -25q10 25 38 25q17 0 29.5 -12.5t12.5 -29.5v-146q0 -25 18 -43.5t44 -18.5t44.5 18.5t18.5 43.5v21q0 121 -85.5 206.5
t-206.5 85.5t-206.5 -85.5t-85.5 -206.5t85.5 -206.5t206.5 -85.5q90 0 164 51q14 10 31 6.5t27 -17.5t6.5 -31t-17.5 -27q-96 -65 -211 -65q-155 0 -265 110t-110 265t110 265t265 110zM375 267q35 0 59 24.5t24 58.5t-24 58.5t-59 24.5t-59 -24.5t-24 -58.5t24 -58.5
t59 -24.5z" />
    <glyph glyph-name="glyph23" unicode="&#x2727;" horiz-adv-x="794" 
d="M311 290q-8 0 -14 7t-6 14q0 9 6 15l189 189q24 24 58 24q36 0 60 -24t24 -59t-24 -59l-295 -295q-24 -24 -59 -24t-59 24t-24 59t24 59l4 4q-29 38 -29 87v1l-34 -33q-49 -49 -49 -118t49 -118t118 -49t118 49l294 295q49 49 49 118t-49 118q-48 48 -118 48
q-69 0 -117 -48l-189 -189q-31 -31 -31 -74t31 -73.5t73 -30.5q44 0 74 30l88 89h1q24 24 24 58t-25 59l-147 -147q-6 -6 -15 -6zM544 706q103 0 177 -74q73 -73 73 -176q0 -104 -73 -177l-294 -295q-73 -73 -177 -73t-177 73t-73 177t73 177l34 33q15 15 35 21q14 28 37 52
l189 188q74 74 176 74z" />
    <glyph glyph-name="glyph24" unicode="&#x2728;" horiz-adv-x="874" 
d="M749 -25h-417q-45 0 -92.5 24t-73.5 61l-109 153q-11 15 -23.5 33t-19 26.5t-6.5 9.5q-8 11 -8 26t7 26q4 4 51 70l108 152q26 37 73.5 61.5t92.5 24.5h417q52 0 88.5 -36.5t36.5 -88.5v-417q0 -52 -36.5 -88.5t-88.5 -36.5zM92 308q5 -7 16.5 -23.5t16.5 -22.5l109 -153
q14 -20 44 -35.5t54 -15.5h417q17 0 29 12.5t12 29.5v417q0 17 -12 29t-29 12h-417q-24 0 -54 -15t-44 -35l-109 -152l-17 -25.5t-16 -22.5zM624 162q-8 0 -15 7l-250 250q-14 14 0.5 28.5t28.5 0.5l250 -250q10 -10 4.5 -23t-18.5 -13zM374 162q-13 0 -19 13t4 23l250 250
q14 14 28.5 -0.5t0.5 -28.5l-250 -250q-7 -7 -14 -7z" />
    <glyph glyph-name="glyph25" unicode="&#x2729;" horiz-adv-x="792" 
d="M125 433h458v-250h-458v250zM368 229l132 97l-108 -18l-49 79l-135 -97l110 18zM708 433q35 0 59.5 -24.5t24.5 -58.5v-83q0 -35 -25 -59.5t-59 -24.5q0 -52 -36.5 -88.5t-88.5 -36.5h-458q-52 0 -88.5 36.5t-36.5 88.5v250q0 52 36.5 88.5t88.5 36.5h458
q52 0 88.5 -36.5t36.5 -88.5zM625 183v250q0 17 -12.5 29.5t-29.5 12.5h-458q-17 0 -29.5 -12.5t-12.5 -29.5v-250q0 -17 12.5 -29t29.5 -12h458q17 0 29.5 12t12.5 29z" />
    <glyph glyph-name="glyph26" unicode="&#x272a;" horiz-adv-x="792" 
d="M292 183q-17 0 -29.5 12.5t-12.5 29.5v167q0 17 12.5 29t29.5 12t29 -12t12 -29v-167q0 -17 -12 -29.5t-29 -12.5zM167 183q-17 0 -29.5 12.5t-12.5 29.5v167q0 17 12.5 29t29.5 12t29 -12t12 -29v-167q0 -17 -12 -29.5t-29 -12.5zM542 183q-17 0 -29.5 12.5t-12.5 29.5
v167q0 17 12.5 29t29.5 12t29 -12t12 -29v-167q0 -17 -12 -29.5t-29 -12.5zM417 183q-17 0 -29.5 12.5t-12.5 29.5v167q0 17 12.5 29t29.5 12t29 -12t12 -29v-167q0 -17 -12 -29.5t-29 -12.5zM708 433q35 0 59.5 -24.5t24.5 -58.5v-83q0 -35 -25 -59.5t-59 -24.5
q0 -52 -36.5 -88.5t-88.5 -36.5h-458q-52 0 -88.5 36.5t-36.5 88.5v250q0 52 36.5 88.5t88.5 36.5h458q52 0 88.5 -36.5t36.5 -88.5zM625 183v250q0 17 -12.5 29.5t-29.5 12.5h-458q-17 0 -29.5 -12.5t-12.5 -29.5v-250q0 -17 12.5 -29t29.5 -12h458q17 0 29.5 12t12.5 29z
" />
    <glyph glyph-name="glyph27" unicode="&#x272b;" horiz-adv-x="792" 
d="M292 183q-17 0 -29.5 12.5t-12.5 29.5v167q0 17 12.5 29t29.5 12t29 -12t12 -29v-167q0 -17 -12 -29.5t-29 -12.5zM167 183q-17 0 -29.5 12.5t-12.5 29.5v167q0 17 12.5 29t29.5 12t29 -12t12 -29v-167q0 -17 -12 -29.5t-29 -12.5zM417 183q-17 0 -29.5 12.5t-12.5 29.5
v167q0 17 12.5 29t29.5 12t29 -12t12 -29v-167q0 -17 -12 -29.5t-29 -12.5zM708 433q35 0 59.5 -24.5t24.5 -58.5v-83q0 -35 -25 -59.5t-59 -24.5q0 -52 -36.5 -88.5t-88.5 -36.5h-458q-52 0 -88.5 36.5t-36.5 88.5v250q0 52 36.5 88.5t88.5 36.5h458q52 0 88.5 -36.5
t36.5 -88.5zM625 183v250q0 17 -12.5 29.5t-29.5 12.5h-458q-17 0 -29.5 -12.5t-12.5 -29.5v-250q0 -17 12.5 -29t29.5 -12h458q17 0 29.5 12t12.5 29z" />
    <glyph glyph-name="glyph28" unicode="&#x272c;" horiz-adv-x="792" 
d="M167 183q-17 0 -29.5 12.5t-12.5 29.5v167q0 17 12.5 29t29.5 12t29 -12t12 -29v-167q0 -17 -12 -29.5t-29 -12.5zM708 433q35 0 59.5 -24.5t24.5 -58.5v-83q0 -35 -25 -59.5t-59 -24.5q0 -52 -36.5 -88.5t-88.5 -36.5h-458q-52 0 -88.5 36.5t-36.5 88.5v250
q0 52 36.5 88.5t88.5 36.5h458q52 0 88.5 -36.5t36.5 -88.5zM625 183v250q0 17 -12.5 29.5t-29.5 12.5h-458q-17 0 -29.5 -12.5t-12.5 -29.5v-250q0 -17 12.5 -29t29.5 -12h458q17 0 29.5 12t12.5 29z" />
    <glyph glyph-name="glyph29" unicode="&#x272d;" horiz-adv-x="792" 
d="M292 183q-17 0 -29.5 12.5t-12.5 29.5v167q0 17 12.5 29t29.5 12t29 -12t12 -29v-167q0 -17 -12 -29.5t-29 -12.5zM167 183q-17 0 -29.5 12.5t-12.5 29.5v167q0 17 12.5 29t29.5 12t29 -12t12 -29v-167q0 -17 -12 -29.5t-29 -12.5zM708 433q35 0 59.5 -24.5t24.5 -58.5
v-83q0 -35 -25 -59.5t-59 -24.5q0 -52 -36.5 -88.5t-88.5 -36.5h-458q-52 0 -88.5 36.5t-36.5 88.5v250q0 52 36.5 88.5t88.5 36.5h458q52 0 88.5 -36.5t36.5 -88.5zM625 183v250q0 17 -12.5 29.5t-29.5 12.5h-458q-17 0 -29.5 -12.5t-12.5 -29.5v-250q0 -17 12.5 -29
t29.5 -12h458q17 0 29.5 12t12.5 29z" />
    <glyph glyph-name="glyph30" unicode="&#x272e;" horiz-adv-x="629" 
d="M625 150q15 -54 -17 -93.5t-85 -39.5h-417q-53 0 -85 39.5t-17 93.5l103 380q2 8 5 28h-48q-17 0 -29 12.5t-12 29.5t12 29.5t29 12.5h500q17 0 29.5 -12.5t12.5 -29.5t-12.5 -29.5t-29.5 -12.5h-49zM428 558h-233q-1 -19 -8 -49l-43 -160l2 1h2h333q1 0 2 -0.5t2 -0.5z
M523 100q28 0 21 28l-50 185q-7 -5 -13 -5h-333q-6 0 -13 5l-50 -185q-7 -28 21 -28h417z" />
    <glyph glyph-name="glyph31" unicode="&#x272f;" horiz-adv-x="708" 
d="M188 433q8 0 14 -6.5t6 -14.5v-250q0 -8 -6 -14t-14 -6t-14.5 6t-6.5 14v250q0 8 6.5 14.5t14.5 6.5zM271 433q8 0 14.5 -6.5t6.5 -14.5v-250q0 -8 -6.5 -14t-14.5 -6t-14.5 6t-6.5 14v250q0 8 6.5 14.5t14.5 6.5zM354 433q8 0 14.5 -6.5t6.5 -14.5v-250q0 -8 -6.5 -14
t-14.5 -6t-14.5 6t-6.5 14v250q0 8 6.5 14.5t14.5 6.5zM562 600q60 0 103 -43t43 -103v-208q0 -60 -43 -103t-103 -43h-20q0 -52 -36.5 -88.5t-88.5 -36.5h-292q-52 0 -88.5 36.5t-36.5 88.5v542q0 34 24 58.5t59 24.5h375q35 0 59.5 -24.5t24.5 -58.5v-42h20zM83 642v-63
q0 -25 18.5 -43.5t44.5 -18.5q36 0 54 32l7 13l15 -3q14 -2 27.5 5.5t18.5 21.5l5 14h185v42h-375zM458 100v458h-157q-25 -41 -72 -41q-32 -42 -83 -42q-36 0 -63 21v-396q0 -17 12.5 -29.5t29.5 -12.5h292q17 0 29 12.5t12 29.5zM625 246v208q0 26 -18.5 44.5t-44.5 18.5
h-62v-334h62q26 0 44.5 18.5t18.5 44.5z" />
    <glyph glyph-name="glyph32" unicode="&#x2730;" horiz-adv-x="666" 
d="M655 129q19 -21 7.5 -46t-37.5 -25h-131q-14 -55 -59 -90t-102 -35t-101.5 35t-58.5 90h-131q-26 0 -38 26t8 46q3 3 8 9.5t17 29.5t21.5 50.5t17.5 74t8 98.5q0 81 46.5 145.5t120.5 90.5q-1 5 -1 14q0 34 24 58.5t59 24.5t59.5 -24.5t24.5 -58.5q0 -4 -2 -14
q74 -26 121 -90.5t47 -145.5q0 -52 8 -98.5t17.5 -74.5t21.5 -50.5t17 -29.5t8 -10zM333 558q-69 0 -117.5 -48.5t-48.5 -117.5q0 -49 -4 -84h341q-5 43 -5 84q0 69 -49 117.5t-117 48.5zM333 17q49 0 72 41h-143q23 -41 71 -41zM117 142h433q-25 52 -39 125h-355
q-14 -73 -39 -125z" />
    <glyph glyph-name="glyph33" unicode="&#x2731;" 
d="M625 725q52 0 88.5 -36.5t36.5 -88.5v-417q0 -52 -30 -88.5t-74 -36.5h-28q-13 -36 -45.5 -59.5t-72.5 -23.5h-375q-52 0 -88.5 36.5t-36.5 88.5v458q0 18 12 30l125 125q12 12 30 12h458zM125 58h42v459h-84v-417q0 -17 12.5 -29.5t29.5 -12.5zM542 100v375
q0 17 -12.5 29.5t-29.5 12.5h-292v-459h292q17 0 29.5 12.5t12.5 29.5zM667 183v417q0 17 -12.5 29.5t-29.5 12.5h-441l-42 -42h358q52 0 88.5 -36.5t36.5 -88.5v-333h21q6 0 13.5 11.5t7.5 29.5z" />
    <glyph glyph-name="glyph34" unicode="&#x2732;" horiz-adv-x="583" 
d="M458 767q52 0 88.5 -36.5t36.5 -88.5v-584q0 -41 -19.5 -62.5t-46.5 -21.5q-34 0 -64 30l-132 133q-12 12 -29.5 12t-29.5 -12l-132 -133q-32 -31 -65.5 -30t-51.5 31q-13 23 -13 53v584q0 52 36.5 88.5t88.5 36.5h333zM125 683q-17 0 -29.5 -12t-12.5 -29v-413l195 178
q14 12 28 0l194 -178v413q0 17 -12.5 29t-29.5 12h-333zM380 196l120 -120v96l-208 191l-209 -191v-96l120 120q36 36 89 36q52 0 88 -36z" />
    <glyph glyph-name="glyph35" unicode="&#x2733;" 
d="M625 17h-500q-52 0 -88.5 36.5t-36.5 88.5v291q0 52 36.5 88.5t88.5 36.5h500q52 0 88.5 -36.5t36.5 -88.5v-291q0 -52 -36.5 -88.5t-88.5 -36.5zM125 475q-17 0 -29.5 -12.5t-12.5 -29.5v-291q0 -17 12.5 -29.5t29.5 -12.5h500q17 0 29.5 12.5t12.5 29.5v291
q0 17 -12.5 29.5t-29.5 12.5h-500zM625 475h-83v83q0 17 -12.5 29.5t-29.5 12.5h-250q-17 0 -29.5 -12.5t-12.5 -29.5v-83h-83v83q0 52 36.5 88.5t88.5 36.5h250q52 0 88.5 -36.5t36.5 -88.5v-83zM0 183v42h750v-42h-750zM458 308q0 -17 -12 -29t-29 -12h-84q-17 0 -29 12
t-12 29t12 29.5t29 12.5h84q17 0 29 -12.5t12 -29.5z" />
    <glyph glyph-name="glyph36" unicode="&#x2734;" horiz-adv-x="752" 
d="M668 685q43 0 68.5 -36.5t9.5 -77.5q-108 -271 -390 -438q-10 -6 -23 -9q-13 -83 -75.5 -137t-147.5 -54q-19 0 -37 3l-61 9l-9 61q-16 101 44 178q54 69 144 83q4 14 8 22q167 282 438 390q15 6 31 6zM110 17q57 0 97 36t46 91l-43 42q-62 -7 -98.5 -55t-26.5 -113
q8 -1 25 -1zM314 204q30 17 74 49l-67 67l-1 1v1q-28 -39 -49 -75zM422 278q170 132 247 324q-194 -77 -325 -248z" />
    <glyph glyph-name="glyph37" unicode="&#x2735;" horiz-adv-x="917" 
d="M792 17h-667q-52 0 -88.5 36.5t-36.5 88.5v416q0 52 36.5 88.5t88.5 36.5h667q52 0 88.5 -36.5t36.5 -88.5v-416q0 -52 -36.5 -88.5t-88.5 -36.5zM125 600q-17 0 -29.5 -12.5t-12.5 -29.5v-416q0 -17 12.5 -29.5t29.5 -12.5h667q17 0 29 12.5t12 29.5v416q0 17 -12 29.5
t-29 12.5h-667zM375 225h-167q-17 0 -29 12.5t-12 29.5t12 29t29 12h167q17 0 29.5 -12t12.5 -29t-12.5 -29.5t-29.5 -12.5zM375 392h-167q-17 0 -29 12t-12 29t12 29.5t29 12.5h167q17 0 29.5 -12.5t12.5 -29.5t-12.5 -29t-29.5 -12zM542 412q0 84 83 84t83 -84
q0 -83 -83 -83t-83 83zM625 294q45 0 74.5 -18t29.5 -42q0 -12 -30 -21t-74 -9q-47 0 -75.5 9t-28.5 21q0 24 28.5 42t75.5 18z" />
    <glyph glyph-name="glyph38" unicode="&#x2736;" horiz-adv-x="583" 
d="M458 -25h-333q-52 0 -88.5 36.5t-36.5 88.5v500q0 52 36.5 88.5t88.5 36.5h333q52 0 88.5 -36.5t36.5 -88.5v-500q0 -52 -36.5 -88.5t-88.5 -36.5zM125 642q-17 0 -29.5 -12.5t-12.5 -29.5v-500q0 -17 12.5 -29.5t29.5 -12.5h333q17 0 29.5 12.5t12.5 29.5v500
q0 17 -12.5 29.5t-29.5 12.5h-333zM125 392q0 41 42 41q41 0 41 -41q0 -42 -41 -42q-42 0 -42 42zM250 392q0 41 42 41q41 0 41 -41q0 -42 -41 -42q-42 0 -42 42zM375 392q0 41 42 41q41 0 41 -41q0 -42 -41 -42q-42 0 -42 42zM125 267q0 41 42 41q41 0 41 -41
q0 -42 -41 -42q-42 0 -42 42zM250 267q0 41 42 41q41 0 41 -41q0 -42 -41 -42q-42 0 -42 42zM375 267q0 41 42 41q41 0 41 -41q0 -42 -41 -42q-42 0 -42 42zM125 142q0 41 42 41q41 0 41 -41q0 -42 -41 -42q-42 0 -42 42zM250 142q0 41 42 41q41 0 41 -41q0 -42 -41 -42
q-42 0 -42 42zM375 142q0 41 42 41q41 0 41 -41q0 -42 -41 -42q-42 0 -42 42zM417 558h-250v-41h250v41zM458 600v-125h-333v125h333z" />
    <glyph glyph-name="glyph39" unicode="&#x2737;" 
d="M667 592q37 -13 60 -45t23 -72v-375q0 -52 -36.5 -88.5t-88.5 -36.5h-500q-52 0 -88.5 36.5t-36.5 88.5v375q0 40 23 72t60 45v8q0 52 36.5 88.5t88.5 36.5t88.5 -36.5t36.5 -88.5h84q0 52 36.5 88.5t88.5 36.5t88.5 -36.5t36.5 -88.5v-8zM500 600v-83q0 -17 12.5 -29.5
t29.5 -12.5t29 12.5t12 29.5v83q0 17 -12 29.5t-29 12.5t-29.5 -12.5t-12.5 -29.5zM167 600v-83q0 -17 12 -29.5t29 -12.5t29.5 12.5t12.5 29.5v83q0 17 -12.5 29.5t-29.5 12.5t-29 -12.5t-12 -29.5zM667 100v250h-584v-250q0 -17 12.5 -29.5t29.5 -12.5h500q17 0 29.5 12.5
t12.5 29.5zM667 392v83q0 17 -12.5 29.5t-29.5 12.5q0 -35 -24.5 -59.5t-58.5 -24.5t-59 24.5t-25 59.5h-166q0 -35 -25 -59.5t-59 -24.5t-58.5 24.5t-24.5 59.5q-17 0 -29.5 -12.5t-12.5 -29.5v-83h584z" />
    <glyph glyph-name="glyph40" unicode="&#x2738;" horiz-adv-x="833" 
d="M708 17h-583q-52 0 -88.5 36.5t-36.5 88.5v333q0 52 36.5 88.5t88.5 36.5h66l42 42q18 18 46 29.5t54 11.5h167q26 0 54.5 -11.5t46.5 -29.5l41 -42h66q52 0 88.5 -36.5t36.5 -88.5v-333q0 -52 -36.5 -88.5t-88.5 -36.5zM125 517q-17 0 -29.5 -12.5t-12.5 -29.5v-333
q0 -17 12.5 -29.5t29.5 -12.5h583q17 0 29.5 12.5t12.5 29.5v333q0 17 -12.5 29.5t-29.5 12.5h-83q-17 0 -29 12l-54 54q-17 17 -42 17h-167q-24 0 -41 -17l-54 -54q-12 -12 -30 -12h-83zM417 433q-43 0 -74 -30.5t-31 -73.5t31 -73.5t74 -30.5t73.5 30.5t30.5 73.5
t-30.5 73.5t-73.5 30.5zM417 475q61 0 103 -42.5t42 -103.5q0 -60 -42.5 -103t-102.5 -43q-61 0 -103.5 43t-42.5 103q0 61 42.5 103.5t103.5 42.5zM667 488q22 0 38 -16t16 -39t-15.5 -38.5t-38.5 -15.5t-39 16t-16 38q0 23 16 39t39 16z" />
    <glyph glyph-name="glyph41" unicode="&#x2739;" 
d="M625 725q52 0 88.5 -37.5t36.5 -87.5v-417q0 -17 -12.5 -29t-29.5 -12h-666q-17 0 -29.5 12t-12.5 29v125q0 45 27 78l167 209q31 38 82.5 44.5t90.5 -22.5l69 -53l91 114q38 47 98 47zM667 600q0 16 -13 29t-29 13q-20 0 -33 -16l-116 -145q-11 -14 -27 -16t-30 8
l-102 77q-13 10 -30.5 8t-27.5 -15l-167 -209q-9 -10 -9 -26v-83h584v375zM708 -25h-666q-17 0 -29.5 12.5t-12.5 29.5t12.5 29t29.5 12h666q17 0 29.5 -12t12.5 -29t-12.5 -29.5t-29.5 -12.5z" />
    <glyph glyph-name="glyph42" unicode="&#x273a;" horiz-adv-x="667" 
d="M542 642q52 0 88.5 -36.5t36.5 -88.5v-375h-667v250q0 52 36.5 88.5t88.5 36.5q47 0 83 -33v199q0 52 36.5 88.5t88.5 36.5t88.5 -36.5t36.5 -88.5v-74q36 33 84 33zM333 725q-17 0 -29 -12.5t-12 -29.5v-458h83v458q0 17 -12.5 29.5t-29.5 12.5zM167 225v167
q0 17 -12.5 29t-29.5 12t-29.5 -12t-12.5 -29v-167h84zM583 225v292q0 17 -12 29t-29 12t-29.5 -12t-12.5 -29v-292h83zM625 -25h-583q-17 0 -29.5 12.5t-12.5 29.5t12.5 29t29.5 12h583q17 0 29.5 -12t12.5 -29t-12.5 -29.5t-29.5 -12.5z" />
    <glyph glyph-name="glyph43" unicode="&#x273b;" 
d="M125 142q-37 0 -67.5 20.5t-45 50t-12 66t26.5 66.5l167 208q31 38 82.5 44.5t90.5 -22.5l69 -52l91 113q38 47 98 47q50 0 86 -34.5t39 -79.5t-27 -89l-167 -208q-31 -38 -82 -44.5t-91 22.5l-70 52l-91 -113q-38 -47 -97 -47zM292 517q-20 0 -33 -16l-167 -208
q-16 -22 -3.5 -45t36.5 -23q20 0 33 16l141 177l134 -101q13 -10 30.5 -8t27.5 15l166 208q16 22 4 45t-36 23q-20 0 -33 -16l-141 -176l-134 100q-13 9 -25 9zM667 -25h-584q-17 0 -29 12.5t-12 29.5t12 29t29 12h584q17 0 29 -12t12 -29t-12 -29.5t-29 -12.5z" />
    <glyph glyph-name="glyph44" unicode="&#x273c;" horiz-adv-x="722" 
d="M264 725q0 34 24.5 58.5t58.5 24.5h8q174 -15 311 -129q27 -23 29.5 -59.5t-23.5 -63.5l-24 -23q74 -108 74 -237q0 -148 -92 -263q-25 -31 -65 -31q-19 0 -37 9q-86 -56 -185 -56q-142 0 -242.5 101t-100.5 243q0 119 74.5 212.5t189.5 120.5v93zM343 38q85 0 155 52
l-192 198v267q-95 -14 -159 -86.5t-64 -169.5q0 -108 76.5 -184.5t183.5 -76.5zM347 349l265 266q-116 97 -265 110v-376zM356 296l209 -211q74 93 74 211q0 117 -74 210z" />
    <glyph glyph-name="glyph45" unicode="&#x273d;" horiz-adv-x="792" 
d="M667 600q52 0 88.5 -36.5t36.5 -88.5v-292q0 -52 -36.5 -88.5t-88.5 -36.5h-375l-125 -125v125h-42q-52 0 -88.5 36.5t-36.5 88.5v292q0 52 36.5 88.5t88.5 36.5h542zM708 183v292q0 17 -12 29.5t-29 12.5h-542q-17 0 -29.5 -12.5t-12.5 -29.5v-292q0 -17 12.5 -29
t29.5 -12h542q17 0 29 12t12 29zM208 246q-34 0 -58.5 24t-24.5 59t24.5 59t58.5 24q35 0 59.5 -24.5t24.5 -58.5t-24.5 -58.5t-59.5 -24.5zM208 371q-17 0 -29 -12.5t-12 -29.5t12 -29t29 -12t29.5 12t12.5 29t-12.5 29.5t-29.5 12.5zM396 246q-35 0 -59.5 24.5t-24.5 58.5
t24.5 58.5t59.5 24.5q34 0 58.5 -24t24.5 -59t-24.5 -59t-58.5 -24zM396 371q-17 0 -29.5 -12.5t-12.5 -29.5t12.5 -29t29.5 -12t29.5 12t12.5 29t-12.5 29.5t-29.5 12.5zM583 246q-35 0 -59 24t-24 59t24 59t59 24t59.5 -24.5t24.5 -58.5t-24.5 -58.5t-59.5 -24.5zM583 371
q-17 0 -29 -12.5t-12 -29.5t12 -29t29 -12t29.5 12t12.5 29t-12.5 29.5t-29.5 12.5z" />
    <glyph glyph-name="glyph46" unicode="&#x273e;" horiz-adv-x="510" 
d="M510 142q0 -51 -37 -88t-88 -37q-52 0 -88 36l-297 297l297 297q35 35 88.5 35t88.5 -35q36 -36 36 -89q0 -52 -36 -88l-120 -120l120 -120q36 -36 36 -88zM118 350l238 -238q12 -12 29.5 -12t29.5 12t12 30q0 17 -12 29l-179 179l179 179q12 12 12 29q0 18 -12 30
t-29.5 12t-29.5 -12z" />
    <glyph glyph-name="glyph47" unicode="&#x273f;" horiz-adv-x="510" 
d="M125 17q-51 0 -88 37t-37 88t37 88l120 120l-120 120q-37 37 -37 88q0 52 37 89q35 35 88 35t88 -35l297 -297l-297 -297q-36 -36 -88 -36zM125 600q-17 0 -29.5 -12.5t-12.5 -29.5q0 -16 13 -29l178 -179l-178 -179q-13 -13 -13 -29q0 -17 13 -30q12 -12 29 -12t29 12
l238 238l-238 238q-12 12 -29 12z" />
    <glyph glyph-name="glyph48" unicode="&#x2740;" horiz-adv-x="667" 
d="M542 725q52 0 88.5 -36.5t36.5 -88.5v-500q0 -52 -36.5 -88.5t-88.5 -36.5h-417q-52 0 -88.5 36.5t-36.5 88.5v500q0 52 36.5 88.5t88.5 36.5h417zM458 638q-7 2 -124.5 2t-125.5 -2v-38q0 -17 12.5 -29.5t29.5 -12.5h167q17 0 29 12.5t12 29.5v38zM583 100v500
q0 17 -12 29.5t-29 12.5h-42v-42q0 -34 -24 -58.5t-59 -24.5h-167q-34 0 -58.5 24.5t-24.5 58.5v42h-42q-17 0 -29.5 -12.5t-12.5 -29.5v-500q0 -17 12.5 -29.5t29.5 -12.5h417q17 0 29 12.5t12 29.5zM500 142h-333q-21 0 -21 20q0 9 6 15t15 6h333q9 0 15 -6t6 -15
q0 -20 -21 -20zM500 267h-333q-9 0 -15 6t-6 15q0 20 21 20h333q21 0 21 -20q0 -9 -6 -15t-15 -6zM500 392h-333q-21 0 -21 20q0 9 6 15t15 6h333q9 0 15 -6t6 -15q0 -20 -21 -20z" />
    <glyph glyph-name="glyph49" unicode="&#x2741;" horiz-adv-x="844" 
d="M635 433q86 0 147.5 -61t61.5 -147t-61.5 -147t-147.5 -61h-458q-70 0 -123.5 49t-53.5 117q0 53 38 98.5t77 63.5v5q0 103 78 176.5t182 73.5q82 0 151.5 -46.5t94.5 -120.5h14zM635 100q52 0 88.5 36.5t36.5 88.5t-36.5 88.5t-88.5 36.5q-17 0 -33 -5l-45 -13l-8 46
q-11 60 -57 99.5t-107 39.5q-69 0 -117.5 -49t-48.5 -118q0 -18 3 -34l10 -50l-59 1q-32 0 -55.5 -25t-23.5 -59q0 -35 24 -59t59 -24h229v158l-89 -89q-6 -6 -15 -6q-13 0 -19 12.5t4 22.5l125 125q5 5 14.5 5.5t15.5 -5.5l125 -125q10 -10 4 -22.5t-19 -12.5q-9 0 -15 6
l-89 89v-158h187z" />
    <glyph glyph-name="glyph50" unicode="&#x2742;" horiz-adv-x="993" 
d="M302 58q-52 0 -89 37l-213 213l213 214q35 35 88.5 35t88.5 -35q37 -37 37 -88.5t-37 -88.5l-36 -37l36 -36q37 -37 37 -88.5t-37 -88.5t-88 -37zM118 308l154 -154q12 -12 29.5 -12t29.5 12t12 29.5t-12 29.5l-95 95l95 96q12 12 12 29.5t-12 29.5t-29.5 12t-29.5 -12z
M691 58q-51 0 -88 37t-37 88.5t37 88.5l36 36l-36 37q-37 37 -37 88.5t37 88.5q35 35 88 35t88 -35l214 -214l-214 -213q-37 -37 -88 -37zM691 475q-17 0 -29 -12t-12 -29.5t12 -29.5l95 -96l-95 -95q-12 -12 -12 -29.5t12 -29.5t29.5 -12t29.5 12l154 154l-154 155
q-12 12 -30 12z" />
    <glyph glyph-name="glyph51" unicode="&#x2743;" horiz-adv-x="708" 
d="M562 642q60 0 103 -43t43 -103t-43 -103t-103 -43h-20v-83q0 -35 -25 -59.5t-59 -24.5h-333q-34 0 -58.5 24.5t-24.5 59.5v375h520zM458 267v291h-333v-291h333zM562 433q26 0 44.5 18.5t18.5 44.5q0 25 -18.5 43.5t-44.5 18.5h-62v-125h62zM542 142q17 0 29 -12.5
t12 -29.5t-12 -29.5t-29 -12.5h-500q-17 0 -29.5 12.5t-12.5 29.5t12.5 29.5t29.5 12.5h500z" />
    <glyph glyph-name="glyph52" unicode="&#x2744;" horiz-adv-x="770" 
d="M448 642h-125l-36 -143l-141 41l-63 -109l106 -102l-106 -102l63 -108l141 40l36 -142h125l35 142l142 -40l62 108l-105 102l105 102l-62 109l-142 -41zM448 725q29 0 51.5 -17.5t29.5 -45.5l14 -59l59 17q12 3 23 3q48 0 72 -42l62 -108q14 -25 10.5 -53.5t-24.5 -48.5
l-44 -42l44 -42q20 -20 24 -48t-10 -53l-62 -109q-24 -41 -72 -41q-11 0 -23 3l-59 16l-14 -59q-7 -28 -29.5 -45.5t-51.5 -17.5h-125q-29 0 -51.5 17.5t-29.5 45.5l-15 59l-58 -16q-16 -4 -23 -4q-48 0 -72 42l-63 108q-14 25 -10.5 53.5t24.5 48.5l44 42l-44 42
q-20 20 -24 48.5t10 53.5l63 108q24 42 72 42q11 0 23 -3l58 -17l15 59q7 28 29.5 45.5t51.5 17.5h125zM385 412q-35 0 -59 -24t-24 -59t24 -59t59 -24t59.5 24.5t24.5 58.5t-24.5 58.5t-59.5 24.5zM385 454q52 0 88.5 -36.5t36.5 -88.5t-36.5 -88.5t-88.5 -36.5t-88.5 36.5
t-36.5 88.5t36.5 88.5t88.5 36.5z" />
    <glyph glyph-name="glyph53" unicode="&#x2745;" 
d="M375 725q155 0 265 -110t110 -265t-110 -265t-265 -110t-265 110t-110 265t110 265t265 110zM375 58q121 0 206.5 85.5t85.5 206.5t-85.5 206.5t-206.5 85.5t-206.5 -85.5t-85.5 -206.5t85.5 -206.5t206.5 -85.5zM529 530q11 3 20 -6t6 -20l-72 -248q-3 -11 -14 -14
l-248 -72h-5q-10 0 -17 8t-4 18l72 248q3 11 14 14zM246 221l201 57l-144 144z" />
    <glyph glyph-name="glyph54" unicode="&#x2746;" horiz-adv-x="792" 
d="M667 725q52 0 88.5 -36.5t36.5 -88.5v-500q0 -52 -36.5 -88.5t-88.5 -36.5h-459q-52 0 -88.5 36.5t-36.5 88.5v42h-41q-17 0 -29.5 12t-12.5 29t12.5 29.5t29.5 12.5h41v83h-41q-17 0 -29.5 12.5t-12.5 29.5t12.5 29.5t29.5 12.5h41v83h-41q-17 0 -29.5 12.5t-12.5 29.5
t12.5 29t29.5 12h41v42q0 52 36.5 88.5t88.5 36.5h459zM167 600v-42h41v84q-17 0 -29 -12.5t-12 -29.5zM167 475v-83h41v83h-41zM167 308v-83h41v83h-41zM167 100q0 -17 12 -29.5t29 -12.5v84h-41v-42zM708 100v500q0 17 -12 29.5t-29 12.5h-417v-584h417q17 0 29 12.5
t12 29.5zM375 412q0 84 83 84q84 0 84 -84q0 -83 -84 -83q-83 0 -83 83zM458 294q45 0 74.5 -18t29.5 -42q0 -12 -30 -21t-74 -9q-47 0 -75.5 9t-28.5 21q0 24 28.5 42t75.5 18z" />
    <glyph glyph-name="glyph55" unicode="&#x2747;" horiz-adv-x="708" 
d="M583 558q52 0 88.5 -36.5t36.5 -88.5v-291q0 -52 -36.5 -88.5t-88.5 -36.5h-458q-52 0 -88.5 36.5t-36.5 88.5v291q0 52 36.5 88.5t88.5 36.5h458zM125 475q-17 0 -29.5 -12.5t-12.5 -29.5v-41h542v41q0 17 -12.5 29.5t-29.5 12.5h-458zM583 100q17 0 29.5 12.5
t12.5 29.5v166h-542v-166q0 -17 12.5 -29.5t29.5 -12.5h458zM542 225q20 0 20 -21t-20 -21h-84q-20 0 -20 21t20 21h84z" />
    <glyph glyph-name="glyph56" unicode="&#x2748;" horiz-adv-x="583" 
d="M583 484v-4v-260q0 -121 -85 -206.5t-206 -85.5t-206.5 85.5t-85.5 206.5v260v2l1 2q5 116 89.5 196.5t201.5 80.5t201.5 -80.5t89.5 -196.5zM292 116q68 0 124.5 37t83.5 97v16q-86 -88 -208 -88q-123 0 -209 88v-16q27 -60 84 -97t125 -37zM292 678q-86 0 -147.5 -61
t-61.5 -147t61.5 -147.5t147.5 -61.5t147 61.5t61 147.5t-61 147t-147 61zM292 11q70 0 125 42.5t74 108.5q-81 -88 -199 -88t-199 88q19 -66 74 -108.5t125 -42.5z" />
    <glyph glyph-name="glyph57" unicode="&#x2749;" horiz-adv-x="708" 
d="M354 -4q-146 0 -250 104t-104 250t104 250t250 104t250 -104t104 -250t-104 -250t-250 -104zM354 621q-112 0 -191.5 -79.5t-79.5 -191.5t79.5 -191.5t191.5 -79.5t191.5 79.5t79.5 191.5t-79.5 191.5t-191.5 79.5zM354 496q-13 0 -25 -3l169 -169q2 8 2 26q0 60 -43 103
t-103 43zM354 538q77 0 132.5 -55.5t55.5 -132.5q0 -52 -29 -99l-258 257q48 30 99 30zM211 376q-3 -12 -3 -26q0 -60 43 -103t103 -43q14 0 26 3zM196 450l258 -258q-48 -30 -100 -30q-78 0 -132.5 55t-54.5 133q0 53 29 100z" />
    <glyph glyph-name="glyph58" unicode="&#x274a;" horiz-adv-x="1000" 
d="M875 808q52 0 88.5 -36.5t36.5 -88.5v-458q0 -52 -36.5 -88.5t-88.5 -36.5h-250v-83h125q17 0 29.5 -12.5t12.5 -29.5t-12.5 -29.5t-29.5 -12.5h-500q-17 0 -29.5 12.5t-12.5 29.5t12.5 29.5t29.5 12.5h125v83h-250q-52 0 -88.5 36.5t-36.5 88.5v458q0 52 36.5 88.5
t88.5 36.5h750zM583 17v83h-166v-83h166zM917 225v458q0 17 -12.5 29.5t-29.5 12.5h-750q-17 0 -29.5 -12.5t-12.5 -29.5v-458q0 -17 12.5 -29.5t29.5 -12.5h750q17 0 29.5 12.5t12.5 29.5zM833 683q17 0 29.5 -12t12.5 -29v-334q0 -17 -12.5 -29t-29.5 -12h-666
q-17 0 -29.5 12t-12.5 29v334q0 17 12.5 29t29.5 12h666zM833 308v334h-666v-334h666z" />
    <glyph glyph-name="glyph59" unicode="&#x274b;" horiz-adv-x="1000" 
d="M916 181q36 -8 60 -36.5t24 -65.5q0 -43 -30.5 -73.5t-73.5 -30.5h-792q-43 0 -73.5 30.5t-30.5 73.5q0 37 24 65.5t60 36.5q0 6 -0.5 21t-0.5 23v375q0 52 36.5 88.5t88.5 36.5h584q52 0 88.5 -36.5t36.5 -88.5v-375q0 -8 -0.5 -23t-0.5 -21zM167 600v-375q0 -9 0.5 -23
t0.5 -19h40v375q0 17 12.5 29.5t29.5 12.5h500q17 0 29.5 -12.5t12.5 -29.5v-375h41v42v375q0 17 -12 29.5t-29 12.5h-584q-17 0 -29 -12.5t-12 -29.5zM750 183v375h-500v-375h500zM896 58q8 0 14.5 6.5t6.5 14.5t-6.5 14.5t-14.5 6.5h-792q-8 0 -14.5 -6.5t-6.5 -14.5
t6.5 -14.5t14.5 -6.5h792z" />
    <glyph glyph-name="glyph60" unicode="&#x274c;" horiz-adv-x="542" 
d="M417 725q52 0 88.5 -36.5t36.5 -88.5v-500q0 -52 -36.5 -88.5t-88.5 -36.5h-292q-52 0 -88.5 36.5t-36.5 88.5v500q0 52 36.5 88.5t88.5 36.5h292zM458 100v500q0 17 -12 29.5t-29 12.5h-292q-17 0 -29.5 -12.5t-12.5 -29.5v-500q0 -17 12.5 -29.5t29.5 -12.5h292
q17 0 29 12.5t12 29.5zM375 600q17 0 29.5 -12.5t12.5 -29.5v-375q0 -17 -12.5 -29t-29.5 -12h-63q0 -17 -12 -29.5t-29 -12.5t-29.5 12.5t-12.5 29.5h-62q-17 0 -29.5 12t-12.5 29v375q0 17 12.5 29.5t29.5 12.5h208zM375 183v375h-208v-375h208z" />
    <glyph glyph-name="glyph61" unicode="&#x274d;" horiz-adv-x="708" 
d="M542 683q17 0 29 -12t12 -29v-500q0 -17 -12 -29.5t-29 -12.5h-146q0 -17 -12.5 -29.5t-29.5 -12.5t-29.5 12.5t-12.5 29.5h-145q-17 0 -29.5 12.5t-12.5 29.5v500q0 17 12.5 29t29.5 12h375zM542 142v500h-375v-500h375zM583 808q52 0 88.5 -36.5t36.5 -88.5v-625
q0 -52 -36.5 -88.5t-88.5 -36.5h-458q-52 0 -88.5 36.5t-36.5 88.5v625q0 52 36.5 88.5t88.5 36.5h458zM625 58v625q0 17 -12.5 29.5t-29.5 12.5h-458q-17 0 -29.5 -12.5t-12.5 -29.5v-625q0 -17 12.5 -29t29.5 -12h458q17 0 29.5 12t12.5 29z" />
    <glyph glyph-name="glyph62" unicode="&#x274e;" horiz-adv-x="746" 
d="M746 454l-114 -108l-3 -3q38 -43 38 -97q0 -60 -43 -103t-103 -43h-113l-33 -167h-42l-33 167h-92q-55 0 -94 39l-107 107l77 77q-38 18 -61 53t-23 78q0 60 43 103t103 43h146v21q0 25 18 43.5t44 18.5t44.5 -18.5t18.5 -43.5v-21h121q53 0 93 -37zM521 183
q25 0 43.5 18.5t18.5 44.5t-18.5 44t-43.5 18h-313q-21 0 -35 -14l-48 -48l48 -48q15 -15 35 -15h313zM574 406l51 48l-51 48q-15 15 -36 15h-392q-26 0 -44.5 -18.5t-18.5 -44.5q0 -25 18.5 -43.5t44.5 -18.5h392q22 0 36 14z" />
    <glyph glyph-name="glyph63" unicode="&#x274f;" 
d="M375 496q-52 0 -88.5 36.5t-36.5 88.5t36.5 88.5t88.5 36.5t88.5 -36.5t36.5 -88.5t-36.5 -88.5t-88.5 -36.5zM375 662q-17 0 -29.5 -12t-12.5 -29t12.5 -29.5t29.5 -12.5t29.5 12.5t12.5 29.5t-12.5 29t-29.5 12zM375 -46q-52 0 -88.5 36.5t-36.5 88.5t36.5 88.5
t88.5 36.5t88.5 -36.5t36.5 -88.5t-36.5 -88.5t-88.5 -36.5zM375 121q-17 0 -29.5 -12.5t-12.5 -29.5t12.5 -29t29.5 -12t29.5 12t12.5 29t-12.5 29.5t-29.5 12.5zM625 225h-500q-52 0 -88.5 36.5t-36.5 88.5t36.5 88.5t88.5 36.5h500q52 0 88.5 -36.5t36.5 -88.5
t-36.5 -88.5t-88.5 -36.5zM125 392q-17 0 -29.5 -12.5t-12.5 -29.5t12.5 -29.5t29.5 -12.5h500q17 0 29.5 12.5t12.5 29.5t-12.5 29.5t-29.5 12.5h-500z" />
    <glyph glyph-name="glyph64" unicode="&#x2750;" horiz-adv-x="667" 
d="M458 350q17 0 29.5 -12.5t12.5 -29.5t-12.5 -29t-29.5 -12h-83v-84q0 -17 -12.5 -29t-29.5 -12t-29 12t-12 29v84h-84q-17 0 -29 12t-12 29t12 29.5t29 12.5h84v83q0 17 12 29.5t29 12.5t29.5 -12.5t12.5 -29.5v-83h83zM654 546q13 -13 13 -29v-417q0 -52 -36.5 -88.5
t-88.5 -36.5h-417q-52 0 -88.5 36.5t-36.5 88.5v500q0 52 36.5 88.5t88.5 36.5h333q18 0 30 -12zM566 517l-108 107v-45q0 -25 18.5 -43.5t44.5 -18.5h45zM542 58q17 0 29 12.5t12 29.5v375h-62q-43 0 -73.5 30.5t-30.5 73.5v63h-292q-17 0 -29.5 -12.5t-12.5 -29.5v-500
q0 -17 12.5 -29.5t29.5 -12.5h417z" />
    <glyph glyph-name="glyph65" unicode="&#x2751;" horiz-adv-x="667" 
d="M654 546q13 -13 13 -29v-417q0 -52 -36.5 -88.5t-88.5 -36.5h-417q-52 0 -88.5 36.5t-36.5 88.5v500q0 52 36.5 88.5t88.5 36.5h333q18 0 30 -12zM566 517l-108 107v-45q0 -25 18.5 -43.5t44.5 -18.5h45zM542 58q17 0 29 12.5t12 29.5v375h-62q-43 0 -73.5 30.5
t-30.5 73.5v63h-292q-17 0 -29.5 -12.5t-12.5 -29.5v-500q0 -17 12.5 -29.5t29.5 -12.5h417zM458 267h-250q-17 0 -29 12t-12 29t12 29.5t29 12.5h250q17 0 29.5 -12.5t12.5 -29.5t-12.5 -29t-29.5 -12z" />
    <glyph glyph-name="glyph66" unicode="&#x2752;" horiz-adv-x="667" 
d="M542 -25h-417q-52 0 -88.5 36.5t-36.5 88.5v500q0 52 36.5 88.5t88.5 36.5h417q52 0 88.5 -36.5t36.5 -88.5v-500q0 -52 -36.5 -88.5t-88.5 -36.5zM125 642q-17 0 -29.5 -12.5t-12.5 -29.5v-500q0 -17 12.5 -29.5t29.5 -12.5h417q17 0 29 12.5t12 29.5v500q0 17 -12 29.5
t-29 12.5h-417zM500 392h-333q-21 0 -21 20q0 9 6 15t15 6h333q9 0 15 -6t6 -15q0 -20 -21 -20zM500 517h-333q-9 0 -15 6t-6 15q0 20 21 20h333q21 0 21 -20q0 -9 -6 -15t-15 -6zM500 267h-333q-9 0 -15 6t-6 15q0 20 21 20h333q21 0 21 -20q0 -9 -6 -15t-15 -6zM500 142
h-333q-21 0 -21 20q0 9 6 15t15 6h333q9 0 15 -6t6 -15q0 -20 -21 -20z" />
    <glyph glyph-name="glyph67" unicode="&#x2753;" horiz-adv-x="667" 
d="M654 546q13 -13 13 -29v-417q0 -52 -36.5 -88.5t-88.5 -36.5h-417q-52 0 -88.5 36.5t-36.5 88.5v500q0 52 36.5 88.5t88.5 36.5h333q18 0 30 -12zM566 517l-108 107v-45q0 -25 18.5 -43.5t44.5 -18.5h45zM542 58q17 0 29 12.5t12 29.5v375h-62q-43 0 -73.5 30.5
t-30.5 73.5v63h-292q-17 0 -29.5 -12.5t-12.5 -29.5v-500q0 -17 12.5 -29.5t29.5 -12.5h417z" />
    <glyph glyph-name="glyph68" unicode="&#x2754;" 
d="M749 142h1v-209q0 -17 -12.5 -29t-29.5 -12h-666q-17 0 -29.5 12t-12.5 29v209h1q0 9 1 13l84 250q10 28 39 28h23l-28 29q-37 37 -37 88t37 88q25 25 61 33t69 -3v57q0 52 36.5 88.5t88.5 36.5t88.5 -36.5t36.5 -88.5v-57q33 11 69 3t61 -33q37 -37 37 -88t-37 -88
l-28 -29h23q29 0 39 -28l84 -250q1 -4 1 -13zM179 579q-12 -12 -12 -29.5t12 -29.5l196 -195l196 196q12 12 12 29t-12 29t-29.5 12t-29.5 -12l-95 -95v241q0 17 -12.5 29.5t-29.5 12.5t-29.5 -12.5t-12.5 -29.5v-241l-95 95q-13 13 -30 13q-16 0 -29 -13zM155 350l-69 -208
h578l-69 208h-77l-143 -142l-143 142h-77zM667 -25v125h-584v-125h584z" />
    <glyph glyph-name="glyph69" unicode="&#x2755;" horiz-adv-x="792" 
d="M773 628q19 -19 19 -44t-19 -44l-148 -148v-375q0 -17 -12.5 -29.5t-29.5 -12.5h-541q-17 0 -29.5 12.5t-12.5 29.5v541q0 17 12.5 29.5t29.5 12.5h375l148 148q19 19 44 19t44 -19zM354 239l262 262l-90 90l-262 -262zM247 294l3 -69l71 -3zM542 58v250l-133 -128
q-16 -16 -50.5 -27t-64.5 -11h-127v127q0 33 9 66t25 49l132 133h-250v-459h459zM646 530l54 54l-91 91l-54 -54z" />
    <glyph glyph-name="glyph70" unicode="&#x2756;" horiz-adv-x="706" 
d="M500 494q91 -27 148.5 -101.5t57.5 -172.5q0 -120 -86.5 -203.5t-208.5 -83.5q-98 0 -176.5 59t-106.5 150h-45q-35 0 -59 24t-24 59v417h417q34 0 58.5 -24.5t24.5 -59.5v-64zM167 416l200 -200q12 -12 29 -12q18 0 30 12t12 29.5t-12 29.5l-200 200h135q17 0 29 12.5
t12 29.5t-12 29t-29 12h-278v-277q0 -17 12.5 -29.5t29.5 -12.5t29.5 12.5t12.5 29.5v135zM417 15q86 0 147 60.5t61 146.5t-61 146t-147 60q-30 0 -69 -16l107 -107q25 -25 25 -59t-25 -59t-59 -25t-59 25l-120 120q-9 -25 -9 -83q0 -86 61.5 -147.5t147.5 -61.5z" />
    <glyph glyph-name="glyph71" unicode="&#x2757;" 
d="M625 350h-500q-52 0 -88.5 36.5t-36.5 88.5t36.5 88.5t88.5 36.5h500q52 0 88.5 -36.5t36.5 -88.5t-36.5 -88.5t-88.5 -36.5zM125 517q-17 0 -29.5 -12.5t-12.5 -29.5t12.5 -29.5t29.5 -12.5h500q17 0 29.5 12.5t12.5 29.5t-12.5 29.5t-29.5 12.5h-500zM625 58h-500
q-52 0 -88.5 36.5t-36.5 88.5t36.5 88.5t88.5 36.5h500q52 0 88.5 -36.5t36.5 -88.5t-36.5 -88.5t-88.5 -36.5zM125 225q-17 0 -29.5 -12.5t-12.5 -29.5t12.5 -29t29.5 -12h500q17 0 29.5 12t12.5 29t-12.5 29.5t-29.5 12.5h-500z" />
    <glyph glyph-name="glyph72" unicode="&#x2758;" horiz-adv-x="792" 
d="M780 442q12 -12 12 -29.5t-12 -29.5q-53 -53 -113 -114v-252q0 -17 -12.5 -29.5t-29.5 -12.5h-583q-17 0 -29.5 12.5t-12.5 29.5v583q0 17 12.5 29.5t29.5 12.5h333q0 34 26 58.5t63 24.5t66 -27q96 -102 250 -256zM464 642q-4 0 -6 -2v-165h-41q-38 0 -69 -13t-52 -33
t-37 -48.5t-25 -55.5t-15 -57q90 81 197 82h42v-165q2 -2 6 -2q3 0 6 3q100 105 221 226q-141 143 -220 228q-3 2 -7 2zM83 58h500v185q-49 -49 -82 -85q-14 -16 -37 -16q-20 0 -33.5 12t-13.5 29v125q-143 -3 -250 -166v20q0 48 7 95t25.5 95t45.5 84t71.5 58.5t100.5 22.5
v41h-334v-500z" />
    <glyph glyph-name="glyph73" unicode="&#x2759;" 
d="M375 475q-78 0 -137 -42q-62 -44 -132 -125q68 -79 132 -124q59 -42 137 -42t137 42q64 45 132 124q-70 81 -132 125q-59 42 -137 42zM375 558q106 0 185 -57q48 -34 95.5 -82.5t70.5 -79.5l24 -31q-9 -13 -25.5 -34.5t-66.5 -73t-98 -85.5q-79 -57 -185 -57
q-107 0 -186 57q-48 34 -95.5 82.5t-70.5 79.5l-23 31q9 13 25.5 34.5t66 73t97.5 85.5q79 57 186 57zM375 350q17 0 29.5 -12.5t12.5 -29.5t-12.5 -29t-29.5 -12t-29.5 12t-12.5 29t12.5 29.5t29.5 12.5zM375 183q-52 0 -88.5 36.5t-36.5 88.5t36.5 88.5t88.5 36.5
t88.5 -36.5t36.5 -88.5t-36.5 -88.5t-88.5 -36.5zM375 392q-34 0 -58.5 -24.5t-24.5 -59.5q0 -34 24 -58.5t59 -24.5t59 24.5t24 58.5q0 35 -24.5 59.5t-58.5 24.5z" />
    <glyph glyph-name="glyph74" unicode="&#x275a;" horiz-adv-x="708" 
d="M708 392q0 -144 -87 -257.5t-225 -150.5v-51q0 -17 -12.5 -29t-29.5 -12t-29.5 12t-12.5 29v51q-138 37 -225 150.5t-87 257.5q0 153 98 270.5t249 145.5l7 1l8 -1q151 -28 248.5 -145.5t97.5 -270.5zM396 71q100 35 163 120t66 192l-131 -131q-6 -6 -15 -6q-13 0 -19 12
t4 23l157 157q-9 61 -36 113l-91 -91q-6 -6 -15 -6q-13 0 -19 13t4 23l98 98q-77 109 -208 136q-131 -27 -208 -136l98 -98q10 -10 4 -23t-19 -13q-9 0 -15 6l-91 91q-27 -52 -36 -113l157 -157q10 -11 4 -23t-19 -12q-9 0 -15 6l-130 131q3 -107 65.5 -192t162.5 -120v487
q0 17 12.5 29.5t29.5 12.5t29.5 -12.5t12.5 -29.5v-487z" />
    <glyph glyph-name="glyph75" unicode="&#x275b;" horiz-adv-x="667" 
d="M542 767q52 0 88.5 -36.5t36.5 -88.5v-542q0 -52 -36.5 -88.5t-88.5 -36.5h-125v83h-167v-83h-125q-52 0 -88.5 36.5t-36.5 88.5v542q0 52 36.5 88.5t88.5 36.5h125v-84h167v84h125zM583 100v42q-17 0 -29 12t-12 29t12 29.5t29 12.5v42q-17 0 -29 12t-12 29t12 29.5
t29 12.5v42q-17 0 -29 12t-12 29t12 29.5t29 12.5v42q-17 0 -29 12t-12 29t12 29.5t29 12.5v42q0 17 -12 29t-29 12h-42v-83h-333v83h-42q-17 0 -29.5 -12t-12.5 -29v-42q17 0 29.5 -12.5t12.5 -29.5t-12.5 -29t-29.5 -12v-42q17 0 29.5 -12.5t12.5 -29.5t-12.5 -29
t-29.5 -12v-42q17 0 29.5 -12.5t12.5 -29.5t-12.5 -29t-29.5 -12v-42q17 0 29.5 -12.5t12.5 -29.5t-12.5 -29t-29.5 -12v-42q0 -17 12.5 -29.5t29.5 -12.5h42v84h333v-84h42q17 0 29 12.5t12 29.5zM167 517h333v-292h-333v292zM458 267v208h-250v-208h250z" />
    <glyph glyph-name="glyph76" unicode="&#x275c;" horiz-adv-x="583" 
d="M512 661q20 20 45.5 8.5t25.5 -37.5v-334q0 -17 -12 -29q-64 -64 -154.5 -64t-154.5 64q-37 37 -88 40t-91 -29v-190q0 -17 -12 -29.5t-29 -12.5t-29.5 12.5t-12.5 29.5v542q0 17 12 29q64 64 154.5 64t154.5 -64q40 -40 95.5 -40t95.5 40zM262 602q-37 37 -88 40
t-91 -29v-95q54 26 116.5 16t106.5 -54q39 -39 94 -45t100 23v97q-58 -25 -124.5 -12.5t-113.5 59.5zM321 328q37 -37 88 -40t91 29v95q-43 -20 -83 -20q-80 0 -140 58q-39 39 -94 44.5t-100 -23.5v-96q42 17 84 17q90 0 154 -64z" />
    <glyph glyph-name="glyph77" unicode="&#x275d;" horiz-adv-x="583" 
d="M396 642zM396 642l-313 -296l209 -121l-104 -250l312 296l-208 121zM396 725q34 0 58.5 -24.5t24.5 -58.5q0 -18 -8 -36l-74 -179l145 -84q35 -20 40.5 -61.5t-25.5 -71.5l-312 -296q-23 -22 -57 -22q-45 0 -69.5 37.5t-7.5 77.5l76 183l-145 84q-35 20 -41 60.5t25 71.5
l312 296q25 23 56 23h2z" />
    <glyph glyph-name="glyph78" unicode="&#x275e;" 
d="M625 600q52 0 88.5 -36.5t36.5 -88.5v-333q0 -52 -36.5 -88.5t-88.5 -36.5h-500q-52 0 -88.5 36.5t-36.5 88.5v416q0 52 36.5 88.5t88.5 36.5h167q34 0 58.5 -24.5t24.5 -58.5h250zM625 100q17 0 29.5 12.5t12.5 29.5v291h-167q-9 0 -15 6t-6 15t6 15t15 6h167
q0 17 -12.5 29.5t-29.5 12.5h-250q-35 0 -59 24.5t-24 58.5h-167q-17 0 -29.5 -12.5t-12.5 -29.5v-83h167q9 0 15 -6t6 -15t-6 -15t-15 -6h-167v-291q0 -17 12.5 -29.5t29.5 -12.5h500zM500 350q17 0 29.5 -12.5t12.5 -29.5t-12.5 -29t-29.5 -12h-83v-84q0 -17 -12.5 -29
t-29.5 -12t-29.5 12t-12.5 29v84h-83q-17 0 -29.5 12t-12.5 29t12.5 29.5t29.5 12.5h83v83q0 17 12.5 29.5t29.5 12.5t29.5 -12.5t12.5 -29.5v-83h83z" />
    <glyph glyph-name="glyph79" unicode="&#x275f;" 
d="M625 600q52 0 88.5 -36.5t36.5 -88.5v-333q0 -52 -36.5 -88.5t-88.5 -36.5h-500q-52 0 -88.5 36.5t-36.5 88.5v416q0 52 36.5 88.5t88.5 36.5h167q34 0 58.5 -24.5t24.5 -58.5h250zM125 600q-17 0 -29.5 -12.5t-12.5 -29.5v-83h584q0 17 -12.5 29.5t-29.5 12.5h-250
q-35 0 -59 24.5t-24 58.5h-167zM625 100q17 0 29.5 12.5t12.5 29.5v291h-584v-291q0 -17 12.5 -29.5t29.5 -12.5h500zM500 267h-250q-17 0 -29.5 12t-12.5 29t12.5 29.5t29.5 12.5h250q17 0 29.5 -12.5t12.5 -29.5t-12.5 -29t-29.5 -12z" />
    <glyph glyph-name="glyph80" unicode="&#x2760;" 
d="M625 600q52 0 88.5 -36.5t36.5 -88.5v-333q0 -52 -36.5 -88.5t-88.5 -36.5h-500q-52 0 -88.5 36.5t-36.5 88.5v416q0 52 36.5 88.5t88.5 36.5h167q34 0 58.5 -24.5t24.5 -58.5h250zM125 600q-17 0 -29.5 -12.5t-12.5 -29.5v-83h584q0 17 -12.5 29.5t-29.5 12.5h-250
q-35 0 -59 24.5t-24 58.5h-167zM625 100q17 0 29.5 12.5t12.5 29.5v291h-584v-291q0 -17 12.5 -29.5t29.5 -12.5h500z" />
    <glyph glyph-name="glyph81" unicode="&#x2761;" 
d="M708 517q17 0 29.5 -12.5t12.5 -29.5v-167q0 -17 -12.5 -29t-29.5 -12v-209q0 -52 -36.5 -88.5t-88.5 -36.5h-416q-52 0 -88.5 36.5t-36.5 88.5v209q-17 0 -29.5 12t-12.5 29v167q0 17 12.5 29.5t29.5 12.5h98q-15 32 -15 62q0 60 43 103t103 43q62 0 104 -44
q42 44 104 44q60 0 103 -43t43 -103q0 -30 -15 -62h98zM292 17v291h-167v-250q0 -17 12.5 -29t29.5 -12h125zM292 350v83h-209v-83h209zM292 558q0 16 11 27.5t27 13.5q-6 19 -22.5 31t-36.5 12q-25 0 -44 -19t-19 -44t18.5 -43.5t44.5 -18.5q11 0 21 3v38zM417 17v291h-84
v-291h84zM417 350v83h-84v-83h84zM417 517v41h-84v-41h84zM420 599q16 -2 27 -13.5t11 -27.5v-38q10 -3 21 -3q26 0 44.5 18.5t18.5 43.5t-19 44t-44 19q-20 0 -36.5 -12t-22.5 -31zM625 58v250h-167v-291h125q17 0 29.5 12t12.5 29zM667 350v83h-209v-83h209z" />
    <glyph glyph-name="glyph82" unicode="&#x2762;" horiz-adv-x="652" 
d="M277 600q-69 0 -117.5 -49t-48.5 -118t48.5 -117.5t117.5 -48.5t118 48.5t49 117.5t-49 118t-118 49zM277 683q103 0 176.5 -73.5t73.5 -176.5t-73.5 -176.5t-176.5 -73.5t-176.5 73.5t-73.5 176.5t73.5 176.5t176.5 73.5zM527 17q17 0 29.5 -12.5t12.5 -29.5
t-12.5 -29.5t-29.5 -12.5h-416q-17 0 -29.5 12.5t-12.5 29.5t12.5 29.5t29.5 12.5h166v41q-155 0 -265 110q-12 12 -12 29.5t12 29.5t29.5 12t29.5 -12q85 -85 206 -85q122 0 207 85t85 206q0 122 -85 207l-30 29l86 85q12 12 29.5 12t29.5 -12t11.5 -29t-12.5 -29l-28 -29
q82 -102 82 -234q0 -155 -110 -265q-77 -77 -181 -100v-51h166z" />
    <glyph glyph-name="glyph83" unicode="&#x2763;" horiz-adv-x="958" 
d="M479 267q-86 0 -147 61t-61 147t61 147t147 61t147.5 -61t61.5 -147t-61.5 -147t-147.5 -61zM479 600q-52 0 -88.5 -36.5t-36.5 -88.5t36.5 -88.5t88.5 -36.5t88.5 36.5t36.5 88.5t-36.5 88.5t-88.5 36.5zM812 225q-44 0 -74 30.5t-30 73.5t30 73.5t74 30.5t74.5 -30.5
t30.5 -73.5t-30.5 -73.5t-74.5 -30.5zM812 392q-25 0 -43.5 -18.5t-18.5 -44.5q0 -25 18 -43.5t44 -18.5t44.5 18.5t18.5 43.5t-18.5 44t-44.5 19zM812 200q64 0 105 -27t41 -63q0 -18 -42 -32t-104 -14q-34 0 -66 5q0 -2 0.5 -5.5t0.5 -5.5q0 -33 -77 -58t-191 -25
q-120 0 -193.5 25t-73.5 58q0 2 0.5 6t0.5 6q-40 -6 -67 -6q-65 0 -105.5 14t-40.5 32q0 36 40 63t106 27q79 0 121 -40q79 65 212 65t212 -65q42 40 121 40zM146 106q48 0 82 9q4 6 10 14q-30 30 -92 30q-78 0 -101 -39q33 -14 101 -14zM479 58q103 0 173 24
q-20 24 -65.5 42t-107.5 18q-65 0 -110 -18t-64 -42q67 -24 174 -24zM812 106q67 0 101 15q-10 15 -36.5 26.5t-64.5 11.5q-61 0 -92 -29q4 -5 10 -15q32 -9 82 -9zM146 225q-44 0 -74 30.5t-30 73.5t30.5 73.5t73.5 30.5t73.5 -30.5t30.5 -73.5t-30 -73.5t-74 -30.5z
M146 392q-26 0 -44.5 -19t-18.5 -44t18.5 -43.5t44.5 -18.5t44 18.5t18 43.5q0 26 -18.5 44.5t-43.5 18.5z" />
    <glyph glyph-name="glyph84" unicode="&#x2764;" 
d="M750 308v-212q0 -60 -43 -103t-103 -43t-103 43t-43 103v83q0 41 19 76t50 53q-5 60 -48.5 101t-103.5 41t-103.5 -41t-48.5 -101q31 -18 50 -53t19 -76v-83q0 -60 -43 -103t-103 -43t-103 43t-43 103v212q0 155 110 265t265 110t265 -110t110 -265zM666 325
q-6 113 -86 191l-45 -45q63 -59 74 -146h57zM170 516q-80 -78 -86 -191h57q11 87 74 146zM208 96v83q0 27 -12.5 45t-28.5 18h-79q-5 -35 -5 -63v-83q0 -26 18.5 -44.5t44.5 -18.5q25 0 43.5 18.5t18.5 44.5zM667 96v83q0 28 -5 63h-79q-16 0 -28.5 -18t-12.5 -45v-83
q0 -26 18.5 -44.5t43.5 -18.5q26 0 44.5 18.5t18.5 44.5z" />
    <glyph glyph-name="glyph85" unicode="&#x2765;" horiz-adv-x="812" 
d="M406 -25q-13 0 -23 7q-21 14 -67.5 46.5t-123.5 90t-107 87.5q-85 85 -85 212q0 93 65.5 158.5t158.5 65.5q114 0 182 -94q31 44 79.5 69t103.5 25q93 0 158 -65.5t65 -158.5q0 -127 -85 -212q-30 -30 -106 -87.5t-124 -90.5t-67 -46q-10 -7 -24 -7zM224 558
q-59 0 -100 -41t-41 -99q0 -92 61 -153q63 -63 262 -198q199 135 262 198q61 61 61 153q0 58 -40.5 99t-99.5 41t-100 -41t-41 -99q0 -17 -12.5 -29.5t-29.5 -12.5t-29 12.5t-12 29.5q0 58 -41 99t-100 41z" />
    <glyph glyph-name="glyph86" unicode="&#x2766;" horiz-adv-x="917" 
d="M886 414q31 -24 31 -64q0 -34 -24.5 -58.5t-59.5 -24.5h-41v-250q0 -35 -25 -59.5t-59 -24.5h-500q-34 0 -58.5 24.5t-24.5 59.5v250h-42q-35 0 -59 24.5t-24 58.5q0 37 29 63q63 53 163 139t169 145t70 60l27 23l28 -23q1 -1 69.5 -60t168.5 -145t162 -138zM542 17v208
h-167v-208h167zM708 350h125q-64 53 -375 320q-311 -267 -375 -320h125v-333h125v250h250v-250h125v333z" />
    <glyph glyph-name="glyph87" unicode="&#x2767;" horiz-adv-x="833" 
d="M271 475q-26 0 -44.5 -18.5t-18.5 -43.5t19 -44t44 -19t43.5 18.5t18.5 44.5q0 25 -18.5 43.5t-43.5 18.5zM271 517q43 0 73.5 -30.5t30.5 -73.5q0 -44 -30.5 -74.5t-73.5 -30.5t-73.5 30.5t-30.5 74.5q0 43 30.5 73.5t73.5 30.5zM396 183q-39 0 -75 21t-71 21
q-32 0 -67 -83h475q-15 67 -37.5 115.5t-37.5 50.5q-28 0 -77 -55q-21 -23 -32.5 -34.5t-33.5 -23.5t-44 -12zM583 350q37 0 68 -62.5t44 -125.5l13 -62h-583q2 7 5 18t15 40t25 51t35 40t45 18q44 0 81 -21t65 -21q20 0 43.5 19.5t42 43t46 43t55.5 19.5zM833 558v-500
q0 -34 -24.5 -58.5t-58.5 -24.5h-667q-35 0 -59 24.5t-24 58.5v500q0 35 24.5 59.5t58.5 24.5h667q34 0 58.5 -24.5t24.5 -59.5zM750 58v500h-667v-500h667z" />
    <glyph glyph-name="glyph88" unicode="&#x2768;" horiz-adv-x="896" 
d="M812 312q0 74 -53 127t-126 53q-75 0 -127 -52l-58 -56l-57 55q-53 53 -128 53q-73 0 -126.5 -53t-53.5 -127t53.5 -127t126.5 -53q75 0 127 52l58 56l57 -55q53 -53 127 -53t127 53t53 127zM633 575q109 0 186 -77t77 -186t-77 -186q-78 -78 -186 -78q-109 0 -185 76
q-76 -76 -185 -76q-108 0 -186 78q-77 77 -77 186t77 186t186 77q110 0 185 -75q75 75 185 75zM229 312q0 -14 10 -24t24 -10t24 10l26 24l-24 23q-11 11 -26 11q-14 0 -24 -10t-10 -24zM187 312q0 31 22.5 53.5t53.5 22.5q32 0 55 -23l55 -53l-56 -54q-21 -21 -54 -21
q-31 0 -53.5 22t-22.5 53zM667 312q0 14 -9.5 23.5t-24.5 9.5q-16 0 -25 -9l-25 -24l24 -23q11 -11 26 -11q14 0 24 10t10 24zM708 312q0 -31 -22 -53t-53 -22q-33 0 -55 22l-55 53l56 53q22 22 54 22q31 0 53 -22t22 -53z" />
    <glyph glyph-name="glyph89" unicode="&#x2769;" horiz-adv-x="458" 
d="M343 183q40 -5 62 -41q15 -25 10 -55t-27 -49q-74 -63 -172 -63q-128 0 -176 98q-42 87 10 190l24 46q-41 5 -63 41q-15 25 -10 55t27 49q51 43 123 57q-26 42 -26 89q0 69 49 118t118 49t117.5 -49t48.5 -118q0 -50 -27.5 -91.5t-72.5 -61.5q32 -42 35 -98.5t-27 -119.5
zM292 683q-35 0 -59.5 -24.5t-24.5 -58.5t24.5 -58.5t59.5 -24.5q34 0 58.5 24.5t24.5 58.5t-24.5 58.5t-58.5 24.5zM216 58q31 0 60.5 10.5t43.5 21.5l13 10q-26 -9 -50 -9q-37 0 -45 26.5t12 65.5l42 83q35 73 8 120t-99 47q-31 0 -60.5 -10.5t-43.5 -20.5l-14 -10
q26 9 50 9q18 0 29 -7q35 -25 5 -85l-42 -83q-35 -73 -8 -120.5t99 -47.5z" />
    <glyph glyph-name="glyph90" unicode="&#x276a;" horiz-adv-x="819" 
d="M410 579q-38 0 -65 -45l-246 -410q-26 -44 -8.5 -75.5t69.5 -31.5h500q52 0 69 31.5t-9 75.5l-246 410q-28 45 -64 45zM410 662q85 0 135 -85l247 -410q52 -86 9 -160q-41 -74 -141 -74h-500q-101 0 -142 74q-43 74 9 160l247 410q50 85 136 85zM472 110q-4 -4 -10.5 -10
t-28.5 -15.5t-45 -8.5q-31 2 -44 27t-1 62l17 51q12 36 -10 48q-8 3 -18 1.5t-18 -5.5l-9 -4l10.5 10.5t28.5 16t45 8.5q31 -2 44.5 -27t1.5 -62l-17 -51q-12 -37 9 -48q8 -3 18 -1.5t19 4.5zM355 392q0 54 55 54q54 0 54 -54q0 -55 -54 -55q-55 0 -55 55z" />
    <glyph glyph-name="glyph91" unicode="&#x276b;" horiz-adv-x="625" 
d="M500 683q69 0 107 -60t2 -125l-26 -46v-269q0 -52 -36.5 -88.5t-88.5 -36.5h-333q-52 0 -88.5 36.5t-36.5 88.5v334q0 52 36.5 88.5t88.5 36.5h283q36 41 92 41zM464 579l-141 -243l-85 85q-12 12 -30 12q-17 0 -29 -12t-12 -29.5t12 -29.5l125 -125q12 -12 29 -12
q25 0 37 21l167 292l1 1v2q12 25 -7 46t-47 9h-1q-14 -7 -19 -17zM458 142q17 0 29.5 12t12.5 29v207l-94 -164q-24 -43 -73 -43q-34 0 -59 25l-125 125q-25 25 -25 59t25 59q24 24 59 24t59 -24l47 -47l90 154h-279q-17 0 -29.5 -12t-12.5 -29v-334q0 -17 12.5 -29
t29.5 -12h333z" />
    <glyph glyph-name="glyph92" unicode="&#x276c;" horiz-adv-x="646" 
d="M250 -25h-250v184l158 158q-12 36 -12 75q0 104 73 177t177 73t177 -73t73 -177t-73 -177t-177 -73h-63v-84h-83v-83zM83 58h84v84h83v83h146q69 0 117.5 49t48.5 118t-48.5 117.5t-117.5 48.5t-118 -48.5t-49 -117.5q0 -36 15 -69l12 -26l-173 -173v-66zM396 433
q-17 0 -29.5 -12t-12.5 -29t12.5 -29.5t29.5 -12.5t29.5 12.5t12.5 29.5t-12.5 29t-29.5 12zM396 475q34 0 58.5 -24.5t24.5 -58.5q0 -35 -24.5 -59.5t-58.5 -24.5t-59 25t-25 59t24.5 58.5t59.5 24.5z" />
    <glyph glyph-name="glyph93" unicode="&#x276d;" horiz-adv-x="708" 
d="M708 392q0 -144 -87 -257.5t-225 -150.5v-51q0 -17 -12.5 -29t-29.5 -12t-29.5 12t-12.5 29v51q-138 37 -225 150.5t-87 257.5q0 153 98 270.5t249 145.5l7 1l8 -1q151 -28 248.5 -145.5t97.5 -270.5zM396 71q102 35 165.5 123t63.5 198q0 121 -76.5 214.5t-194.5 117.5
q-118 -24 -194.5 -117.5t-76.5 -214.5q0 -109 64 -197.5t166 -123.5v125l-182 181q-9 9 -5 20t14.5 14t20.5 -5l152 -152v150l-99 98q-9 9 -5 20t14.5 14t20.5 -5l68 -68v137q0 17 12.5 29.5t29.5 12.5t29.5 -12.5t12.5 -29.5v-137l68 68q9 9 20.5 5t14.5 -14t-5 -20
l-98 -98v-150l152 152q14 14 28.5 -0.5t0.5 -28.5l-181 -181v-125z" />
    <glyph glyph-name="glyph94" unicode="&#x276e;" horiz-adv-x="625" 
d="M312 621q51 0 87.5 -36.5t36.5 -87.5q0 -9 -6 -15t-15 -6t-15 6t-6 15q0 34 -24 58t-58 24q-20 0 -20 21t20 21zM312 -67q-17 0 -29 12.5t-12 29.5h-83q-17 0 -29.5 12.5t-12.5 29.5v125q0 25 -18 61t-72 114q-56 77 -56 179q0 129 91.5 220.5t220.5 91.5t221 -91.5
t92 -220.5q0 -97 -57 -179q-54 -77 -71.5 -112.5t-17.5 -62.5v-125q0 -17 -12 -29.5t-29 -12.5h-84q0 -17 -12.5 -29.5t-29.5 -12.5zM396 58v42h-167v-42h167zM500 364q42 61 42 132q0 94 -67.5 161.5t-162.5 67.5q-94 0 -161.5 -67.5t-67.5 -161.5q0 -70 42 -131
q85 -124 99 -182h47v84q0 17 12 29t29 12t29.5 -12t12.5 -29v-84h46q13 57 100 181z" />
    <glyph glyph-name="glyph95" unicode="&#x276f;" horiz-adv-x="758" 
d="M629 600q-19 0 -32 -13l-72 -72l-13 13q-36 36 -91 36t-91 -36l-174 -174q-38 -38 -38 -91q0 -54 38 -92l12 -13l-71 -71q-13 -13 -13 -32t13 -33q14 -14 32 -14q19 0 33 14l71 72l13 -13q38 -38 92 -38q53 0 91 38l174 174q37 37 37 91t-37 91l-13 13l72 72q14 14 14 33
t-14 32q-13 13 -33 13zM129 -75q-53 0 -91 38.5t-38 90.5q0 54 38 92l20 20q-23 46 -23 97q0 88 62 150l174 174q61 61 150 61q52 0 96 -23l21 21q37 37 91 37q53 0 91 -38.5t38 -90.5q0 -53 -38 -91l-20 -20q24 -48 24 -97q0 -88 -62 -150l-174 -174q-62 -62 -150 -62
q-52 0 -98 23l-20 -20q-38 -38 -91 -38zM460 300q-34 1 -59 26t-26 59l-76 -77q34 -1 58.5 -25.5t25.5 -58.5zM421 474q15 0 26 -11l13 -13l-30 -30q-14 -14 -14 -33t14 -32q13 -13 32 -13q20 0 33 13l30 30l13 -13q11 -11 11 -26q0 -16 -11 -27l-174 -173q-11 -11 -26 -11
q-16 0 -27 11l-13 12l30 30q14 14 14 33t-14 32q-14 14 -32 14q-19 0 -33 -14l-30 -30l-13 13q-10 10 -10 27q0 16 10 26l174 174q11 11 27 11z" />
    <glyph glyph-name="glyph96" unicode="&#x2770;" horiz-adv-x="636" 
d="M333 -21q-48 0 -69 62l-51 151l-151 50q-59 19 -62 67q-3 45 54 72l474 222q33 15 58.5 10t39.5 -26q20 -33 -2 -80l-221 -474q-25 -54 -70 -54zM109 315l170 -57l57 -171l199 427z" />
    <glyph glyph-name="glyph97" unicode="&#x2771;" horiz-adv-x="583" 
d="M238 142q0 54 54 54t54 -54t-54 -54t-54 54zM292 683q68 0 117 -49t49 -117v-84h42q34 0 58.5 -24.5t24.5 -58.5v-292q0 -34 -24.5 -58.5t-58.5 -24.5h-417q-35 0 -59 24.5t-24 58.5v292q0 34 24 58.5t59 24.5h42v84q0 48 23.5 85.5t59.5 58.5q38 22 84 22zM292 600
q-35 0 -59.5 -24.5t-24.5 -58.5v-125h167v125q0 35 -24.5 59t-58.5 24zM500 58v292h-417v-292h417z" />
    <glyph glyph-name="glyph98" unicode="&#x2772;" horiz-adv-x="708" 
d="M238 142q0 54 54 54t54 -54t-54 -54t-54 54zM0 350q0 34 24 58.5t59 24.5h125v-41h167v125q0 83 68 134q43 32 99 32q68 0 117 -49t49 -117v-125q0 -17 -12 -29.5t-29 -12.5t-29.5 12.5t-12.5 29.5v125q0 35 -24.5 59t-58.5 24q-35 0 -59.5 -24.5t-24.5 -58.5v-84h42
q34 0 58.5 -24.5t24.5 -58.5v-292q0 -34 -24.5 -58.5t-58.5 -24.5h-417q-35 0 -59 24.5t-24 58.5v292zM500 58v292h-417v-292h417z" />
    <glyph glyph-name="glyph99" unicode="&#x2773;" 
d="M667 558q35 0 59 -24t24 -59v-375q0 -34 -24 -58.5t-59 -24.5h-584q-35 0 -59 24.5t-24 58.5v375q0 35 24 59t59 24h584zM330 195l-65 57l-152 -152h524l-152 152l-65 -57q-19 -16 -45 -16t-45 16zM83 129l150 151l-150 131v-282zM517 280l150 -150v281zM667 475h-584v-9
l274 -240q7 -6 18 -6t18 6l274 240v9z" />
    <glyph glyph-name="glyph100" unicode="&#x2774;" horiz-adv-x="667" 
d="M333 642q-103 0 -177 -72q-73 -71 -73 -173q0 -101 73 -172l177 -175l178 175q72 70 72 172q0 103 -72 173q-74 72 -178 72zM333 725q139 0 236 -96t97 -232t-97 -232l-236 -232l-235 232q-98 96 -98 232t98 232t235 96zM333 496q-42 0 -73 -31t-31 -73.5t31 -73.5
q30 -30 73 -30q44 0 74 30q31 31 31 73.5t-31 73.5t-74 31zM333 538q60 0 103 -43t43 -103t-43 -103t-103 -43t-103 43t-43 103t43 103t103 43z" />
    <glyph glyph-name="glyph101" unicode="&#x2775;" horiz-adv-x="667" 
d="M42 17q-18 0 -30 12.5t-12 28.5v417q0 17 12 29l188 188q11 11 26.5 12t28.5 -9l179 -143l162 161q20 20 45.5 8t25.5 -38v-416q0 -17 -13 -30l-187 -187q-11 -11 -27 -12t-29 9l-179 143l-161 -161q-12 -12 -29 -12zM83 159q122 120 125 122v302l-125 -125v-299z
M255 278l162 -129v311l-167 132v-311q1 -1 2.5 -2t2.5 -1zM583 284v299q-122 -121 -125 -123v-301z" />
    <glyph glyph-name="glyph102" unicode="&#x2776;" horiz-adv-x="583" 
d="M458 -25h-333q-52 0 -88.5 36.5t-36.5 88.5t36.5 88.5t88.5 36.5h333q52 0 88.5 -36.5t36.5 -88.5t-36.5 -88.5t-88.5 -36.5zM125 142q-17 0 -29.5 -12.5t-12.5 -29.5t12.5 -29.5t29.5 -12.5h333q17 0 29.5 12.5t12.5 29.5t-12.5 29.5t-29.5 12.5h-333zM292 564
l-205 -211l-2 -2t-2 -1h417l-1 1l-1 1zM292 683q161 -165 268 -275q23 -23 23 -58q0 -34 -24.5 -58.5t-58.5 -24.5h-417q-35 0 -59 24.5t-24 58.5t24 58z" />
    <glyph glyph-name="glyph103" unicode="&#x2777;" 
d="M458 488v-335l173 168zM450 583q29 0 52 -21l248 -241q-149 -145 -248 -241q-22 -22 -52 -22q-31 0 -53 22t-22 53v375q0 31 22 53t53 22zM83 488v-335l173 168zM75 583q29 0 52 -21l248 -241q-149 -145 -248 -241q-22 -22 -52 -22q-31 0 -53 22t-22 53v375q0 31 22 53
t53 22z" />
    <glyph glyph-name="glyph104" unicode="&#x2778;" horiz-adv-x="417" 
d="M83 558v-416q1 0 1 0.5t1 0.5l212 207l-210 205l-2 2t-2 1zM83 642q34 0 58 -24h1l275 -268q-165 -161 -275 -268h-1q-24 -24 -58 -24t-58.5 24.5t-24.5 59.5v416q0 35 24.5 59.5t58.5 24.5z" />
    <glyph glyph-name="glyph105" unicode="&#x2779;" horiz-adv-x="500" 
d="M250 517q-69 0 -118 -49t-49 -118t49 -118t118 -49t118 49t49 118t-49 118t-118 49zM250 600q104 0 177 -73t73 -177t-73 -177t-177 -73t-177 73t-73 177t73 177t177 73z" />
    <glyph glyph-name="glyph106" unicode="&#x277a;" 
d="M292 488l-173 -167l173 -168v335zM300 583q31 0 53 -22t22 -53v-375q0 -31 -22 -53t-53 -22q-30 0 -52 22l-248 241q149 145 248 241q21 21 52 21zM667 488l-173 -167l173 -168v335zM675 583q31 0 53 -22t22 -53v-375q0 -31 -22 -53t-53 -22q-30 0 -52 22l-248 241
q149 145 248 241q21 21 52 21z" />
    <glyph glyph-name="glyph107" unicode="&#x277b;" horiz-adv-x="500" 
d="M417 517h-334v-334h334v334zM417 600q35 0 59 -24t24 -59v-334q0 -35 -24 -59t-59 -24h-334q-35 0 -59 24t-24 59v334q0 35 24 59t59 24h334z" />
    <glyph glyph-name="glyph108" unicode="&#x277c;" horiz-adv-x="833" 
d="M708 100h-583q-17 0 -29.5 -12.5t-12.5 -29.5t12.5 -29t29.5 -12h583q17 0 29.5 12t12.5 29t-12.5 29.5t-29.5 12.5zM708 183q52 0 88.5 -36.5t36.5 -88.5t-36.5 -88.5t-88.5 -36.5h-583q-52 0 -88.5 36.5t-36.5 88.5t36.5 88.5t88.5 36.5h583zM708 392h-583
q-17 0 -29.5 -12.5t-12.5 -29.5t12.5 -29.5t29.5 -12.5h583q17 0 29.5 12.5t12.5 29.5t-12.5 29.5t-29.5 12.5zM708 475q52 0 88.5 -36.5t36.5 -88.5t-36.5 -88.5t-88.5 -36.5h-583q-52 0 -88.5 36.5t-36.5 88.5t36.5 88.5t88.5 36.5h583zM708 683h-583q-17 0 -29.5 -12
t-12.5 -29t12.5 -29.5t29.5 -12.5h583q17 0 29.5 12.5t12.5 29.5t-12.5 29t-29.5 12zM708 767q52 0 88.5 -36.5t36.5 -88.5t-36.5 -88.5t-88.5 -36.5h-583q-52 0 -88.5 36.5t-36.5 88.5t36.5 88.5t88.5 36.5h583z" />
    <glyph glyph-name="glyph109" unicode="&#x277d;" 
d="M625 558h-500q-17 0 -29.5 -12t-12.5 -29v-292q0 -17 12.5 -29.5t29.5 -12.5h125v-7l7 7h368q17 0 29.5 12.5t12.5 29.5v292q0 17 -12.5 29t-29.5 12zM625 642q52 0 88.5 -36.5t36.5 -88.5v-292q0 -52 -36.5 -88.5t-88.5 -36.5h-333l-125 -125v125h-42q-52 0 -88.5 36.5
t-36.5 88.5v292q0 52 36.5 88.5t88.5 36.5h500z" />
    <glyph glyph-name="glyph110" unicode="&#x277e;" horiz-adv-x="1000" 
d="M875 558q52 0 88.5 -36.5t36.5 -88.5v-291q0 -52 -36.5 -88.5t-88.5 -36.5h-42v-125l-125 125h-333q-52 0 -88.5 36.5t-36.5 88.5l-125 -125v125q-52 0 -88.5 36.5t-36.5 88.5v291q0 52 36.5 88.5t88.5 36.5h500q52 0 88.5 -36.5t36.5 -88.5h125zM125 225h167v187
q0 43 30.5 74t73.5 31h271v41q0 17 -12.5 29.5t-29.5 12.5h-500q-17 0 -29.5 -12.5t-12.5 -29.5v-291q0 -17 12.5 -29.5t29.5 -12.5zM917 142v291q0 17 -12.5 29.5t-29.5 12.5h-479q-26 0 -44.5 -18.5t-18.5 -44.5v-270q0 -17 12.5 -29.5t29.5 -12.5h500q17 0 29.5 12.5
t12.5 29.5z" />
    <glyph glyph-name="glyph111" unicode="&#x277f;" horiz-adv-x="583" 
d="M292 183q-69 0 -118 49t-49 118v250q0 69 49 118t118 49t117.5 -49t48.5 -118v-250q0 -69 -48.5 -118t-117.5 -49zM292 683q-35 0 -59.5 -24.5t-24.5 -58.5v-250q0 -34 24.5 -58.5t59.5 -24.5q34 0 58.5 24.5t24.5 58.5v250q0 34 -24.5 58.5t-58.5 24.5zM583 350
q0 -109 -71.5 -191t-178.5 -97v-45h125q17 0 29.5 -12.5t12.5 -29.5t-12.5 -29.5t-29.5 -12.5h-333q-17 0 -29.5 12.5t-12.5 29.5t12.5 29.5t29.5 12.5h125v45q-107 15 -178.5 97t-71.5 191v83q0 17 12.5 29.5t29.5 12.5t29 -12.5t12 -29.5v-83q0 -86 61.5 -147t147.5 -61
t147 61t61 147v83q0 17 12.5 29.5t29.5 12.5t29 -12.5t12 -29.5v-83z" />
    <glyph glyph-name="glyph112" unicode="&#x2780;" 
d="M625 183h-500q-52 0 -88.5 36.5t-36.5 88.5t36.5 88.5t88.5 36.5h500q52 0 88.5 -36.5t36.5 -88.5t-36.5 -88.5t-88.5 -36.5zM125 350q-17 0 -29.5 -12.5t-12.5 -29.5t12.5 -29t29.5 -12h500q17 0 29.5 12t12.5 29t-12.5 29.5t-29.5 12.5h-500z" />
    <glyph glyph-name="glyph113" unicode="&#x2781;" horiz-adv-x="875" 
d="M792 642q34 0 58.5 -24.5t24.5 -59.5v-458q0 -34 -24.5 -58.5t-58.5 -24.5h-709q-35 0 -59 24.5t-24 58.5v458q0 35 24.5 59.5t58.5 24.5h709zM83 558v-458h334v458h-334zM792 100v458h-334v-458h334zM750 246v-84q0 -20 -21 -20h-41q-21 0 -21 20v84q0 9 6 15t15 6h41
q9 0 15 -6t6 -15zM625 496v-167q0 -9 -6 -15t-15 -6h-83q-9 0 -15 6t-6 15v167q0 9 6 15t15 6h83q9 0 15 -6t6 -15zM688 392q-8 0 -14.5 6t-6.5 14t6.5 14.5t14.5 6.5h41q8 0 14.5 -6.5t6.5 -14.5t-6.5 -14t-14.5 -6h-41zM688 308q-8 0 -14.5 6.5t-6.5 14.5t6.5 14.5
t14.5 6.5h41q8 0 14.5 -6.5t6.5 -14.5t-6.5 -14.5t-14.5 -6.5h-41zM521 225q-8 0 -14.5 6.5t-6.5 14.5t6.5 14.5t14.5 6.5h83q8 0 14.5 -6.5t6.5 -14.5t-6.5 -14.5t-14.5 -6.5h-83zM604 183q8 0 14.5 -6.5t6.5 -14.5t-6.5 -14t-14.5 -6h-83q-8 0 -14.5 6t-6.5 14t6.5 14.5
t14.5 6.5h83zM688 475q-8 0 -14.5 6.5t-6.5 14.5t6.5 14.5t14.5 6.5h41q8 0 14.5 -6.5t6.5 -14.5t-6.5 -14.5t-14.5 -6.5h-41zM375 496v-84q0 -20 -21 -20h-208q-21 0 -21 20v84q0 9 6 15t15 6h208q9 0 15 -6t6 -15zM354 267q8 0 14.5 -6.5t6.5 -14.5t-6.5 -14.5t-14.5 -6.5
h-208q-8 0 -14.5 6.5t-6.5 14.5t6.5 14.5t14.5 6.5h208zM354 350q8 0 14.5 -6.5t6.5 -14.5t-6.5 -14.5t-14.5 -6.5h-208q-8 0 -14.5 6.5t-6.5 14.5t6.5 14.5t14.5 6.5h208zM354 183q8 0 14.5 -6.5t6.5 -14.5t-6.5 -14t-14.5 -6h-208q-8 0 -14.5 6t-6.5 14t6.5 14.5t14.5 6.5
h208z" />
    <glyph glyph-name="glyph114" unicode="&#x2782;" horiz-adv-x="667" 
d="M583 689q34 0 59 -24.5t25 -58.5v-423q0 -69 -55.5 -117.5t-132.5 -48.5q-74 0 -127 45q-24 -40 -68 -63.5t-96 -23.5q-77 0 -132.5 49t-55.5 118q0 53 35 96.5t90 60.5v254q0 32 21 55.5t52 27.5l375 52q1 0 5 0.5t5 0.5zM335 171q0 2 -1 6t-1 6q0 47 35.5 82t89.5 42
v72l-125 -18v-190h2zM479 100q43 0 73.5 24t30.5 59v423l-375 -53v-330q-14 2 -20 2q-44 0 -74.5 -24.5t-30.5 -58.5q0 -35 31 -59.5t74 -24.5t73.5 24.5t30.5 59.5v255l208 31v-163q-14 2 -21 2q-43 0 -73.5 -24.5t-30.5 -59.5t30.5 -59t73.5 -24z" />
    <glyph glyph-name="glyph115" unicode="&#x2783;" horiz-adv-x="793" 
d="M604 685q77 0 133 -56t56 -133q0 -22 -7 -50q20 -62 -25 -107l-187 -188q-30 -30 -74 -30h-3l-90 -90q-25 -25 -63 -40q-10 -4 -289 -97q-8 -2 -13 -2q-21 0 -34 17t-6 37q95 285 97 290q15 37 41 63l331 330q56 56 133 56zM299 63l-127 127q-22 -61 -29 -84l71 -71
q70 23 85 28zM128 61q-7 -20 -21 -62l63 21zM449 191q-12 18 -10.5 40t17.5 38l154 154l-114 114l-297 -297q-6 -6 -8 -10l147 -147q6 3 10 7zM702 398q14 14 -0.5 28.5t-28.5 0.5l-188 -187q-10 -10 -4 -23t19 -13q9 0 15 6zM639 452q31 31 68 19q3 12 3 25q0 43 -31 74
q-30 30 -74.5 30.5t-74.5 -29.5l-5 -5z" />
    <glyph glyph-name="glyph116" unicode="&#x2784;" horiz-adv-x="768" 
d="M750 563q18 -18 18 -44t-18 -44l-456 -456q-17 -17 -47.5 -30.5t-58.5 -13.5h-188v187q0 28 13.5 59t30.5 48l456 456q18 18 44 18t44 -18zM115 222l52 -51l345 346l-51 51zM90 189q-7 -13 -7 -27v-62l42 -42h63q9 0 26 7zM247 90l346 346l-51 51l-346 -345zM622 465
l54 54l-132 132l-54 -53z" />
    <glyph glyph-name="glyph117" unicode="&#x2785;" horiz-adv-x="836" 
d="M771 697q25 -25 42 -59.5t21.5 -87t-9.5 -109.5t-59.5 -131t-119.5 -148q-189 -189 -363 -189q-107 0 -172 65l-74 74q-37 37 -37 88.5t37 88.5l66 66q37 37 88 37t88 -37l58 -57l174 173l-58 58q-37 37 -37 88.5t37 88.5l66 66q36 36 89 36q52 0 88 -36zM512 647
q-12 -12 -12 -29.5t12 -29.5l45 -45l125 125l-45 45q-12 12 -29 12q-18 0 -30 -12zM95 171l46 -45l125 125l-46 45q-12 12 -29 12t-29 -12l-67 -66q-12 -12 -12 -29.5t12 -29.5zM170 97q41 -41 113 -41q139 0 304 165q65 65 104 127t51 106.5t9 84t-13.5 62t-25.5 37.5
l-125 -125l12 -12q12 -12 12 -29.5t-12 -29.5l-233 -233q-12 -12 -29 -12q-18 0 -30 12l-12 13z" />
    <glyph glyph-name="glyph118" unicode="&#x2786;" 
d="M625 590q51 0 88 -37t37 -88q0 -52 -37 -89q-38 -39 -88 -61v-173q0 -52 -36.5 -88.5t-88.5 -36.5t-88.5 36.5t-36.5 88.5q0 -52 -36.5 -88.5t-88.5 -36.5t-88.5 36.5t-36.5 88.5v198q-51 0 -88 37t-37 88t37 88q89 89 213 89t213 -89q15 -15 37 -15t37 15q37 37 88 37z
M654 435q12 12 12 29.5t-12 29.5q-13 13 -29 13t-29 -13q-39 -39 -96 -39t-96 39q-64 64 -154 64t-154 -64q-12 -12 -12 -29.5t12 -29.5t29 -12t29 12q24 24 54 33v-326q0 -17 12.5 -29.5t29.5 -12.5t29.5 12.5t12.5 29.5v326q30 -9 54 -33q46 -46 112 -59v-234
q0 -17 12.5 -29.5t29.5 -12.5t29.5 12.5t12.5 29.5v234q66 13 112 59z" />
    <glyph glyph-name="glyph119" unicode="&#x2787;" horiz-adv-x="709" 
d="M685 534q24 -24 24 -58.5t-24 -59.5q-13 -13 -30 -19q-83 -40 -114 -100q-41 -82 -41 -197q0 -35 -23.5 -59t-59.5 -24q-38 0 -60 24l-134 135l-223 -159l159 223l-135 134q-16 15 -21.5 39.5t3.5 51.5q22 52 77 52q117 0 197 40l9 5q55 31 94 113q6 16 17 27
q24 24 59.5 23.5t58.5 -24.5zM466 334q43 86 157 140l-164 169q-55 -117 -141 -160l-10 -5q-96 -45 -225 -45l333 -333q0 134 50 234z" />
    <glyph glyph-name="glyph120" unicode="&#x2788;" horiz-adv-x="766" 
d="M718 677q47 -47 47.5 -122.5t-50.5 -116.5q-42 -33 -152 -74l67 -67q12 -12 12 -29.5t-12 -29.5t-29 -12q-18 0 -30 12l-12 12l-218 -218q-25 -25 -63 -40q-1 -1 -23.5 -8.5t-62 -16t-72.5 -8.5q-62 0 -91 29q-19 19 -25.5 51.5t-3 64.5t11.5 63.5t13.5 48.5t7.5 20
q15 37 41 63l218 218l-13 13q-12 12 -12 29.5t12 29.5t29.5 12t29.5 -12l68 -68q42 112 73 152q41 52 118 52q73 0 121 -48zM88 47q19 -16 108 6l-101 101q-22 -89 -7 -107zM241 67q27 10 41 24l218 218l-150 149l-218 -218q-14 -14 -24 -40z" />
    <glyph glyph-name="glyph121" unicode="&#x2789;" horiz-adv-x="833" 
d="M770 334q41 -23 57 -68.5t-3 -89.5q-15 -35 -47 -55.5t-69 -20.5q-16 0 -34 5l-112 32v-35l37 -29q36 -29 44.5 -74.5t-14.5 -86.5q-37 -62 -108 -62q-24 0 -47 9l-57 23l-58 -23q-43 -17 -87.5 -2t-67.5 55q-23 41 -14.5 86.5t44.5 74.5l37 29v35l-112 -32
q-46 -13 -88 7.5t-61 63.5t-3.5 89t56.5 69l208 118v200q0 60 43 103t103 43t102.5 -43t42.5 -103v-200zM708 183q31 0 40 31t-19 47l-250 143v248q0 26 -18.5 44.5t-43.5 18.5t-44 -18.5t-19 -44.5v-248l-250 -143q-13 -7 -18 -22.5t1 -29.5t20 -21t29 -3l218 62v-185
l-68 -54q-12 -10 -15 -25.5t5 -28.5q8 -14 23 -19t29 1l89 36l88 -36q7 -3 16 -3q28 0 38.5 27.5t-12.5 47.5l-68 54v185l218 -62q8 -2 11 -2zM396 662q0 21 21 21q20 0 20 -21q0 -20 -20 -20q-21 0 -21 20z" />
    <glyph glyph-name="glyph122" unicode="&#x278a;" horiz-adv-x="583" 
d="M542 600q17 0 29 -12.5t12 -29.5v-166q0 -1 -0.5 -3.5t-0.5 -3.5q-7 -77 -52 -140t-113 -96v-132q0 -35 -24.5 -59.5t-59.5 -24.5h-83q-34 0 -58.5 24.5t-24.5 59.5v132q-68 33 -113.5 96t-52.5 140q0 1 -0.5 3.5t-0.5 3.5v166q0 17 12.5 29.5t29.5 12.5h41v125
q0 17 12.5 29.5t29.5 12.5h83q17 0 29.5 -12.5t12.5 -29.5v-125h83v125q0 17 12.5 29.5t29.5 12.5h83q17 0 29.5 -12.5t12.5 -29.5v-125h42zM375 725v-125h83v125h-83zM125 725v-125h83v125h-83zM333 17v83h-83v-83h83zM292 204q69 0 122.5 41t74.5 105h-395q21 -64 75 -105
t123 -41zM498 392q2 14 2 20v105h-417v-105q0 -6 2 -20h413z" />
    <glyph glyph-name="glyph123" unicode="&#x278b;" 
d="M375 -25q-52 0 -88.5 36.5t-36.5 88.5l2 127l-126 -2q-52 0 -89 36.5t-37 88.5t36.5 88.5t88.5 36.5l127 2l-2 122q0 52 36.5 89t88.5 37t88.5 -36.5t36.5 -88.5l2 -123l124 -2q51 0 87.5 -36.5t36.5 -88.5t-36.5 -88.5t-88.5 -36.5l-123 2l-2 -128q0 -51 -36.5 -87.5
t-88.5 -36.5zM333 308v-209q0 -17 12.5 -29t29.5 -12t29.5 12.5t12.5 29.5v208h209q17 0 29 12.5t12 29.5t-12.5 29.5t-29.5 12.5h-208v208q0 18 -12.5 30t-29.5 12t-29.5 -12.5t-12.5 -29.5v-208h-208q-18 0 -30 -12.5t-12 -29.5t12.5 -29.5t29.5 -12.5h208z" />
    <glyph glyph-name="glyph124" unicode="&#x278c;" horiz-adv-x="833" 
d="M604 683q-60 0 -103 -42.5t-43 -102.5v-63h-83v63q0 60 -43 102.5t-103 42.5t-103 -42.5t-43 -102.5t43 -103t103 -43h63v-84h-63q-60 0 -103 -43t-43 -103t43 -102.5t103 -42.5t103 42.5t43 102.5v63h83v-63q0 -60 43 -102.5t103 -42.5t103 42.5t43 102.5t-43 103
t-103 43h-62v84h62q60 0 103 43t43 103t-43 102.5t-103 42.5zM542 475v63q0 26 18 44t44 18t44.5 -18.5t18.5 -43.5q0 -26 -18.5 -44.5t-44.5 -18.5h-62zM229 475q-25 0 -43.5 18.5t-18.5 44.5t18.5 44t43.5 18q26 0 44.5 -18.5t18.5 -43.5v-63h-63zM604 100q-26 0 -44 18
t-18 44v63h62q26 0 44.5 -18.5t18.5 -44.5q0 -25 -18.5 -43.5t-44.5 -18.5zM229 100q-25 0 -43.5 18t-18.5 44t18.5 44.5t43.5 18.5h63v-63q0 -25 -18.5 -43.5t-44.5 -18.5zM604 767q94 0 161.5 -67.5t67.5 -161.5q0 -57 -26 -106.5t-71 -81.5q45 -32 71 -81.5t26 -106.5
q0 -94 -67.5 -161.5t-161.5 -67.5q-57 0 -106 26.5t-81 71.5q-32 -45 -81.5 -71.5t-106.5 -26.5q-95 0 -162 67.5t-67 161.5q0 57 26.5 106.5t71.5 81.5q-45 32 -71.5 81.5t-26.5 106.5q0 94 67 161.5t162 67.5q57 0 106.5 -26.5t81.5 -71.5q32 45 81 71.5t106 26.5z
M458 392v-84h-83v84h83z" />
    <glyph glyph-name="glyph125" unicode="&#x278d;" horiz-adv-x="708" 
d="M605 597q103 -103 103 -250q0 -148 -103 -251t-251 -103q-147 0 -250 103q-104 104 -104 251q0 146 104 250q53 53 125 31v14q0 52 36.5 88.5t88.5 36.5t88.5 -36.5t36.5 -88.5v-14q32 10 66.5 2t59.5 -33zM312 642v-209q0 -17 12.5 -29t29.5 -12t29.5 12t12.5 29v209
q0 17 -12.5 29t-29.5 12t-29.5 -12t-12.5 -29zM271 483q-7 -20 -20 -33q-43 -43 -43 -103t43 -103q41 -41 103 -41t103 41q43 43 43 103t-43 103q-12 12 -19 33v-50q0 -34 -24.5 -58.5t-59.5 -24.5q-34 0 -58.5 24t-24.5 59v50zM354 159q-76 0 -131.5 55.5t-55.5 132.5
q0 78 55 133q12 12 12 29t-12 29t-29.5 12t-29.5 -12q-80 -80 -80 -191q0 -112 80 -192q79 -79 191 -79q113 0 192 79t79 192q0 112 -79 191q-12 12 -29.5 12t-29.5 -12t-12 -29t12 -29q55 -55 55 -133q0 -77 -56 -132.5t-132 -55.5z" />
    <glyph glyph-name="glyph126" unicode="&#x278e;" horiz-adv-x="708" 
d="M583 642q52 0 88.5 -36.5t36.5 -88.5v-417q0 -52 -36.5 -88.5t-88.5 -36.5h-458q-52 0 -88.5 36.5t-36.5 88.5v417q0 52 36.5 88.5t88.5 36.5v83q0 17 12.5 29.5t29.5 12.5h375q17 0 29 -12.5t12 -29.5v-83zM208 683v-208h292v208h-292zM125 558q-17 0 -29.5 -12
t-12.5 -29v-105q0 -25 18.5 -43.5t44.5 -18.5h416q26 0 44.5 18.5t18.5 43.5v105q0 17 -12.5 29t-29.5 12v-125q0 -17 -12 -29t-29 -12h-375q-17 0 -29.5 12t-12.5 29v125zM583 58q17 0 29.5 12.5t12.5 29.5v230q-29 -22 -63 -22h-416q-34 0 -63 22v-230q0 -17 12.5 -29.5
t29.5 -12.5h458zM438 558q20 0 20 -20q0 -21 -20 -21h-167q-9 0 -15 6t-6 15q0 20 21 20h167zM500 183q9 0 15 -6t6 -15q0 -20 -21 -20h-292q-20 0 -20 20q0 21 20 21h292zM438 642q20 0 20 -21t-20 -21h-167q-9 0 -15 6t-6 15t6 15t15 6h167z" />
    <glyph glyph-name="glyph127" unicode="&#x278f;" horiz-adv-x="708" 
d="M562 600q60 0 103 -43t43 -103v-375q0 -60 -43 -103t-103 -43h-416q-60 0 -103 43t-43 103v375q0 60 43 103t103 43h31q5 62 55.5 104t121.5 42t121.5 -42t55.5 -104h31zM625 79v115q0 20 -17 20q-25 0 -25 -10t-32 -10q-30 0 -51 27.5t-21 66.5t21.5 66t51.5 27
q22 0 41 -16q7 -5 16 -5q16 0 16 21v73q0 26 -18.5 44.5t-44.5 18.5h-114q-13 0 -18.5 7.5t2.5 24.5q16 19 16 41q0 30 -27.5 51.5t-66.5 21.5t-66.5 -21t-27.5 -51q0 -33 11 -33q10 -20 9.5 -29.5t-5 -10.5t-15.5 -1h-114q-26 0 -44.5 -18.5t-18.5 -44.5v-73q0 -21 17 -21
q25 0 25 11q0 10 33 10q30 0 50.5 -27t20.5 -66t-21.5 -66.5t-51.5 -27.5q-22 0 -41 16q-8 5 -16 5q-16 0 -16 -21v-115q0 -25 18.5 -43.5t44.5 -18.5h114q8 0 11.5 0.5t7.5 4t2 12.5t-10 24q-11 0 -11 33q0 30 27.5 50.5t66.5 20.5t66.5 -21t27.5 -51q0 -22 -16 -41
q-8 -17 -2.5 -24.5t18.5 -7.5h114q26 0 44.5 18.5t18.5 43.5z" />
    <glyph glyph-name="glyph128" unicode="&#x2790;" horiz-adv-x="708" 
d="M354 662q146 0 250 -104t104 -250t-104 -250t-250 -104t-250 104t-104 250t104 250t250 104zM354 38q112 0 191.5 79t79.5 191t-79.5 191.5t-191.5 79.5t-191.5 -79.5t-79.5 -191.5t79.5 -191t191.5 -79zM500 350q-17 0 -29.5 -12.5t-12.5 -29.5q0 -15 10.5 -26.5
t25.5 -13.5q1 0 3 -0.5t3 -0.5h37q-12 -53 -50.5 -91t-90.5 -50v36q0 1 -0.5 3.5t-0.5 3.5q-2 15 -13.5 25t-27.5 10t-27 -10t-13 -25q0 -1 -1 -3.5t-1 -3.5v-36q-52 12 -90 50t-50 91h36q1 0 3.5 0.5t3.5 0.5q15 2 25 13t10 27t-10 27.5t-25 13.5q-1 0 -3.5 0.5t-3.5 0.5
h-36q12 53 50 91t90 50v-37q0 -1 1 -3t1 -3q2 -15 13.5 -25.5t26.5 -10.5q17 0 29.5 12.5t12.5 29.5v37q52 -12 90.5 -50.5t50.5 -90.5h-37zM475 229q-26 8 -42 30t-16 49t16 49t42 30q-17 25 -42 42q-8 -26 -30 -42t-49 -16t-49 16t-30 42q-25 -17 -42 -42q26 -8 42.5 -30
t16.5 -49t-16.5 -49t-42.5 -30q17 -25 42 -42q8 26 30 42.5t49 16.5t49 -16.5t30 -42.5q25 17 42 42z" />
    <glyph glyph-name="glyph129" unicode="&#x2791;" horiz-adv-x="667" 
d="M557 642q43 0 76 -33t34 -95v-206q0 -144 -98 -238.5t-236 -94.5t-235.5 97.5t-97.5 235.5t97.5 236t235.5 98q74 0 143 -32q39 32 81 32zM180 301q0 59 43 102t102 43q46 0 80 -22l-61 -59q-25 -25 -17 -41t43 -16h213v206q0 44 -26 44q-16 0 -35 -19l-48 -48
q-65 51 -149 51q-100 0 -171 -71t-71 -171t71 -171t171 -71t171 71q20 20 33 40q15 23 1.5 49t-42.5 26q-27 0 -41 -22q-19 -30 -52 -48.5t-70 -18.5q-59 0 -102 43.5t-43 102.5zM222 301q0 -43 30 -73t73 -30q42 0 73 31q8 8 14.5 17.5t9.5 15.5l2 5h-54q-65 0 -82 39
q-16 38 27 81l10 5q-48 0 -73 -25q-30 -29 -30 -66z" />
    <glyph glyph-name="glyph130" unicode="&#x2792;" horiz-adv-x="667" 
d="M125 642q110 0 210.5 -43t173 -115.5t115.5 -173t43 -210.5q0 -52 -36.5 -88.5t-88.5 -36.5h-375q-69 0 -118 49t-49 118v375q0 52 36.5 88.5t88.5 36.5zM167 58q34 0 58.5 24.5t24.5 59.5q0 34 -24 58.5t-59 24.5t-59 -24.5t-24 -58.5q0 -35 24.5 -59.5t58.5 -24.5z
M355 58q26 0 44 18.5t18 44.5q0 112 -79.5 191.5t-191.5 79.5q-26 0 -44 -18.5t-18 -44.5t18 -44t44 -18q60 0 103 -43t43 -103q0 -26 18.5 -44.5t44.5 -18.5zM521 58q26 0 44.5 18.5t18.5 44.5q0 118 -59 219t-159.5 159.5t-219.5 58.5q-26 0 -44 -18t-18 -44t18 -44.5
t44 -18.5q129 0 221 -91.5t92 -220.5q0 -26 18 -44.5t44 -18.5z" />
    <glyph glyph-name="glyph131" unicode="&#x2793;" horiz-adv-x="869" 
d="M689 568q18 25 53 25q18 0 44 -12q-2 2 -5 6.5t-6 8.5t-7 7q-27 27 -74 27q-31 0 -78 -27q-2 0 -4 0.5t-4 0.5q-59 0 -92 -50q-11 -17 -51 -85t-64 -96q-24 28 -63 95.5t-51 85.5q-33 50 -93 50q-46 0 -78.5 -33t-32.5 -79t32.5 -78.5t78.5 -32.5q59 0 92 48l69 -109
q-32 -36 -65.5 -81t-51.5 -73l-17 -27q-18 -32 -11 -69t25 -66l18 -30l148 272l148 -272q3 4 8 11.5t15.5 29t16.5 41t5.5 43t-12.5 40.5q-63 101 -134 181l69 109q33 -48 91 -48q46 0 78.5 32.5t32.5 78.5q0 44 -30 76zM608 448q-23 0 -36 19t-5 41l10 16q13 13 31 13
q19 0 32 -13t13 -31.5t-13 -31.5t-32 -13zM194 448q-18 0 -31 13t-13 31.5t13 31.5t31 13q19 0 32 -13l10 -16q8 -22 -5.5 -41t-36.5 -19zM401 291q-7 0 -11.5 5t-4.5 12q0 16 16 16q7 0 12 -4.5t5 -11.5t-5 -12t-12 -5zM694 714q98 0 157 -81q18 -23 18.5 -50.5
t-16.5 -50.5q-20 -26 -50 -32v-8q0 -80 -57.5 -137t-137.5 -57q-14 0 -38 4q50 -66 82 -117q25 -36 27.5 -79t-12.5 -82t-26.5 -60.5t-23.5 -38.5q-25 -34 -68 -34q-50 0 -73 43l-75 138l-74 -138q-23 -43 -74 -43q-42 0 -67 34q-12 17 -23.5 38.5t-26.5 60.5t-12.5 82
t27.5 79q38 59 81 117q-24 -4 -38 -4q-80 0 -137 57t-57 137t57 137.5t137 57.5q100 0 162 -87q22 -33 45 -74q36 63 49 79q53 75 144 81q51 28 100 28z" />
    <glyph glyph-name="glyph132" unicode="&#x2794;" horiz-adv-x="802" 
d="M760 642q18 0 31.5 -15t10.5 -33l-42 -292q-2 -15 -13.5 -25t-27.5 -10h-472l7 -42h423q17 0 29.5 -12.5t12.5 -29.5t-12.5 -29t-29.5 -12h-458q-16 0 -27.5 10t-13.5 24l-78 466h-58q-17 0 -29.5 12t-12.5 29t12.5 29.5t29.5 12.5h93q15 0 27 -10t14 -25l9 -48h575z
M712 558h-160v-83h148zM510 558h-125v-83h125v83zM510 433h-125v-83h125v83zM344 558h-146l15 -84q2 1 6 1h125v83zM219 433l14 -83h111v83h-125zM552 350h131l11 83h-142v-83zM219 38q0 62 62 62q63 0 63 -62q0 -63 -63 -63q-62 0 -62 63zM594 38q0 62 62 62q63 0 63 -62
q0 -63 -63 -63q-62 0 -62 63z" />
    <glyph glyph-name="glyph133" unicode="&#x2795;" horiz-adv-x="667" 
d="M542 683q52 0 88.5 -36.5t36.5 -88.5v-458q0 -52 -36.5 -88.5t-88.5 -36.5h-417q-52 0 -88.5 36.5t-36.5 88.5v458q0 52 36.5 88.5t88.5 36.5h417zM583 475v83q0 17 -12 29.5t-29 12.5h-417q-17 0 -29.5 -12.5t-12.5 -29.5v-83q0 -17 12.5 -29.5t29.5 -12.5h417
q17 0 29 12.5t12 29.5zM438 392h-209q0 -43 30.5 -73.5t73.5 -30.5t74 30.5t31 73.5zM542 58q17 0 29 12.5t12 29.5v303q-19 -11 -41 -11h-63q0 -60 -43 -103t-103 -43t-102.5 43t-42.5 103h-63q-23 0 -42 11v-303q0 -17 12.5 -29.5t29.5 -12.5h417z" />
    <glyph glyph-name="glyph134" unicode="&#x2796;" 
d="M375 725q155 0 265 -110t110 -265t-110 -265t-265 -110t-265 110t-110 265t110 265t265 110zM665 380q-11 106 -87 179q-65 -85 -154 -136l24 -54q107 29 217 11zM547 585q-78 57 -172 57q-43 0 -87 -13q66 -76 117 -169q85 49 142 125zM248 612q-62 -30 -104.5 -85.5
t-55.5 -123.5q148 -24 280 37q-51 94 -120 172zM83 350q0 -108 71 -190q95 140 254 197q-11 24 -22 47q-106 -50 -218 -50q-39 0 -84 8q0 -2 -0.5 -6t-0.5 -6zM184 130q82 -72 191 -72q51 0 102 19q-10 120 -54 241q-151 -54 -239 -188zM517 95q65 36 105.5 101t43.5 142
q-104 18 -203 -8q42 -112 54 -235z" />
    <glyph glyph-name="glyph135" unicode="&#x2797;" horiz-adv-x="542" 
d="M333 477q0 14 10.5 27t22.5 13h92v125h-92q-70 0 -116.5 -52t-46.5 -125l5 -73h-125v-125h125v-250h125v250h125v125h-125v85zM458 725q35 0 59.5 -24.5t24.5 -58.5v-125q0 -37 -29 -63q29 -26 29 -62v-125q0 -35 -25 -59.5t-59 -24.5h-41v-166q0 -35 -24.5 -59.5
t-59.5 -24.5h-125q-34 0 -58.5 24.5t-24.5 59.5v166h-42q-34 0 -58.5 24.5t-24.5 59.5v125q0 34 24 58.5t59 24.5h37q3 100 68 171q71 79 178 79h92z" />
    <glyph glyph-name="glyph136" unicode="&#x2798;" horiz-adv-x="875" 
d="M670 558q85 0 145 -61t60 -147t-60 -147t-145 -61t-145 61t-60 147t60 147t145 61zM205 558q85 0 145 -61t60 -147t-60 -147t-145 -61t-145 61t-60 147t60 147t145 61zM327 350q0 52 -35.5 88.5t-86.5 36.5t-86.5 -36.5t-35.5 -88.5q0 -50 36.5 -87.5t85.5 -37.5
t85.5 37.5t36.5 87.5z" />
    <glyph glyph-name="glyph137" unicode="&#x2799;" 
d="M293 212h-67v217h67v-217zM224 490q0 14 10.5 24t25.5 10q36 0 36 -34q0 -33 -36 -33t-36 33zM462 435q38 0 58 -26t20 -69v-128h-68v121q0 48 -33 48q-17 0 -27.5 -11.5t-10.5 -31.5v-126h-68v148q0 56 -1 69h58l4 -29h2q21 35 66 35zM375 -25q-155 0 -265 110t-110 265
t110 265t265 110t265 -110t110 -265t-110 -265t-265 -110zM375 642q-121 0 -206.5 -85.5t-85.5 -206.5t85.5 -206.5t206.5 -85.5t206.5 85.5t85.5 206.5t-85.5 206.5t-206.5 85.5z" />
    <glyph glyph-name="glyph138" unicode="&#x279a;" 
d="M375 -25q-155 0 -265 110t-110 265t110 265t265 110t265 -110t110 -265t-110 -265t-265 -110zM375 642q-121 0 -206.5 -85.5t-85.5 -206.5t85.5 -206.5t206.5 -85.5t206.5 85.5t85.5 206.5t-85.5 206.5t-206.5 85.5zM389 517q60 0 98.5 -37t38.5 -87q0 -64 -32.5 -106.5
t-84.5 -42.5q-17 0 -32 8t-21 19q-12 -49 -15 -59q-5 -21 -39 -71q-2 -2 -3.5 -1.5t-1.5 2.5q-9 38 1 83l27 117q-7 15 -7 35q0 24 12.5 40t29.5 16q29 0 29 -33q0 -12 -8.5 -41t-10.5 -36q-4 -17 6.5 -29t27.5 -12q30 0 49.5 33.5t19.5 81.5q0 36 -24 59.5t-66 23.5
q-48 0 -77.5 -30.5t-29.5 -73.5q0 -25 15 -42q3 -5 3 -14t-4.5 -16.5t-10.5 -4.5q-45 18 -45 83q0 51 41.5 93t113.5 42z" />
    <glyph glyph-name="glyph139" unicode="&#x279b;" 
d="M506 33q66 0 113.5 49.5t47.5 116.5q0 36 -17 75q6 31 6 61q0 119 -81 203q-80 83 -196 83q-25 0 -48 -5q-40 26 -87 26q-67 0 -114 -48.5t-47 -116.5q0 -47 23 -85q-6 -30 -6 -57q0 -118 82 -203q81 -84 197 -84q14 0 51 5q34 -20 76 -20zM214 254q0 16 11.5 27t28.5 11
q29 0 41 -35q4 -4 17 -29q18 -25 63 -25q31 0 54 13t23 38q0 11 -3.5 19t-14 13.5t-15.5 8t-21 6.5t-19 5q-16 5 -18 5q-42 9 -74 23q-27 11 -46 34.5t-19 57.5q0 55 44 82.5t110 27.5q70 0 112 -33q35 -33 35 -63q0 -16 -12 -28.5t-28 -12.5q-11 0 -19 5t-11.5 9.5
t-10.5 16.5q-18 43 -71 43q-26 0 -46 -10.5t-20 -28.5q0 -35 84 -49q8 -1 61 -16q60 -21 80 -57q10 -21 10 -51q0 -60 -45.5 -91.5t-116.5 -31.5q-104 0 -146 64q-18 28 -18 52zM244 725q54 0 101 -22q22 2 34 2q150 0 256 -109q105 -110 105 -261q0 -16 -4 -52
q14 -42 14 -84q0 -102 -71 -175q-72 -74 -173 -74q-49 0 -90 17q-15 -2 -37 -2q-150 0 -257 109q-106 109 -106 261q0 21 3 44q-19 44 -19 98q0 102 70 174q72 74 174 74z" />
    <glyph glyph-name="glyph140" unicode="&#x279c;" 
d="M474 200v52q-26 -17 -49 -17q-10 0 -21.5 6t-12.5 14q-4 8 -4 36v82h76v51h-76v82h-45q-6 -31 -11.5 -43.5t-21.5 -25.5q-17 -13 -32 -19v-45h35v-113q0 -53 50 -72q22 -6 38 -6q40 0 74 18v0zM375 -25q-155 0 -265 110t-110 265t110 265t265 110t265 -110t110 -265
t-110 -265t-265 -110zM375 642q-121 0 -206.5 -85.5t-85.5 -206.5t85.5 -206.5t206.5 -85.5t206.5 85.5t85.5 206.5t-85.5 206.5t-206.5 85.5z" />
    <glyph glyph-name="glyph141" unicode="&#x279d;" horiz-adv-x="732" 
d="M148 281q11 -34 40 -57t68 -24q-64 -50 -144 -50q-16 0 -28 2q81 -52 178 -52q98 0 176 50.5t116 125.5q37 73 37 153v15q35 26 58 60q-31 -14 -66 -18q38 25 50 64q-38 -20 -74 -27q-32 35 -83 35q-48 0 -82.5 -33.5t-34.5 -81.5q0 -12 4 -26q-145 5 -240 120
q-16 -28 -16 -57q0 -60 52 -97q-32 3 -52 14v-1q0 -43 26.5 -74t65.5 -40q-20 -4 -30 -4q-15 0 -21 3zM649 504zM289 515q21 55 72.5 91t114.5 36q55 0 100 -27q44 18 57 18q33 0 57 -23.5t26 -55.5q16 -22 16 -50q0 -27 -16 -49q-16 -24 -42 -50q-5 -88 -45 -167
q-47 -94 -143 -157q-97 -64 -224 -64q-123 0 -224 65q-25 16 -34 43.5t1 55.5q19 49 71 54q-11 27 -12 40q-40 52 -40 122q0 17 6 32q-6 24 -6 51q0 53 26 98q23 43 73 43q38 0 64 -31q43 -53 102 -75z" />
    <glyph glyph-name="glyph142" unicode="&#x279e;" 
d="M394 393q5 29 30.5 52.5t53.5 23.5q62 0 50 -67q-10 -63 -60 -124q-46 -55 -86 -83q-12 -6 -22 -6q-28 0 -45 35q-4 8 -26.5 83t-25.5 79q-2 4 -6 4q-16 0 -31 -15l-12 17l14 17q47 50 80 57h2.5h3h2.5q18 0 27 -18.5t13.5 -52t6.5 -39.5q15 -65 25 -65q14 0 44 58
q10 17 6 35t-21 18q-7 0 -23 -9zM375 -25q-155 0 -265 110t-110 265t110 265t265 110t265 -110t110 -265t-110 -265t-265 -110zM375 642q-121 0 -206.5 -85.5t-85.5 -206.5t85.5 -206.5t206.5 -85.5t206.5 85.5t85.5 206.5t-85.5 206.5t-206.5 85.5z" />
    <glyph glyph-name="glyph143" unicode="&#x279f;" horiz-adv-x="917" 
d="M412 160q10 -20 -1.5 -40t-35.5 -20q-26 0 -37 23l-30 60h-183q-8 0 -14 3l-32 -63q-7 -16 -23.5 -21.5t-32.5 2.5q-16 7 -21.5 23.5t2.5 32.5l167 334q11 21 38 21t37 -21zM151 267h115l-58 115zM875 100h-250q-24 0 -36.5 22t3.5 45l200 266h-167q-17 0 -29.5 12.5
t-12.5 29.5t12.5 29.5t29.5 12.5h250q24 0 36.5 -22.5t-3.5 -44.5l-200 -267h167q17 0 29.5 -12t12.5 -29t-12.5 -29.5t-29.5 -12.5zM542 267h-84q-17 0 -29 12t-12 29t12 29.5t29 12.5h84q17 0 29 -12.5t12 -29.5t-12 -29t-29 -12z" />
    <glyph glyph-name="glyph144" unicode="&#x27a0;" horiz-adv-x="895" 
d="M125 100q-17 0 -29.5 12.5t-12.5 29.5v266l-23 -12q-16 -8 -32.5 -2.5t-23.5 21.5q-8 16 -2.5 32.5t21.5 23.5l83 41q22 11 41.5 -2.5t19.5 -34.5v-333q0 -17 -12.5 -29.5t-29.5 -12.5zM531 100h-208q-26 0 -38 25.5t8 45.5l167 167q17 17 17 39q0 23 -17 40
q-16 16 -39.5 16t-39.5 -16q-16 -15 -16 -40q0 -17 -12.5 -29t-29.5 -12t-29.5 12t-12.5 29q0 58 41 99q40 40 98.5 40t98.5 -40q41 -41 41 -99q0 -57 -41 -98l-95 -96h107q17 0 29.5 -12t12.5 -29t-12.5 -29.5t-29.5 -12.5zM852 334q43 -40 43 -99q0 -56 -39.5 -95.5
t-95.5 -39.5t-96 39.5t-40 95.5q0 17 12.5 29.5t29.5 12.5t29.5 -12.5t12.5 -29.5q0 -22 15 -37t37 -15t37 15t15 37t-15 37.5t-37 15.5q-17 0 -29.5 12t-12.5 29t12.5 29.5t29.5 12.5q13 0 22 9t9 22t-9 22t-22 9q-20 0 -28 -17q-8 -15 -24.5 -20t-31.5 3t-20.5 24.5
t2.5 31.5q33 62 102 62q47 0 80.5 -34t33.5 -81q0 -38 -22 -68z" />
    <glyph glyph-name="glyph145" unicode="&#x27a1;" horiz-adv-x="792" 
d="M521 767q113 0 192 -79.5t79 -191.5t-79 -191.5t-192 -79.5q-3 0 -8 0.5t-8 0.5q-9 -11 -54.5 -71.5t-83.5 -105.5q-63 -74 -159 -74q-86 0 -147 61t-61 147q0 94 74 159q34 29 62.5 51t61.5 47t53 40q0 2 -0.5 8t-0.5 8q0 112 79 191.5t192 79.5zM303 103
q46 54 96 120.5t72 92.5q32 -8 50 -8q78 0 132.5 55t54.5 133q0 26 -8 52l-117 -115l-104 21l-21 104l119 116q-27 9 -56 9q-78 0 -133 -54.5t-55 -132.5q0 -18 8 -50q-28 -24 -94 -73.5t-119 -93.5q-45 -38 -45 -96q0 -52 36.5 -88.5t88.5 -36.5q57 0 95 45zM167 183
q0 42 41 42q42 0 42 -42q0 -41 -42 -41q-41 0 -41 41z" />
    <glyph glyph-name="glyph146" unicode="&#x27a2;" horiz-adv-x="779" 
d="M592 -24q-17 0 -31 9l-171 97l-172 -97q-34 -20 -67 3t-25 63l40 194q-8 7 -31 28t-36 32l-79 72q-30 28 -17 66q5 17 19.5 29t33.5 13l195 22l82 180q17 37 57 37t57 -37l81 -180l196 -22q38 -3 51 -41.5t-16 -66.5l-146 -133l40 -193q5 -28 -13 -51.5t-48 -23.5z
M252 250q-1 -3 -6 -28.5t-13.5 -67.5t-15.5 -74l152 86q21 11 41 0l152 -86l-35 171q-5 24 12 39l130 118l-174 19q-23 3 -33 24l-72 160l-72 -160q-10 -21 -34 -24l-173 -19l129 -118q17 -15 12 -40z" />
    <glyph glyph-name="glyph147" unicode="&#x27a3;" 
d="M684 479q66 -94 66 -212q0 -155 -110 -265t-265 -110t-265 110t-110 265q0 144 96 250.5t238 121.5v1l-1 2v41h-41q-17 0 -29.5 12.5t-12.5 29.5t12.5 29.5t29.5 12.5h166q17 0 29.5 -12.5t12.5 -29.5t-12.5 -29.5t-29.5 -12.5h-41v-41l-1 -1v-2q125 -14 216 -100
q1 1 2.5 3.5t2.5 3.5l21 21q12 12 29.5 12t29.5 -12t12 -29.5t-12 -29.5l-21 -21q-4 -4 -12 -8zM375 -25q121 0 206.5 85.5t85.5 206.5t-85.5 206t-206.5 85t-206.5 -85t-85.5 -206t85.5 -206.5t206.5 -85.5zM417 308h83q17 0 29.5 -12t12.5 -29t-12.5 -29.5t-29.5 -12.5
h-125q-17 0 -29.5 12.5t-12.5 29.5v125q0 17 12.5 29t29.5 12t29.5 -12t12.5 -29v-84zM375 517q103 0 176.5 -73.5t73.5 -176.5t-73.5 -176.5t-176.5 -73.5t-176.5 73.5t-73.5 176.5t73.5 176.5t176.5 73.5zM375 58q86 0 147 61.5t61 147.5t-61 147t-147 61t-147 -61
t-61 -147t61 -147.5t147 -61.5z" />
    <glyph glyph-name="glyph148" unicode="&#x27a4;" horiz-adv-x="708" 
d="M354 704q146 0 250 -104t104 -250t-104 -250t-250 -104t-250 104t-104 250t104 250t250 104zM625 350q0 65 -30 123l-80 -80q6 -21 6 -43t-6 -43l80 -80q30 58 30 123zM83 350q0 -65 30 -123l81 81q-6 21 -6 42q0 22 6 43l-81 80q-30 -58 -30 -123zM211 434q22 37 59 59
l-74 74l-59 -59zM270 207q-37 22 -59 59l-74 -74l59 -59zM295 291q24 -24 59.5 -24t58.5 24q25 25 25 59t-24.5 58.5t-59.5 24.5q-34 0 -58.5 -24.5t-24.5 -58.5q0 -35 24 -59zM571 508l-59 59l-74 -74q37 -22 59 -59zM497 266q-23 -39 -59 -59l74 -74l59 59zM477 591
q-58 30 -123 30t-123 -30l81 -81q24 7 42 7t43 -7zM231 109q58 -30 123 -30t123 30l-80 81q-25 -7 -43 -7t-42 7z" />
    <glyph glyph-name="glyph149" unicode="&#x27a5;" horiz-adv-x="708" 
d="M625 683q35 0 59 -24.5t24 -58.5v-417q0 -35 -24 -59t-59 -24h-83v-42q0 -34 -24.5 -58.5t-59.5 -24.5h-375q-35 0 -59 24.5t-24 58.5v375q0 35 24.5 59.5t58.5 24.5h42v83q0 34 24.5 58.5t58.5 24.5h417zM83 58h375v354q0 8 -6 14.5t-14 6.5h-355v-375zM625 183v417
h-417v-125h230q25 0 43.5 -18.5t18.5 -44.5v-229h125z" />
    <glyph glyph-name="glyph150" unicode="&#x27a6;" horiz-adv-x="875" 
d="M292 642q-87 0 -148 -61t-61 -147.5t61 -147.5l125 -125l2 1l229 -229l292 292q-266 266 -353 356q-61 61 -147 61zM292 725q120 0 206 -86q58 -60 353 -355q25 -25 25 -59t-25 -59l-292 -292q-24 -24 -59 -24t-59 24l-216 216q-7 4 -15 12l-125 125q-85 85 -85 206
q0 122 85 207t207 85zM292 496q-26 0 -44.5 -18.5t-18.5 -44.5t18.5 -44t44.5 -18t44 18t18 44t-18 44.5t-44 18.5zM292 538q43 0 73.5 -31t30.5 -74t-30.5 -73.5t-73.5 -30.5t-73.5 30.5t-30.5 73.5t30.5 74t73.5 31z" />
    <glyph glyph-name="glyph151" unicode="&#x27a7;" horiz-adv-x="833" 
d="M809 450q24 -25 24 -59t-24 -58l-45 -45l4 -4q24 -25 23.5 -59.5t-24.5 -58.5l-291 -292q-24 -24 -59 -24t-59 24q-181 181 -273 270q-85 85 -85 206q0 82 43 151q-6 132 84 222q85 85 206 85q122 0 207 -85zM417 -67l291 292l-269 272q-61 61 -147 61q-87 0 -148 -61
t-61 -147t61 -147q92 -89 273 -270zM498 556l207 -209l45 45l-269 272q-61 61 -148 61q-86 0 -147 -61q-28 -28 -43 -63q69 41 149 41q120 0 206 -86zM292 454q43 0 73.5 -30.5t30.5 -73.5t-30.5 -73.5t-73.5 -30.5t-73.5 30.5t-30.5 73.5t30.5 73.5t73.5 30.5zM292 288
q26 0 44 18t18 44t-18 44.5t-44 18.5t-44.5 -18.5t-18.5 -44.5t18.5 -44t44.5 -18z" />
    <glyph glyph-name="glyph152" unicode="&#x27a8;" horiz-adv-x="833" 
d="M292 767q34 0 58.5 -24.5t24.5 -59.5v-208q0 -35 -24.5 -59t-58.5 -24h-209q-35 0 -59 24t-24 59v208q0 35 24.5 59.5t58.5 24.5h209zM292 475v208h-209v-208h209zM750 767q34 0 58.5 -24.5t24.5 -59.5v-208q0 -35 -24.5 -59t-58.5 -24h-208q-35 0 -59.5 24.5t-24.5 58.5
v208q0 35 25 59.5t59 24.5h208zM750 475v208h-208v-208h208zM292 308q34 0 58.5 -24t24.5 -59v-208q0 -35 -24.5 -59.5t-58.5 -24.5h-209q-34 0 -58.5 24.5t-24.5 59.5v208q0 35 24 59t59 24h209zM292 17v208h-209v-208h209zM750 308q34 0 58.5 -24t24.5 -59v-208
q0 -35 -24.5 -59.5t-58.5 -24.5h-208q-34 0 -59 24.5t-25 59.5v208q0 34 24.5 58.5t59.5 24.5h208zM750 17v208h-208v-208h208z" />
    <glyph glyph-name="glyph153" unicode="&#x27a9;" horiz-adv-x="833" 
d="M708 100h-291q-17 0 -29.5 -12.5t-12.5 -29.5t12.5 -29t29.5 -12h291q17 0 29.5 12t12.5 29t-12.5 29.5t-29.5 12.5zM708 183q52 0 88.5 -36.5t36.5 -88.5t-36.5 -88.5t-88.5 -36.5h-291q-52 0 -88.5 36.5t-36.5 88.5t36.5 88.5t88.5 36.5h291zM708 392h-291
q-17 0 -29.5 -12.5t-12.5 -29.5t12.5 -29.5t29.5 -12.5h291q17 0 29.5 12.5t12.5 29.5t-12.5 29.5t-29.5 12.5zM708 475q52 0 88.5 -36.5t36.5 -88.5t-36.5 -88.5t-88.5 -36.5h-291q-52 0 -88.5 36.5t-36.5 88.5t36.5 88.5t88.5 36.5h291zM708 683h-291q-17 0 -29.5 -12
t-12.5 -29t12.5 -29.5t29.5 -12.5h291q17 0 29.5 12.5t12.5 29.5t-12.5 29t-29.5 12zM708 767q52 0 88.5 -36.5t36.5 -88.5t-36.5 -88.5t-88.5 -36.5h-291q-52 0 -88.5 36.5t-36.5 88.5t36.5 88.5t88.5 36.5h291zM167 183q35 0 59 -24.5t24 -58.5v-83q0 -35 -24.5 -59.5
t-58.5 -24.5h-84q-34 0 -58.5 24.5t-24.5 59.5v83q0 34 24 58.5t59 24.5h84zM167 17v83h-84v-83h84zM167 475q35 0 59 -24.5t24 -58.5v-84q0 -34 -24 -58.5t-59 -24.5h-84q-35 0 -59 24.5t-24 58.5v84q0 34 24 58.5t59 24.5h84zM167 308v84h-84v-84h84zM167 767
q34 0 58.5 -24.5t24.5 -59.5v-83q0 -34 -24 -58.5t-59 -24.5h-84q-35 0 -59 24.5t-24 58.5v83q0 35 24.5 59.5t58.5 24.5h84zM167 600v83h-84v-83h84z" />
    <glyph glyph-name="glyph154" unicode="&#x27aa;" horiz-adv-x="833" 
d="M167 -67h-84q-34 0 -58.5 24.5t-24.5 59.5v83q0 34 24 58.5t59 24.5h84q35 0 59 -24.5t24 -58.5v-83q0 -35 -24.5 -59.5t-58.5 -24.5zM167 -25v42v-42zM83 100v-83h84v83h-84zM167 225h-84q-35 0 -59 24.5t-24 58.5v84q0 34 24 58.5t59 24.5h84q35 0 59 -24.5t24 -58.5
v-84q0 -34 -24 -58.5t-59 -24.5zM167 267v41v-41zM83 392v-84h84v84h-84zM167 517h-84q-35 0 -59 24.5t-24 58.5v83q0 35 24.5 59.5t58.5 24.5h84q34 0 58.5 -24.5t24.5 -59.5v-83q0 -34 -24 -58.5t-59 -24.5zM167 558v42v-42zM83 683v-83h84v83h-84zM458 -67h-83
q-34 0 -58.5 24.5t-24.5 59.5v83q0 34 24 58.5t59 24.5h83q35 0 59.5 -24.5t24.5 -58.5v-83q0 -35 -25 -59.5t-59 -24.5zM458 -25v42v-42zM375 100v-83h83v83h-83zM458 225h-83q-35 0 -59 24.5t-24 58.5v84q0 34 24 58.5t59 24.5h83q35 0 59.5 -24.5t24.5 -58.5v-84
q0 -34 -24.5 -58.5t-59.5 -24.5zM458 267v41v-41zM375 392v-84h83v84h-83zM458 517h-83q-35 0 -59 24.5t-24 58.5v83q0 35 24.5 59.5t58.5 24.5h83q34 0 59 -24.5t25 -59.5v-83q0 -34 -24.5 -58.5t-59.5 -24.5zM458 558v42v-42zM375 683v-83h83v83h-83zM750 -67h-83
q-35 0 -59.5 24.5t-24.5 59.5v83q0 34 24.5 58.5t59.5 24.5h83q34 0 58.5 -24.5t24.5 -58.5v-83q0 -35 -24.5 -59.5t-58.5 -24.5zM750 -25v42v-42zM667 100v-83h83v83h-83zM750 225h-83q-35 0 -59.5 24.5t-24.5 58.5v84q0 34 24.5 58.5t59.5 24.5h83q34 0 58.5 -24.5
t24.5 -58.5v-84q0 -34 -24.5 -58.5t-58.5 -24.5zM750 267v41v-41zM667 392v-84h83v84h-83zM750 517h-83q-35 0 -59.5 24.5t-24.5 58.5v83q0 35 24.5 59.5t59.5 24.5h83q34 0 58.5 -24.5t24.5 -59.5v-83q0 -34 -24.5 -58.5t-58.5 -24.5zM750 558v42v-42zM667 683v-83h83v83
h-83z" />
    <glyph glyph-name="glyph155" unicode="&#x27ab;" horiz-adv-x="417" 
d="M229 222q27 -7 45 -29t18 -51q0 -34 -25 -59t-59 -25t-58.5 24.5t-24.5 59.5q0 29 18 51t45 29v232q0 8 6 14.5t14 6.5t14.5 -6.5t6.5 -14.5v-232zM354 289q63 -63 63 -147q0 -86 -61.5 -147.5t-147.5 -61.5t-147 61.5t-61 147.5q0 85 62 147v332q0 60 43 103t103 43
t103 -43t43 -103v-332zM208 17q52 0 88.5 36.5t36.5 88.5q0 70 -62 107v372q0 25 -18.5 43.5t-44.5 18.5t-44 -18.5t-18 -43.5v-372q-63 -37 -63 -107q0 -52 36.5 -88.5t88.5 -36.5z" />
    <glyph glyph-name="glyph156" unicode="&#x27ac;" horiz-adv-x="708" 
d="M583 600q52 0 88.5 -36.5t36.5 -88.5v-250q0 -52 -36.5 -88.5t-88.5 -36.5q-61 0 -99 50q-35 -35 -51 -67.5t-16 -86.5q0 -43 -31 -73.5t-74 -30.5t-73.5 30.5t-30.5 73.5q0 75 13 150q-135 14 -161 24q-30 11 -47 41t-12 62l28 249q5 30 25.5 56t46.5 36q4 1 20.5 7.5
t23.5 8.5t23.5 6t36 5t45.5 1q66 0 139.5 -20.5t104.5 -44.5q2 -1 4 -4t3 -4q36 31 82 31zM333 -4q0 56 18 103t34 66.5t44 47.5q29 29 29 55v207q0 9 -5 20.5t-10 15.5q-19 14 -78.5 30.5t-114.5 16.5q-22 0 -37.5 -1t-27.5 -3.5t-18 -4.5t-18.5 -7t-18.5 -7
q-5 -2 -11.5 -10t-7.5 -15l-27 -248q-2 -11 4 -14q12 -3 86 -12t95 -11l55 8l-12 -58q-20 -98 -20 -179q0 -8 6 -14.5t14 -6.5t14.5 6.5t6.5 14.5zM625 225v250q0 17 -12.5 29.5t-29.5 12.5t-29 -12.5t-12 -29.5v-250q0 -17 12 -29.5t29 -12.5t29.5 12.5t12.5 29.5z" />
    <glyph glyph-name="glyph157" unicode="&#x27ad;" horiz-adv-x="708" 
d="M649 447q30 -11 46.5 -41t11.5 -62l-28 -249q-5 -31 -25.5 -56.5t-46.5 -35.5q-4 -1 -20.5 -7.5t-23.5 -8.5t-23.5 -6t-36 -5t-45.5 -1q-66 0 -139 20.5t-104 44.5q-1 1 -2.5 2t-3 3t-2.5 3q-36 -31 -82 -31q-52 0 -88.5 36.5t-36.5 88.5v250q0 52 36.5 88.5t88.5 36.5
q61 0 99 -50q35 35 51.5 67.5t16.5 86.5q0 43 30.5 73.5t73.5 30.5t73.5 -30.5t30.5 -73.5q0 -76 -13 -151q140 -15 162 -23zM125 100q17 0 29.5 12.5t12.5 29.5v250q0 17 -12.5 29t-29.5 12t-29.5 -12t-12.5 -29v-250q0 -17 12.5 -29.5t29.5 -12.5zM597 106l28 249
q2 11 -5 14q-12 3 -86 12t-95 11l-55 -8l13 58q20 93 20 179q0 8 -6 14.5t-15 6.5t-15 -6.5t-6 -14.5q0 -56 -18 -103t-34 -66.5t-44 -47.5q-29 -29 -29 -55v-207q0 -9 5 -20.5t10 -15.5q19 -14 79 -31t114 -17q22 0 37.5 1t27.5 3.5t18 4.5t18.5 7t18.5 7q5 2 11.5 10
t7.5 15z" />
    <glyph glyph-name="glyph158" unicode="&#x27ae;" horiz-adv-x="625" 
d="M292 17q-53 0 -89 36l-166 167q-37 37 -37 88q0 52 37 89q35 35 88 35t88 -35l50 -50l128 230q16 30 45.5 47.5t63.5 17.5q70 0 107.5 -60.5t1.5 -125.5l-208 -375q-35 -64 -109 -64zM125 350q-17 0 -29.5 -12.5t-12.5 -29.5q0 -16 13 -29l166 -167q15 -15 35.5 -12
t30.5 21l208 375q9 18 3.5 34t-19.5 23q-15 8 -31.5 3t-24.5 -19l-182 -327l-128 128q-12 12 -29 12z" />
    <glyph glyph-name="glyph159" unicode="&#x27af;" horiz-adv-x="855" 
d="M819 514q36 -36 35.5 -88.5t-36.5 -88.5l-381 -375q-38 -36 -88 -36q-52 0 -89 37l-224 223q-36 36 -35.5 88.5t36.5 88.5l381 375q35 35 88.5 34.5t88.5 -35.5zM760 397q12 12 12 29t-12 29l-53 53q-25 -21 -58 -20t-56 24t-23.5 55.5t20.5 57.5q-9 9 -27 26.5t-27 26.5
q-12 12 -30 12q-17 0 -29 -12l-381 -375q-12 -12 -12.5 -29t11.5 -29l54 -53q25 21 57.5 20t55.5 -24t24 -55.5t-20 -57.5l53 -53q12 -12 30 -12.5t30 11.5zM213 334l235 226l194 -194l-235 -226zM408 198l175 169l-135 135l-176 -169z" />
    <glyph glyph-name="glyph160" unicode="&#x27b0;" 
d="M542 308q0 -17 -12.5 -29t-29.5 -12h-125q-17 0 -29.5 12t-12.5 29t12.5 29.5t29.5 12.5h125q17 0 29.5 -12.5t12.5 -29.5zM375 600q-121 0 -206.5 -85.5t-85.5 -206.5t85.5 -206t206.5 -85t206.5 85t85.5 206t-85.5 206.5t-206.5 85.5zM375 683q155 0 265 -110t110 -265
t-110 -265t-265 -110t-265 110t-110 265t110 265t265 110zM417 433v-125q0 -17 -12.5 -29t-29.5 -12t-29.5 12t-12.5 29v125q0 17 12.5 29.5t29.5 12.5t29.5 -12.5t12.5 -29.5zM375 517q-86 0 -147 -61.5t-61 -147.5t61 -147t147 -61t147 61t61 147t-61 147.5t-147 61.5z
M375 558q103 0 176.5 -73t73.5 -177t-73.5 -177t-176.5 -73t-176.5 73t-73.5 177t73.5 177t176.5 73z" />
    <glyph glyph-name="glyph161" unicode="&#x27b1;" horiz-adv-x="583" 
d="M583 183q0 -51 -37 -88t-88 -37t-88 37l-78 78l-79 -78q-35 -35 -88 -35t-88 35q-37 37 -37 88q0 52 37 89l78 78l-78 78q-37 37 -37 89q0 51 37 88q35 35 88 35t88 -35l79 -78l78 78q35 35 88.5 35t88.5 -35q36 -36 36 -88q0 -53 -36 -89l-79 -78l79 -78q36 -36 36 -89z
M292 291l137 -137q12 -12 29.5 -12t29.5 12t12 29q0 18 -12 30l-137 137l137 137q12 12 12 30q0 17 -12 29t-29.5 12t-29.5 -12l-137 -137l-138 137q-12 12 -29 12t-29 -12q-13 -13 -13 -29q0 -17 13 -30l137 -137l-137 -137q-13 -13 -13 -30q0 -16 13 -29q12 -12 29 -12
t29 12z" />
    <glyph glyph-name="glyph162" unicode="&#x27b2;" horiz-adv-x="625" 
d="M583 558q17 0 29.5 -12t12.5 -29t-12.5 -29.5t-29.5 -12.5v-333q0 -69 -48.5 -118t-117.5 -49h-209q-69 0 -117.5 49t-48.5 118v333q-17 0 -29.5 12.5t-12.5 29.5t12.5 29t29.5 12h41v42q0 34 24.5 58.5t59.5 24.5h291q35 0 59.5 -24.5t24.5 -58.5v-42h41zM167 600v-42
h291v42h-291zM500 142v333h-375v-333q0 -35 24.5 -59.5t58.5 -24.5h209q34 0 58.5 24.5t24.5 59.5zM188 412q20 0 20 -20v-250q0 -21 -20 -21q-9 0 -15 6t-6 15v250q0 20 21 20zM271 412q21 0 21 -20v-250q0 -9 -6 -15t-15 -6t-15 6t-6 15v250q0 20 21 20zM354 412
q21 0 21 -20v-250q0 -9 -6 -15t-15 -6t-15 6t-6 15v250q0 20 21 20zM438 412q20 0 20 -20v-250q0 -21 -20 -21q-9 0 -15 6t-6 15v250q0 20 21 20z" />
    <glyph glyph-name="glyph163" unicode="&#x27b3;" 
d="M741 126q17 -22 4 -45t-37 -23h-291v-125q0 -17 -12.5 -29t-29.5 -12t-29.5 12t-12.5 29v125h-291q-24 0 -37 23t4 45l113 141h-39q-23 0 -36 21t2 44l292 417q12 17 34 17q17 0 29 -12l5 -5l292 -417q14 -23 1.5 -44t-35.5 -21h-39zM417 142h205l-113 140q-17 22 -4 45
t37 23h45l-212 302l-212 -302h45q24 0 37 -23t-4 -45l-113 -140h205v208q0 17 12.5 29.5t29.5 12.5t29.5 -12.5t12.5 -29.5v-208z" />
    <glyph glyph-name="glyph164" unicode="&#x27b4;" 
d="M749 142h1v-209q0 -17 -12.5 -29t-29.5 -12h-666q-17 0 -29.5 12t-12.5 29v209h1q0 9 1 13l83 250q6 17 24 25q-28 37 -25 83.5t36 79.5l255 255l255 -255q33 -33 36 -79.5t-25 -83.5q17 -8 23 -25l84 -250q1 -4 1 -13zM179 534q-12 -12 -12 -29.5t12 -29.5t29.5 -12
t29.5 12l95 95v-241q0 -17 12.5 -29t29.5 -12t29.5 12t12.5 29v241l95 -95q12 -12 29.5 -12t29.5 12t12 29.5t-12 29.5l-196 196zM155 350l-69 -208h578l-69 208h-95v-21q0 -52 -36.5 -88.5t-88.5 -36.5t-88.5 36.5t-36.5 88.5v21h-95zM83 -25h584v125h-584v-125z" />
    </font>
</defs>
</svg>
