<svg height="1000px" width="791.50390625px" xmlns="http://www.w3.org/2000/svg">
  <g>
    <path d="M0 625c0 0 0 -291.504 0 -291.504c0 -33.203 12.451 -62.337 37.354 -87.402c24.902 -25.065 54.117 -37.598 87.646 -37.598c0 0 458.008 0 458.008 0c36.133 0 66.732 12.37 91.797 37.109c22.135 27.67 33.203 58.269 33.203 91.797c0 0 8.301 -3.906 8.301 -3.906c0 0 12.695 0 12.695 0c19.531 0 34.831 8.301 45.898 24.902c11.068 19.532 16.602 38.9 16.602 58.106c0 0 0 125 0 125c0 27.669 -8.301 49.967 -24.902 66.894c-11.068 11.068 -23.601 16.602 -37.598 16.602c0 0 -8.301 0 -8.301 0c-5.534 -2.93 -9.766 -4.395 -12.695 -4.395c0 33.204 -11.068 63.803 -33.203 91.797c-25.065 25.065 -55.664 37.598 -91.797 37.598c0 0 -458.008 0 -458.008 0c-33.203 0 -62.337 -12.533 -87.402 -37.598c-25.065 -25.065 -37.598 -54.199 -37.598 -87.402c0 0 0 0 0 0m83.008 0c0 27.669 13.997 41.504 41.992 41.504c0 0 458.008 0 458.008 0c27.669 0 41.666 -13.835 41.992 -41.504c0 0 0 -291.504 0 -291.504c0 -27.669 -13.997 -41.667 -41.992 -41.992c0 0 -458.008 0 -458.008 0c-27.669 0 -41.667 13.997 -41.992 41.992c0 0 0 291.504 0 291.504c0 0 0 0 0 0m41.992 0c0 0 0 -291.504 0 -291.504c0 0 458.008 0 458.008 0c0 0 0 291.504 0 291.504c0 0 -458.008 0 -458.008 0c0 0 0 0 0 0m83.008 -125c38.737 -11.068 74.87 -24.902 108.398 -41.504c11.068 33.203 27.832 70.638 50.293 112.305c0 0 133.301 -112.305 133.301 -112.305c0 0 -108.398 41.504 -108.398 41.504c-5.534 -22.135 -22.299 -59.57 -50.293 -112.305c-52.735 38.737 -97.168 76.172 -133.301 112.305c0 0 0 0 0 0" />
  </g>
</svg>