<svg height="1000px" width="791.50390625px" xmlns="http://www.w3.org/2000/svg">
  <g>
    <path d="M0 625c0 0 0 -291.504 0 -291.504c0 -33.203 12.451 -62.337 37.354 -87.402c24.902 -25.065 54.117 -37.598 87.646 -37.598c0 0 458.008 0 458.008 0c27.669 0 51.269 13.835 70.801 41.504c22.135 22.135 40.201 49.967 54.199 83.496c0 0 8.301 0 8.301 0c5.533 -2.93 9.765 -4.394 12.695 -4.394c19.531 0 34.831 8.3 45.898 24.902c11.068 13.997 16.602 33.529 16.602 58.594c0 0 0 133.3 0 133.3c0 27.67 -8.301 49.805 -24.902 66.407c-8.464 11.067 -19.532 16.764 -33.204 17.09c-11.067 0 -19.531 -1.465 -25.39 -4.395c0 33.203 -12.451 62.337 -37.354 87.402c-24.902 25.065 -54.118 37.598 -87.646 37.598c0 0 -458.008 0 -458.008 0c-33.203 0 -62.337 -12.533 -87.402 -37.598c-25.065 -25.065 -37.598 -54.199 -37.598 -87.402c0 0 0 0 0 0m83.008 0c0 27.669 13.997 41.504 41.992 41.504c0 0 458.008 0 458.008 0c27.669 0 41.666 -13.835 41.992 -41.504c0 0 0 -291.504 0 -291.504c0 -27.669 -13.997 -41.667 -41.992 -41.992c0 0 -458.008 0 -458.008 0c-27.669 0 -41.667 13.997 -41.992 41.992c0 0 0 291.504 0 291.504c0 0 0 0 0 0m41.992 0c0 0 0 -291.504 0 -291.504c0 0 125 0 125 0c0 0 0 291.504 0 291.504c0 0 -125 0 -125 0c0 0 0 0 0 0" />
  </g>
</svg>