<svg height="1000px" width="791.9921875px" xmlns="http://www.w3.org/2000/svg">
  <g>
    <path d="M0 625c0 0 0 -291.504 0 -291.504c0 -33.203 12.533 -62.337 37.598 -87.402c25.065 -25.065 54.199 -37.598 87.402 -37.598c0 0 458.496 0 458.496 0c36.133 0 65.267 12.37 87.402 37.109c25.066 25.066 37.598 55.665 37.598 91.797c2.93 0 7.162 -0.651 12.695 -1.953c0 0 8.301 -1.953 8.301 -1.953c16.602 0 31.901 8.301 45.899 24.902c11.067 19.532 16.601 38.9 16.601 58.106c0 0 0 125 0 125c0 27.669 -8.463 49.967 -25.39 66.894c-11.068 11.068 -23.438 16.602 -37.11 16.602c0 0 -8.301 0 -8.301 0c-5.533 -2.93 -9.765 -4.395 -12.695 -4.395c0 36.133 -12.532 66.732 -37.598 91.797c-22.135 25.065 -51.269 37.598 -87.402 37.598c0 0 -458.496 0 -458.496 0c-33.203 0 -62.337 -12.533 -87.402 -37.598c-25.065 -25.065 -37.598 -54.199 -37.598 -87.402c0 0 0 0 0 0m83.496 0c0 27.669 13.835 41.504 41.504 41.504c0 0 458.496 0 458.496 0c27.669 0 41.504 -13.835 41.504 -41.504c0 0 0 -291.504 0 -291.504c0 -27.669 -13.835 -41.667 -41.504 -41.992c0 0 -458.496 0 -458.496 0c-27.669 0 -41.504 13.997 -41.504 41.992c0 0 0 291.504 0 291.504c0 0 0 0 0 0" />
  </g>
</svg>