<svg height="1000px" width="666.9921875px" xmlns="http://www.w3.org/2000/svg">
  <g>
    <path d="M0 500c0 -91.797 32.633 -170.329 97.9 -235.596c65.267 -65.267 143.799 -97.9 235.596 -97.9c91.797 0 170.329 32.633 235.596 97.9c65.267 65.267 97.9 143.799 97.9 235.596c0 91.797 -32.633 170.329 -97.9 235.596c-65.267 65.267 -143.799 97.9 -235.596 97.9c-91.797 0 -170.329 -32.633 -235.596 -97.9c-65.267 -65.267 -97.9 -143.799 -97.9 -235.596c0 0 0 0 0 0m125 0c0 58.268 20.182 107.585 60.547 147.949c40.364 40.365 89.681 60.547 147.949 60.547c33.203 0 65.104 -8.463 95.703 -25.391c0 0 -278.808 -278.808 -278.808 -278.808c-16.927 30.599 -25.391 62.5 -25.391 95.703c0 0 0 0 0 0m112.793 -183.105c0 0 278.809 278.808 278.809 278.808c16.601 -30.599 25.065 -62.5 25.39 -95.703c0 -58.268 -20.182 -107.585 -60.547 -147.949c-40.364 -40.365 -89.681 -60.547 -147.949 -60.547c-33.203 0.325 -65.104 8.789 -95.703 25.391c0 0 0 0 0 0" />
  </g>
</svg>