<svg height="1000px" width="500px" xmlns="http://www.w3.org/2000/svg">
  <g>
    <path d="M0 791.50390625c0 0 0 -583.008 0 -583.008c0 -27.669 13.835 -41.666 41.504 -41.992c0 0 416.504 0 416.504 0c27.669 0 41.666 13.997 41.992 41.992c0 0 0 583.008 0 583.008c0 13.997 -5.534 20.996 -16.602 20.996c-11.067 0 -27.832 -8.301 -50.293 -24.902c-22.135 -16.602 -41.503 -36.133 -58.105 -58.594c0 0 -62.5 -62.5 -62.5 -62.5c-25.065 -16.602 -45.98 -24.902 -62.744 -24.902c-16.764 0 -37.516 8.3 -62.256 24.902c0 0 -25.391 25.391 -25.391 25.391c-16.601 13.997 -28.971 26.367 -37.109 37.109c-5.534 5.534 -11.8 12.533 -18.799 20.996c-6.999 8.464 -13.997 15.462 -20.996 20.996c-6.999 5.534 -13.265 11.068 -18.799 16.602c-22.135 16.601 -38.737 24.902 -49.804 24.902c-5.534 0 -9.766 -2.767 -12.696 -8.301c-2.604 -2.929 -3.906 -7.161 -3.906 -12.695c0 0 0 0 0 0" />
  </g>
</svg>