<svg height="1000px" width="737.3046875px" xmlns="http://www.w3.org/2000/svg">
  <g>
    <path d="M0 500c0 -11.068 11.068 -34.668 33.203 -70.801c5.534 -8.463 17.334 -25.879 35.401 -52.246c18.066 -26.367 34.098 -47.851 48.095 -64.453c0 0 53.711 -70.801 53.711 -70.801c16.602 -22.135 38.9 -33.203 66.895 -33.203c0 0 458.496 0 458.496 0c27.669 0 41.504 13.835 41.504 41.504c0 0 0 500 0 500c0 27.669 -13.835 41.504 -41.504 41.504c0 0 -458.496 0 -458.496 0c-22.136 0 -44.434 -11.068 -66.895 -33.203c0 -2.93 -17.903 -26.53 -53.711 -70.801c-13.997 -16.602 -30.761 -38.086 -50.293 -64.453c-19.531 -26.367 -30.599 -42.318 -33.203 -47.852c-22.135 -36.133 -33.203 -61.198 -33.203 -75.195c0 0 0 0 0 0m250 125c0 0 70.801 70.801 70.801 70.801c0 0 125 -125 125 -125c0 0 125 125 125 125c0 0 70.801 -70.801 70.801 -70.801c0 0 -125 -125 -125 -125c0 0 125 -125 125 -125c0 0 -70.801 -70.801 -70.801 -70.801c0 0 -125 125 -125 125c0 0 -125 -125 -125 -125c0 0 -70.801 70.801 -70.801 70.801c0 0 125 125 125 125c0 0 -125 125 -125 125" />
  </g>
</svg>