<svg height="1000px" width="625px" xmlns="http://www.w3.org/2000/svg">
  <g>
    <path d="M0 791.50390625c0 0 0 -541.504 0 -541.504c0 0 83.496 0 83.496 0c0 0 0 304.199 0 304.199c0 0 204.102 -291.504 204.102 -291.504c0 0 179.199 224.61 179.199 224.61c0 0 91.797 -62.5 91.797 -62.5c0 0 49.804 66.894 49.804 66.894c0 0 -158.203 108.399 -158.203 108.399c0 0 -158.203 -200.196 -158.203 -200.196c0 0 -208.496 295.899 -208.496 295.899c0 0 0 12.695 0 12.695c0 0 541.504 0 541.504 0c0 0 0 83.008 0 83.008c0 0 -625 0 -625 0c0 0 0 0 0 0" />
  </g>
</svg>