<svg height="1000px" width="666.9921875px" xmlns="http://www.w3.org/2000/svg">
  <g>
    <path d="M0 500c0 -94.401 33.366 -172.201 100.098 -233.398c61.198 -66.732 138.997 -100.098 233.398 -100.098c94.401 0 172.201 33.366 233.399 100.098c66.731 61.197 100.097 138.997 100.097 233.398c0 94.401 -33.366 172.201 -100.097 233.398c-61.198 66.732 -138.998 100.098 -233.399 100.098c-94.401 0 -172.2 -33.366 -233.398 -100.098c-66.732 -61.197 -100.098 -138.997 -100.098 -233.398c0 0 0 0 0 0m83.496 0c0 72.266 25.065 130.534 75.195 174.805c44.597 50.13 102.946 75.195 175.049 75.195c72.103 0 130.29 -25.065 174.561 -75.195c50.13 -44.597 75.195 -102.946 75.195 -175.049c0 -72.103 -25.065 -130.29 -75.195 -174.561c-44.597 -50.13 -102.946 -75.195 -175.049 -75.195c-72.103 0 -130.29 25.065 -174.561 75.195c-50.13 44.271 -75.195 102.539 -75.195 174.805c0 0 0 0 0 0m208.496 62.5c0 0 0 -270.996 0 -270.996c0 0 83.008 0 83.008 0c0 0 0 225.098 0 225.098c0 0 125 66.894 125 66.894c0 0 -54.199 62.5 -54.199 62.5c0 0 -153.809 -83.496 -153.809 -83.496" />
  </g>
</svg>