<svg height="1000px" width="641.6015625px" xmlns="http://www.w3.org/2000/svg">
  <g>
    <path d="M0 608.3984375c0 0 112.305 -108.398 112.305 -108.398c0 0 -112.305 -108.399 -112.305 -108.399c0 0 66.406 -116.699 66.406 -116.699c0 0 150.391 45.898 150.391 45.898c0 0 37.109 -154.297 37.109 -154.297c0 0 133.789 0 133.789 0c0 0 37.11 154.297 37.11 154.297c0 0 150.39 -45.898 150.39 -45.898c0 0 66.407 116.699 66.407 116.699c0 0 -112.305 108.399 -112.305 108.399c0 0 112.305 108.398 112.305 108.398c0 0 -66.407 116.699 -66.407 116.699c0 0 -150.39 -45.898 -150.39 -45.898c0 0 -37.11 154.297 -37.11 154.297c0 0 -133.789 0 -133.789 0c0 0 -37.109 -154.297 -37.109 -154.297c0 0 -150.391 45.898 -150.391 45.898c0 0 -66.406 -116.699 -66.406 -116.699m233.398 -108.398c0 25.065 8.301 45.898 24.903 62.5c16.601 16.601 37.435 24.902 62.5 24.902c25.065 0 45.898 -8.301 62.5 -24.902c16.601 -16.602 24.902 -37.435 24.902 -62.5c0 -25.066 -8.301 -45.899 -24.902 -62.5c-16.602 -16.602 -37.435 -24.903 -62.5 -24.903c-25.065 0 -45.899 8.301 -62.5 24.903c-16.602 16.601 -24.903 37.434 -24.903 62.5c0 0 0 0 0 0" />
  </g>
</svg>