<svg height="1000px" width="666.9921875px" xmlns="http://www.w3.org/2000/svg">
  <g>
    <path d="M0 791.50390625c0 0 0 -208.008 0 -208.008c5.534 -16.601 12.533 -40.202 20.996 -70.801c0 0 37.598 -137.695 37.598 -137.695c16.601 -50.13 24.902 -77.962 24.902 -83.496c0 0 125 0 125 0c0 0 0 41.992 0 41.992c0 0 -83.496 0 -83.496 0c0 0 -41.504 250 -41.504 250c0 0 500 0 500 0c0 0 -41.504 -250 -41.504 -250c0 0 -83.496 0 -83.496 0c0 0 0 -41.992 0 -41.992c0 0 125 0 125 0c0 5.534 8.301 33.366 24.902 83.496c0 0 37.598 137.695 37.598 137.695c0 0 20.996 70.801 20.996 70.801c0 0 0 208.008 0 208.008c0 0 -666.992 0 -666.992 0c0 0 0 0 0 0m166.992 -416.504c0 0 83.008 0 83.008 0c0 0 0 -166.504 0 -166.504c0 0 166.992 0 166.992 0c0 0 0 166.504 0 166.504c0 0 83.008 0 83.008 0c0 0 -166.504 166.504 -166.504 166.504c0 0 -166.504 -166.504 -166.504 -166.504" />
  </g>
</svg>