<svg height="1000px" width="708.49609375px" xmlns="http://www.w3.org/2000/svg">
  <g>
    <path d="M0 791.50390625c0 0 0 -666.504 0 -666.504c0 0 375 0 375 0c0 0 -83.008 125 -83.008 125c0 0 -166.992 0 -166.992 0c0 0 0 416.504 0 416.504c0 0 416.992 0 416.992 0c0 0 125 -125 125 -125c0 0 0 250 0 250c0 0 -666.992 0 -666.992 0c0 0 0 0 0 0m166.992 -208.008c50.13 -199.87 147.298 -311.035 291.504 -333.496c0 0 0 -125 0 -125c0 0 250 250 250 250c0 0 -250 250 -250 250c0 -11.068 1.465 -23.6 4.395 -37.598c0 0 0 -49.804 0 -49.804c0 0 3.906 -4.395 3.906 -4.395c0 0 0 -12.207 0 -12.207c0 -2.93 -0.651 -7.161 -1.953 -12.695c-1.302 -5.534 -1.953 -11.068 -1.953 -16.602c0 -33.203 -12.533 -49.804 -37.598 -49.804c-47.201 0 -97.168 13.834 -149.902 41.504c-55.664 30.598 -91.797 63.964 -108.399 100.097c0 0 0 0 0 0" />
  </g>
</svg>