<svg height="1000px" width="541.50390625px" xmlns="http://www.w3.org/2000/svg">
  <g>
    <path d="M0 774.90234375c0 0 0 -549.805 0 -549.805c0 -38.737 19.368 -58.268 58.105 -58.593c0 0 8.301 0 8.301 0c38.737 0 58.268 19.531 58.594 58.593c0 0 0 316.407 0 316.407c0 0 0 41.992 0 41.992c0 0 0 191.406 0 191.406c0 38.737 -19.531 58.268 -58.594 58.594c0 0 -8.301 0 -8.301 0c-38.737 -0.326 -58.105 -19.857 -58.105 -58.594c0 0 0 0 0 0m166.504 -233.398c0 0 0 -316.407 0 -316.407c0 0 41.504 0 41.504 0c55.664 0 97.412 11.068 125.244 33.203c27.832 22.136 69.417 33.204 124.756 33.204c0 0 83.496 0 83.496 0c0 0 0 333.496 0 333.496c0 0 -83.496 0 -83.496 0c-55.664 0 -97.331 -13.916 -125 -41.748c-27.669 -27.832 -69.336 -41.748 -125 -41.748c0 0 -41.504 0 -41.504 0c0 0 0 0 0 0" />
  </g>
</svg>