<svg height="1000px" width="733.3984375px" xmlns="http://www.w3.org/2000/svg">
  <g>
    <path d="M0 391.6015625c0 -44.596 18.066 -87.565 54.199 -128.906c36.133 -36.133 79.265 -54.199 129.395 -54.199c52.734 0 95.703 18.066 128.906 54.199c36.133 33.203 54.199 76.172 54.199 128.906c0 -52.734 18.067 -95.703 54.199 -128.906c33.204 -36.133 76.172 -54.199 128.907 -54.199c50.13 0 93.261 18.066 129.394 54.199c36.133 36.133 54.199 79.101 54.199 128.906c0 41.667 -12.532 84.798 -37.597 129.395c-25.065 33.203 -40.365 52.571 -45.899 58.105c0 0 -49.804 50.293 -49.804 50.293c-2.93 2.93 -10.58 9.847 -22.95 20.752c-12.369 10.905 -24.251 19.124 -35.644 24.658c-16.602 11.068 -35.97 25.065 -58.106 41.992c0 0 -62.5 37.598 -62.5 37.598c0 0 -31.25 20.508 -31.25 20.508c-12.369 8.463 -20.019 13.997 -22.949 16.601c-2.929 -2.929 -10.579 -8.463 -22.949 -16.601c0 0 -31.25 -20.508 -31.25 -20.508c0 0 -62.5 -37.598 -62.5 -37.598c-22.135 -16.601 -41.504 -30.599 -58.105 -41.992c-11.068 -5.534 -22.868 -13.835 -35.401 -24.902c-12.532 -11.068 -20.264 -17.904 -23.193 -20.508c0 0 -49.805 -50.293 -49.805 -50.293c-5.534 -5.534 -20.833 -24.902 -45.898 -58.105c-25.065 -44.597 -37.598 -87.728 -37.598 -129.395c0 0 0 0 0 0" />
  </g>
</svg>