<svg height="1000px" width="304.19921875px" xmlns="http://www.w3.org/2000/svg">
  <g>
    <path d="M0 429.19921875c38.737 -30.599 77.637 -45.898 116.699 -45.898c0 0 4.395 0 4.395 0c27.669 0 51.269 8.3 70.801 24.902c22.135 16.601 33.203 38.9 33.203 66.894c0 19.532 -15.3 52.898 -45.899 100.098c-27.669 38.737 -41.504 67.871 -41.504 87.402c0 30.599 18.067 45.899 54.2 45.899c13.997 0 27.832 -4.232 41.503 -12.695c-36.132 30.599 -75.032 45.898 -116.699 45.898c-30.599 0 -55.664 -8.301 -75.195 -24.902c-22.136 -16.602 -33.203 -38.9 -33.203 -66.895c0 -19.531 15.299 -52.897 45.898 -100.098c27.669 -38.737 41.504 -67.871 41.504 -87.402c0 -30.599 -18.066 -45.898 -54.199 -45.898c-13.672 0 -27.507 4.231 -41.504 12.695c0 0 0 0 0 0m137.695 -179.199c0 -22.136 8.301 -41.586 24.903 -58.35c16.601 -16.764 36.051 -25.146 58.349 -25.146c22.298 0 41.748 8.382 58.35 25.146c16.601 16.764 24.902 36.214 24.902 58.35c0 22.135 -8.301 41.585 -24.902 58.349c-16.602 16.765 -36.052 25.147 -58.35 25.147c-22.298 0 -41.748 -8.382 -58.349 -25.147c-16.602 -16.764 -24.903 -36.214 -24.903 -58.349c0 0 0 0 0 0" />
  </g>
</svg>