<svg height="1000px" width="562.5px" xmlns="http://www.w3.org/2000/svg">
  <g>
    <path d="M0 791.50390625c0 0 0 -125 0 -125c0 0 166.504 -166.504 166.504 -166.504c-13.997 -22.135 -20.833 -49.967 -20.508 -83.496c0 -55.664 20.101 -104.248 60.303 -145.752c40.202 -41.504 89.518 -62.256 147.949 -62.256c58.431 0 107.747 20.834 147.949 62.5c40.202 41.667 60.303 90.169 60.303 145.508c0 52.734 -19.45 100.667 -58.35 143.799c-38.899 43.131 -84.716 64.697 -137.451 64.697c0 0 -33.203 0 -33.203 0c0 0 -83.496 0 -83.496 0c0 0 0 83.496 0 83.496c0 0 -83.496 0 -83.496 0c0 0 0 83.008 0 83.008c0 0 -166.504 0 -166.504 0c0 0 0 0 0 0m270.996 -374.756c0 22.298 8.301 41.748 24.902 58.35c16.602 16.601 36.052 24.902 58.35 24.902c22.298 0 41.748 -8.301 58.35 -24.902c16.601 -16.602 24.902 -36.052 24.902 -58.35c0 -22.298 -8.301 -41.748 -24.902 -58.349c-16.602 -16.602 -36.052 -24.903 -58.35 -24.903c-22.298 0 -41.748 8.301 -58.35 24.903c-16.601 16.601 -24.902 36.051 -24.902 58.349c0 0 0 0 0 0" />
  </g>
</svg>