<svg height="1000px" width="666.9921875px" xmlns="http://www.w3.org/2000/svg">
  <g>
    <path d="M0 491.69921875c0 0 0 -12.695 0 -12.695c0 0 0 -12.207 0 -12.207c0 0 4.395 -8.301 4.395 -8.301c0 0 0 -4.395 0 -4.395c2.929 -2.929 5.696 -6.429 8.3 -10.498c2.604 -4.069 3.907 -7.568 3.907 -10.498c0 0 208.496 -208.008 208.496 -208.008c11.067 -11.067 26.367 -16.601 45.898 -16.601c19.531 0 34.831 5.534 45.899 16.601c11.067 11.068 16.601 26.286 16.601 45.655c0 19.368 -5.534 34.749 -16.601 46.142c0 0 -104.004 99.61 -104.004 99.61c0 0 391.601 0 391.601 0c16.602 0 31.169 6.266 43.701 18.799c12.533 12.532 18.799 27.181 18.799 43.945c0 16.764 -6.266 31.331 -18.799 43.701c-12.532 12.37 -27.099 18.555 -43.701 18.555c0 0 -391.601 0 -391.601 0c0 0 104.004 100.097 104.004 100.097c11.067 11.068 16.601 26.368 16.601 45.899c0 19.531 -5.534 34.831 -16.601 45.898c-11.068 11.068 -26.368 16.602 -45.899 16.602c-19.531 0 -34.831 -5.534 -45.898 -16.602c0 0 -208.496 -208.496 -208.496 -208.496c0 -2.93 -1.384 -6.429 -4.151 -10.498c-2.767 -4.069 -5.452 -7.406 -8.056 -10.01c0 0 0 -4.394 0 -4.394c0 0 -4.395 -8.301 -4.395 -8.301" />
  </g>
</svg>