<svg height="1000px" width="583.0078125px" xmlns="http://www.w3.org/2000/svg">
  <g>
    <path d="M0 750c0 -11.068 5.534 -22.135 16.602 -33.203c5.533 -8.464 19.368 -23.763 41.503 -45.899c0 0 29.297 -24.902 29.297 -24.902c-19.531 -13.997 -33.366 -30.762 -41.504 -50.293c-8.463 -13.997 -12.695 -32.064 -12.695 -54.199c0 -33.203 12.533 -62.337 37.598 -87.402c16.601 -16.602 33.203 -34.668 49.804 -54.2c33.204 -38.737 55.502 -63.639 66.895 -74.707c22.135 -22.135 45.736 -40.202 70.801 -54.199c25.065 -16.601 49.967 -25.065 74.707 -25.391c22.135 0 40.202 4.232 54.199 12.696c16.602 5.534 33.366 18.066 50.293 37.597c0 0 20.508 -20.996 20.508 -20.996c0 0 29.297 -33.203 29.297 -33.203c16.601 -22.135 34.668 -33.203 54.199 -33.203c11.068 0 20.752 4.15 29.053 12.451c8.3 8.301 12.451 17.985 12.451 29.053c0 11.068 -5.534 22.135 -16.602 33.203c-5.534 8.464 -19.368 23.763 -41.504 45.899c0 0 -29.297 24.902 -29.297 24.902c19.532 13.997 33.366 30.762 41.504 50.293c8.464 13.997 12.696 32.064 12.696 54.199c0 33.203 -12.533 62.337 -37.598 87.402c0 0 -45.898 54.2 -45.898 54.2c-8.464 8.463 -20.264 20.996 -35.401 37.597c-15.137 16.602 -25.472 28.972 -31.006 37.11c-33.203 27.669 -56.803 45.735 -70.8 54.199c-27.67 19.531 -54.037 29.297 -79.102 29.297c-22.135 0 -40.202 -4.232 -54.199 -12.696c-19.531 -8.463 -36.296 -22.298 -50.293 -41.503c-5.534 8.463 -13.835 18.229 -24.903 29.296c-38.737 38.737 -65.104 58.106 -79.101 58.106c-11.068 0 -20.752 -4.15 -29.053 -12.451c-8.301 -8.301 -12.451 -17.985 -12.451 -29.053c0 0 0 0 0 0m116.699 -208.496c0 5.534 1.302 8.301 3.906 8.301c0 0 0 8.3 0 8.3c0 0 8.301 8.79 8.301 8.79c2.93 5.533 7.162 9.602 12.696 12.207c0 0 3.906 8.3 3.906 8.3c0 0 12.695 -12.207 12.695 -12.207c0 0 16.602 -17.09 16.602 -17.09c11.067 -11.067 22.135 -16.601 33.203 -16.601c27.669 0 41.666 13.997 41.992 41.992c0 11.068 -5.534 22.136 -16.602 33.203c0 0 -17.089 16.602 -17.089 16.602c0 0 -12.207 12.695 -12.207 12.695c0 0 3.906 3.906 3.906 3.906c0 0 8.301 8.301 8.301 8.301c5.533 5.534 9.765 8.301 12.695 8.301c0 0 4.394 4.394 4.394 4.394c0 0 16.602 0 16.602 0c13.997 0 23.6 -2.766 28.809 -8.3c0 0 175.293 -175.293 175.293 -175.293c8.463 -8.464 12.532 -18.067 12.207 -28.809c0 -5.534 -1.302 -8.301 -3.907 -8.301c0 0 0 -8.3 0 -8.3c0 0 -8.3 -8.79 -8.3 -8.79c-2.93 -5.533 -7.162 -9.602 -12.696 -12.207c0 0 -3.906 -8.3 -3.906 -8.3c0 2.929 -4.232 8.463 -12.695 16.601c-5.534 2.93 -11.068 7.162 -16.602 12.696c-11.068 11.067 -22.135 16.601 -33.203 16.601c-27.669 0 -41.667 -13.997 -41.992 -41.992c0 -11.068 5.534 -22.136 16.601 -33.203c5.534 -5.534 9.766 -11.068 12.696 -16.602c8.463 -8.463 13.997 -12.695 16.601 -12.695c0 0 -3.906 -3.906 -3.906 -3.906c-5.534 -8.464 -11.068 -12.696 -16.602 -12.696c-8.463 -8.463 -16.927 -12.532 -25.39 -12.207c-11.068 0 -20.671 4.069 -28.809 12.207c0 0 -175.293 175.293 -175.293 175.293c-8.138 8.138 -12.207 17.741 -12.207 28.809c0 0 0 0 0 0" />
  </g>
</svg>