<svg height="1000px" width="583.0078125px" xmlns="http://www.w3.org/2000/svg">
  <g>
    <path d="M0 750c0 0 0 -291.504 0 -291.504c0 -27.669 13.835 -41.667 41.504 -41.992c0 0 250 0 250 0c0 0 0 -8.301 0 -8.301c0 0 0 -20.508 0 -20.508c0 0 0 -29.297 0 -29.297c0 0 4.394 -45.898 4.394 -45.898c0 -13.997 2.767 -29.297 8.301 -45.898c0 0 12.207 -37.598 12.207 -37.598c5.534 -13.997 15.3 -25.065 29.297 -33.203c19.531 -19.531 50.13 -29.297 91.797 -29.297c41.667 0 76.335 13.916 104.004 41.748c27.669 27.832 41.504 62.581 41.504 104.248c0 0 0 145.996 0 145.996c0 0 -83.008 0 -83.008 0c0 -13.997 1.302 -27.995 3.906 -41.992c0 0 0 -54.199 0 -54.199c0 -22.136 -1.302 -40.202 -3.906 -54.2c-5.534 -38.737 -26.367 -58.105 -62.5 -58.105c-13.997 0 -29.297 5.534 -45.898 16.602c-11.068 11.067 -16.602 26.367 -16.602 45.898c0 0 0 104.004 0 104.004c0 0 12.207 0 12.207 0c0 0 12.695 0 12.695 0c0 0 3.907 0 3.907 0c0 0 17.089 0 17.089 0c0 0 24.903 12.695 24.903 12.695c8.463 2.93 12.532 12.696 12.207 29.297c0 0 0 291.504 0 291.504c0 27.669 -13.835 41.504 -41.504 41.504c0 0 -375 0 -375 0c-27.669 0 -41.504 -13.835 -41.504 -41.504c0 0 0 0 0 0" />
  </g>
</svg>