<svg height="1000px" width="750px" xmlns="http://www.w3.org/2000/svg">
  <g>
    <path d="M0 541.50390625c0 -13.997 2.767 -34.831 8.301 -62.5c13.997 -36.133 34.831 -61.035 62.5 -74.707c11.067 -2.93 24.902 -8.464 41.504 -16.602c16.601 -5.533 34.668 -8.3 54.199 -8.3c16.601 -2.93 34.668 -4.395 54.199 -4.395c0 0 50.293 0 50.293 0c0 0 3.906 0 3.906 0c0 0 16.602 0 16.602 0c0 0 -41.504 41.504 -41.504 41.504c0 0 41.504 41.992 41.504 41.992c0 0 -37.109 0 -37.109 0c0 0 -45.899 -4.394 -45.899 -4.394c0 0 -4.394 0 -4.394 0c-2.93 0 -9.196 0.732 -18.799 2.197c-9.603 1.465 -17.171 2.197 -22.705 2.197c-11.068 2.93 -25.065 6.999 -41.993 12.207c-25.065 13.998 -37.434 37.598 -37.109 70.801c0 22.135 8.301 41.585 24.902 58.35c16.602 16.764 35.97 25.146 58.106 25.146c0 0 83.496 0 83.496 0c0 0 0 -125 0 -125c0 0 166.504 166.504 166.504 166.504c0 0 -166.504 166.992 -166.504 166.992c0 0 0 -125 0 -125c-36.133 0 -59.733 -1.465 -70.801 -4.394c-11.067 0 -33.366 -2.767 -66.894 -8.301c-30.599 -8.464 -49.968 -18.229 -58.106 -29.297c-36.133 -25.065 -54.199 -66.732 -54.199 -125c0 0 0 0 0 0m333.496 -125c0 0 166.504 -166.504 166.504 -166.504c0 0 0 125 0 125c33.203 0 56.803 1.465 70.801 4.395c19.531 0 41.829 4.069 66.894 12.207c22.136 2.929 41.504 11.23 58.106 24.902c36.133 25.065 54.199 66.732 54.199 125c0 19.531 -2.767 40.365 -8.301 62.5c-11.067 36.133 -31.901 61.198 -62.5 75.195c-11.067 5.534 -24.984 11.068 -41.748 16.602c-16.764 5.534 -34.749 8.301 -53.955 8.301c-8.463 0 -18.961 0.732 -31.494 2.197c-12.533 1.465 -20.101 2.197 -22.705 2.197c0 0 -54.199 0 -54.199 0c0 0 -16.602 0 -16.602 0c0 0 41.504 -41.992 41.504 -41.992c0 0 -41.504 -41.504 -41.504 -41.504c0 0 37.109 0 37.109 0c0 0 45.899 4.395 45.899 4.395c0 0 4.394 0 4.394 0c2.93 0 9.196 -0.733 18.799 -2.198c9.603 -1.464 17.171 -2.197 22.705 -2.197c11.068 -2.93 25.065 -7.161 41.993 -12.695c25.065 -13.998 37.434 -37.598 37.109 -70.801c0 -22.135 -8.301 -41.504 -24.902 -58.105c-16.602 -16.602 -35.97 -24.903 -58.106 -24.903c0 0 -83.496 0 -83.496 0c0 0 0 125 0 125c0 0 -166.504 -166.992 -166.504 -166.992" />
  </g>
</svg>