<svg height="1000px" width="500px" xmlns="http://www.w3.org/2000/svg">
  <g>
    <path d="M0 750c0 0 0 -500 0 -500c0 -33.203 12.533 -62.337 37.598 -87.402c25.065 -25.065 54.199 -37.598 87.402 -37.598c0 0 250 0 250 0c33.203 0 62.337 12.533 87.402 37.598c25.065 25.065 37.598 54.199 37.598 87.402c0 0 0 500 0 500c0 33.203 -12.533 62.337 -37.598 87.402c-25.065 25.065 -54.199 37.598 -87.402 37.598c0 0 -250 0 -250 0c-33.203 0 -62.337 -12.533 -87.402 -37.598c-25.065 -25.065 -37.598 -54.199 -37.598 -87.402c0 0 0 0 0 0m83.496 0c0 0 333.008 0 333.008 0c0 0 0 -500 0 -500c0 0 -333.008 0 -333.008 0c0 0 0 500 0 500c0 0 0 0 0 0m83.008 -562.5c0 13.997 6.999 20.996 20.996 20.996c0 0 125 0 125 0c13.997 0 20.996 -6.999 20.996 -20.996c0 -13.997 -6.999 -20.996 -20.996 -20.996c0 0 -125 0 -125 0c-13.997 0 -20.996 6.999 -20.996 20.996c0 0 0 0 0 0m54.443 654.053c19.369 19.368 38.737 19.368 58.106 0c19.368 -19.369 19.368 -38.737 0 -58.106c-19.369 -19.368 -38.737 -19.368 -58.106 0c-19.368 19.369 -19.368 38.737 0 58.106c0 0 0 0 0 0" />
  </g>
</svg>