<svg height="1000px" width="700.1953125px" xmlns="http://www.w3.org/2000/svg">
  <g>
    <path d="M0 695.80078125c0 -8.464 2.767 -15.462 8.301 -20.996c0 0 125 -125 125 -125c5.534 -5.534 12.532 -8.301 20.996 -8.301c2.93 0 9.766 2.767 20.508 8.301c8.463 5.534 16.927 13.997 25.39 25.391c0 0 16.602 16.601 16.602 16.601c0 0 -166.992 166.504 -166.992 166.504c-5.534 -5.534 -11.068 -9.766 -16.602 -12.695c0 0 -16.601 -16.602 -16.601 -16.602c-11.068 -11.068 -16.602 -22.135 -16.602 -33.203c0 0 0 0 0 0m91.797 104.004c0 0 166.504 -166.504 166.504 -166.504c2.929 2.93 8.463 4.395 16.601 4.395c13.998 0 40.365 -18.067 79.102 -54.2c38.737 -33.203 76.335 -73.567 112.793 -121.093c27.669 -30.599 41.504 -54.2 41.504 -70.801c0 0 0 -8.301 0 -8.301c0 0 166.504 -166.504 166.504 -166.504c16.601 16.602 25.065 42.969 25.39 79.102c0 44.596 -18.066 100.097 -54.199 166.504c-33.203 55.664 -79.101 112.63 -137.695 170.898c-41.667 47.201 -98.633 91.634 -170.899 133.301c-61.198 36.133 -116.699 54.199 -166.504 54.199c-33.203 0 -59.57 -6.999 -79.101 -20.996c0 0 0 0 0 0m324.707 -520.508c0 -8.463 2.767 -15.462 8.301 -20.996c0 0 125 -125 125 -125c5.534 -5.534 12.532 -8.301 20.996 -8.301c2.929 0 9.928 2.767 20.996 8.301c5.534 2.93 13.835 9.928 24.902 20.996c0 0 16.602 20.508 16.602 20.508c0 0 -166.504 166.992 -166.504 166.992c-5.534 -5.534 -12.533 -11.068 -20.996 -16.601c-19.531 -16.602 -29.297 -31.902 -29.297 -45.899c0 0 0 0 0 0" />
  </g>
</svg>