<svg height="1000px" width="708.49609375px" xmlns="http://www.w3.org/2000/svg">
  <g>
    <path d="M0 750c0 0 0 -375 0 -375c0 -22.135 8.301 -41.585 24.902 -58.35c16.602 -16.764 36.133 -25.146 58.594 -25.146c0 0 375 0 375 0c22.136 0 41.504 8.382 58.106 25.146c16.601 16.765 24.902 36.215 24.902 58.35c0 0 0 375 0 375c0 22.135 -8.301 41.585 -24.902 58.35c-16.602 16.764 -35.97 25.146 -58.106 25.146c0 0 -375 0 -375 0c-22.135 0 -41.585 -8.382 -58.35 -25.146c-16.764 -16.765 -25.146 -36.215 -25.146 -58.35c0 0 0 0 0 0m83.496 0c0 0 375 0 375 0c0 0 0 -375 0 -375c0 0 -375 0 -375 0c0 0 0 375 0 375c0 0 0 0 0 0m41.504 -500c0 0 0 -41.504 0 -41.504c0 -22.135 8.301 -41.585 24.902 -58.35c16.602 -16.764 36.133 -25.146 58.594 -25.146c0 0 416.504 0 416.504 0c22.135 0 41.585 8.301 58.35 24.902c16.764 16.602 25.146 36.133 25.146 58.594c0 0 0 416.504 0 416.504c0 38.737 -13.997 62.337 -41.992 70.801c-25.065 8.463 -52.734 12.695 -83.008 12.695c0 0 0 -83.496 0 -83.496c0 0 41.504 0 41.504 0c0 0 0 -416.504 0 -416.504c0 0 -416.504 0 -416.504 0c0 0 0 41.504 0 41.504c0 0 -83.496 0 -83.496 0c0 0 0 0 0 0" />
  </g>
</svg>