<svg height="1000px" width="666.9921875px" xmlns="http://www.w3.org/2000/svg">
  <g>
    <path d="M0 479.248046875c0 -16.764 6.266 -31.413 18.799 -43.945c12.532 -12.533 27.099 -18.799 43.701 -18.799c0 0 391.602 0 391.602 0c0 0 -104.004 -99.61 -104.004 -99.61c-11.068 -11.067 -16.602 -26.367 -16.602 -45.898c0 -19.531 5.534 -34.831 16.602 -45.898c11.067 -11.068 26.367 -16.602 45.898 -16.602c19.531 0 34.831 5.534 45.899 16.602c0 0 208.496 208.007 208.496 208.007c0 2.93 1.383 6.511 4.15 10.743c2.767 4.231 5.452 7.649 8.057 10.254c0 0 0 4.394 0 4.394c0 0 4.394 8.301 4.394 8.301c0 0 0 12.207 0 12.207c0 0 0 12.695 0 12.695c0 0 -4.394 8.301 -4.394 8.301c0 0 0 4.394 0 4.394c-2.93 2.93 -5.697 6.43 -8.301 10.499c-2.604 4.069 -3.906 7.405 -3.906 10.009c0 0 -208.496 208.496 -208.496 208.496c-11.068 11.068 -26.368 16.602 -45.899 16.602c-19.531 0 -34.831 -5.534 -45.898 -16.602c-11.068 -11.067 -16.602 -26.367 -16.602 -45.898c0 -19.531 5.534 -34.831 16.602 -45.898c0 0 104.004 -100.098 104.004 -100.098c0 0 -391.602 0 -391.602 0c-16.602 0 -31.169 -6.185 -43.701 -18.555c-12.533 -12.37 -18.799 -26.937 -18.799 -43.701c0 0 0 0 0 0" />
  </g>
</svg>