<svg height="1000px" width="645.99609375px" xmlns="http://www.w3.org/2000/svg">
  <g>
    <path d="M0 750c0 -22.135 8.382 -41.585 25.146 -58.35c16.765 -16.764 36.215 -25.146 58.35 -25.146c22.136 0 41.585 8.382 58.35 25.146c16.764 16.765 25.146 36.215 25.146 58.35c0 22.135 -8.382 41.585 -25.146 58.35c-16.765 16.764 -36.214 25.146 -58.35 25.146c-22.135 0 -41.585 -8.382 -58.35 -25.146c-16.764 -16.765 -25.146 -36.215 -25.146 -58.35c0 0 0 0 0 0m0 -204.102c0 0 0 -125 0 -125c108.398 0 205.729 40.202 291.992 120.606c80.404 86.263 120.606 183.594 120.606 291.992c0 0 -125 0 -125 0c0 -77.799 -29.134 -144.531 -87.403 -200.195c-55.664 -58.268 -122.396 -87.403 -200.195 -87.403c0 0 0 0 0 0m0 -233.398c0 0 0 -125 0 -125c91.797 0 175.13 18.066 250 54.199c77.799 33.203 147.298 77.637 208.496 133.301c55.664 61.198 100.098 130.697 133.301 208.496c36.133 74.87 54.199 158.203 54.199 250c0 0 -125 0 -125 0c0 -88.867 -23.6 -176.432 -70.801 -262.695c-44.596 -80.404 -107.096 -142.904 -187.5 -187.5c-86.263 -47.201 -173.828 -70.801 -262.695 -70.801c0 0 0 0 0 0" />
  </g>
</svg>