<svg height="1000px" width="695.80078125px" xmlns="http://www.w3.org/2000/svg">
  <g>
    <path d="M0 428.955078125c0 -80.566 29.134 -148.519 87.402 -203.857c55.664 -58.269 123.698 -87.403 204.102 -87.403c80.404 0 148.437 29.134 204.101 87.403c58.269 55.664 87.403 123.697 87.403 204.101c0 47.201 -9.603 90.169 -28.809 128.906c0 0 116.211 116.7 116.211 116.7c0 0 -3.906 0 -3.906 0c19.531 16.601 29.297 38.899 29.297 66.894c0 25.065 -9.766 47.201 -29.297 66.406c-16.602 16.602 -37.435 24.984 -62.5 25.147c-25.065 0.163 -47.363 -9.522 -66.895 -29.053c0 0 0 3.906 0 3.906c0 0 -116.699 -116.211 -116.699 -116.211c-38.737 19.532 -81.706 29.135 -128.906 28.809c-80.404 0 -148.438 -29.134 -204.102 -87.402c-58.268 -55.664 -87.402 -123.78 -87.402 -204.346c0 0 0 0 0 0m125 0.244c0 47.201 16.602 86.1 49.805 116.699c33.203 33.203 72.021 49.805 116.455 49.805c44.433 0 83.414 -16.602 116.943 -49.805c33.203 -30.599 49.805 -69.498 49.805 -116.699c0 -44.596 -16.683 -83.496 -50.049 -116.699c-33.366 -33.203 -72.266 -49.805 -116.699 -49.805c-44.434 0 -83.252 16.602 -116.455 49.805c-33.203 33.203 -49.805 72.103 -49.805 116.699c0 0 0 0 0 0" />
  </g>
</svg>