<svg height="1000px" width="708.49609375px" xmlns="http://www.w3.org/2000/svg">
  <g>
    <path d="M0 479.248046875c0 -97.168 34.749 -180.501 104.248 -250c69.499 -69.499 152.832 -104.248 250 -104.248c97.168 0 180.501 34.749 250 104.248c69.499 69.499 104.248 152.832 104.248 250c0 97.168 -34.749 180.501 -104.248 250c-69.499 69.499 -152.832 104.248 -250 104.248c-97.168 0 -180.501 -34.749 -250 -104.248c-69.499 -69.499 -104.248 -152.832 -104.248 -250c0 0 0 0 0 0m133.301 62.256c13.997 41.667 33.528 75.032 58.594 100.098c25.065 25.065 58.431 44.596 100.097 58.593c0 0 20.508 -96.191 20.508 -96.191c0 0 83.496 0 83.496 0c0 0 20.996 96.191 20.996 96.191c41.667 -13.997 74.951 -33.528 99.854 -58.593c24.902 -25.066 44.352 -58.431 58.349 -100.098c0 0 -95.703 -20.508 -95.703 -20.508c0 0 0 -83.496 0 -83.496c0 0 95.703 -20.996 95.703 -20.996c-8.463 -36.133 -27.913 -69.417 -58.349 -99.854c-30.436 -30.436 -63.721 -49.886 -99.854 -58.349c0 0 -20.996 95.703 -20.996 95.703c0 0 -83.496 0 -83.496 0c0 0 -20.508 -95.703 -20.508 -95.703c-41.666 13.997 -75.032 33.447 -100.097 58.349c-25.066 24.903 -44.597 58.187 -58.594 99.854c0 0 96.191 20.996 96.191 20.996c0 0 0 83.496 0 83.496c0 0 -96.191 20.508 -96.191 20.508" />
  </g>
</svg>