<svg height="1000px" width="541.50390625px" xmlns="http://www.w3.org/2000/svg">
  <g>
    <path d="M0 583.49609375c0 0 41.504 -291.992 41.504 -291.992c27.669 -27.669 69.336 -41.504 125 -41.504c36.133 0 75.032 6.999 116.699 20.996c44.596 16.602 75.195 37.435 91.797 62.5c0 0 0 250 0 250c-30.599 0 -59.733 27.669 -87.402 83.008c-13.998 33.203 -26.53 74.87 -37.598 125c0 0 -83.496 0 -83.496 0c0 -13.998 2.767 -45.899 8.301 -95.703c8.463 -33.203 19.694 -56.804 33.691 -70.801c0 0 -208.496 -41.504 -208.496 -41.504m416.504 41.504c0 0 0 -333.496 0 -333.496c0 0 125 0 125 0c0 0 0 333.496 0 333.496c0 0 -125 0 -125 0c0 0 0 0 0 0" />
  </g>
</svg>