<svg height="1000px" width="666.9921875px" xmlns="http://www.w3.org/2000/svg">
  <g>
    <path d="M0 416.50390625c0 0 0 -83.008 0 -83.008c0 0 50.293 0 50.293 0c8.464 -25.065 19.531 -41.829 33.203 -50.293c0 0 8.301 -33.203 8.301 -33.203c19.531 -55.664 58.431 -83.496 116.699 -83.496c0 0 250 0 250 0c58.268 0 97.168 27.832 116.699 83.496c0 0 8.301 33.203 8.301 33.203c13.997 8.464 25.065 25.228 33.203 50.293c0 0 50.293 0 50.293 0c0 0 0 83.008 0 83.008c0 0 -41.992 0 -41.992 0c0 0 0 333.496 0 333.496c0 36.133 -11.8 65.999 -35.4 89.6c-23.601 23.6 -53.467 35.4 -89.6 35.4c0 0 -333.008 0 -333.008 0c-36.133 0 -65.999 -11.8 -89.599 -35.4c-23.601 -23.601 -35.401 -53.467 -35.401 -89.6c0 0 0 -333.496 0 -333.496c0 0 -41.992 0 -41.992 0c0 0 0 0 0 0m125 333.496c0 27.669 13.997 41.504 41.992 41.504c0 0 333.008 0 333.008 0c27.669 0 41.667 -13.835 41.992 -41.504c0 0 0 -333.496 0 -333.496c0 0 -416.992 0 -416.992 0c0 0 0 333.496 0 333.496c0 0 0 0 0 0m41.992 0c0 0 0 -291.504 0 -291.504c0 0 83.008 0 83.008 0c0 0 0 291.504 0 291.504c0 0 -83.008 0 -83.008 0c0 0 0 0 0 0m0 -416.504c0 0 333.008 0 333.008 0c0 0 0 -41.992 0 -41.992c0 -27.669 -13.835 -41.504 -41.504 -41.504c0 0 -250 0 -250 0c-27.669 0 -41.504 13.835 -41.504 41.504c0 0 0 41.992 0 41.992c0 0 0 0 0 0m125 416.504c0 0 0 -291.504 0 -291.504c0 0 83.008 0 83.008 0c0 0 0 291.504 0 291.504c0 0 -83.008 0 -83.008 0c0 0 0 0 0 0m125 0c0 0 0 -291.504 0 -291.504c0 0 83.008 0 83.008 0c0 0 0 291.504 0 291.504c0 0 -83.008 0 -83.008 0c0 0 0 0 0 0" />
  </g>
</svg>