<svg height="1000px" width="541.50390625px" xmlns="http://www.w3.org/2000/svg">
  <g>
    <path d="M0 395.751953125c0 -19.368 5.534 -34.587 16.602 -45.654c0 0 208.496 -208.496 208.496 -208.496c2.929 0 6.429 -1.384 10.498 -4.151c4.069 -2.767 7.405 -5.452 10.009 -8.056c0 0 4.395 0 4.395 0c0 0 8.301 -4.395 8.301 -4.395c0 0 12.695 0 12.695 0c0 0 12.207 0 12.207 0c0 0 8.301 4.395 8.301 4.395c0 0 4.394 0 4.394 0c2.93 2.929 6.429 5.696 10.498 8.3c4.069 2.605 7.569 3.907 10.499 3.907c0 0 208.007 208.496 208.007 208.496c11.068 11.067 16.602 26.286 16.602 45.654c0 19.368 -5.534 34.668 -16.602 45.898c-11.067 11.231 -26.285 16.846 -45.654 16.846c-19.368 0 -34.749 -5.534 -46.143 -16.601c0 0 -99.609 -104.493 -99.609 -104.493c0 0 0 391.602 0 391.602c0 16.602 -6.266 31.169 -18.799 43.701c-12.532 12.533 -27.181 18.799 -43.945 18.799c-16.764 0 -31.331 -6.185 -43.701 -18.555c-12.37 -12.37 -18.555 -27.018 -18.555 -43.945c0 0 0 -391.602 0 -391.602c0 0 -100.098 104.493 -100.098 104.493c-11.067 11.067 -26.367 16.601 -45.898 16.601c-19.531 0 -34.831 -5.615 -45.898 -16.846c-11.068 -11.23 -16.602 -26.53 -16.602 -45.898c0 0 0 0 0 0" />
  </g>
</svg>