<svg height="1000px" width="954.1015625px" xmlns="http://www.w3.org/2000/svg">
  <g>
    <path d="M0 616.69921875c0 -25.065 22.298 -51.432 66.895 -79.102c36.132 -19.531 75.032 -32.063 116.699 -37.597c0 0 0 -41.504 0 -41.504c-41.667 -41.667 -62.5 -93.099 -62.5 -154.297c0 -105.469 41.666 -158.203 125 -158.203c41.666 0 68.034 5.534 79.101 16.601c13.998 11.068 23.763 35.97 29.297 74.707c-52.734 36.133 -79.264 102.865 -79.59 200.196c0 86.263 18.067 148.763 54.2 187.5c-13.998 0 -33.366 8.301 -58.106 24.902c0 0 -29.297 16.602 -29.297 16.602c0 0 -8.301 8.3 -8.301 8.3c-8.463 5.534 -15.462 11.231 -20.996 17.09c0 0 -20.507 20.508 -20.507 20.508c-13.998 0 -51.596 -8.301 -112.793 -24.902c-52.735 -16.602 -79.102 -40.202 -79.102 -70.801c0 0 0 0 0 0m204.102 158.203c0 -22.135 25.065 -48.502 75.195 -79.101c47.2 -25.066 90.169 -38.9 128.906 -41.504c0 0 0 -45.899 0 -45.899c-44.596 -41.666 -66.732 -97.168 -66.406 -166.504c0 -113.932 44.433 -170.898 133.301 -170.898c88.867 0 133.3 56.966 133.3 170.898c0 69.336 -22.135 124.838 -66.406 166.504c0 0 0 45.899 0 45.899c38.737 2.929 81.706 16.845 128.906 41.748c47.201 24.902 70.801 51.188 70.801 78.857c0 22.136 -19.368 38.9 -58.105 50.293c-41.667 11.068 -82.031 19.369 -121.094 24.902c-25.065 2.93 -54.199 4.314 -87.402 4.151c-33.203 -0.163 -62.338 -1.546 -87.403 -4.151c-38.737 -5.533 -79.02 -13.916 -120.849 -25.146c-41.83 -11.231 -62.744 -27.913 -62.744 -50.049c0 0 0 0 0 0m391.601 -537.598c5.534 -38.737 15.3 -63.639 29.297 -74.707c11.068 -11.067 37.435 -16.601 79.102 -16.601c83.333 0 125 52.734 125 158.203c0 61.198 -20.834 112.63 -62.5 154.297c0 0 0 41.504 0 41.504c41.666 5.534 80.566 18.066 116.699 37.597c47.2 25.066 70.801 51.433 70.801 79.102c0 27.669 -27.67 51.27 -83.008 70.801c-61.198 16.601 -98.796 24.902 -112.793 24.902c0 0 -20.508 -20.508 -20.508 -20.508c-5.534 -5.534 -12.533 -11.23 -20.996 -17.09c0 0 -8.301 -8.3 -8.301 -8.3c-11.068 -5.534 -20.833 -11.068 -29.297 -16.602c-25.065 -16.601 -44.433 -24.902 -58.105 -24.902c36.133 -38.737 54.199 -101.237 54.199 -187.5c-0.326 -97.331 -26.855 -164.063 -79.59 -200.196c0 0 0 0 0 0" />
  </g>
</svg>