<svg height="1000px" width="662.59765625px" xmlns="http://www.w3.org/2000/svg">
  <g>
    <path d="M0 758.30078125c0 -22.135 18.066 -45.736 54.199 -70.801c44.597 -36.133 108.399 -62.5 191.406 -79.101c0 0 0 -45.899 0 -45.899c0 0 4.395 0 4.395 0c-58.268 -52.734 -87.402 -122.233 -87.402 -208.496c0 -63.802 12.369 -113.769 37.109 -149.902c30.599 -38.737 73.73 -58.106 129.395 -58.106c55.664 0 98.795 19.369 129.394 58.106c25.065 36.133 37.435 86.1 37.109 149.902c0 86.263 -29.134 155.762 -87.402 208.496c0 0 4.395 0 4.395 0c0 0 0 45.899 0 45.899c30.599 5.534 62.5 13.834 95.703 24.902c30.599 11.068 62.5 29.134 95.703 54.199c38.737 27.669 58.268 52.735 58.594 75.196c0 33.203 -47.201 58.105 -141.602 74.707c-63.802 11.067 -127.685 16.601 -191.65 16.601c-63.965 0 -128.011 -5.534 -192.139 -16.601c-91.471 -16.602 -137.207 -42.969 -137.207 -79.102c0 0 0 0 0 0" />
  </g>
</svg>