<svg height="1000px" width="708.0078125px" xmlns="http://www.w3.org/2000/svg">
  <g>
    <path d="M0 562.5c0 0 0 -166.504 0 -166.504c0 -13.997 6.836 -20.996 20.508 -20.996c0 0 83.496 0 83.496 0c16.601 0 29.134 -4.232 37.598 -12.695c0 0 216.796 -141.602 216.796 -141.602c0 -2.93 2.767 -4.313 8.301 -4.15c5.534 0.162 8.301 4.313 8.301 12.451c0 0 0 500 0 500c0 8.463 -2.767 12.695 -8.301 12.695c-5.534 0 -8.301 -1.465 -8.301 -4.394c0 0 -216.796 -141.602 -216.796 -141.602c-8.464 -8.463 -20.997 -12.532 -37.598 -12.207c0 0 -83.496 0 -83.496 0c-13.672 0 -20.508 -6.999 -20.508 -20.996c0 0 0 0 0 0m416.504 -54.199c11.068 -2.93 16.601 -12.696 16.601 -29.297c0 -13.997 -5.533 -25.065 -16.601 -33.203c0 0 29.297 -29.297 29.297 -29.297c19.531 19.531 29.134 40.364 28.808 62.5c0 25.065 -9.602 44.596 -28.808 58.594c0 0 -29.297 -29.297 -29.297 -29.297m83.496 83.496c33.203 -27.669 49.805 -65.267 49.805 -112.793c0 -47.201 -16.602 -86.1 -49.805 -116.699c0 0 28.809 -24.903 28.809 -24.903c41.666 36.133 62.5 83.334 62.5 141.602c0 52.734 -20.834 99.935 -62.5 141.601c0 0 -28.809 -28.808 -28.809 -28.808m87.402 83.008c55.664 -55.664 83.496 -120.931 83.496 -195.801c0 -74.87 -27.832 -140.137 -83.496 -195.801c0 0 24.903 -28.808 24.903 -28.808c63.802 63.802 95.703 138.753 95.703 224.853c0 86.1 -31.901 161.051 -95.703 224.854c0 0 -24.903 -29.297 -24.903 -29.297" />
  </g>
</svg>