<svg height="1000px" width="695.80078125px" xmlns="http://www.w3.org/2000/svg">
  <g>
    <path d="M0 416.50390625c0 -83.333 29.134 -151.367 87.402 -204.102c52.735 -58.268 120.769 -87.402 204.102 -87.402c83.333 0 151.367 29.134 204.101 87.402c58.269 52.735 87.566 120.769 87.891 204.102c0 47.201 -9.766 90.332 -29.297 129.395c0 0 116.699 116.699 116.699 116.699c16.602 19.531 24.903 41.748 24.903 66.65c0 24.902 -9.766 45.654 -29.297 62.256c-16.602 19.531 -37.354 29.297 -62.256 29.297c-24.902 0 -47.119 -8.301 -66.65 -24.902c0 0 -116.7 -116.7 -116.7 -116.7c-38.737 19.532 -81.868 29.297 -129.394 29.297c-83.333 0 -151.367 -29.297 -204.102 -87.89c-58.268 -52.735 -87.402 -120.769 -87.402 -204.102c0 0 0 0 0 0m83.496 0.244c0 55.501 20.833 104.085 62.5 145.752c41.667 41.667 90.251 62.5 145.752 62.5c55.501 0 104.085 -20.833 145.752 -62.5c41.667 -41.667 62.5 -90.251 62.5 -145.752c0 -55.501 -20.833 -104.085 -62.5 -145.752c-41.667 -41.666 -90.251 -62.5 -145.752 -62.5c-55.501 0 -104.085 20.834 -145.752 62.5c-41.667 41.667 -62.5 90.251 -62.5 145.752c0 0 0 0 0 0m83.008 41.748c0 0 0 -83.496 0 -83.496c0 0 83.496 0 83.496 0c0 0 0 -83.496 0 -83.496c0 0 83.496 0 83.496 0c0 0 0 83.496 0 83.496c0 0 83.008 0 83.008 0c0 0 0 83.496 0 83.496c0 0 -83.008 0 -83.008 0c0 0 0 83.008 0 83.008c0 0 -83.496 0 -83.496 0c0 0 0 -83.008 0 -83.008c0 0 -83.496 0 -83.496 0c0 0 0 0 0 0" />
  </g>
</svg>