<svg height="1000px" width="625px" xmlns="http://www.w3.org/2000/svg">
  <g>
    <path d="M0 520.99609375c0 0 83.496 -62.5 83.496 -62.5c0 0 416.504 0 416.504 0c0 0 41.992 125 41.992 125c0 0 -458.496 0 -458.496 0c0 0 -83.496 -62.5 -83.496 -62.5m83.496 -229.492c0 0 458.496 0 458.496 0c0 0 83.008 62.5 83.008 62.5c0 0 -83.008 62.5 -83.008 62.5c0 0 -416.992 0 -416.992 0c0 0 -41.504 -125 -41.504 -125m166.504 500c0 0 0 -166.504 0 -166.504c0 0 125 0 125 0c0 0 0 166.504 0 166.504c0 0 -125 0 -125 0c0 0 0 0 0 0m0 -541.504c0 0 0 -83.496 0 -83.496c0 0 125 0 125 0c0 0 0 83.496 0 83.496c0 0 -125 0 -125 0c0 0 0 0 0 0" />
  </g>
</svg>