<svg height="1000px" width="666.9921875px" xmlns="http://www.w3.org/2000/svg">
  <g>
    <path d="M0 500c0 -94.401 33.366 -172.201 100.098 -233.398c61.198 -66.732 138.997 -100.098 233.398 -100.098c94.401 0 172.201 33.366 233.399 100.098c66.731 61.197 100.097 138.997 100.097 233.398c0 94.401 -33.366 172.201 -100.097 233.398c-61.198 66.732 -138.998 100.098 -233.399 100.098c-94.401 0 -172.2 -33.366 -233.398 -100.098c-66.732 -61.197 -100.098 -138.997 -100.098 -233.398c0 0 0 0 0 0m83.496 0c0 72.266 25.065 130.534 75.195 174.805c44.597 50.13 102.865 75.195 174.805 75.195c0 0 0 -500 0 -500c-72.266 0 -130.534 25.065 -174.805 75.195c-50.13 44.271 -75.195 102.539 -75.195 174.805c0 0 0 0 0 0" />
  </g>
</svg>