<?xml version="1.0" encoding="iso-8859-1"?>
<!-- Generator: Adobe Illustrator 16.2.1, SVG Export Plug-In . SVG Version: 6.00 Build 0)  -->
<!DOCTYPE svg PUBLIC "-//W3C//DTD SVG 1.1//EN" "http://www.w3.org/Graphics/SVG/1.1/DTD/svg11.dtd">
<svg version="1.1" id="Layer_1" xmlns="http://www.w3.org/2000/svg" xmlns:xlink="http://www.w3.org/1999/xlink" x="0px" y="0px"
	 width="24px" height="24px" viewBox="0 0 24 24" style="enable-background:new 0 0 24 24;" xml:space="preserve">
<g>
	<circle cx="12" cy="6" r="1"/>
</g>
<g>
	<path d="M19.793,12.096C19.927,11.756,20,11.387,20,11c0-1.654-1.346-3-3-3h-0.422C16.851,7.381,17,6.703,17,6c0-2.757-2.243-5-5-5
		S7,3.243,7,6c0,0.703,0.149,1.381,0.422,2H7c-1.654,0-3,1.346-3,3c0,0.387,0.073,0.756,0.207,1.096C3.475,12.644,3,13.518,3,14.5
		c0,4.963,4.037,9,9,9s9-4.037,9-9C21,13.518,20.525,12.644,19.793,12.096z M12,21.5c-3.859,0-7-3.141-7-7c0-0.553,0.447-1,1-1
		s1,0.447,1,1c0,2.414,1.721,4.434,4,4.898V12H7c-0.553,0-1-0.447-1-1s0.447-1,1-1h4V8.816C9.838,8.403,9,7.305,9,6
		c0-1.657,1.343-3,3-3s3,1.343,3,3c0,1.305-0.838,2.403-2,2.816V10h4c0.553,0,1,0.447,1,1s-0.447,1-1,1h-4v7.398
		c2.279-0.465,4-2.484,4-4.898c0-0.553,0.447-1,1-1s1,0.447,1,1C19,18.359,15.859,21.5,12,21.5z M7.321,13H10v4.962
		c-1.207-0.701-2-2.009-2-3.462C8,13.903,7.737,13.367,7.321,13z M16.679,13C16.263,13.367,16,13.903,16,14.5
		c0,1.453-0.793,2.761-2,3.462V13H16.679z"/>
	<circle cx="12" cy="6" r="1"/>
</g>
</svg>
