<?xml version="1.0" encoding="iso-8859-1"?>
<!-- Generator: Adobe Illustrator 16.2.1, SVG Export Plug-In . SVG Version: 6.00 Build 0)  -->
<!DOCTYPE svg PUBLIC "-//W3C//DTD SVG 1.1//EN" "http://www.w3.org/Graphics/SVG/1.1/DTD/svg11.dtd">
<svg version="1.1" id="Layer_1" xmlns="http://www.w3.org/2000/svg" xmlns:xlink="http://www.w3.org/1999/xlink" x="0px" y="0px"
	 width="24px" height="24px" viewBox="0 0 24 24" style="enable-background:new 0 0 24 24;" xml:space="preserve">
<g>
	<path d="M16,20H7c-1.654,0-3-1.346-3-3V9h2v8c0,0.551,0.448,1,1,1h9c0.552,0,1-0.449,1-1V9h2v8C19,18.654,17.654,20,16,20z"/>
</g>
<g>
	<path d="M13,13h-3c-0.276,0-0.5-0.224-0.5-0.5S9.724,12,10,12h3c0.276,0,0.5,0.224,0.5,0.5S13.276,13,13,13z"/>
</g>
<g>
	<path d="M20,7H3C2.447,7,2,6.552,2,6s0.447-1,1-1h17c0.553,0,1,0.448,1,1S20.553,7,20,7z"/>
</g>
<g>
	<path d="M18,10H5c-0.553,0-1-0.448-1-1s0.447-1,1-1h13c0.553,0,1,0.448,1,1S18.553,10,18,10z"/>
</g>
</svg>
