<?xml version="1.0" encoding="iso-8859-1"?>
<!-- Generator: Adobe Illustrator 16.2.1, SVG Export Plug-In . SVG Version: 6.00 Build 0)  -->
<svg version="1.2" baseProfile="tiny" xmlns="http://www.w3.org/2000/svg" xmlns:xlink="http://www.w3.org/1999/xlink" x="0px"
	 y="0px" width="24px" height="24px" viewBox="0 0 24 24" xml:space="preserve">
<g id="Layer_1">
	<g>
		<path d="M13,12h-3c-0.276,0-0.5,0.224-0.5,0.5S9.724,13,10,13h3c0.276,0,0.5-0.224,0.5-0.5S13.276,12,13,12z"/>
		<path d="M20,5H3C2.447,5,2,5.448,2,6s0.447,1,1,1h17c0.553,0,1-0.448,1-1S20.553,5,20,5z"/>
		<path d="M18,8H5C4.447,8,4,8.448,4,9v8c0,1.654,1.346,3,3,3h9c1.654,0,3-1.346,3-3V9C19,8.448,18.553,8,18,8z M16,18H7
			c-0.552,0-1-0.449-1-1v-7h11v7C17,17.551,16.552,18,16,18z"/>
	</g>
</g>
<g id="nyt_x5F_exporter_x5F_info" display="none">
</g>
</svg>
