<?xml version="1.0" encoding="iso-8859-1"?>
<!-- Generator: Adobe Illustrator 16.2.1, SVG Export Plug-In . SVG Version: 6.00 Build 0)  -->
<svg version="1.2" baseProfile="tiny" id="Layer_1" xmlns="http://www.w3.org/2000/svg" xmlns:xlink="http://www.w3.org/1999/xlink"
	 x="0px" y="0px" width="24px" height="24px" viewBox="0 0 24 24" xml:space="preserve">
<g>
	<path d="M12,21c-0.801,0-1.555-0.312-2.121-0.879S8.999,18.8,9,17.998C9,17.252,9.271,17,9.764,16H4.928c-1.654,0-3-1.347-3-3
		c0-1.654,1.346-3,3-3h4.836C9.27,9,9,8.745,9,7.999c0.001-0.802,0.312-1.554,0.88-2.121c1.132-1.132,3.108-1.133,4.241,0.001
		L21.242,13l-7.121,7.121C13.555,20.688,12.801,21,12,21z M4.928,12c-0.552,0-1,0.449-1,1s0.448,1,1,1h9.658l-3.293,3.293
		C11.104,17.482,11,17.732,11,17.999c0,0.269,0.104,0.519,0.293,0.708c0.379,0.378,1.035,0.378,1.414,0L18.414,13l-5.707-5.707
		c-0.379-0.378-1.035-0.378-1.414,0C11.104,7.482,11,7.732,11,7.999c0,0.268,0.104,0.519,0.293,0.708L14.586,12H4.928z"/>
</g>
</svg>
