<?xml version="1.0" encoding="iso-8859-1"?>
<!-- Generator: Adobe Illustrator 16.2.1, SVG Export Plug-In . SVG Version: 6.00 Build 0)  -->
<!DOCTYPE svg PUBLIC "-//W3C//DTD SVG 1.1//EN" "http://www.w3.org/Graphics/SVG/1.1/DTD/svg11.dtd">
<svg version="1.1" id="Layer_1" xmlns="http://www.w3.org/2000/svg" xmlns:xlink="http://www.w3.org/1999/xlink" x="0px" y="0px"
	 width="24px" height="24px" viewBox="0 0 24 24" style="enable-background:new 0 0 24 24;" xml:space="preserve">
<path d="M16.019,7.629c-0.39,0.391-0.39,1.024,0,1.415c1.079,1.078,1.48,2.007,1.48,3.429c0,1.469-0.572,2.85-1.611,3.888
	c-1.003,1.003-2.078,1.502-3.428,1.593l1.247-1.247c0.391-0.391,0.391-1.023,0-1.414s-1.023-0.391-1.414,0L8.586,19l3.707,3.707
	C12.488,22.902,12.744,23,13,23s0.512-0.098,0.707-0.293c0.391-0.391,0.391-1.023,0-1.414l-1.337-1.336
	c1.923-0.082,3.542-0.792,4.933-2.181c1.417-1.416,2.197-3.299,2.197-5.303c0-1.948-0.618-3.397-2.066-4.844
	C17.043,7.239,16.41,7.238,16.019,7.629z"/>
<path d="M6.5,12.5c0-1.469,0.572-2.85,1.612-3.889c1.008-1.009,2.091-1.508,3.457-1.594l-1.275,1.275
	c-0.391,0.391-0.391,1.023,0,1.414C10.488,9.902,10.744,10,11,10s0.512-0.098,0.707-0.293L15.414,6l-3.707-3.707
	c-0.391-0.391-1.023-0.391-1.414,0s-0.391,1.023,0,1.414l1.311,1.311C9.69,5.104,8.079,5.814,6.697,7.197
	C5.28,8.613,4.5,10.496,4.5,12.5c0,1.948,0.618,3.397,2.066,4.844c0.195,0.195,0.451,0.292,0.707,0.292s0.512-0.098,0.708-0.293
	c0.39-0.391,0.39-1.024,0-1.415C6.901,14.851,6.5,13.922,6.5,12.5z"/>
</svg>
