<?xml version="1.0" encoding="iso-8859-1"?>
<!-- Generator: Adobe Illustrator 16.2.1, SVG Export Plug-In . SVG Version: 6.00 Build 0)  -->
<svg version="1.2" baseProfile="tiny" xmlns="http://www.w3.org/2000/svg" xmlns:xlink="http://www.w3.org/1999/xlink" x="0px"
	 y="0px" width="24px" height="24px" viewBox="0 0 24 24" xml:space="preserve">
<g id="Layer_1">
	<path d="M22,6c0-0.801-0.312-1.555-0.879-2.121C20.555,3.312,19.801,3,19,3s-1.555,0.312-2.121,0.879l-0.883,0.883
		C15.465,4.288,14.766,4,14,4c-0.919,0-1.732,0.424-2.283,1.077C11.505,5.03,11.286,5,11.061,5H7H5v2v4.06
		c0,0.255,0.042,0.499,0.102,0.736c-0.598,0.549-0.98,1.33-0.98,2.204c0,0.735,0.266,1.409,0.705,1.931l-0.947,0.948
		C3.312,17.445,3,18.199,3,19s0.312,1.555,0.879,2.121C4.445,21.688,5.199,22,6,22c0.539,0,1.334-0.152,2.061-0.879l0.903-0.919
		C9.499,20.697,10.215,21,11,21c0.934,0,1.758-0.437,2.309-1.107C13.55,19.956,13.799,20,14.061,20H18h2v-2v-4.061
		c0-0.226-0.029-0.444-0.077-0.656C20.576,12.733,21,11.919,21,11c0-0.766-0.288-1.465-0.762-1.996l0.883-0.883
		C21.688,7.555,22,6.801,22,6z M7,7h4c0.553,0,1,0.448,1,1s-0.447,1-1,1H9v2c0,0.552-0.448,1-1,1c-0.553,0-1-0.448-1-1V7z
		 M19.707,6.707L16.414,10L18,10c0.553,0,1,0.448,1,1s-0.448,1-1,1h-5V7c0-0.552,0.447-1,1-1s1,0.448,1,1v1.586l3.293-3.293
		C18.488,5.098,18.744,5,19,5s0.512,0.098,0.707,0.293C20.098,5.684,20.098,6.316,19.707,6.707z M12,18c0,0.552-0.447,1-1,1
		s-1-0.448-1-1v-1.707l-3.354,3.414C6.451,19.902,6.256,20,6,20s-0.512-0.098-0.707-0.293c-0.391-0.391-0.391-1.023,0-1.414
		L8.586,15H7.121c-0.553,0-1-0.448-1-1s0.447-1,1-1H12V18z M12,12H9.722C9.895,11.705,10,11.366,10,11v-1h1.061
		c0.342,0,0.658-0.094,0.939-0.245V12z M13,13h0.996h1.717C15.28,13.094,15,13.33,15,13.939V15h-0.939
		c-0.391,0-0.752,0.117-1.061,0.311V13z M13.061,17c0-0.552,0.447-1,1-1H16v-2c0-0.552,0.447-1,1-1s1,0.448,1,1v4h-3.939
		C13.508,18,13.061,17.552,13.061,17z"/>
</g>
<g id="nyt_x5F_exporter_x5F_info" display="none">
</g>
</svg>
