<?xml version="1.0" encoding="iso-8859-1"?>
<!-- Generator: Adobe Illustrator 16.2.1, SVG Export Plug-In . SVG Version: 6.00 Build 0)  -->
<!DOCTYPE svg PUBLIC "-//W3C//DTD SVG 1.1//EN" "http://www.w3.org/Graphics/SVG/1.1/DTD/svg11.dtd">
<svg version="1.1" id="Layer_1" xmlns="http://www.w3.org/2000/svg" xmlns:xlink="http://www.w3.org/1999/xlink" x="0px" y="0px"
	 width="24px" height="24px" viewBox="0 0 24 24" style="enable-background:new 0 0 24 24;" xml:space="preserve">
<g>
	<path d="M13.757,5c-0.553,0-1,0.448-1,1s0.447,1,1,1h1.829l-3.293,3.293c-0.391,0.391-0.391,1.023,0,1.414
		C12.488,11.902,12.744,12,13,12s0.512-0.098,0.707-0.293L17,8.414V10c0,0.552,0.447,1,1,1s1-0.448,1-1V5H13.757z"/>
	<path d="M9.293,13.293L6,16.586V15c0-0.552-0.447-1-1-1s-1,0.448-1,1v5h0.996C4.997,20,4.999,20,5,20s0.003,0,0.004,0H9
		c0.552,0,1-0.448,1-1s-0.447-1-1-1l-1.586,0l3.293-3.292c0.391-0.391,0.391-1.023,0-1.414S9.684,12.902,9.293,13.293z"/>
	<path d="M7,13.061c0.552,0,1-0.448,1-1V9h3.061c0.553,0,1-0.448,1-1s-0.447-1-1-1H6v5.061C6,12.613,6.447,13.061,7,13.061z"/>
	<path d="M16,11.939c-0.553,0-1,0.448-1,1V16h-2.939c-0.553,0-1,0.448-1,1s0.447,1,1,1H17v-5.061C17,12.387,16.553,11.939,16,11.939
		z"/>
</g>
</svg>
