<?xml version="1.0" encoding="iso-8859-1"?>
<!-- Generator: Adobe Illustrator 16.2.1, SVG Export Plug-In . SVG Version: 6.00 Build 0)  -->
<svg version="1.2" baseProfile="tiny" id="Layer_1" xmlns="http://www.w3.org/2000/svg" xmlns:xlink="http://www.w3.org/1999/xlink"
	 x="0px" y="0px" width="24px" height="24px" viewBox="0 0 24 24" xml:space="preserve">
<path d="M22.828,10.586l-9.414-9.414C13.023,0.781,12.512,0.586,12,0.586s-1.023,0.195-1.414,0.586l-9.414,9.414
	c-0.781,0.779-0.781,2.047,0,2.828l9.414,9.414c0.391,0.391,0.902,0.586,1.414,0.586s1.023-0.195,1.414-0.586l9.414-9.414
	C23.609,12.633,23.609,11.365,22.828,10.586z M17,16c-0.256,0-0.512-0.098-0.707-0.293c-0.391-0.391-0.391-1.023,0-1.414L17.586,13
	H13v4.586l1.293-1.293C14.488,16.098,14.744,16,15,16s0.512,0.098,0.707,0.293c0.391,0.391,0.391,1.023,0,1.414L12,21.414
	l-3.707-3.707c-0.391-0.391-0.391-1.023,0-1.414C8.488,16.098,8.744,16,9,16s0.512,0.098,0.707,0.293L11,17.586V13H6.414
	l1.293,1.293c0.391,0.391,0.391,1.023,0,1.414C7.512,15.902,7.256,16,7,16s-0.512-0.098-0.707-0.293L2.586,12l3.707-3.707
	C6.488,8.098,6.744,8,7,8s0.512,0.098,0.707,0.293c0.391,0.391,0.391,1.023,0,1.414L6.414,11H11V6.414L9.707,7.707
	C9.512,7.902,9.256,8,9,8S8.488,7.902,8.293,7.707c-0.391-0.391-0.391-1.023,0-1.414L12,2.586l3.707,3.707
	c0.391,0.391,0.391,1.023,0,1.414C15.512,7.902,15.256,8,15,8s-0.512-0.098-0.707-0.293L13,6.414V11h4.586l-1.293-1.293
	c-0.391-0.391-0.391-1.023,0-1.414C16.488,8.098,16.744,8,17,8s0.512,0.098,0.707,0.293L21.414,12l-3.707,3.707
	C17.512,15.902,17.256,16,17,16z M15.268,14C15.093,14.301,15,14.643,15,15c-0.357,0-0.699,0.093-1,0.268V14H15.268z M8.732,14H10
	v1.268C9.699,15.093,9.357,15,9,15C9,14.643,8.907,14.301,8.732,14z M8.732,10C8.907,9.699,9,9.357,9,9c0.357,0,0.699-0.093,1-0.268
	V10H8.732z M15.268,10H14V8.732C14.301,8.907,14.643,9,15,9C15,9.357,15.093,9.699,15.268,10z"/>
</svg>
