<?xml version="1.0" encoding="iso-8859-1"?>
<!-- Generator: Adobe Illustrator 16.2.1, SVG Export Plug-In . SVG Version: 6.00 Build 0)  -->
<!DOCTYPE svg PUBLIC "-//W3C//DTD SVG 1.1//EN" "http://www.w3.org/Graphics/SVG/1.1/DTD/svg11.dtd">
<svg version="1.1" id="Layer_1" xmlns="http://www.w3.org/2000/svg" xmlns:xlink="http://www.w3.org/1999/xlink" x="0px" y="0px"
	 width="24px" height="24px" viewBox="0 0 24 24" style="enable-background:new 0 0 24 24;" xml:space="preserve">
<g>
	<path d="M7.121,13c-0.553,0-1,0.448-1,1s0.447,1,1,1h1.465l-3.293,3.293c-0.391,0.391-0.391,1.023,0,1.414
		C5.488,19.902,5.744,20,6,20s0.451-0.098,0.646-0.293L10,16.293V18c0,0.552,0.447,1,1,1s1-0.448,1-1v-5H7.121z"/>
	<path d="M8,12.061c0.552,0,1-0.448,1-1V9h2.061c0.553,0,1-0.448,1-1s-0.447-1-1-1H7v4.06C7,11.612,7.447,12.061,8,12.061z"/>
	<path d="M17,12.939c-0.553,0-1,0.448-1,1V16h-1.939c-0.553,0-1,0.448-1,1s0.447,1,1,1H18v-4.061C18,13.387,17.553,12.939,17,12.939
		z"/>
	<path d="M19.707,5.293c-0.391-0.391-1.023-0.391-1.414,0L15,8.586V7c0-0.552-0.447-1-1-1s-1,0.448-1,1v5h0.996
		c0.001,0,0.003,0,0.004,0s0.003,0,0.004,0H18c0.552,0,1-0.448,1-1s-0.447-1-1-1l-1.586,0l3.293-3.292
		C20.098,6.316,20.098,5.684,19.707,5.293z"/>
</g>
</svg>
