<?xml version="1.0" encoding="iso-8859-1"?>
<!-- Generator: Adobe Illustrator 16.2.1, SVG Export Plug-In . SVG Version: 6.00 Build 0)  -->
<svg version="1.2" baseProfile="tiny" id="Layer_1" xmlns="http://www.w3.org/2000/svg" xmlns:xlink="http://www.w3.org/1999/xlink"
	 x="0px" y="0px" width="24px" height="24px" viewBox="0 0 24 24" xml:space="preserve">
<g>
	<path d="M12,21.312l-7.121-7.121c-1.17-1.17-1.17-3.073,0-4.242C5.973,8.855,7.857,8.811,9,9.834V5c0-1.654,1.346-3,3-3
		s3,1.346,3,3v4.834c1.143-1.023,3.027-0.979,4.121,0.115c1.17,1.169,1.17,3.072,0,4.242L12,21.312z M7,11.07
		c-0.268,0-0.518,0.104-0.707,0.293c-0.391,0.39-0.391,1.023,0,1.414L12,18.484l5.707-5.707c0.391-0.391,0.391-1.024,0-1.414
		c-0.379-0.379-1.035-0.379-1.414,0L13,14.656V5c0-0.551-0.448-1-1-1s-1,0.449-1,1v9.656l-3.293-3.293
		C7.518,11.174,7.268,11.07,7,11.07z"/>
</g>
</svg>
