<?xml version="1.0" encoding="iso-8859-1"?>
<!-- Generator: Adobe Illustrator 16.2.1, SVG Export Plug-In . SVG Version: 6.00 Build 0)  -->
<svg version="1.2" baseProfile="tiny" xmlns="http://www.w3.org/2000/svg" xmlns:xlink="http://www.w3.org/1999/xlink" x="0px"
	 y="0px" width="24px" height="24px" viewBox="0 0 24 24" xml:space="preserve">
<g id="Layer_1">
	<g>
		<path d="M18.994,7.187C18.998,7.125,19,7.062,19,7c0-0.801-0.312-1.555-0.879-2.121C17.555,4.312,16.801,4,16,4
			s-1.555,0.312-2.121,0.879L10.987,7.77C10.457,7.297,9.766,7,9,7H8c-3.859,0-7,3.14-7,7c0,3.306,2.14,6.084,5.006,6.813
			C6.002,20.875,6,20.938,6,21c0,0.801,0.312,1.555,0.879,2.121C7.445,23.688,8.199,24,9,24s1.555-0.312,2.121-0.879l2.892-2.891
			C14.543,20.703,15.234,21,16,21h1c3.859,0,7-3.14,7-7C24,10.694,21.86,7.916,18.994,7.187z M17,19h-1c-0.553,0-1-0.448-1-1
			s0.447-1,1-1h1c1.654,0,3-1.346,3-3s-1.121-3-2.5-3h-2.086l1.293,1.293c0.391,0.391,0.391,1.023,0,1.414
			C16.512,13.902,16.256,14,16,14s-0.512-0.098-0.707-0.293L11.586,10l3.707-3.707C15.488,6.098,15.744,6,16,6
			s0.512,0.098,0.707,0.293c0.391,0.391,0.391,1.023,0,1.414L15.414,9H17.5c2.481,0,4.5,2.243,4.5,5S19.757,19,17,19z
			 M17.749,12.029c0.7,0.164,1.251,1,1.251,1.971c0,1.103-0.897,2-2,2h-1c-0.857,0-1.584,0.544-1.868,1.304
			c-0.011-0.011-3.718-3.718-3.718-3.718C10.036,13.208,9.534,13,9,13s-1.036,0.208-1.414,0.586S7,14.466,7,15
			c0,0.345,0.087,0.677,0.251,0.971C6.551,15.807,6,14.971,6,14c0-1.103,0.897-2,2-2h1c0.857,0,1.584-0.544,1.868-1.304
			c0.011,0.011,3.718,3.718,3.718,3.718C14.964,14.792,15.466,15,16,15s1.036-0.208,1.414-0.586S18,13.534,18,13
			C18,12.655,17.913,12.323,17.749,12.029z M10,10c0,0.552-0.447,1-1,1H8c-1.654,0-3,1.346-3,3s1.121,3,2.5,3h2.086l-1.293-1.293
			c-0.391-0.391-0.391-1.023,0-1.414C8.488,14.098,8.744,14,9,14s0.512,0.098,0.707,0.293L13.414,18l-3.707,3.707
			C9.512,21.902,9.256,22,9,22s-0.512-0.098-0.707-0.293c-0.391-0.391-0.391-1.023,0-1.414L9.586,19H7.5C5.019,19,3,16.757,3,14
			s2.243-5,5-5h1C9.553,9,10,9.448,10,10z"/>
	</g>
</g>
<g id="nyt_x5F_exporter_x5F_info" display="none">
</g>
</svg>
