<svg height="1000px" width="566.40625px" xmlns="http://www.w3.org/2000/svg">
  <g>
    <path d="M0 500c0 -77.799 27.751 -144.45 83.252 -199.951c55.501 -55.501 122.152 -83.252 199.951 -83.252c0 0 0 -112.793 0 -112.793c0 0 166.504 166.992 166.504 166.992c0 0 -166.504 166.504 -166.504 166.504c0 0 0 -112.305 0 -112.305c-50.13 0 -91.797 16.602 -125 49.805c-33.203 33.203 -49.805 74.87 -49.805 125c0 41.667 15.137 77.799 45.411 108.398c0 0 -74.707 74.707 -74.707 74.707c-52.735 -52.734 -79.102 -113.769 -79.102 -183.105c0 0 0 0 0 0m116.699 229.004c0 0 166.504 -166.504 166.504 -166.504c0 0 0 112.305 0 112.305c50.13 0 91.797 -16.602 125 -49.805c33.203 -33.203 49.805 -74.87 49.805 -125c0 -41.667 -15.137 -77.799 -45.41 -108.398c0 0 74.707 -74.707 74.707 -74.707c52.734 52.734 79.101 113.769 79.101 183.105c0 77.799 -27.75 144.45 -83.252 199.951c-55.501 55.501 -122.151 83.252 -199.951 83.252c0 0 0 112.793 0 112.793c0 0 -166.504 -166.992 -166.504 -166.992" />
  </g>
</svg>