<?xml version="1.0" encoding="iso-8859-1"?>
<!-- Generator: Adobe Illustrator 16.2.1, SVG Export Plug-In . SVG Version: 6.00 Build 0)  -->
<!DOCTYPE svg PUBLIC "-//W3C//DTD SVG 1.1//EN" "http://www.w3.org/Graphics/SVG/1.1/DTD/svg11.dtd">
<svg version="1.1" id="Layer_1" xmlns="http://www.w3.org/2000/svg" xmlns:xlink="http://www.w3.org/1999/xlink" x="0px" y="0px"
	 width="24px" height="24px" viewBox="0 0 24 24" style="enable-background:new 0 0 24 24;" xml:space="preserve">
<path d="M17.293,14.293c-0.391,0.391-0.391,1.023,0,1.414L18.586,17H15c-0.827,0-1.5-0.673-1.5-1.5c0-0.979-0.407-1.864-1.059-2.5
	c0.651-0.636,1.059-1.521,1.059-2.5C13.5,9.673,14.173,9,15,9h3.586l-1.293,1.293c-0.391,0.391-0.391,1.023,0,1.414
	C17.488,11.902,17.744,12,18,12s0.512-0.098,0.707-0.293L22.414,8l-3.707-3.707c-0.391-0.391-1.023-0.391-1.414,0
	s-0.391,1.023,0,1.414L18.586,7H15c-1.93,0-3.5,1.57-3.5,3.5c0,0.827-0.673,1.5-1.5,1.5H7.815C7.401,10.838,6.302,10,5,10
	c-1.654,0-3,1.346-3,3s1.346,3,3,3c1.302,0,2.401-0.838,2.815-2H10c0.827,0,1.5,0.673,1.5,1.5c0,1.93,1.57,3.5,3.5,3.5h3.586
	l-1.293,1.293c-0.391,0.391-0.391,1.023,0,1.414C17.488,21.902,17.744,22,18,22s0.512-0.098,0.707-0.293L22.414,18l-3.707-3.707
	C18.316,13.902,17.684,13.902,17.293,14.293z M5,14c-0.552,0-1-0.449-1-1s0.448-1,1-1s1,0.449,1,1S5.552,14,5,14z"/>
</svg>
