<?xml version="1.0" encoding="iso-8859-1"?>
<!-- Generator: Adobe Illustrator 16.2.1, SVG Export Plug-In . SVG Version: 6.00 Build 0)  -->
<svg version="1.2" baseProfile="tiny" xmlns="http://www.w3.org/2000/svg" xmlns:xlink="http://www.w3.org/1999/xlink" x="0px"
	 y="0px" width="24px" height="24px" viewBox="0 0 24 24" xml:space="preserve">
<g id="Layer_1">
	<g>
		<path d="M19,3h-5.243c-1.302,0-2.401,0.838-2.815,2H4v7.061c0,0.041,0.011,0.079,0.012,0.12C2.845,12.591,2,13.693,2,15v5v2h2
			h0.996H9c1.311,0,2.593-0.826,3-2h7v-7.061c0-0.041-0.011-0.079-0.012-0.12C20.155,12.409,21,11.307,21,10V5V3H19z M17,18h-5
			c-0.553,0-1-0.448-1-1s0.447-1,1-1h3v-3.061c0-0.552,0.447-1,1-1s1,0.448,1,1V18z M6,7h5.061c0.553,0,1,0.448,1,1s-0.447,1-1,1H8
			v3.061c0,0.552-0.448,1-1,1c-0.553,0-1-0.448-1-1V7z M19,10c0,0.552-0.447,1-1,1s-1-0.448-1-1V8.414l-3.293,3.293
			C13.512,11.902,13.256,12,13,12s-0.512-0.098-0.707-0.293c-0.391-0.391-0.391-1.023,0-1.414L15.586,7H14c-0.553,0-1-0.448-1-1
			s0.447-1,1-1h5V10z M9,20H5.004C4.996,20,4,20,4,20v-5c0-0.552,0.447-1,1-1s1,0.448,1,1v1.586l3.293-3.293
			C9.488,13.098,9.744,13,10,13s0.512,0.098,0.707,0.293c0.391,0.391,0.391,1.023,0,1.414L7.414,18L9,18c0.553,0,1,0.448,1,1
			S9.552,20,9,20z M11.414,12.586C11.036,12.208,10.534,12,10,12c-0.367,0-0.716,0.105-1.023,0.289C8.985,12.213,9,12.139,9,12.061
			V10h2.061c0.078,0,0.152-0.014,0.229-0.023C11.104,10.284,11,10.633,11,11c0,0.534,0.208,1.036,0.586,1.414S12.466,13,13,13
			c0.367,0,0.716-0.105,1.023-0.289C14.015,12.787,14,12.861,14,12.939V15h-1.939c-0.122,0-0.24,0.015-0.356,0.036
			C11.894,14.726,12,14.372,12,14C12,13.466,11.792,12.964,11.414,12.586z"/>
	</g>
</g>
<g id="nyt_x5F_exporter_x5F_info" display="none">
</g>
</svg>
