<?xml version="1.0" encoding="iso-8859-1"?>
<!-- Generator: Adobe Illustrator 16.2.1, SVG Export Plug-In . SVG Version: 6.00 Build 0)  -->
<!DOCTYPE svg PUBLIC "-//W3C//DTD SVG 1.1//EN" "http://www.w3.org/Graphics/SVG/1.1/DTD/svg11.dtd">
<svg version="1.1" id="Layer_1" xmlns="http://www.w3.org/2000/svg" xmlns:xlink="http://www.w3.org/1999/xlink" x="0px" y="0px"
	 width="24px" height="24px" viewBox="0 0 24 24" style="enable-background:new 0 0 24 24;" xml:space="preserve">
<path d="M17.5,9h-2.086l1.293-1.293c0.391-0.391,0.391-1.023,0-1.414s-1.023-0.391-1.414,0L11.586,10l3.707,3.707
	C15.488,13.902,15.744,14,16,14s0.512-0.098,0.707-0.293c0.391-0.391,0.391-1.023,0-1.414L15.414,11H17.5c1.379,0,2.5,1.346,2.5,3
	s-1.346,3-3,3H8c-1.654,0-3-1.346-3-3s1.346-3,3-3h1c0.553,0,1-0.448,1-1S9.553,9,9,9H8c-2.757,0-5,2.243-5,5s2.243,5,5,5h9
	c2.757,0,5-2.243,5-5S19.981,9,17.5,9z"/>
</svg>
