<?xml version="1.0" encoding="iso-8859-1"?>
<!-- Generator: Adobe Illustrator 16.2.1, SVG Export Plug-In . SVG Version: 6.00 Build 0)  -->
<!DOCTYPE svg PUBLIC "-//W3C//DTD SVG 1.1//EN" "http://www.w3.org/Graphics/SVG/1.1/DTD/svg11.dtd">
<svg version="1.1" id="Layer_1" xmlns="http://www.w3.org/2000/svg" xmlns:xlink="http://www.w3.org/1999/xlink" x="0px" y="0px"
	 width="24px" height="24px" viewBox="0 0 24 24" style="enable-background:new 0 0 24 24;" xml:space="preserve">
<path d="M18.707,9.293c-0.391-0.391-1.023-0.391-1.414,0s-0.391,1.023,0,1.414L18.586,12h-3.919c-0.827,0-1.5-0.673-1.5-1.5
	c0-1.93-1.57-3.5-3.5-3.5H7.815C7.401,5.838,6.302,5,5,5C3.346,5,2,6.346,2,8s1.346,3,3,3c1.302,0,2.401-0.838,2.815-2h1.852
	c0.827,0,1.5,0.673,1.5,1.5c0,0.979,0.407,1.864,1.059,2.5c-0.651,0.636-1.059,1.521-1.059,2.5c0,0.827-0.673,1.5-1.5,1.5H7.815
	C7.401,15.838,6.302,15,5,15c-1.654,0-3,1.346-3,3s1.346,3,3,3c1.302,0,2.401-0.838,2.815-2h1.852c1.93,0,3.5-1.57,3.5-3.5
	c0-0.827,0.673-1.5,1.5-1.5h3.919l-1.293,1.293c-0.391,0.391-0.391,1.023,0,1.414C17.488,16.902,17.744,17,18,17
	s0.512-0.098,0.707-0.293L22.414,13L18.707,9.293z M5,9C4.448,9,4,8.551,4,8s0.448-1,1-1s1,0.449,1,1S5.552,9,5,9z M5,19
	c-0.552,0-1-0.449-1-1s0.448-1,1-1s1,0.449,1,1S5.552,19,5,19z"/>
</svg>
