<?xml version="1.0" encoding="iso-8859-1"?>
<!-- Generator: Adobe Illustrator 16.2.1, SVG Export Plug-In . SVG Version: 6.00 Build 0)  -->
<svg version="1.2" baseProfile="tiny" id="Layer_1" xmlns="http://www.w3.org/2000/svg" xmlns:xlink="http://www.w3.org/1999/xlink"
	 x="0px" y="0px" width="24px" height="24px" viewBox="0 0 24 24" xml:space="preserve">
<g>
	<path d="M10.928,21c-0.801,0-1.555-0.312-2.121-0.879L1.686,13l7.121-7.121c1.133-1.134,3.109-1.134,4.242,0
		c0.566,0.564,0.879,1.317,0.879,2.119c0,0.746-0.27,1.451-0.764,2.002H18c1.654,0,3,1.346,3,3c0,1.654-1.346,3-3,3h-4.836
		c0.493,0.549,0.764,1.252,0.764,1.998c0.002,0.802-0.312,1.557-0.879,2.124C12.482,20.688,11.729,21,10.928,21z M4.514,13
		l5.707,5.707c0.379,0.378,1.035,0.378,1.414,0c0.189-0.189,0.293-0.441,0.293-0.708s-0.104-0.517-0.291-0.705L8.342,14H18
		c0.552,0,1-0.449,1-1s-0.448-1-1-1H8.342l3.293-3.293c0.189-0.189,0.293-0.441,0.293-0.708s-0.104-0.517-0.292-0.705
		c-0.381-0.38-1.036-0.379-1.415-0.001L4.514,13z"/>
</g>
</svg>
