<?xml version="1.0" encoding="iso-8859-1"?>
<!-- Generator: Adobe Illustrator 16.2.1, SVG Export Plug-In . SVG Version: 6.00 Build 0)  -->
<svg version="1.2" baseProfile="tiny" xmlns="http://www.w3.org/2000/svg" xmlns:xlink="http://www.w3.org/1999/xlink" x="0px"
	 y="0px" width="24px" height="24px" viewBox="0 0 24 24" xml:space="preserve">
<g id="Layer_1">
	<path d="M21.5,12.473c0-2.495-0.818-4.426-2.653-6.259c-0.309-0.309-0.676-0.533-1.073-0.682l-0.946-0.946l-3.707-3.707
		C12.555,0.312,11.801,0,11,0S9.445,0.312,8.879,0.879C8.312,1.445,8,2.199,8,3c0,0.277,0.037,0.549,0.11,0.809
		c-1.029,0.461-1.974,1.12-2.827,1.974C3.488,7.576,2.5,9.961,2.5,12.5c0,2.495,0.818,4.426,2.653,6.259
		c0.299,0.298,0.652,0.521,1.034,0.669l0.985,0.986l3.707,3.707C11.445,24.688,12.199,25,13,25s1.555-0.312,2.121-0.879
		C15.688,23.555,16,22.801,16,22c0-0.286-0.04-0.566-0.117-0.834c1.031-0.461,1.978-1.121,2.833-1.975
		C20.512,17.397,21.5,15.011,21.5,12.473z M12.37,19.957l1.337,1.336c0.391,0.391,0.391,1.023,0,1.414
		C13.512,22.902,13.256,23,13,23s-0.512-0.098-0.707-0.293L8.586,19l3.707-3.707C12.488,15.098,12.744,15,13,15
		s0.512,0.098,0.707,0.293c0.391,0.391,0.391,1.023,0,1.414l-1.247,1.247c1.351-0.091,2.425-0.59,3.428-1.593
		c1.039-1.038,1.611-2.419,1.611-3.888c0-1.422-0.401-2.351-1.48-3.429c-0.391-0.391-0.391-1.023,0-1.415
		c0.195-0.195,0.451-0.293,0.708-0.293c0.256,0,0.512,0.098,0.707,0.292c1.448,1.447,2.066,2.896,2.066,4.844
		c0,2.004-0.78,3.887-2.197,5.303C15.913,19.165,14.293,19.875,12.37,19.957z M11.604,5.018l-1.311-1.311
		c-0.391-0.391-0.391-1.023,0-1.414C10.488,2.098,10.744,2,11,2s0.512,0.098,0.707,0.293L15.414,6l-3.707,3.707
		C11.512,9.902,11.256,10,11,10s-0.512-0.098-0.707-0.293c-0.391-0.391-0.391-1.023,0-1.414l1.275-1.275
		C10.203,7.104,9.12,7.602,8.112,8.611C7.072,9.65,6.5,11.031,6.5,12.5c0,1.422,0.401,2.351,1.48,3.429
		c0.391,0.391,0.391,1.023,0,1.415c-0.195,0.195-0.452,0.293-0.708,0.293s-0.512-0.098-0.707-0.292
		C5.118,15.897,4.5,14.448,4.5,12.5c0-2.004,0.78-3.887,2.197-5.303C8.079,5.814,9.69,5.104,11.604,5.018z M8.688,15.222
		C7.8,14.335,7.5,13.648,7.5,12.5c0-1.202,0.468-2.332,1.318-3.181C8.881,9.257,8.942,9.197,9.005,9.14
		c0.033,0.481,0.236,0.93,0.581,1.274C9.964,10.792,10.466,11,11,11s1.036-0.208,1.414-0.586l2.339-2.339
		c-0.078,0.596,0.104,1.219,0.56,1.675c0.888,0.887,1.188,1.574,1.188,2.722c0,1.202-0.468,2.332-1.318,3.181
		c-0.062,0.062-0.125,0.123-0.188,0.181c-0.039-0.472-0.241-0.91-0.579-1.248C14.036,14.208,13.534,14,13,14
		s-1.036,0.208-1.414,0.586l-2.342,2.342C9.333,16.323,9.151,15.686,8.688,15.222z"/>
</g>
<g id="nyt_x5F_exporter_x5F_info" display="none">
</g>
</svg>
