<?xml version="1.0" encoding="iso-8859-1"?>
<!-- Generator: Adobe Illustrator 16.2.1, SVG Export Plug-In . SVG Version: 6.00 Build 0)  -->
<svg version="1.2" baseProfile="tiny" id="Layer_1" xmlns="http://www.w3.org/2000/svg" xmlns:xlink="http://www.w3.org/1999/xlink"
	 x="0px" y="0px" width="24px" height="24px" viewBox="0 0 24 24" xml:space="preserve">
<path d="M16.5,7h-2.086l1.293-1.293c0.391-0.391,0.391-1.023,0-1.414s-1.023-0.391-1.414,0L10.586,8l3.707,3.707
	C14.488,11.902,14.744,12,15,12s0.512-0.098,0.707-0.293c0.391-0.391,0.391-1.023,0-1.414L14.414,9H16.5c1.379,0,2.5,1.346,2.5,3
	s-1.346,3-3,3l0,0c-0.553,0-1,0.448-1,1s0.447,1,1,1l0,0c2.757,0,5-2.243,5-5S18.981,7,16.5,7z"/>
<path d="M8.293,12.293c-0.391,0.391-0.391,1.023,0,1.414L9.586,15H7.5C6.121,15,5,13.654,5,12s1.346-3,3-3l0,0c0.553,0,1-0.448,1-1
	S8.553,7,8,7l0,0c-2.757,0-5,2.243-5,5s2.019,5,4.5,5h2.086l-1.293,1.293c-0.391,0.391-0.391,1.023,0,1.414
	C8.488,19.902,8.744,20,9,20s0.512-0.098,0.707-0.293L13.414,16l-3.707-3.707C9.316,11.902,8.684,11.902,8.293,12.293z"/>
</svg>
