<?xml version="1.0" encoding="iso-8859-1"?>
<!-- Generator: Adobe Illustrator 16.2.1, SVG Export Plug-In . SVG Version: 6.00 Build 0)  -->
<!DOCTYPE svg PUBLIC "-//W3C//DTD SVG 1.1//EN" "http://www.w3.org/Graphics/SVG/1.1/DTD/svg11.dtd">
<svg version="1.1" id="Layer_1" xmlns="http://www.w3.org/2000/svg" xmlns:xlink="http://www.w3.org/1999/xlink" x="0px" y="0px"
	 width="24px" height="24px" viewBox="0 0 24 24" style="enable-background:new 0 0 24 24;" xml:space="preserve">
<g>
	<path d="M16.293,13.293c-0.391,0.391-0.391,1.023,0,1.414L17.586,16h-2.752c-0.857,0-1.617-0.414-2.138-1.052
		c-0.216,0.685-0.538,1.317-0.952,1.865c0.84,0.73,1.909,1.188,3.09,1.188h2.752l-1.293,1.293c-0.391,0.391-0.391,1.023,0,1.414
		C16.488,20.902,16.744,21,17,21s0.512-0.098,0.707-0.293L21.414,17l-3.707-3.707C17.316,12.902,16.684,12.902,16.293,13.293z"/>
	<path d="M4,11c1.302,0,2.401-0.838,2.815-2H7.5c0.732,0,1.386,0.387,1.844,0.991c0.232-0.67,0.573-1.289,1.008-1.826
		C9.573,7.448,8.588,7,7.5,7H6.815C6.401,5.838,5.302,5,4,5C2.346,5,1,6.346,1,8S2.346,11,4,11z M4,7c0.552,0,1,0.449,1,1
		S4.552,9,4,9S3,8.551,3,8S3.448,7,4,7z"/>
	<path d="M12,12c0-1.654,1.271-3,2.834-3h2.752l-1.293,1.293c-0.391,0.391-0.391,1.023,0,1.414C16.488,11.902,16.744,12,17,12
		s0.512-0.098,0.707-0.293L21.414,8l-3.707-3.707c-0.391-0.391-1.023-0.391-1.414,0s-0.391,1.023,0,1.414L17.586,7h-2.752
		C12.169,7,10,9.243,10,12v1c0,1.654-1.121,3-2.5,3H6.815C6.401,14.838,5.302,14,4,14c-1.654,0-3,1.346-3,3s1.346,3,3,3
		c1.302,0,2.401-0.838,2.815-2H7.5c2.481,0,4.5-2.243,4.5-5V12z M4,18c-0.552,0-1-0.449-1-1s0.448-1,1-1s1,0.449,1,1S4.552,18,4,18z
		"/>
</g>
</svg>
