<?xml version="1.0" encoding="iso-8859-1"?>
<!-- Generator: Adobe Illustrator 16.2.1, SVG Export Plug-In . SVG Version: 6.00 Build 0)  -->
<!DOCTYPE svg PUBLIC "-//W3C//DTD SVG 1.1//EN" "http://www.w3.org/Graphics/SVG/1.1/DTD/svg11.dtd">
<svg version="1.1" id="Layer_1" xmlns="http://www.w3.org/2000/svg" xmlns:xlink="http://www.w3.org/1999/xlink" x="0px" y="0px"
	 width="24px" height="24px" viewBox="0 0 24 24" style="enable-background:new 0 0 24 24;" xml:space="preserve">
<g>
	<path d="M12,21.07c-1.654,0-3-1.346-3-3v-4.834c-1.143,1.025-3.026,0.98-4.121-0.115c-1.17-1.169-1.17-3.073,0-4.242L12,1.758
		l7.121,7.121c1.17,1.169,1.17,3.073,0,4.242c-1.094,1.095-2.978,1.14-4.121,0.115v4.834C15,19.725,13.654,21.07,12,21.07z
		 M11,8.414v9.656c0,0.551,0.448,1,1,1s1-0.449,1-1V8.414l3.293,3.293c0.379,0.378,1.035,0.378,1.414,0
		c0.39-0.39,0.39-1.024,0-1.414L12,4.586l-5.707,5.707c-0.39,0.39-0.39,1.024,0,1.414c0.379,0.378,1.035,0.378,1.414,0L11,8.414z"/>
</g>
</svg>
