<?xml version="1.0" encoding="iso-8859-1"?>
<!-- Generator: Adobe Illustrator 16.2.1, SVG Export Plug-In . SVG Version: 6.00 Build 0)  -->
<svg version="1.2" baseProfile="tiny" id="Layer_1" xmlns="http://www.w3.org/2000/svg" xmlns:xlink="http://www.w3.org/1999/xlink"
	 x="0px" y="0px" width="24px" height="24px" viewBox="0 0 24 24" xml:space="preserve">
<g>
	<path d="M19.5,12.473c0-1.948-0.618-3.397-2.066-4.844c-0.391-0.39-1.023-0.39-1.414,0c-0.391,0.391-0.391,1.024,0,1.415
		c1.079,1.078,1.48,2.007,1.48,3.429c0,1.469-0.572,2.85-1.611,3.888c-1.004,1.003-2.078,1.502-3.428,1.593l1.246-1.247
		c0.391-0.391,0.391-1.023,0-1.414s-1.023-0.391-1.414,0L8.586,19l3.707,3.707C12.488,22.902,12.744,23,13,23
		s0.512-0.098,0.707-0.293c0.391-0.391,0.391-1.023,0-1.414l-1.337-1.336c1.923-0.082,3.542-0.792,4.933-2.181
		C18.72,16.36,19.5,14.477,19.5,12.473z"/>
	<path d="M6.5,12.5c0-1.469,0.572-2.85,1.611-3.889c1.009-1.009,2.092-1.508,3.457-1.594l-1.275,1.275
		c-0.391,0.391-0.391,1.023,0,1.414C10.488,9.902,10.744,10,11,10s0.512-0.098,0.707-0.293L15.414,6l-3.707-3.707
		c-0.391-0.391-1.023-0.391-1.414,0s-0.391,1.023,0,1.414l1.311,1.311C9.69,5.104,8.079,5.814,6.697,7.197
		C5.28,8.613,4.5,10.496,4.5,12.5c0,1.948,0.618,3.397,2.066,4.844c0.195,0.195,0.451,0.292,0.707,0.292s0.512-0.098,0.707-0.293
		c0.391-0.391,0.391-1.024,0-1.415C6.901,14.851,6.5,13.922,6.5,12.5z"/>
</g>
</svg>
