<?xml version="1.0" encoding="iso-8859-1"?>
<!-- Generator: Adobe Illustrator 16.2.1, SVG Export Plug-In . SVG Version: 6.00 Build 0)  -->
<svg version="1.2" baseProfile="tiny" id="Layer_1" xmlns="http://www.w3.org/2000/svg" xmlns:xlink="http://www.w3.org/1999/xlink"
	 x="0px" y="0px" width="24px" height="24px" viewBox="0 0 24 24" xml:space="preserve">
<path d="M16.5,8h-2.086l1.293-1.293c0.391-0.391,0.391-1.023,0-1.414s-1.023-0.391-1.414,0L10.586,9l3.707,3.707
	C14.488,12.902,14.744,13,15,13s0.512-0.098,0.707-0.293c0.391-0.391,0.391-1.023,0-1.414L14.414,10H16.5c1.379,0,2.5,1.346,2.5,3
	s-1.346,3-3,3H8c-1.654,0-3-1.346-3-3s1.346-3,3-3l0,0c0.553,0,1-0.448,1-1S8.553,8,8,8l0,0c-2.757,0-5,2.243-5,5s2.243,5,5,5h8
	c2.757,0,5-2.243,5-5S18.981,8,16.5,8z"/>
</svg>
