<?xml version="1.0" encoding="iso-8859-1"?>
<!-- Generator: Adobe Illustrator 16.2.1, SVG Export Plug-In . SVG Version: 6.00 Build 0)  -->
<svg version="1.2" baseProfile="tiny" id="Layer_1" xmlns="http://www.w3.org/2000/svg" xmlns:xlink="http://www.w3.org/1999/xlink"
	 x="0px" y="0px" width="24px" height="24px" viewBox="0 0 24 24" xml:space="preserve">
<g>
	<path d="M4,19.999c-0.096,0-0.191-0.015-0.286-0.042C3.29,19.831,3,19.441,3,18.999v-1c0-4.8,3.381-8.864,8-9.796V6.499
		c0-0.534,0.208-1.036,0.585-1.414c0.756-0.757,2.075-0.756,2.829-0.001l6.288,6.203C20.893,11.475,21,11.73,21,11.999
		s-0.107,0.524-0.298,0.712l-6.293,6.207c-0.746,0.746-2.067,0.751-2.823-0.005C11.208,18.535,11,18.033,11,17.499v-1.437
		c-2.495,0.201-4.523,0.985-6.164,3.484C4.646,19.834,4.331,19.999,4,19.999z M12,14.01c0.262,0,1-0.01,1-0.01v3.499l5.576-5.5
		L13,6.503V10c0,0-0.384-0.004-0.891,0.052c-3.416,0.378-6.125,2.864-6.892,6.08C7.338,14.404,9.768,14.066,12,14.01z"/>
</g>
</svg>
