<?xml version="1.0" encoding="iso-8859-1"?>
<!-- Generator: Adobe Illustrator 16.2.1, SVG Export Plug-In . SVG Version: 6.00 Build 0)  -->
<svg version="1.2" baseProfile="tiny" id="Layer_1" xmlns="http://www.w3.org/2000/svg" xmlns:xlink="http://www.w3.org/1999/xlink"
	 x="0px" y="0px" width="24px" height="24px" viewBox="0 0 24 24" xml:space="preserve">
<path d="M12,4c-4.411,0-8,3.589-8,8s3.589,8,8,8c1.616,0,3.172-0.479,4.499-1.384c0.456-0.312,0.574-0.934,0.263-1.39
	c-0.311-0.457-0.932-0.572-1.39-0.263C14.378,17.642,13.212,18,12,18c-3.309,0-6-2.691-6-6s2.691-6,6-6s6,2.691,6,6v0.5
	c0,0.552-0.448,1-1,1s-1-0.448-1-1v-3c0-0.553-0.447-1-1-1c-0.441,0-0.805,0.29-0.938,0.688C13.482,8.761,12.773,8.5,12,8.5
	c-1.93,0-3.5,1.57-3.5,3.5s1.57,3.5,3.5,3.5c1.045,0,1.975-0.47,2.616-1.199C15.164,15.024,16.024,15.5,17,15.5c1.654,0,3-1.346,3-3
	V12C20,7.589,16.411,4,12,4z M12,13.5c-0.827,0-1.5-0.673-1.5-1.5s0.673-1.5,1.5-1.5s1.5,0.673,1.5,1.5S12.827,13.5,12,13.5z"/>
</svg>
