<?xml version="1.0" encoding="iso-8859-1"?>
<!-- Generator: Adobe Illustrator 16.2.1, SVG Export Plug-In . SVG Version: 6.00 Build 0)  -->
<!DOCTYPE svg PUBLIC "-//W3C//DTD SVG 1.1//EN" "http://www.w3.org/Graphics/SVG/1.1/DTD/svg11.dtd">
<svg version="1.1" id="Layer_1" xmlns="http://www.w3.org/2000/svg" xmlns:xlink="http://www.w3.org/1999/xlink" x="0px" y="0px"
	 width="24px" height="24px" viewBox="0 0 24 24" style="enable-background:new 0 0 24 24;" xml:space="preserve">
<path d="M12,3c-4.963,0-9,4.037-9,9s4.037,9,9,9c1.816,0,3.566-0.538,5.062-1.557c0.456-0.311,0.574-0.933,0.263-1.39
	c-0.311-0.457-0.932-0.573-1.39-0.263C14.774,18.582,13.413,19,12,19c-3.859,0-7-3.141-7-7s3.141-7,7-7s7,3.141,7,7v0.5
	c0,0.827-0.673,1.5-1.5,1.5S16,13.327,16,12.5V9c0-0.553-0.447-1-1-1c-0.411,0-0.762,0.248-0.916,0.602C13.476,8.228,12.766,8,12,8
	c-2.206,0-4,1.794-4,4s1.794,4,4,4c1.125,0,2.139-0.471,2.866-1.22C15.509,15.521,16.445,16,17.5,16c1.93,0,3.5-1.57,3.5-3.5V12
	C21,7.037,16.963,3,12,3z M12,14c-1.103,0-2-0.897-2-2s0.897-2,2-2s2,0.897,2,2S13.103,14,12,14z"/>
</svg>
