<?xml version="1.0" encoding="iso-8859-1"?>
<!-- Generator: Adobe Illustrator 16.2.1, SVG Export Plug-In . SVG Version: 6.00 Build 0)  -->
<!DOCTYPE svg PUBLIC "-//W3C//DTD SVG 1.1//EN" "http://www.w3.org/Graphics/SVG/1.1/DTD/svg11.dtd">
<svg version="1.1" id="Layer_1" xmlns="http://www.w3.org/2000/svg" xmlns:xlink="http://www.w3.org/1999/xlink" x="0px" y="0px"
	 width="24px" height="24px" viewBox="0 0 24 24" style="enable-background:new 0 0 24 24;" xml:space="preserve">
<g>
	<path d="M15.534,5.466c1.024,0,2.05,0.39,2.83,1.169c1.56,1.561,1.56,4.098,0,5.656l-7.072,7.072
		c-0.779,0.779-1.804,1.17-2.828,1.17s-2.049-0.391-2.828-1.17c-1.56-1.559-1.56-4.098,0-5.656L6.442,12.9
		c0,0.012-0.004,0.025-0.004,0.039c0,0.766,0.255,1.486,0.706,2.086L7.05,15.121c-0.78,0.779-0.78,2.049,0,2.828
		c0.39,0.39,0.901,0.584,1.414,0.584s1.024-0.195,1.414-0.584l2.535-2.535l4.537-4.537c0.779-0.779,0.779-2.049,0-2.828
		c-0.392-0.39-0.904-0.584-1.417-0.584c-0.512,0-1.023,0.195-1.413,0.584l-4.535,4.537c-0.128,0.127-0.146,0.275-0.146,0.354
		c0,0.076,0.019,0.225,0.146,0.352c0.099,0.099,0.228,0.148,0.356,0.148c0.128,0,0.255-0.049,0.352-0.146l2.122-2.121l1.414-1.414
		c0.391,0.391,0.586,0.902,0.586,1.414c0,0.51-0.195,1.02-0.584,1.41c-0.001,0.002-0.001,0.002-0.002,0.004l-2.122,2.121
		c-0.487,0.488-1.127,0.73-1.767,0.73c-0.641,0-1.281-0.244-1.769-0.73c-0.472-0.473-0.732-1.1-0.732-1.768
		c0-0.67,0.261-1.297,0.733-1.77l4.534-4.535C13.485,5.855,14.51,5.466,15.534,5.466 M15.534,3.466c-1.604,0-3.11,0.623-4.242,1.755
		L6.758,9.756c-0.362,0.362-0.656,0.776-0.873,1.224c-0.317,0.092-0.613,0.263-0.856,0.507l-0.807,0.807
		c-1.132,1.131-1.756,2.638-1.756,4.242s0.624,3.111,1.756,4.243c1.132,1.132,2.639,1.755,4.242,1.755s3.11-0.624,4.242-1.756
		l7.072-7.072c1.132-1.131,1.756-2.638,1.756-4.242c0-1.603-0.623-3.11-1.755-4.242C18.646,4.089,17.139,3.466,15.534,3.466
		L15.534,3.466z"/>
</g>
</svg>
