<?xml version="1.0" encoding="iso-8859-1"?>
<!-- Generator: Adobe Illustrator 16.2.1, SVG Export Plug-In . SVG Version: 6.00 Build 0)  -->
<svg version="1.2" baseProfile="tiny" id="Layer_1" xmlns="http://www.w3.org/2000/svg" xmlns:xlink="http://www.w3.org/1999/xlink"
	 x="0px" y="0px" width="24px" height="24px" viewBox="0 0 24 24" xml:space="preserve">
<g>
	<path d="M18.364,6.635c-1.561-1.559-4.1-1.559-5.658,0L8.172,11.17c-0.473,0.473-0.733,1.1-0.733,1.77
		c0,0.668,0.261,1.295,0.732,1.768c0.487,0.486,1.128,0.73,1.769,0.73c0.64,0,1.279-0.242,1.767-0.73l2.122-2.121
		c0.391-0.395,0.586-0.904,0.586-1.414c0-0.512-0.195-1.023-0.586-1.414l-3.536,3.535c-0.193,0.195-0.511,0.195-0.708-0.002
		c-0.127-0.127-0.146-0.275-0.146-0.352c0-0.078,0.019-0.227,0.146-0.354l4.535-4.537c0.778-0.779,2.048-0.779,2.83,0
		c0.779,0.779,0.779,2.049,0,2.828l-4.537,4.537l-2.535,2.535c-0.779,0.779-2.049,0.779-2.828,0c-0.78-0.779-0.78-2.049,0-2.828
		l0.095-0.096c-0.451-0.6-0.702-1.359-0.702-2.125l-0.807,0.807c-1.56,1.559-1.56,4.098,0,5.656c0.779,0.779,1.804,1.17,2.828,1.17
		s2.049-0.391,2.828-1.17l7.072-7.072C19.924,10.732,19.924,8.195,18.364,6.635z"/>
</g>
</svg>
