<?xml version="1.0" encoding="iso-8859-1"?>
<!-- Generator: Adobe Illustrator 16.2.1, SVG Export Plug-In . SVG Version: 6.00 Build 0)  -->
<svg version="1.2" baseProfile="tiny" id="Layer_1" xmlns="http://www.w3.org/2000/svg" xmlns:xlink="http://www.w3.org/1999/xlink"
	 x="0px" y="0px" width="24px" height="24px" viewBox="0 0 24 24" xml:space="preserve">
<g>
	<path d="M15.534,4.466c1.024,0,2.05,0.39,2.829,1.169c1.561,1.561,1.561,4.098,0,5.656l-7.071,7.072
		c-0.778,0.779-1.804,1.17-2.828,1.17s-2.049-0.391-2.828-1.17c-1.56-1.559-1.56-4.098,0-5.656L6.443,11.9
		c-0.004,0.805,0.25,1.524,0.701,2.125L7.05,14.121c-0.78,0.779-0.78,2.049,0,2.828c0.39,0.39,0.901,0.584,1.414,0.584
		s1.024-0.195,1.414-0.584l2.535-2.535l4.537-4.537c0.778-0.779,0.778-2.049,0-2.828c-0.392-0.39-0.904-0.584-1.417-0.584
		c-0.512,0-1.023,0.195-1.413,0.584l-4.535,4.537c-0.128,0.127-0.146,0.275-0.146,0.354c0,0.076,0.019,0.226,0.146,0.353
		c0.099,0.099,0.228,0.147,0.356,0.147c0.127,0,0.254-0.049,0.352-0.146l2.122-2.121l1.414-1.414
		c0.392,0.392,0.586,0.902,0.586,1.414c0,0.511-0.194,1.021-0.584,1.41c-0.002,0.004-2.124,2.125-2.124,2.125
		c-0.486,0.487-1.127,0.729-1.768,0.729s-1.28-0.244-1.769-0.729c-0.472-0.474-0.731-1.101-0.731-1.769
		c0-0.67,0.261-1.297,0.732-1.77l4.534-4.535C13.484,4.855,14.51,4.466,15.534,4.466 M15.534,2.466c-1.604,0-3.11,0.623-4.242,1.755
		l-7.069,7.073c-1.133,1.131-1.757,2.638-1.757,4.242s0.624,3.11,1.757,4.243c1.131,1.132,2.639,1.755,4.241,1.755
		s3.11-0.624,4.242-1.757l7.071-7.071c1.133-1.131,1.757-2.638,1.757-4.242c0-1.603-0.623-3.11-1.755-4.241
		C18.646,3.089,17.139,2.466,15.534,2.466z"/>
</g>
</svg>
