<svg height="1000px" width="683.59375px" xmlns="http://www.w3.org/2000/svg">
  <g>
    <path d="M0 754.39453125c0 -5.534 2.767 -16.764 8.301 -33.691c0 0 291.992 -483.399 291.992 -483.399c11.068 -19.531 24.902 -29.134 41.504 -28.808c19.531 0 33.366 9.602 41.504 28.808c0 0 291.992 483.399 291.992 483.399c5.534 8.463 8.301 19.694 8.301 33.691c0 25.065 -16.765 37.435 -50.293 37.109c0 0 -583.008 0 -583.008 0c-33.529 0.326 -50.293 -12.044 -50.293 -37.109c0 0 0 0 0 0m279.297 -379.395c0 0 41.504 208.497 41.504 208.497c0 0 41.992 0 41.992 0c0 0 41.504 -208.497 41.504 -208.497c0 0 -125 0 -125 0c0 0 0 0 0 0m20.996 333.497c0 0 83.008 0 83.008 0c0 0 0 -83.497 0 -83.497c0 0 -83.008 0 -83.008 0c0 0 0 83.497 0 83.497c0 0 0 0 0 0" />
  </g>
</svg>