<?xml version="1.0" encoding="iso-8859-1"?>
<!-- Generator: Adobe Illustrator 16.2.1, SVG Export Plug-In . SVG Version: 6.00 Build 0)  -->
<svg version="1.2" baseProfile="tiny" id="Layer_1" xmlns="http://www.w3.org/2000/svg" xmlns:xlink="http://www.w3.org/1999/xlink"
	 x="0px" y="0px" width="24px" height="24px" viewBox="0 0 24 24" xml:space="preserve">
<g>
	<path d="M19,21H9c-1.436,0-3.145-0.88-3.977-2.046l-2.619-3.667c-0.629-0.881-1.157-1.621-1.188-1.661
		c-0.246-0.344-0.249-0.894-0.008-1.241c0.018-0.025,0.561-0.783,1.204-1.686l2.608-3.653C5.855,5.879,7.566,5,9,5h10
		c1.654,0,3,1.346,3,3v10C22,19.654,20.654,21,19,21z M3.229,12.999c0.215,0.299,0.498,0.696,0.806,1.125l2.618,3.667
		C7.104,18.424,8.223,19,9.001,19h10c0.552,0,1-0.45,1-1.001V8c0-0.551-0.448-1-1-1h-10C8.225,7,7.104,7.576,6.65,8.209
		l-2.608,3.652C3.73,12.297,3.443,12.699,3.229,12.999z"/>
</g>
<path d="M13.707,13l2.646-2.646c0.194-0.194,0.194-0.512,0-0.707c-0.195-0.194-0.513-0.194-0.707,0L13,12.293l-2.646-2.646
	c-0.195-0.194-0.513-0.194-0.707,0c-0.195,0.195-0.195,0.513,0,0.707L12.293,13l-2.646,2.646c-0.195,0.195-0.195,0.513,0,0.707
	C9.744,16.451,9.872,16.5,10,16.5s0.256-0.049,0.354-0.146L13,13.707l2.646,2.646C15.744,16.451,15.872,16.5,16,16.5
	s0.256-0.049,0.354-0.146c0.194-0.194,0.194-0.512,0-0.707L13.707,13z"/>
</svg>
