<?xml version="1.0" encoding="iso-8859-1"?>
<!-- Generator: Adobe Illustrator 16.2.1, SVG Export Plug-In . SVG Version: 6.00 Build 0)  -->
<!DOCTYPE svg PUBLIC "-//W3C//DTD SVG 1.1//EN" "http://www.w3.org/Graphics/SVG/1.1/DTD/svg11.dtd">
<svg version="1.1" id="Layer_1" xmlns="http://www.w3.org/2000/svg" xmlns:xlink="http://www.w3.org/1999/xlink" x="0px" y="0px"
	 width="24px" height="24px" viewBox="0 0 24 24" style="enable-background:new 0 0 24 24;" xml:space="preserve">
<g>
	<path d="M19,21H9c-1.435,0-3.144-0.88-3.977-2.046l-2.618-3.667c-0.629-0.881-1.158-1.621-1.188-1.661
		c-0.247-0.344-0.249-0.893-0.008-1.241c0.018-0.025,0.56-0.784,1.204-1.686l2.609-3.653C5.856,5.879,7.566,5,9,5h10
		c1.654,0,3,1.346,3,3v10C22,19.654,20.654,21,19,21z M3.229,12.999c0.214,0.299,0.497,0.696,0.805,1.125l2.618,3.667
		C7.104,18.424,8.223,19,9,19h10c0.552,0,1-0.449,1-1V8c0-0.551-0.448-1-1-1H9C8.223,7,7.103,7.576,6.65,8.209l-2.609,3.653
		C3.73,12.297,3.443,12.699,3.229,12.999z"/>
</g>
<g>
	<path d="M16,16.5c-0.128,0-0.256-0.049-0.354-0.146l-6-6c-0.195-0.195-0.195-0.512,0-0.707s0.512-0.195,0.707,0l6,6
		c0.195,0.195,0.195,0.512,0,0.707C16.256,16.451,16.128,16.5,16,16.5z"/>
</g>
<g>
	<path d="M10,16.5c-0.128,0-0.256-0.049-0.354-0.146c-0.195-0.195-0.195-0.512,0-0.707l6-6c0.195-0.195,0.512-0.195,0.707,0
		s0.195,0.512,0,0.707l-6,6C10.256,16.451,10.128,16.5,10,16.5z"/>
</g>
</svg>
