<?xml version="1.0" encoding="iso-8859-1"?>
<!-- Generator: Adobe Illustrator 16.2.1, SVG Export Plug-In . SVG Version: 6.00 Build 0)  -->
<svg version="1.2" baseProfile="tiny" id="Layer_1" xmlns="http://www.w3.org/2000/svg" xmlns:xlink="http://www.w3.org/1999/xlink"
	 x="0px" y="0px" width="24px" height="24px" viewBox="0 0 24 24" xml:space="preserve">
<g>
	<path d="M9,16c-0.552,0-1-0.447-1-1v-4c0-0.553,0.448-1,1-1s1,0.447,1,1v4C10,15.553,9.552,16,9,16z"/>
</g>
<g>
	<path d="M6,16c-0.552,0-1-0.447-1-1v-4c0-0.553,0.448-1,1-1s1,0.447,1,1v4C7,15.553,6.552,16,6,16z"/>
</g>
<path d="M19,10c0-1.654-1.346-3-3-3H5c-1.654,0-3,1.346-3,3v6c0,1.654,1.346,3,3,3h11c1.654,0,3-1.346,3-3c1.104,0,2-0.896,2-2v-2
	C21,10.896,20.104,10,19,10z M17,16c0,0.552-0.449,1-1,1H5c-0.551,0-1-0.448-1-1v-6c0-0.552,0.449-1,1-1h11c0.551,0,1,0.448,1,1V16z
	"/>
</svg>
