<?xml version="1.0" encoding="iso-8859-1"?>
<!-- Generator: Adobe Illustrator 16.2.1, SVG Export Plug-In . SVG Version: 6.00 Build 0)  -->
<!DOCTYPE svg PUBLIC "-//W3C//DTD SVG 1.1//EN" "http://www.w3.org/Graphics/SVG/1.1/DTD/svg11.dtd">
<svg version="1.1" id="Layer_1" xmlns="http://www.w3.org/2000/svg" xmlns:xlink="http://www.w3.org/1999/xlink" x="0px" y="0px"
	 width="24px" height="24px" viewBox="0 0 24 24" style="enable-background:new 0 0 24 24;" xml:space="preserve">
<path d="M19.446,16.809L16.805,7H18c0.552,0,1-0.448,1-1s-0.448-1-1-1H7.75H7H6C5.448,5,5,5.448,5,6s0.448,1,1,1h1h0.135
	C7.122,7.176,7.086,7.403,7.014,7.671l-2.459,9.137c-0.218,0.809-0.075,1.623,0.392,2.232C5.414,19.65,6.162,20,7,20h10
	c0.838,0,1.586-0.35,2.054-0.959C19.521,18.431,19.664,17.618,19.446,16.809z M14.733,7l1.351,5.017C16.056,12.012,16.03,12,16,12H8
	c-0.03,0-0.056,0.012-0.084,0.017l1.03-3.826C9.029,7.88,9.117,7.448,9.137,7H14.733z M17.466,17.824C17.379,17.938,17.214,18,17,18
	H7c-0.214,0-0.379-0.062-0.466-0.176c-0.086-0.113-0.104-0.289-0.048-0.496l1.198-4.45C7.771,12.951,7.878,13,8,13h8
	c0.122,0,0.229-0.049,0.316-0.121l1.198,4.45C17.57,17.535,17.553,17.711,17.466,17.824z"/>
</svg>
