<?xml version="1.0" encoding="iso-8859-1"?>
<!-- Generator: Adobe Illustrator 16.2.1, SVG Export Plug-In . SVG Version: 6.00 Build 0)  -->
<svg version="1.2" baseProfile="tiny" id="Layer_1" xmlns="http://www.w3.org/2000/svg" xmlns:xlink="http://www.w3.org/1999/xlink"
	 x="0px" y="0px" width="24px" height="24px" viewBox="0 0 24 24" xml:space="preserve">
<path d="M19.445,16.809L16.805,7H18c0.552,0,1-0.448,1-1s-0.448-1-1-1H7.75H7H6C5.448,5,5,5.448,5,6s0.448,1,1,1h1h0.135
	C7.122,7.176,7.087,7.402,7.014,7.671l-2.459,9.138c-0.218,0.809-0.074,1.623,0.393,2.231C5.414,19.65,6.162,20,7,20h10
	c0.838,0,1.586-0.35,2.055-0.959C19.521,18.432,19.664,17.618,19.445,16.809z M14.732,7l1.352,5.018C16.057,12.012,16.029,12,16,12
	H8c-0.029,0-0.057,0.012-0.084,0.018l1.029-3.826C9.029,7.88,9.118,7.448,9.137,7H14.732z M17.466,17.824
	C17.379,17.938,17.214,18,17,18H7c-0.214,0-0.379-0.062-0.466-0.176c-0.086-0.113-0.104-0.289-0.048-0.496l1.197-4.45
	C7.771,12.951,7.878,13,8,13h8c0.122,0,0.229-0.049,0.316-0.121l1.197,4.45C17.57,17.535,17.553,17.711,17.466,17.824z"/>
</svg>
