<?xml version="1.0" encoding="iso-8859-1"?>
<!-- Generator: Adobe Illustrator 16.2.1, SVG Export Plug-In . SVG Version: 6.00 Build 0)  -->
<!DOCTYPE svg PUBLIC "-//W3C//DTD SVG 1.1//EN" "http://www.w3.org/Graphics/SVG/1.1/DTD/svg11.dtd">
<svg version="1.1" id="Layer_1" xmlns="http://www.w3.org/2000/svg" xmlns:xlink="http://www.w3.org/1999/xlink" x="0px" y="0px"
	 width="24px" height="24px" viewBox="0 0 24 24" style="enable-background:new 0 0 24 24;" xml:space="preserve">
<g>
	<path d="M9.5,10C9.225,10,9,10.225,9,10.5v6C9,16.775,9.225,17,9.5,17s0.5-0.225,0.5-0.5v-6C10,10.225,9.775,10,9.5,10z"/>
	<path d="M11.5,10c-0.275,0-0.5,0.225-0.5,0.5v6c0,0.275,0.225,0.5,0.5,0.5s0.5-0.225,0.5-0.5v-6C12,10.225,11.775,10,11.5,10z"/>
	<path d="M13.5,10c-0.275,0-0.5,0.225-0.5,0.5v6c0,0.275,0.225,0.5,0.5,0.5s0.5-0.225,0.5-0.5v-6C14,10.225,13.775,10,13.5,10z"/>
	<path d="M18.5,6H18V5c0-1.104-0.896-2-2-2H7C5.896,3,5,3.896,5,5v13c0,1.656,1.344,3,3,3h7c1.656,0,3-1.344,3-3h0.5
		c1.93,0,3.5-1.57,3.5-3.5v-5C22,7.57,20.43,6,18.5,6z M7,5h9v1h-4.444l-0.118,0.332c-0.164,0.458-0.663,0.73-1.117,0.648
		L9.973,6.922L9.8,7.229C9.533,7.704,9.035,8,8.5,8C7.673,8,7,7.327,7,6.5V6V5z M16,18c0,0.552-0.448,1-1,1H8c-0.552,0-1-0.448-1-1
		V8.49C7.419,8.807,7.936,9,8.5,9c0.784,0,1.521-0.376,1.989-1c0.003,0,0.007,0,0.011,0c0.717,0,1.372-0.391,1.726-1H16v1V18z
		 M20,14.5c0,0.827-0.673,1.5-1.5,1.5H17V8h1h0.5C19.327,8,20,8.673,20,9.5V14.5z"/>
</g>
</svg>
