<?xml version="1.0" encoding="iso-8859-1"?>
<!-- Generator: Adobe Illustrator 16.2.1, SVG Export Plug-In . SVG Version: 6.00 Build 0)  -->
<!DOCTYPE svg PUBLIC "-//W3C//DTD SVG 1.1//EN" "http://www.w3.org/Graphics/SVG/1.1/DTD/svg11.dtd">
<svg version="1.1" id="Layer_1" xmlns="http://www.w3.org/2000/svg" xmlns:xlink="http://www.w3.org/1999/xlink" x="0px" y="0px"
	 width="24px" height="24px" viewBox="0 0 24 24" style="enable-background:new 0 0 24 24;" xml:space="preserve">
<path d="M19.715,17.301c-0.017-0.018-1.717-1.854-1.731-6.32c-0.009-2.607-1.69-4.824-4.019-5.641C13.985,5.229,14,5.117,14,5
	c0-1.103-0.897-2-2-2s-2,0.897-2,2c0,0.116,0.015,0.228,0.034,0.338c-2.336,0.816-4.019,3.036-4.019,5.646
	c0,4.462-1.711,6.296-1.72,6.306c-0.288,0.286-0.375,0.716-0.22,1.091S4.595,19,5,19h3.142c0.447,1.72,2,3,3.858,3
	s3.411-1.28,3.858-3H19c0.4,0,0.757-0.243,0.915-0.61C20.072,18.022,19.991,17.591,19.715,17.301z M12,7
	c2.19,0,3.978,1.789,3.984,3.987c0.002,0.728,0.046,1.396,0.118,2.013h-8.2c0.071-0.617,0.113-1.286,0.113-2.016
	C8.016,8.788,9.803,7,12,7z M12,20c-0.737,0-1.375-0.405-1.722-1h3.443C13.375,19.595,12.737,20,12,20z M6.814,17
	c0.352-0.736,0.705-1.731,0.938-3h8.502c0.234,1.269,0.587,2.264,0.937,3H6.814z"/>
</svg>
