<?xml version="1.0" encoding="iso-8859-1"?>
<!-- Generator: Adobe Illustrator 16.2.1, SVG Export Plug-In . SVG Version: 6.00 Build 0)  -->
<svg version="1.2" baseProfile="tiny" xmlns="http://www.w3.org/2000/svg" xmlns:xlink="http://www.w3.org/1999/xlink" x="0px"
	 y="0px" width="24px" height="24px" viewBox="0 0 24 24" xml:space="preserve">
<g id="Layer_1">
	<path d="M18,3H7C6.735,3,6.48,3.105,6.293,3.293l-3,3c-0.02,0.02-0.039,0.04-0.057,0.062C3.097,6.52,3.011,6.728,3.001,6.955
		C3,6.973,3,6.99,3,7.008V18c0,1.654,1.346,3,3,3h9c1.304,0,2.416-0.836,2.829-2H18.5c1.402,0,2.5-1.317,2.5-3V6
		C21,4.346,19.654,3,18,3z M6,19c-0.551,0-1-0.448-1-1V8h2v11H6z M16,18c0,0.552-0.449,1-1,1H8V8h7c0.551,0,1,0.448,1,1V18z M19,16
		c0,0.62-0.324,1-0.5,1H18V9c0-1.654-1.346-3-3-3H6.414l1-1H18c0.551,0,1,0.448,1,1V16z"/>
</g>
<g id="nyt_x5F_exporter_x5F_info" display="none">
</g>
</svg>
