<?xml version="1.0" encoding="iso-8859-1"?>
<!-- Generator: Adobe Illustrator 16.2.1, SVG Export Plug-In . SVG Version: 6.00 Build 0)  -->
<!DOCTYPE svg PUBLIC "-//W3C//DTD SVG 1.1//EN" "http://www.w3.org/Graphics/SVG/1.1/DTD/svg11.dtd">
<svg version="1.1" id="Layer_1" xmlns="http://www.w3.org/2000/svg" xmlns:xlink="http://www.w3.org/1999/xlink" x="0px" y="0px"
	 width="24px" height="24px" viewBox="0 0 24 24" style="enable-background:new 0 0 24 24;" xml:space="preserve">
<path d="M18,3H7C6.735,3,6.48,3.105,6.293,3.293l-3,3c-0.02,0.02-0.039,0.04-0.057,0.062h0c0,0.001,0,0.001,0,0.001
	c-0.138,0.164-0.225,0.372-0.234,0.6C3,6.973,3,6.99,3,7.008V18c0,1.654,1.346,3,3,3h9c1.304,0,2.416-0.836,2.829-2H18.5
	c1.402,0,2.5-1.317,2.5-3V6C21,4.346,19.654,3,18,3z M6,19c-0.551,0-1-0.448-1-1V8h2v11H6z M16,18c0,0.552-0.449,1-1,1H8V8h7
	c0.551,0,1,0.448,1,1V18z M19,16c0,0.62-0.324,1-0.5,1H18V9c0-1.654-1.346-3-3-3H6.414l1-1H18c0.551,0,1,0.448,1,1V16z"/>
</svg>
