<?xml version="1.0" encoding="iso-8859-1"?>
<!-- Generator: Adobe Illustrator 16.2.1, SVG Export Plug-In . SVG Version: 6.00 Build 0)  -->
<!DOCTYPE svg PUBLIC "-//W3C//DTD SVG 1.1//EN" "http://www.w3.org/Graphics/SVG/1.1/DTD/svg11.dtd">
<svg version="1.1" id="Layer_1" xmlns="http://www.w3.org/2000/svg" xmlns:xlink="http://www.w3.org/1999/xlink" x="0px" y="0px"
	 width="24px" height="24px" viewBox="0 0 24 24" style="enable-background:new 0 0 24 24;" xml:space="preserve">
<path d="M17,2H9C7.346,2,6,3.346,6,5v14c0,0.514,0.104,0.946,0.308,1.285c0.564,0.935,1.815,1.008,2.813,0.008l3.172-3.172
	c0.375-0.374,1.039-0.374,1.414,0l3.172,3.172c0.491,0.491,1.002,0.74,1.52,0.74C19.196,21.033,20,20.404,20,19V5
	C20,3.346,18.654,2,17,2z M9,4h8c0.551,0,1,0.449,1,1v9.905l-4.662-4.273c-0.191-0.175-0.484-0.175-0.676,0L8,14.905V5
	C8,4.449,8.449,4,9,4z M15.121,15.707c-0.565-0.565-1.318-0.876-2.121-0.876s-1.556,0.312-2.121,0.876L8,18.586v-2.324l5-4.583
	l5,4.583v2.324L15.121,15.707z"/>
</svg>
