<?xml version="1.0" encoding="iso-8859-1"?>
<!-- Generator: Adobe Illustrator 16.2.1, SVG Export Plug-In . SVG Version: 6.00 Build 0)  -->
<!DOCTYPE svg PUBLIC "-//W3C//DTD SVG 1.1//EN" "http://www.w3.org/Graphics/SVG/1.1/DTD/svg11.dtd">
<svg version="1.1" id="Layer_1" xmlns="http://www.w3.org/2000/svg" xmlns:xlink="http://www.w3.org/1999/xlink" x="0px" y="0px"
	 width="24px" height="24px" viewBox="0 0 24 24" style="enable-background:new 0 0 24 24;" xml:space="preserve">
<g>
	<path d="M18,20H6c-1.654,0-3-1.346-3-3v-7c0-1.654,1.346-3,3-3h12c1.654,0,3,1.346,3,3v7C21,18.654,19.654,20,18,20z M6,9
		c-0.551,0-1,0.449-1,1v7c0,0.551,0.449,1,1,1h12c0.551,0,1-0.449,1-1v-7c0-0.551-0.449-1-1-1H6z"/>
</g>
<g>
	<path d="M18,9h-2V7c0-0.551-0.449-1-1-1H9C8.449,6,8,6.449,8,7v2H6V7c0-1.654,1.346-3,3-3h6c1.654,0,3,1.346,3,3V9z"/>
</g>
<g>
	<rect x="3" y="15" width="18" height="1"/>
</g>
<g>
	<path d="M14,13c0-0.55-0.45-1-1-1h-2c-0.55,0-1,0.45-1,1l0,0c0,0.55,0.45,1,1,1h2C13.55,14,14,13.55,14,13L14,13z"/>
</g>
</svg>
