<?xml version="1.0" encoding="iso-8859-1"?>
<!-- Generator: Adobe Illustrator 16.2.1, SVG Export Plug-In . SVG Version: 6.00 Build 0)  -->
<svg version="1.2" baseProfile="tiny" xmlns="http://www.w3.org/2000/svg" xmlns:xlink="http://www.w3.org/1999/xlink" x="0px"
	 y="0px" width="24px" height="24px" viewBox="0 0 24 24" xml:space="preserve">
<g id="Layer_1">
	<g>
		<path d="M18,7c0-1.654-1.346-3-3-3H9C7.346,4,6,5.346,6,7c-1.654,0-3,1.346-3,3v7c0,1.654,1.346,3,3,3h12c1.654,0,3-1.346,3-3v-7
			C21,8.346,19.654,7,18,7z M9,6h6c0.551,0,1,0.449,1,1H8C8,6.449,8.449,6,9,6z M19,17c0,0.551-0.449,1-1,1H6c-0.551,0-1-0.449-1-1
			v-1h14V17z M5,15v-5c0-0.551,0.449-1,1-1h12c0.551,0,1,0.449,1,1v5H5z"/>
		<path d="M13,12h-2c-0.55,0-1,0.45-1,1s0.45,1,1,1h2c0.55,0,1-0.45,1-1S13.55,12,13,12z"/>
	</g>
</g>
<g id="nyt_x5F_exporter_x5F_info" display="none">
</g>
</svg>
