<?xml version="1.0" encoding="iso-8859-1"?>
<!-- Generator: Adobe Illustrator 16.2.1, SVG Export Plug-In . SVG Version: 6.00 Build 0)  -->
<!DOCTYPE svg PUBLIC "-//W3C//DTD SVG 1.1//EN" "http://www.w3.org/Graphics/SVG/1.1/DTD/svg11.dtd">
<svg version="1.1" id="Layer_1" xmlns="http://www.w3.org/2000/svg" xmlns:xlink="http://www.w3.org/1999/xlink" x="0px" y="0px"
	 width="24px" height="24px" viewBox="0 0 24 24" style="enable-background:new 0 0 24 24;" xml:space="preserve">
<path d="M19.458,4.542c-0.382-0.383-0.894-0.586-1.415-0.586c-0.25,0-0.503,0.047-0.744,0.144c-4.45,1.786-7.792,4.759-10.517,9.357
	c-0.102,0.172-0.163,0.356-0.209,0.542c-1.38,0.215-2.6,0.904-3.442,1.993c-0.916,1.185-1.295,2.695-1.066,4.254l0.216,1.473
	l1.473,0.216C4.047,21.978,4.343,22,4.634,22c2.743,0,4.949-1.909,5.367-4.565c0.188-0.046,0.371-0.114,0.544-0.217
	c4.598-2.728,7.571-6.069,9.355-10.517C20.198,5.958,20.024,5.108,19.458,4.542z M4.634,20c-0.192,0-0.389-0.015-0.59-0.044
	c-0.309-2.105,1.055-3.81,3-4.021l1.021,1.021C7.873,18.716,6.46,20,4.634,20z M9.524,15.498l-1.021-1.021
	c0.38-0.641,0.774-1.234,1.178-1.804c0.011,0.013,0.015,0.028,0.027,0.041l1.612,1.612C10.752,14.727,10.162,15.12,9.524,15.498z
	 M12.132,13.725c0,0-1.821-1.801-1.879-1.825c2.147-2.784,4.651-4.684,7.791-5.943C16.789,9.085,14.9,11.581,12.132,13.725z"/>
</svg>
