<?xml version="1.0" encoding="iso-8859-1"?>
<!-- Generator: Adobe Illustrator 16.2.1, SVG Export Plug-In . SVG Version: 6.00 Build 0)  -->
<svg version="1.2" baseProfile="tiny" id="Layer_1" xmlns="http://www.w3.org/2000/svg" xmlns:xlink="http://www.w3.org/1999/xlink"
	 x="0px" y="0px" width="24px" height="24px" viewBox="0 0 24 24" xml:space="preserve">
<path d="M20.177,3.823c-0.382-0.383-0.894-0.586-1.415-0.586c-0.25,0-0.503,0.047-0.744,0.144c-4.449,1.787-7.792,4.76-10.517,9.357
	c-0.102,0.172-0.163,0.355-0.209,0.542c-1.38,0.215-2.6,0.903-3.442,1.993c-0.916,1.185-1.295,2.695-1.066,4.254L3,21l1.473,0.217
	c0.293,0.043,0.589,0.064,0.88,0.064c2.743,0,4.949-1.909,5.367-4.564c0.188-0.047,0.371-0.115,0.544-0.218
	c4.598-2.728,7.571-6.069,9.355-10.517C20.917,5.239,20.742,4.389,20.177,3.823z M5.353,19.281c-0.192,0-0.389-0.016-0.59-0.044
	c-0.309-2.104,1.055-3.81,3-4.021l1.021,1.021C8.592,17.997,7.179,19.281,5.353,19.281z M10.243,14.779l-1.021-1.021
	c0.38-0.641,0.774-1.233,1.178-1.804c0.027,0.041,1.639,1.653,1.639,1.653C11.471,14.008,10.881,14.401,10.243,14.779z
	 M12.851,13.006c0,0-1.821-1.801-1.879-1.824c2.147-2.784,4.651-4.685,7.791-5.943C17.508,8.366,15.619,10.862,12.851,13.006z"/>
</svg>
