<?xml version="1.0" encoding="iso-8859-1"?>
<!-- Generator: Adobe Illustrator 16.2.1, SVG Export Plug-In . SVG Version: 6.00 Build 0)  -->
<!DOCTYPE svg PUBLIC "-//W3C//DTD SVG 1.1//EN" "http://www.w3.org/Graphics/SVG/1.1/DTD/svg11.dtd">
<svg version="1.1" id="Layer_1" xmlns="http://www.w3.org/2000/svg" xmlns:xlink="http://www.w3.org/1999/xlink" x="0px" y="0px"
	 width="24px" height="24px" viewBox="0 0 24 24" style="enable-background:new 0 0 24 24;" xml:space="preserve">
<g>
	<path d="M20,20H4c-1.654,0-3-1.346-3-3V7c0-1.654,1.346-3,3-3h16c1.654,0,3,1.346,3,3v10C23,18.654,21.654,20,20,20z M4,6
		C3.449,6,3,6.449,3,7v10c0,0.551,0.449,1,1,1h16c0.551,0,1-0.449,1-1V7c0-0.551-0.449-1-1-1H4z"/>
</g>
<g>
	<path d="M10,15H6c-0.552,0-1-0.448-1-1s0.448-1,1-1h4c0.552,0,1,0.448,1,1S10.552,15,10,15z"/>
</g>
<g>
	<path d="M10,11H6c-0.552,0-1-0.448-1-1s0.448-1,1-1h4c0.552,0,1,0.448,1,1S10.552,11,10,11z"/>
</g>
<g>
	<circle cx="16" cy="10.5" r="2"/>
</g>
<g>
	<g>
		<path d="M16,13.356c-1.562,0-2.5,0.715-2.5,1.429c0,0.357,0.938,0.715,2.5,0.715c1.466,0,2.5-0.357,2.5-0.715
			C18.5,14.071,17.52,13.356,16,13.356z"/>
	</g>
</g>
</svg>
