<?xml version="1.0" encoding="iso-8859-1"?>
<!-- Generator: Adobe Illustrator 16.2.1, SVG Export Plug-In . SVG Version: 6.00 Build 0)  -->
<svg version="1.2" baseProfile="tiny" xmlns="http://www.w3.org/2000/svg" xmlns:xlink="http://www.w3.org/1999/xlink" x="0px"
	 y="0px" width="24px" height="24px" viewBox="0 0 24 24" xml:space="preserve">
<g id="Layer_1">
	<path d="M19,6.184V6c0-1.657-1.343-3-3-3s-3,1.343-3,3h-2c0-1.657-1.343-3-3-3S5,4.343,5,6v0.184C3.839,6.599,3,7.698,3,9v9
		c0,1.654,1.346,3,3,3h12c1.654,0,3-1.346,3-3V9C21,7.698,20.161,6.599,19,6.184z M15,6c0-0.552,0.447-1,1-1s1,0.448,1,1v2
		c0,0.552-0.447,1-1,1s-1-0.448-1-1V6z M7,6c0-0.552,0.447-1,1-1s1,0.448,1,1v2c0,0.552-0.447,1-1,1S7,8.552,7,8V6z M19,18
		c0,0.551-0.448,1-1,1H6c-0.552,0-1-0.449-1-1v-6h14V18z M19,11H5V9c0-0.551,0.448-1,1-1c0,1.104,0.896,2,2,2s2-0.896,2-2h4
		c0,1.104,0.896,2,2,2s2-0.896,2-2c0.552,0,1,0.449,1,1V11z"/>
</g>
<g id="nyt_x5F_exporter_x5F_info" display="none">
</g>
</svg>
