<svg height="1000px" width="750px" xmlns="http://www.w3.org/2000/svg">
  <g>
    <path d="M0 750c0 0 0 -416.504 0 -416.504c0 -27.669 13.835 -41.667 41.504 -41.992c0 0 83.496 0 83.496 0c27.669 0 51.27 -9.603 70.801 -28.809c0 0 24.902 -25.39 24.902 -25.39c19.531 -19.532 43.132 -29.134 70.801 -28.809c0 0 166.992 0 166.992 0c27.669 0 51.27 9.603 70.801 28.809c0 0 24.902 25.39 24.902 25.39c19.531 19.532 43.132 29.134 70.801 28.809c0 0 83.496 0 83.496 0c27.669 0 41.504 13.997 41.504 41.992c0 0 0 416.504 0 416.504c0 27.669 -13.835 41.504 -41.504 41.504c0 0 -666.992 0 -666.992 0c-27.669 0 -41.504 -13.835 -41.504 -41.504c0 0 0 0 0 0m229.004 -229.248c0 38.9 14.648 72.917 43.945 102.051c29.297 29.134 63.314 43.701 102.051 43.701c38.737 0 72.754 -14.567 102.051 -43.701c29.297 -29.134 43.945 -63.151 43.945 -102.051c0 -38.9 -14.648 -72.917 -43.945 -102.051c-29.297 -29.134 -63.314 -43.701 -102.051 -43.701c-38.737 0 -72.754 14.567 -102.051 43.701c-29.297 29.134 -43.945 63.151 -43.945 102.051c0 0 0 0 0 0m354.492 -62.256c0 0 83.008 0 83.008 0c0 0 0 -83.496 0 -83.496c0 0 -83.008 0 -83.008 0c0 0 0 83.496 0 83.496c0 0 0 0 0 0" />
  </g>
</svg>