<?xml version="1.0" encoding="iso-8859-1"?>
<!-- Generator: Adobe Illustrator 16.2.1, SVG Export Plug-In . SVG Version: 6.00 Build 0)  -->
<svg version="1.2" baseProfile="tiny" id="Layer_1" xmlns="http://www.w3.org/2000/svg" xmlns:xlink="http://www.w3.org/1999/xlink"
	 x="0px" y="0px" width="24px" height="24px" viewBox="0 0 24 24" xml:space="preserve">
<g>
	<path d="M12,20.5c-4.688,0-8.5-3.812-8.5-8.5s3.812-8.5,8.497-8.5c4.69,0,8.503,3.812,8.503,8.5S16.688,20.5,12,20.5z M12,5.5
		c-3.586,0-6.5,2.916-6.5,6.5s2.916,6.5,6.5,6.5s6.5-2.916,6.5-6.5S15.584,5.5,12,5.5z"/>
</g>
<g>
	<g>
		<path d="M12.003,8.5c1.929,0,3.497,1.57,3.497,3.5c0,0.206-0.02,0.412-0.057,0.615l-4.057-4.059C11.589,8.52,11.794,8.5,12,8.5
			 M12.003,7.5c-0.882,0-1.696,0.262-2.39,0.697l6.188,6.188c0.438-0.692,0.699-1.508,0.699-2.387C16.5,9.518,14.486,7.5,12.003,7.5
			z"/>
	</g>
	<g>
		<path d="M8.557,11.384l4.059,4.06C12.412,15.48,12.207,15.5,12,15.5c-1.93,0-3.5-1.57-3.5-3.502
			C8.5,11.792,8.52,11.586,8.557,11.384 M8.199,9.611C7.764,10.305,7.5,11.119,7.5,11.998c0,2.486,2.016,4.502,4.5,4.502
			c0.879,0,1.693-0.264,2.387-0.699L8.199,9.611z"/>
	</g>
</g>
</svg>
