<?xml version="1.0" encoding="iso-8859-1"?>
<!-- Generator: Adobe Illustrator 16.2.1, SVG Export Plug-In . SVG Version: 6.00 Build 0)  -->
<svg version="1.2" baseProfile="tiny" id="Layer_1" xmlns="http://www.w3.org/2000/svg" xmlns:xlink="http://www.w3.org/1999/xlink"
	 x="0px" y="0px" width="24px" height="24px" viewBox="0 0 24 24" xml:space="preserve">
<g>
	<g>
		<path d="M11.614,13.98l4.908,4.922c0.39,0.391,0.99,0.36,1.286-0.106c0.88-1.394,1.393-3.044,1.393-4.815
			c0-2.131-0.741-4.086-1.972-5.631L11.614,13.98z"/>
	</g>
	<g>
		<path d="M9,14.396V7.041c-3.391,0.487-6,3.405-6,6.939C3,17.856,6.134,21,10,21c1.572,0,3.018-0.526,4.186-1.403L9,14.396z"/>
	</g>
	<g>
		<path d="M16.331,6.213c0.39-0.391,0.365-0.999-0.089-1.313c-1.253-0.868-2.695-1.479-4.251-1.765C11.447,3.035,11,3.447,11,4v7.56
			L16.331,6.213z"/>
	</g>
</g>
</svg>
