<?xml version="1.0" encoding="iso-8859-1"?>
<!-- Generator: Adobe Illustrator 16.2.1, SVG Export Plug-In . SVG Version: 6.00 Build 0)  -->
<svg version="1.2" baseProfile="tiny" id="Layer_1" xmlns="http://www.w3.org/2000/svg" xmlns:xlink="http://www.w3.org/1999/xlink"
	 x="0px" y="0px" width="24px" height="24px" viewBox="0 0 24 24" xml:space="preserve">
<path d="M14,4c0-1.105-0.896-2-2-2s-2,0.895-2,2v12h4V4z"/>
<path d="M19,8c0-1.105-0.896-2-2-2s-2,0.895-2,2v8h4V8z"/>
<path d="M9,11c0-1.105-0.896-2-2-2s-2,0.895-2,2v5h4V11z"/>
<path d="M19,19H5c-0.553,0-1,0.447-1,1s0.447,1,1,1h14c0.553,0,1-0.447,1-1S19.553,19,19,19z"/>
</svg>
