<?xml version="1.0" encoding="iso-8859-1"?>
<!-- Generator: Adobe Illustrator 16.2.1, SVG Export Plug-In . SVG Version: 6.00 Build 0)  -->
<svg version="1.2" baseProfile="tiny" id="Layer_1" xmlns="http://www.w3.org/2000/svg" xmlns:xlink="http://www.w3.org/1999/xlink"
	 x="0px" y="0px" width="24px" height="24px" viewBox="0 0 24 24" xml:space="preserve">
<g>
	<g>
		<path d="M5.999,17c-0.677,0-1.342-0.234-1.873-0.658c-0.626-0.501-1.019-1.215-1.107-2.011c-0.089-0.796,0.138-1.58,0.639-2.206
			l4-5c0.978-1.225,2.883-1.471,4.143-0.523l1.674,1.254l2.184-2.729C16.23,4.411,17.084,4,18.001,4
			c0.679,0,1.343,0.232,1.873,0.657c0.626,0.501,1.021,1.216,1.108,2.013s-0.14,1.58-0.641,2.204l-4,5
			c-0.977,1.226-2.882,1.471-4.143,0.526l-1.674-1.256l-2.184,2.729C7.77,16.589,6.916,17,5.999,17z M10,8
			C9.694,8,9.409,8.137,9.219,8.374l-4,5.001c-0.167,0.208-0.243,0.471-0.213,0.734c0.03,0.266,0.161,0.504,0.369,0.67
			C5.603,14.962,5.84,15,5.999,15c0.306,0,0.591-0.137,0.782-0.376l3.395-4.244L13.4,12.8c0.42,0.316,1.056,0.231,1.381-0.176
			l4-5.001c0.167-0.208,0.242-0.469,0.213-0.734c-0.03-0.266-0.161-0.504-0.369-0.67c-0.227-0.182-0.464-0.22-0.624-0.22
			c-0.306,0-0.591,0.137-0.782,0.376l-3.395,4.242L10.6,8.2C10.425,8.068,10.218,8,10,8z"/>
	</g>
</g>
<g>
	<path d="M19,21H5c-0.552,0-1-0.447-1-1s0.448-1,1-1h14c0.552,0,1,0.447,1,1S19.552,21,19,21z"/>
</g>
</svg>
