<?xml version="1.0" encoding="iso-8859-1"?>
<!-- Generator: Adobe Illustrator 16.2.1, SVG Export Plug-In . SVG Version: 6.00 Build 0)  -->
<svg version="1.2" baseProfile="tiny" id="Layer_1" xmlns="http://www.w3.org/2000/svg" xmlns:xlink="http://www.w3.org/1999/xlink"
	 x="0px" y="0px" width="24px" height="24px" viewBox="0 0 24 24" xml:space="preserve">
<path d="M17,5c-0.771,0-1.468,0.301-2,0.779V4c0-1.654-1.346-3-3-3S9,2.346,9,4v4.779C8.468,8.301,7.771,8,7,8c-1.654,0-3,1.346-3,3
	v6h16V8C20,6.346,18.654,5,17,5z M12,3c0.551,0,1,0.448,1,1v11h-2V4C11,3.448,11.449,3,12,3z M8,15H6v-4c0-0.552,0.449-1,1-1
	s1,0.448,1,1V15z M18,15h-2V8c0-0.552,0.449-1,1-1s1,0.448,1,1V15z"/>
<g>
	<path d="M19,21H5c-0.552,0-1-0.447-1-1s0.448-1,1-1h14c0.552,0,1,0.447,1,1S19.552,21,19,21z"/>
</g>
</svg>
