<?xml version="1.0" encoding="iso-8859-1"?>
<!-- Generator: Adobe Illustrator 16.2.1, SVG Export Plug-In . SVG Version: 6.00 Build 0)  -->
<svg version="1.2" baseProfile="tiny" id="Layer_1" xmlns="http://www.w3.org/2000/svg" xmlns:xlink="http://www.w3.org/1999/xlink"
	 x="0px" y="0px" width="24px" height="24px" viewBox="0 0 24 24" xml:space="preserve">
<path d="M18.227,7.609l0.557-0.559c0.396-0.396,0.607-0.943,0.582-1.504c-0.026-0.561-0.286-1.084-0.717-1.443
	c-2.129-1.775-4.711-2.848-7.469-3.097C11.12,1.003,11.061,1,11,1c-0.497,0-0.979,0.186-1.35,0.523C9.236,1.902,9,2.438,9,3v2.229
	c-3.657,0.865-6.333,4.188-6.333,8.006c0,4.547,3.688,8.244,8.224,8.244c1.594,0,3.11-0.479,4.441-1.345
	c0.277,0.142,0.583,0.226,0.9,0.226c0.037,0,0.072-0.002,0.109-0.004c0.569-0.03,1.098-0.305,1.453-0.75
	c1.421-1.781,2.204-4.019,2.204-6.297C20,11.277,19.373,9.282,18.227,7.609z M10.891,19.479c-3.438,0-6.224-2.793-6.224-6.244
	c0-3.137,2.317-5.729,5.333-6.164v6.408l4.609,4.754C13.572,19.012,12.287,19.479,10.891,19.479z M11,12.025V3
	c2.411,0.218,4.607,1.173,6.366,2.641L11,12.025z M11.214,13.294l5.019-5.028c1.104,1.385,1.769,3.141,1.769,5.043
	c0,1.914-0.664,3.666-1.769,5.051L11.214,13.294z"/>
</svg>
