<?xml version="1.0" encoding="iso-8859-1"?>
<!-- Generator: Adobe Illustrator 16.2.1, SVG Export Plug-In . SVG Version: 6.00 Build 0)  -->
<!DOCTYPE svg PUBLIC "-//W3C//DTD SVG 1.1//EN" "http://www.w3.org/Graphics/SVG/1.1/DTD/svg11.dtd">
<svg version="1.1" id="Layer_1" xmlns="http://www.w3.org/2000/svg" xmlns:xlink="http://www.w3.org/1999/xlink" x="0px" y="0px"
	 width="24px" height="24px" viewBox="0 0 24 24" style="enable-background:new 0 0 24 24;" xml:space="preserve">
<path d="M18.227,7.609l0.556-0.558c0.396-0.397,0.607-0.943,0.582-1.504c-0.026-0.561-0.286-1.084-0.717-1.443
	c-2.129-1.776-4.711-2.848-7.468-3.097C11.12,1.003,11.06,1,11,1c-0.497,0-0.979,0.186-1.349,0.523C9.236,1.902,9,2.438,9,3v2.228
	c-3.657,0.866-6.333,4.188-6.333,8.007c0,4.546,3.688,8.244,8.223,8.244c1.594,0,3.111-0.479,4.442-1.345
	c0.278,0.142,0.583,0.225,0.9,0.225c0.037,0,0.073-0.001,0.11-0.003c0.569-0.031,1.098-0.305,1.453-0.75
	C19.217,17.823,20,15.587,20,13.308C20,11.278,19.373,9.282,18.227,7.609z M10.89,19.479c-3.437,0-6.223-2.794-6.223-6.244
	c0-3.137,2.317-5.73,5.333-6.164v6.408l4.609,4.753C13.572,19.011,12.287,19.479,10.89,19.479z M11,12.026V3
	c2.411,0.218,4.608,1.173,6.366,2.64L11,12.026z M11.214,13.294l5.019-5.028C17.336,9.65,18,11.405,18,13.308
	c0,1.914-0.664,3.667-1.768,5.051L11.214,13.294z"/>
</svg>
