<svg height="1000px" width="666.9921875px" xmlns="http://www.w3.org/2000/svg">
  <g>
    <path d="M0 516.6015625c0 -58.268 18.066 -111.003 54.199 -158.203c36.133 -50.13 80.567 -83.496 133.301 -100.098c0 0 62.5 283.203 62.5 283.203c0 0 241.699 137.696 241.699 137.696c-22.135 30.599 -54.036 58.431 -95.703 83.496c-38.737 19.531 -80.404 29.134 -125 28.808c-74.87 0 -138.753 -26.367 -191.65 -79.101c-52.897 -52.735 -79.346 -118.002 -79.346 -195.801c0 0 0 0 0 0m233.398 -375c25.066 -11.068 55.664 -16.602 91.797 -16.602c33.203 0 67.871 6.999 104.004 20.997c0 0 -128.906 304.199 -128.906 304.199c0 0 -66.895 -308.594 -66.895 -308.594m108.399 383.301c0 0 133.301 -308.106 133.301 -308.106c58.268 25.065 104.166 62.5 137.695 112.305c36.133 52.734 54.199 109.701 54.199 170.898c0 66.732 -19.531 126.465 -58.594 179.2c0 0 -266.601 -154.297 -266.601 -154.297" />
  </g>
</svg>