<svg height="1000px" width="708.49609375px" xmlns="http://www.w3.org/2000/svg">
  <g>
    <path d="M0 583.49609375c0 0 0 -250 0 -250c0 -36.133 11.8 -65.999 35.4 -89.6c23.601 -23.6 53.467 -35.4 89.6 -35.4c0 0 458.496 0 458.496 0c36.133 0 65.999 11.8 89.6 35.4c23.6 23.601 35.4 53.467 35.4 89.6c0 0 0 250 0 250c0 36.133 -11.8 65.999 -35.4 89.6c-23.601 23.6 -53.467 35.4 -89.6 35.4c0 0 -291.992 0 -291.992 0c0 0 -125 125 -125 125c0 0 0 -125 0 -125c0 0 -41.504 0 -41.504 0c-36.133 0 -65.999 -11.8 -89.6 -35.4c-23.6 -23.601 -35.4 -53.467 -35.4 -89.6c0 0 0 0 0 0m83.496 0c0 27.669 13.835 41.504 41.504 41.504c0 0 458.496 0 458.496 0c27.669 0 41.504 -13.835 41.504 -41.504c0 0 0 -250 0 -250c0 -27.669 -13.835 -41.667 -41.504 -41.992c0 0 -458.496 0 -458.496 0c-27.669 0 -41.504 13.997 -41.504 41.992c0 0 0 250 0 250c0 0 0 0 0 0m41.504 -125.244c0 -16.764 6.266 -31.332 18.799 -43.701c12.532 -12.37 27.099 -18.555 43.701 -18.555c16.602 0 31.169 6.185 43.701 18.555c12.533 12.369 18.799 26.937 18.799 43.701c0 16.764 -6.266 31.413 -18.799 43.945c-12.532 12.533 -27.099 18.799 -43.701 18.799c-16.602 0 -31.169 -6.266 -43.701 -18.799c-12.533 -12.532 -18.799 -27.181 -18.799 -43.945c0 0 0 0 0 0m166.504 0c0 -16.764 6.266 -31.332 18.799 -43.701c12.532 -12.37 27.181 -18.555 43.945 -18.555c16.764 0 31.331 6.185 43.701 18.555c12.37 12.369 18.555 26.937 18.555 43.701c0 16.764 -6.185 31.413 -18.555 43.945c-12.37 12.533 -26.937 18.799 -43.701 18.799c-16.764 0 -31.413 -6.266 -43.945 -18.799c-12.533 -12.532 -18.799 -27.181 -18.799 -43.945c0 0 0 0 0 0m166.992 0c0 -16.764 6.185 -31.332 18.555 -43.701c12.37 -12.37 26.937 -18.555 43.701 -18.555c16.764 0 31.413 6.185 43.945 18.555c12.533 12.369 18.799 26.937 18.799 43.701c0 16.764 -6.266 31.413 -18.799 43.945c-12.532 12.533 -27.181 18.799 -43.945 18.799c-16.764 0 -31.331 -6.266 -43.701 -18.799c-12.37 -12.532 -18.555 -27.181 -18.555 -43.945c0 0 0 0 0 0" />
  </g>
</svg>