<?xml version="1.0" encoding="iso-8859-1"?>
<!-- Generator: Adobe Illustrator 16.2.1, SVG Export Plug-In . SVG Version: 6.00 Build 0)  -->
<!DOCTYPE svg PUBLIC "-//W3C//DTD SVG 1.1//EN" "http://www.w3.org/Graphics/SVG/1.1/DTD/svg11.dtd">
<svg version="1.1" id="Layer_1" xmlns="http://www.w3.org/2000/svg" xmlns:xlink="http://www.w3.org/1999/xlink" x="0px" y="0px"
	 width="24px" height="24px" viewBox="0 0 24 24" style="enable-background:new 0 0 24 24;" xml:space="preserve">
<path d="M17,3H7C5.346,3,4,4.346,4,6v12c0,1.654,1.346,3,3,3h10c1.654,0,3-1.346,3-3V6C20,4.346,18.654,3,17,3z M15,5.08V6
	c0,0.551-0.449,1-1,1h-4C9.449,7,9,6.551,9,6V5.08C9.233,5.038,14.767,5.038,15,5.08z M18,18c0,0.551-0.449,1-1,1H7
	c-0.551,0-1-0.449-1-1V6c0-0.551,0.449-1,1-1h1c0,0.262,0,0.601,0,1c0,1.1,0.9,2,2,2h4c1.1,0,2-0.9,2-2c0-0.399,0-0.738,0-1h1
	c0.551,0,1,0.449,1,1V18z"/>
<g>
	<path d="M16,17H8c-0.276,0-0.5-0.224-0.5-0.5S7.724,16,8,16h8c0.276,0,0.5,0.224,0.5,0.5S16.276,17,16,17z"/>
</g>
<g>
	<path d="M16,14H8c-0.276,0-0.5-0.224-0.5-0.5S7.724,13,8,13h8c0.276,0,0.5,0.224,0.5,0.5S16.276,14,16,14z"/>
</g>
<g>
	<path d="M16,11H8c-0.276,0-0.5-0.224-0.5-0.5S7.724,10,8,10h8c0.276,0,0.5,0.224,0.5,0.5S16.276,11,16,11z"/>
</g>
</svg>
