<?xml version="1.0" encoding="iso-8859-1"?>
<!-- Generator: Adobe Illustrator 16.2.1, SVG Export Plug-In . SVG Version: 6.00 Build 0)  -->
<svg version="1.2" baseProfile="tiny" id="Layer_1" xmlns="http://www.w3.org/2000/svg" xmlns:xlink="http://www.w3.org/1999/xlink"
	 x="0px" y="0px" width="24px" height="24px" viewBox="0 0 24 24" xml:space="preserve">
<path d="M17,9c-0.115,0-0.231,0.005-0.351,0.015C15.824,6.638,13.587,5,11,5c-3.309,0-6,2.691-6,6c0,0.042,0,0.084,0.001,0.126
	C3.277,11.571,2,13.139,2,15c0,2.206,1.794,4,4,4h5v-4.586l-1.293,1.293C9.512,15.902,9.256,16,9,16s-0.512-0.098-0.707-0.293
	c-0.391-0.391-0.391-1.023,0-1.414l2.999-2.999c0.093-0.093,0.203-0.166,0.326-0.217c0.244-0.101,0.52-0.101,0.764,0
	c0.123,0.051,0.233,0.124,0.326,0.217l2.999,2.999c0.391,0.391,0.391,1.023,0,1.414C15.512,15.902,15.256,16,15,16
	s-0.512-0.098-0.707-0.293L13,14.414V19h4c2.757,0,5-2.243,5-5S19.757,9,17,9z"/>
</svg>
