<?xml version="1.0" encoding="iso-8859-1"?>
<!-- Generator: Adobe Illustrator 16.2.1, SVG Export Plug-In . SVG Version: 6.00 Build 0)  -->
<!DOCTYPE svg PUBLIC "-//W3C//DTD SVG 1.1//EN" "http://www.w3.org/Graphics/SVG/1.1/DTD/svg11.dtd">
<svg version="1.1" id="Layer_1" xmlns="http://www.w3.org/2000/svg" xmlns:xlink="http://www.w3.org/1999/xlink" x="0px" y="0px"
	 width="24px" height="24px" viewBox="0 0 24 24" style="enable-background:new 0 0 24 24;" xml:space="preserve">
<path d="M16.5,9.999c-0.115,0-0.231,0.005-0.351,0.015c-0.825-2.376-3.312-4.015-5.899-4.015c-3.309,0-6.25,2.691-6.25,6
	c0,0.042,0,0.084,0,0.126C3,12.57,1.25,14.139,1.25,16c0,2.206,2.044,4,4.25,4h11c2.757,0,5-2.244,5-5S19.257,9.999,16.5,9.999z
	 M16.5,18H12v-3.794l2.146,2.146c0.098,0.098,0.226,0.146,0.354,0.146s0.256-0.049,0.354-0.146c0.195-0.195,0.195-0.512,0-0.707
	l-2.999-3c-0.047-0.046-0.103-0.083-0.163-0.108c-0.123-0.051-0.26-0.051-0.383,0c-0.061,0.025-0.116,0.062-0.163,0.108l-2.999,3
	c-0.195,0.195-0.195,0.512,0,0.707c0.098,0.098,0.226,0.146,0.354,0.146s0.256-0.049,0.354-0.146L11,14.206V18H5.5
	c-1.103,0-2-0.897-2-2s0.897-2,1.908-2.005l1.422,0.015l-0.248-1.202C6.527,12.543,6.5,12.272,6.5,11.999c0-2.206,1.794-4,4-4
	c1.951,0,3.604,1.402,3.93,3.334l0.186,1.102l1.074-0.306c0.312-0.089,0.569-0.13,0.811-0.13c1.654,0,3,1.346,3,3S18.154,18,16.5,18
	z"/>
</svg>
