<?xml version="1.0" encoding="iso-8859-1"?>
<!-- Generator: Adobe Illustrator 16.2.1, SVG Export Plug-In . SVG Version: 6.00 Build 0)  -->
<svg version="1.2" baseProfile="tiny" xmlns="http://www.w3.org/2000/svg" xmlns:xlink="http://www.w3.org/1999/xlink" x="0px"
	 y="0px" width="24px" height="24px" viewBox="0 0 24 24" xml:space="preserve">
<g id="Layer_1">
	<g>
		<path d="M17,19H5c-0.553,0-1-0.447-1-1s0.447-1,1-1h12c0.553,0,1,0.447,1,1S17.553,19,17,19z"/>
	</g>
	<path d="M17.5,5H5v9c0,1.1,0.9,2,2,2h8c1.1,0,2-0.9,2-2v-2h0.5c1.93,0,3.5-1.57,3.5-3.5S19.43,5,17.5,5z M15,14H7V7h8V14z M17.5,10
		H16V7h1.5C18.327,7,19,7.673,19,8.5S18.327,10,17.5,10z"/>
</g>
<g id="nyt_x5F_exporter_x5F_info" display="none">
</g>
</svg>
