<?xml version="1.0" encoding="iso-8859-1"?>
<!-- Generator: Adobe Illustrator 16.2.1, SVG Export Plug-In . SVG Version: 6.00 Build 0)  -->
<!DOCTYPE svg PUBLIC "-//W3C//DTD SVG 1.1//EN" "http://www.w3.org/Graphics/SVG/1.1/DTD/svg11.dtd">
<svg version="1.1" id="Layer_1" xmlns="http://www.w3.org/2000/svg" xmlns:xlink="http://www.w3.org/1999/xlink" x="0px" y="0px"
	 width="24px" height="24px" viewBox="0 0 24 24" style="enable-background:new 0 0 24 24;" xml:space="preserve">
<g>
	<path d="M17.5,5H15h-1H7H5v2v7c0,1.1,0.9,2,2,2h8c1.1,0,2-0.9,2-2v-2h0.5c1.93,0,3.5-1.57,3.5-3.5S19.43,5,17.5,5z M15,14H7V7h7h1
		V14z M17.5,10H17h-1V7h1h0.5C18.327,7,19,7.673,19,8.5S18.327,10,17.5,10z"/>
	<path d="M17,17H5c-0.553,0-1,0.447-1,1s0.447,1,1,1h12c0.553,0,1-0.447,1-1S17.553,17,17,17z"/>
</g>
</svg>
