<?xml version="1.0" encoding="iso-8859-1"?>
<!-- Generator: Adobe Illustrator 16.2.1, SVG Export Plug-In . SVG Version: 6.00 Build 0)  -->
<svg version="1.2" baseProfile="tiny" id="Layer_1" xmlns="http://www.w3.org/2000/svg" xmlns:xlink="http://www.w3.org/1999/xlink"
	 x="0px" y="0px" width="24px" height="24px" viewBox="0 0 24 24" xml:space="preserve">
<g>
	<path d="M13,5l0.855,3.42l3.389-0.971l1.501,2.6l-2.535,2.449l2.535,2.451l-1.5,2.6l-3.39-0.971L13,20h-3l-0.855-3.422l-3.39,0.971
		l-1.501-2.6l2.535-2.451l-2.534-2.449l1.5-2.6l3.39,0.971L10,5H13 M13,3h-3C9.082,3,8.282,3.625,8.061,4.516L7.707,5.928l-1.4-0.4
		C6.123,5.475,5.938,5.45,5.755,5.45c-0.7,0-1.368,0.37-1.731,1l-1.5,2.6c-0.459,0.796-0.317,1.802,0.342,2.438l1.047,1.011
		l-1.048,1.015c-0.66,0.637-0.802,1.643-0.343,2.438l1.502,2.6c0.363,0.631,1.031,1,1.731,1c0.183,0,0.368-0.025,0.552-0.076
		l1.399-0.401l0.354,1.415C8.282,21.375,9.082,22,10,22h3c0.918,0,1.718-0.625,1.939-1.516l0.354-1.414l1.399,0.4
		c0.184,0.053,0.369,0.077,0.552,0.077c0.7,0,1.368-0.37,1.731-1l1.5-2.6c0.459-0.796,0.317-1.8-0.342-2.438l-1.047-1.013
		l1.047-1.013c0.66-0.637,0.801-1.644,0.342-2.438l-1.5-2.6c-0.365-0.631-1.031-1-1.732-1c-0.184,0-0.368,0.025-0.551,0.076
		l-1.4,0.401l-0.354-1.413C14.718,3.625,13.918,3,13,3z"/>
</g>
<g>
	<path d="M11.5,10.5c1.104,0,2,0.895,2,2c0,1.104-0.896,2-2,2s-2-0.896-2-2C9.5,11.395,10.396,10.5,11.5,10.5 M11.5,9.5
		c-1.654,0-3,1.346-3,3s1.346,3,3,3s3-1.346,3-3S13.154,9.5,11.5,9.5z"/>
</g>
</svg>
