<?xml version="1.0" encoding="iso-8859-1"?>
<!-- Generator: Adobe Illustrator 16.2.1, SVG Export Plug-In . SVG Version: 6.00 Build 0)  -->
<!DOCTYPE svg PUBLIC "-//W3C//DTD SVG 1.1//EN" "http://www.w3.org/Graphics/SVG/1.1/DTD/svg11.dtd">
<svg version="1.1" id="Layer_1" xmlns="http://www.w3.org/2000/svg" xmlns:xlink="http://www.w3.org/1999/xlink" x="0px" y="0px"
	 width="24px" height="24px" viewBox="0 0 24 24" style="enable-background:new 0 0 24 24;" xml:space="preserve">
<g>
	<path d="M13,5l0.855,3.42l3.389-0.971l1.501,2.6l-2.535,2.449l2.535,2.451l-1.5,2.6l-3.39-0.971L13,20h-3l-0.855-3.422l-3.39,0.971
		l-1.501-2.6l2.535-2.451l-2.534-2.449l1.5-2.6l3.39,0.971L10,5H13 M13,3h-3C9.082,3,8.282,3.625,8.06,4.515L7.707,5.928
		L6.306,5.526C6.123,5.475,5.938,5.449,5.755,5.449c-0.701,0-1.368,0.37-1.732,1l-1.5,2.6c-0.458,0.795-0.317,1.801,0.342,2.438
		l1.047,1.011l-1.048,1.014c-0.66,0.638-0.801,1.643-0.342,2.438l1.501,2.6c0.364,0.631,1.031,1,1.732,1
		c0.183,0,0.368-0.025,0.551-0.077l1.4-0.401l0.354,1.415C8.282,21.375,9.082,22,10,22h3c0.918,0,1.718-0.625,1.94-1.515
		l0.354-1.415l1.4,0.401c0.183,0.052,0.368,0.077,0.551,0.077c0.701,0,1.368-0.37,1.732-1l1.5-2.6
		c0.458-0.795,0.317-1.8-0.342-2.438l-1.047-1.013l1.047-1.012c0.66-0.638,0.801-1.644,0.342-2.438l-1.501-2.6
		c-0.364-0.631-1.031-1-1.732-1c-0.183,0-0.368,0.025-0.551,0.077l-1.4,0.401L14.94,4.515C14.718,3.625,13.918,3,13,3L13,3z"/>
</g>
<g>
	<path d="M11.5,10.5c1.104,0,2,0.895,2,2c0,1.104-0.896,2-2,2s-2-0.896-2-2C9.5,11.395,10.396,10.5,11.5,10.5 M11.5,9.5
		c-1.654,0-3,1.346-3,3s1.346,3,3,3s3-1.346,3-3S13.154,9.5,11.5,9.5L11.5,9.5z"/>
</g>
</svg>
