<svg height="1000px" width="666.9921875px" xmlns="http://www.w3.org/2000/svg">
  <g>
    <path d="M0 583.49609375c0 0 0 -250 0 -250c0 -33.203 12.533 -62.337 37.598 -87.402c25.065 -25.065 54.199 -37.598 87.402 -37.598c0 0 416.992 0 416.992 0c33.203 0 62.337 12.451 87.403 37.354c25.065 24.902 37.597 54.117 37.597 87.646c0 0 0 250 0 250c0 25.065 -6.999 47.201 -20.996 66.406c-22.135 38.737 -56.803 58.268 -104.004 58.594c0 0 -208.496 0 -208.496 0c0 0 -166.504 166.504 -166.504 166.504c0 0 0 -166.504 0 -166.504c-111.328 0 -166.992 -41.667 -166.992 -125c0 0 0 0 0 0" />
  </g>
</svg>