<?xml version="1.0" encoding="iso-8859-1"?>
<!-- Generator: Adobe Illustrator 16.2.1, SVG Export Plug-In . SVG Version: 6.00 Build 0)  -->
<!DOCTYPE svg PUBLIC "-//W3C//DTD SVG 1.1//EN" "http://www.w3.org/Graphics/SVG/1.1/DTD/svg11.dtd">
<svg version="1.1" id="Layer_1" xmlns="http://www.w3.org/2000/svg" xmlns:xlink="http://www.w3.org/1999/xlink" x="0px" y="0px"
	 width="24px" height="24px" viewBox="0 0 24 24" style="enable-background:new 0 0 24 24;" xml:space="preserve">
<g>
	<path d="M12,3c-4.971,0.001-9,4.03-9,9.001C3,16.971,7.029,21,12,21c4.969-0.001,8.999-4.03,9-8.999C21,7.03,16.971,3.001,12,3z
		 M12,19c-3.86,0-7-3.14-7-6.999s3.14-7,7-7.001c3.859,0.001,7,3.142,7,7.001C19,15.859,15.859,18.999,12,19z"/>
	<path d="M15.69,7.692l-5.95,1.706C9.575,9.446,9.445,9.575,9.398,9.741l-1.707,5.951c-0.05,0.175-0.001,0.363,0.127,0.491
		c0.095,0.095,0.223,0.146,0.354,0.146c0.046,0,0.092-0.006,0.138-0.02l5.95-1.708c0.166-0.047,0.295-0.177,0.342-0.343l1.707-5.949
		c0.05-0.174,0.001-0.363-0.127-0.491S15.866,7.642,15.69,7.692z M8.901,15.101l1.382-4.817l3.434,3.435l0,0L8.901,15.101z"/>
</g>
</svg>
