<?xml version="1.0" encoding="iso-8859-1"?>
<!-- Generator: Adobe Illustrator 16.2.1, SVG Export Plug-In . SVG Version: 6.00 Build 0)  -->
<svg version="1.2" baseProfile="tiny" id="Layer_1" xmlns="http://www.w3.org/2000/svg" xmlns:xlink="http://www.w3.org/1999/xlink"
	 x="0px" y="0px" width="24px" height="24px" viewBox="0 0 24 24" xml:space="preserve">
<path d="M16.5,8.999c-0.115,0-0.23,0.005-0.352,0.015c-0.824-2.375-3.312-4.015-5.898-4.015c-3.309,0-6.25,2.69-6.25,6
	c0,0.042,0,0.084,0,0.126C3,11.57,1.25,13.139,1.25,15c0,2.206,2.044,4,4.25,4h11c2.757,0,5-2.244,5-5S19.257,8.999,16.5,8.999z
	 M16.5,17H12v-3.794l2.146,2.146c0.098,0.099,0.226,0.146,0.354,0.146s0.256-0.049,0.354-0.146c0.195-0.194,0.195-0.512,0-0.707
	l-2.998-3c-0.047-0.045-0.104-0.082-0.164-0.107c-0.123-0.051-0.26-0.051-0.383,0c-0.061,0.025-0.115,0.062-0.162,0.107l-3,3
	c-0.194,0.195-0.194,0.513,0,0.707c0.099,0.099,0.227,0.146,0.354,0.146s0.256-0.049,0.354-0.146L11,13.206V17H5.5
	c-1.104,0-2-0.896-2-2s0.896-2,1.908-2.005L6.83,13.01l-0.248-1.201C6.527,11.545,6.5,11.273,6.5,11c0-2.206,1.794-4,4-4
	c1.951,0,3.604,1.402,3.93,3.334l0.187,1.102l1.073-0.306c0.312-0.089,0.569-0.13,0.812-0.13c1.653,0,3,1.346,3,3S18.154,17,16.5,17
	z"/>
</svg>
