<svg height="1000px" width="604.00390625px" xmlns="http://www.w3.org/2000/svg">
  <g>
    <path d="M0 500c0 -83.333 29.134 -154.134 87.402 -212.402c61.198 -61.198 133.464 -91.797 216.797 -91.797c77.8 0 141.765 23.6 191.895 70.801c0 0 99.609 -100.098 99.609 -100.098c0 0 0 291.992 0 291.992c0 0 -291.504 0 -291.504 0c0 0 116.699 -116.699 116.699 -116.699c-38.737 -25.065 -77.636 -37.598 -116.699 -37.598c-52.734 0 -98.551 19.45 -137.451 58.35c-38.9 38.9 -58.35 84.717 -58.35 137.451c0 52.734 19.45 98.551 58.35 137.451c38.9 38.9 84.717 58.35 137.451 58.35c44.597 0 86.263 -15.3 125 -45.899c36.133 -33.203 58.431 -72.103 66.895 -116.699c0 0 107.91 16.602 107.91 16.602c-11.068 72.265 -45.736 133.463 -104.004 183.593c-61.198 47.201 -126.465 70.801 -195.801 70.801c-83.333 0 -155.599 -29.134 -216.797 -87.402c-58.268 -61.198 -87.402 -133.464 -87.402 -216.797c0 0 0 0 0 0" />
  </g>
</svg>