<?xml version="1.0" encoding="iso-8859-1"?>
<!-- Generator: Adobe Illustrator 16.2.1, SVG Export Plug-In . SVG Version: 6.00 Build 0)  -->
<svg version="1.2" baseProfile="tiny" id="Layer_1" xmlns="http://www.w3.org/2000/svg" xmlns:xlink="http://www.w3.org/1999/xlink"
	 x="0px" y="0px" width="24px" height="24px" viewBox="0 0 24 24" xml:space="preserve">
<path d="M12,4c-4.419,0-8,3.582-8,8s3.581,8,8,8s8-3.582,8-8S16.419,4,12,4z M15.707,14.293c0.391,0.391,0.391,1.023,0,1.414
	C15.512,15.902,15.256,16,15,16s-0.512-0.098-0.707-0.293L12,13.414l-2.293,2.293C9.512,15.902,9.256,16,9,16
	s-0.512-0.098-0.707-0.293c-0.391-0.391-0.391-1.023,0-1.414L10.586,12L8.293,9.707c-0.391-0.391-0.391-1.023,0-1.414
	s1.023-0.391,1.414,0L12,10.586l2.293-2.293c0.391-0.391,1.023-0.391,1.414,0s0.391,1.023,0,1.414L13.414,12L15.707,14.293z"/>
</svg>
