<svg height="1000px" width="629.39453125px" xmlns="http://www.w3.org/2000/svg">
  <g>
    <path d="M0 483.3984375c0 -5.534 5.534 -9.766 16.602 -12.695c0 0 587.89 -258.301 587.89 -258.301c5.534 -2.93 11.068 -4.313 16.602 -4.15c5.534 0.162 8.301 3.011 8.301 8.544c0 5.534 -1.465 11.068 -4.395 16.602c0 0 -295.898 591.797 -295.898 591.797c-2.93 8.463 -6.999 12.532 -12.207 12.207c-8.464 0 -12.696 -5.534 -12.696 -16.602c0 0 -28.808 -208.496 -28.808 -208.496c-5.534 -25.065 -20.834 -43.131 -45.899 -54.199c0 0 -212.89 -58.105 -212.89 -58.105c-11.068 -2.605 -16.602 -8.138 -16.602 -16.602c0 0 0 0 0 0" />
  </g>
</svg>