<?xml version="1.0" encoding="iso-8859-1"?>
<!-- Generator: Adobe Illustrator 16.2.1, SVG Export Plug-In . SVG Version: 6.00 Build 0)  -->
<svg version="1.2" baseProfile="tiny" id="Layer_1" xmlns="http://www.w3.org/2000/svg" xmlns:xlink="http://www.w3.org/1999/xlink"
	 x="0px" y="0px" width="24px" height="24px" viewBox="0 0 24 24" xml:space="preserve">
<path d="M20.908,9.5l-2.754-2.607C17.586,6.352,16.707,6,15.917,6H13V5.5C13,4.672,12.328,4,11.5,4S10,4.672,10,5.5V6H6.5
	C4.57,6,3,7.57,3,9.5c0,1.396,0.828,2.596,2.016,3.157L3.172,14.5l2.561,2.561C6.303,17.631,7.193,18,8.001,18h2.2l0.8,4h1l0.8-4
	h2.7c1.931,0,3.5-1.57,3.5-3.5c0-0.902-0.353-1.718-0.915-2.339c0.021-0.021,0.051-0.035,0.072-0.056L20.908,9.5z M15.5,16H8
	c-0.275,0-0.658-0.158-0.854-0.354L6,14.5l1.146-1.146C7.341,13.159,7.723,13,8,13h7.5c0.828,0,1.5,0.672,1.5,1.5S16.328,16,15.5,16
	z M16.779,10.656C16.58,10.846,16.193,11,15.917,11H6.5C5.672,11,5,10.328,5,9.5S5.672,8,6.5,8h9.417
	c0.276,0,0.663,0.154,0.862,0.344L18,9.5L16.779,10.656z"/>
</svg>
