<?xml version="1.0" encoding="iso-8859-1"?>
<!-- Generator: Adobe Illustrator 16.2.1, SVG Export Plug-In . SVG Version: 6.00 Build 0)  -->
<svg version="1.2" baseProfile="tiny" id="Layer_1" xmlns="http://www.w3.org/2000/svg" xmlns:xlink="http://www.w3.org/1999/xlink"
	 x="0px" y="0px" width="24px" height="24px" viewBox="0 0 24 24" xml:space="preserve">
<path d="M19.707,7.293l-4-4C15.52,3.105,15.266,3,15,3H7C5.346,3,4,4.346,4,6v12c0,1.654,1.346,3,3,3h10c1.654,0,3-1.346,3-3V8
	C20,7.734,19.895,7.48,19.707,7.293z M17.586,8H16.5C15.673,8,15,7.327,15,6.5V5.414L17.586,8z M17,19H7c-0.552,0-1-0.448-1-1V6
	c0-0.552,0.448-1,1-1h7v1.5C14,7.879,15.121,9,16.5,9H18v9C18,18.552,17.552,19,17,19z"/>
</svg>
