<?xml version="1.0" encoding="iso-8859-1"?>
<!-- Generator: Adobe Illustrator 16.2.1, SVG Export Plug-In . SVG Version: 6.00 Build 0)  -->
<!DOCTYPE svg PUBLIC "-//W3C//DTD SVG 1.1//EN" "http://www.w3.org/Graphics/SVG/1.1/DTD/svg11.dtd">
<svg version="1.1" id="Layer_1" xmlns="http://www.w3.org/2000/svg" xmlns:xlink="http://www.w3.org/1999/xlink" x="0px" y="0px"
	 width="24px" height="24px" viewBox="0 0 24 24" style="enable-background:new 0 0 24 24;" xml:space="preserve">
<path d="M20.987,17c0-0.105-0.004-0.211-0.039-0.316l-2-6C18.812,10.275,18.431,10,18,10h-0.561l0.682-0.678
	c1.17-1.17,1.17-3.072,0-4.242C17.311,4.269,16.053,4.002,15,4.371V3c0-1.654-1.346-3-3-3S9,1.346,9,3v1.371
	C7.948,4.002,6.69,4.269,5.879,5.08c-1.17,1.17-1.17,3.072,0.002,4.244L6.561,10H6c-0.431,0-0.812,0.275-0.948,0.684l-2,6
	C3.017,16.789,3.013,16.895,3.013,17H3v5c0,0.553,0.447,1,1,1h16c0.553,0,1-0.447,1-1v-5H20.987z M7.293,6.494
	C7.482,6.306,7.733,6.201,8,6.201s0.518,0.104,0.707,0.293L11,8.787V3c0-0.552,0.448-1,1-1s1,0.448,1,1v5.787l2.293-2.293
	c0.379-0.377,1.035-0.377,1.414,0c0.39,0.39,0.39,1.024,0.002,1.412L12,12.59L7.293,7.908C6.903,7.519,6.903,6.884,7.293,6.494z
	 M6.721,12h1.851L12,15.41L15.429,12h1.851l1.667,5H5.054L6.721,12z M19,21H5v-3h14V21z"/>
</svg>
