<svg height="1000px" width="541.50390625px" xmlns="http://www.w3.org/2000/svg">
  <g>
    <path d="M0 562.5c0 -19.531 5.534 -34.831 16.602 -45.898c11.067 -11.068 26.367 -16.602 45.898 -16.602c19.531 0 34.831 5.534 45.898 16.602c0 0 100.098 104.003 100.098 104.003c0 0 0 -391.601 0 -391.601c0 -16.602 6.185 -31.169 18.555 -43.701c12.37 -12.533 26.937 -18.799 43.701 -18.799c16.764 0 31.413 6.266 43.945 18.799c12.533 12.532 18.799 27.099 18.799 43.701c0 0 0 391.601 0 391.601c0 0 99.609 -104.003 99.609 -104.003c11.068 -11.068 26.368 -16.602 45.899 -16.602c19.531 0 34.831 5.534 45.898 16.602c11.068 11.067 16.602 26.367 16.602 45.898c0 19.531 -5.534 34.831 -16.602 45.898c0 0 -208.007 208.497 -208.007 208.497c-2.93 0 -6.511 1.383 -10.743 4.15c-4.231 2.767 -7.649 5.452 -10.254 8.057c0 0 -4.394 0 -4.394 0c0 0 -8.301 4.394 -8.301 4.394c0 0 -12.207 0 -12.207 0c0 0 -12.695 0 -12.695 0c0 0 -8.301 -4.394 -8.301 -4.394c0 0 -4.395 0 -4.395 0c-2.929 -2.93 -6.429 -5.697 -10.498 -8.301c-4.069 -2.604 -7.405 -3.906 -10.009 -3.906c0 0 -208.496 -208.497 -208.496 -208.497c-11.068 -11.067 -16.602 -26.367 -16.602 -45.898c0 0 0 0 0 0" />
  </g>
</svg>