<svg height="1000px" width="708.49609375px" xmlns="http://www.w3.org/2000/svg">
  <g>
    <path d="M0 750c0 0 0 -416.504 0 -416.504c0 -22.135 8.382 -41.585 25.146 -58.35c16.765 -16.764 36.215 -25.146 58.35 -25.146c0 0 166.504 0 166.504 0c0 0 -83.008 83.496 -83.008 83.496c0 0 -83.496 0 -83.496 0c0 0 0 416.504 0 416.504c0 0 416.504 0 416.504 0c0 0 0 -83.496 0 -83.496c0 0 83.496 -83.008 83.496 -83.008c0 0 0 166.504 0 166.504c0 22.135 -8.301 41.585 -24.902 58.35c-16.602 16.764 -36.133 25.146 -58.594 25.146c0 0 -416.504 0 -416.504 0c-22.135 0 -41.585 -8.382 -58.35 -25.146c-16.764 -16.765 -25.146 -36.215 -25.146 -58.35c0 0 0 0 0 0m166.992 -83.496c0 0 0 -166.504 0 -166.504c0 0 250 -250 250 -250c0 0 166.504 166.504 166.504 166.504c0 0 -250 250 -250 250c0 0 -166.504 0 -166.504 0c0 0 0 0 0 0m83.008 -83.008c0 0 83.496 0 83.496 0c0 0 -83.496 -83.496 -83.496 -83.496c0 0 0 83.496 0 83.496c0 0 0 0 0 0m208.496 -375c0 0 83.496 -83.496 83.496 -83.496c0 0 166.504 166.504 166.504 166.504c0 0 -83.496 83.496 -83.496 83.496c0 0 -166.504 -166.504 -166.504 -166.504" />
  </g>
</svg>