<?xml version="1.0" encoding="iso-8859-1"?>
<!-- Generator: Adobe Illustrator 16.2.1, SVG Export Plug-In . SVG Version: 6.00 Build 0)  -->
<!DOCTYPE svg PUBLIC "-//W3C//DTD SVG 1.1//EN" "http://www.w3.org/Graphics/SVG/1.1/DTD/svg11.dtd">
<svg version="1.1" id="Layer_1" xmlns="http://www.w3.org/2000/svg" xmlns:xlink="http://www.w3.org/1999/xlink" x="0px" y="0px"
	 width="24px" height="24px" viewBox="0 0 24 24" style="enable-background:new 0 0 24 24;" xml:space="preserve">
<path d="M16,8.551V7c0-1.105-0.896-2-2-2H4v10c0,1.104,0.896,2,2,2h1.067c0.892,2.887,3.645,5,6.808,5
	c3.859,0,7.062-3.016,7.062-6.875C20.938,11.964,18.869,9.385,16,8.551z M8,10.413v3.243c0,0.552-0.448,1-1,1s-1-0.448-1-1V7h6.656
	c0.552,0,1,0.448,1,1s-0.448,1-1,1H9.413l4.801,4.799c0.391,0.391,0.391,1.025,0.001,1.415c-0.189,0.188-0.44,0.292-0.708,0.292
	s-0.519-0.104-0.707-0.291L8,10.413z M14,20.031c-2.757,0-5-2.259-5-5.016c0-0.705-0.004-1.37,0.21-1.978l2.883,2.884
	c0.39,0.39,0.901,0.584,1.414,0.584c0.512,0,1.023-0.194,1.414-0.584c0.781-0.781,0.781-2.049,0-2.83l-2.567-2.567
	c0.516-0.226,1.065-0.399,1.646-0.399c2.757,0,5,2.181,5,4.938S16.757,20.031,14,20.031z"/>
</svg>
