<?xml version="1.0" encoding="iso-8859-1"?>
<!-- Generator: Adobe Illustrator 16.2.1, SVG Export Plug-In . SVG Version: 6.00 Build 0)  -->
<svg version="1.2" baseProfile="tiny" id="Layer_1" xmlns="http://www.w3.org/2000/svg" xmlns:xlink="http://www.w3.org/1999/xlink"
	 x="0px" y="0px" width="24px" height="24px" viewBox="0 0 24 24" xml:space="preserve">
<path d="M13,17.5c-2.481,0-4.5-2.019-4.5-4.5c0-0.553-0.447-1-1-1s-1,0.447-1,1c0,3.584,2.916,6.5,6.5,6.5s6.5-2.916,6.5-6.5
	S16.584,6.5,13,6.5c-0.553,0-1,0.447-1,1s0.447,1,1,1c2.481,0,4.5,2.019,4.5,4.5S15.481,17.5,13,17.5z"/>
<g>
	<g>
		<path d="M10.656,4c0.552,0,1,0.448,1,1s-0.448,1-1,1H9.828H7.413l1.708,1.707l4.093,4.092c0.391,0.391,0.391,1.025,0.001,1.415
			c-0.189,0.188-0.44,0.292-0.708,0.292s-0.519-0.104-0.707-0.291L7.707,9.121L6,7.413v2.415v0.828c0,0.552-0.448,1-1,1
			s-1-0.448-1-1V4H10.656"/>
	</g>
</g>
</svg>
