<?xml version="1.0" encoding="iso-8859-1"?>
<!-- Generator: Adobe Illustrator 16.2.1, SVG Export Plug-In . SVG Version: 6.00 Build 0)  -->
<!DOCTYPE svg PUBLIC "-//W3C//DTD SVG 1.1//EN" "http://www.w3.org/Graphics/SVG/1.1/DTD/svg11.dtd">
<svg version="1.1" id="Layer_1" xmlns="http://www.w3.org/2000/svg" xmlns:xlink="http://www.w3.org/1999/xlink" x="0px" y="0px"
	 width="24px" height="24px" viewBox="0 0 24 24" style="enable-background:new 0 0 24 24;" xml:space="preserve">
<path d="M22.711,9.796C22.67,9.756,18.656,5.7,16.728,3.651C16.308,3.237,15.73,3,15.143,3C13.961,3,13,3.897,13,5H5
	C4.447,5,4,5.448,4,6v14c0,0.552,0.447,1,1,1h14c0.553,0,1-0.448,1-1v-6.045c1.434-1.461,2.688-2.729,2.711-2.751
	C23.097,10.814,23.097,10.186,22.711,9.796z M15.28,15.942C15.257,15.969,15.214,16,15.143,16c-0.074,0-0.121-0.024-0.143-0.04V13
	v-1h-1c-0.007,0-0.013,0-0.02,0c-1.751,0.034-3.316,0.679-4.733,1.958C9.677,11.743,10.847,9,14,9h1V5.042
	c0.002-0.001,0.005-0.003,0.007-0.004C15.029,5.021,15.072,5,15.143,5c0.09,0,0.153,0.05,0.155,0.05
	c1.436,1.525,4.051,4.187,5.297,5.45C20.341,10.757,16.252,14.922,15.28,15.942z M6,19V7h8c0,0.348,0,0.695,0,1
	c-4.66,0-6,4.871-6,8.5V17c1.691-2.578,3.6-3.953,6-4c0,1.045,0,2.838,0,3c0,0.551,0.511,1,1.143,1c0.364,0,0.675-0.158,0.883-0.391
	c0.539-0.565,1.242-1.291,1.975-2.042V19H6z"/>
</svg>
