<svg height="1000px" width="750px" xmlns="http://www.w3.org/2000/svg">
  <g>
    <path d="M0 458.49609375c47.201 -69.336 104.167 -127.767 170.898 -175.293c66.732 -50.13 134.766 -75.033 204.102 -74.707c66.732 0 136.23 24.902 208.496 74.707c77.8 63.802 133.301 122.233 166.504 175.293c-33.203 52.734 -88.704 111.003 -166.504 174.805c-72.266 50.13 -141.764 75.195 -208.496 75.195c-69.336 0 -137.37 -25.065 -204.102 -75.195c-66.731 -47.201 -123.697 -105.469 -170.898 -174.805c0 0 0 0 0 0m216.797 0c0 38.737 15.299 76.172 45.898 112.305c36.133 30.599 73.568 45.898 112.305 45.898c41.667 0 77.799 -15.299 108.398 -45.898c33.204 -33.203 49.968 -70.638 50.293 -112.305c0 -44.596 -16.764 -80.729 -50.293 -108.398c-27.669 -33.204 -63.802 -49.968 -108.398 -50.293c-41.667 0 -79.102 16.764 -112.305 50.293c-30.599 30.599 -45.898 66.731 -45.898 108.398c0 0 0 0 0 0m75.195 -0.244c0 -22.298 8.301 -41.748 24.903 -58.35c16.601 -16.601 36.051 -24.902 58.349 -24.902c22.298 0 41.748 8.301 58.35 24.902c16.601 16.602 24.902 36.052 24.902 58.35c0 22.298 -8.301 41.748 -24.902 58.349c-16.602 16.602 -36.052 24.903 -58.35 24.903c-22.298 0 -41.748 -8.301 -58.349 -24.903c-16.602 -16.601 -24.903 -36.051 -24.903 -58.349c0 0 0 0 0 0" />
  </g>
</svg>