<?xml version="1.0" encoding="iso-8859-1"?>
<!-- Generator: Adobe Illustrator 16.2.1, SVG Export Plug-In . SVG Version: 6.00 Build 0)  -->
<svg version="1.2" baseProfile="tiny" id="Layer_1" xmlns="http://www.w3.org/2000/svg" xmlns:xlink="http://www.w3.org/1999/xlink"
	 x="0px" y="0px" width="24px" height="24px" viewBox="0 0 24 24" xml:space="preserve">
<path d="M21.821,12.43c-0.083-0.119-2.062-2.944-4.793-4.875C15.612,6.552,13.826,6,12,6c-1.825,0-3.611,0.552-5.03,1.555
	c-2.731,1.931-4.708,4.756-4.791,4.875c-0.238,0.343-0.238,0.798,0,1.141c0.083,0.119,2.06,2.944,4.791,4.875
	C8.389,19.448,10.175,20,12,20c1.826,0,3.612-0.552,5.028-1.555c2.731-1.931,4.71-4.756,4.793-4.875
	C22.06,13.228,22.06,12.772,21.821,12.43z M12,16.5c-1.934,0-3.5-1.57-3.5-3.5c0-1.934,1.566-3.5,3.5-3.5c1.93,0,3.5,1.566,3.5,3.5
	C15.5,14.93,13.93,16.5,12,16.5z"/>
<g>
	<path d="M14,13c0,1.102-0.898,2-2,2c-1.105,0-2-0.898-2-2c0-1.105,0.895-2,2-2C13.102,11,14,11.895,14,13z"/>
</g>
</svg>
