<?xml version="1.0" encoding="iso-8859-1"?>
<!-- Generator: Adobe Illustrator 16.2.1, SVG Export Plug-In . SVG Version: 6.00 Build 0)  -->
<svg version="1.2" baseProfile="tiny" id="Layer_1" xmlns="http://www.w3.org/2000/svg" xmlns:xlink="http://www.w3.org/1999/xlink"
	 x="0px" y="0px" width="24px" height="24px" viewBox="0 0 24 24" xml:space="preserve">
<path d="M17.502,12.033l-4.241-2.458l2.138-5.131C15.465,4.31,15.502,4.159,15.502,4c0-0.552-0.445-1-0.997-1
	c-0.249,0.004-0.457,0.083-0.622,0.214c-0.033,0.026-0.053,0.042-0.07,0.06l-7.5,7.1c-0.229,0.217-0.342,0.529-0.306,0.842
	c0.036,0.313,0.219,0.591,0.491,0.75l4.242,2.46l-2.163,5.19c-0.183,0.436-0.034,0.94,0.354,1.208C9.104,20.942,9.303,21,9.5,21
	c0.248,0,0.496-0.093,0.688-0.274l7.5-7.102c0.229-0.217,0.342-0.529,0.306-0.842C17.957,12.469,17.774,12.191,17.502,12.033z"/>
</svg>
