<?xml version="1.0" encoding="iso-8859-1"?>
<!-- Generator: Adobe Illustrator 16.2.1, SVG Export Plug-In . SVG Version: 6.00 Build 0)  -->
<!DOCTYPE svg PUBLIC "-//W3C//DTD SVG 1.1//EN" "http://www.w3.org/Graphics/SVG/1.1/DTD/svg11.dtd">
<svg version="1.1" id="Layer_1" xmlns="http://www.w3.org/2000/svg" xmlns:xlink="http://www.w3.org/1999/xlink" x="0px" y="0px"
	 width="24px" height="24px" viewBox="0 0 24 24" style="enable-background:new 0 0 24 24;" xml:space="preserve">
<g>
	<path d="M14.5,5h0.005 M14.5,5L12,11l5,2.898L9.5,21l2.5-6l-5-2.9L14.5,5 M14.5,3c-0.016,0-0.032,0-0.047,0
		c-0.516,0.012-0.983,0.219-1.332,0.551l-7.497,7.096c-0.458,0.434-0.685,1.058-0.611,1.685c0.073,0.626,0.437,1.182,0.983,1.498
		l3.482,2.021l-1.825,4.381c-0.363,0.872-0.067,1.879,0.711,2.416C8.708,22.883,9.105,23,9.5,23c0.498,0,0.993-0.186,1.375-0.548
		l7.5-7.102c0.458-0.434,0.685-1.058,0.611-1.685s-0.438-1.182-0.983-1.498l-3.482-2.019l1.788-4.292
		c0.124-0.26,0.193-0.551,0.193-0.858c0-1.102-0.889-1.996-1.99-2C14.508,3,14.504,3,14.5,3L14.5,3z"/>
</g>
</svg>
