<svg height="1000px" width="583.49609375px" xmlns="http://www.w3.org/2000/svg">
  <g>
    <path d="M0 695.80078125c0 -30.599 8.464 -68.034 25.391 -112.305c30.599 -88.867 51.432 -147.298 62.5 -175.293c16.601 -44.596 30.436 -83.496 41.504 -116.699c0 0 -20.997 0 -20.997 0c0 0 -24.902 0 -24.902 0c0 0 -20.996 0 -20.996 0c-27.669 -5.534 -41.504 -19.368 -41.504 -41.504c0 -27.669 13.835 -41.504 41.504 -41.504c0 0 458.496 0 458.496 0c27.669 0 41.504 13.835 41.504 41.504c0 22.136 -9.603 34.668 -28.809 37.598c-8.463 2.93 -16.927 4.232 -25.39 3.906c0 0 -12.207 0 -12.207 0c0 0 -16.602 0 -16.602 0c0 0 -25.39 0 -25.39 0c5.533 22.136 19.531 61.035 41.992 116.699c33.203 88.868 54.036 145.834 62.5 170.899c16.601 50.13 24.902 89.03 24.902 116.699c0 25.065 -11.068 48.665 -33.203 70.801c-16.602 16.601 -40.202 24.902 -70.801 24.902c0 0 -375 0 -375 0c-27.669 0 -52.734 -8.301 -75.195 -24.902c-19.531 -25.065 -29.297 -48.666 -29.297 -70.801c0 0 0 0 0 0m162.598 -237.305c0 0 258.3 0 258.3 0c0 0 -54.199 -166.992 -54.199 -166.992c0 0 -149.902 0 -149.902 0c0 0 -54.199 166.992 -54.199 166.992" />
  </g>
</svg>