<?xml version="1.0" encoding="iso-8859-1"?>
<!-- Generator: Adobe Illustrator 16.2.1, SVG Export Plug-In . SVG Version: 6.00 Build 0)  -->
<svg version="1.2" baseProfile="tiny" xmlns="http://www.w3.org/2000/svg" xmlns:xlink="http://www.w3.org/1999/xlink" x="0px"
	 y="0px" width="24px" height="24px" viewBox="0 0 24 24" xml:space="preserve">
<g id="Layer_1">
	<path d="M18,16.184v-1.851c0-1.93-1.57-3.5-3.5-3.5c-0.827,0-1.5-0.673-1.5-1.5V7.816C14.161,7.401,15,6.302,15,5
		c0-1.654-1.346-3-3-3S9,3.346,9,5c0,1.302,0.839,2.401,2,2.815v1.518c0,0.827-0.673,1.5-1.5,1.5c-1.93,0-3.5,1.57-3.5,3.5v1.851
		C4.839,16.599,4,17.698,4,19c0,1.654,1.346,3,3,3s3-1.346,3-3c0-1.302-0.839-2.401-2-2.816v-1.851c0-0.827,0.673-1.5,1.5-1.5
		c0.979,0,1.864-0.407,2.5-1.058c0.636,0.651,1.521,1.058,2.5,1.058c0.827,0,1.5,0.673,1.5,1.5v1.851c-1.161,0.415-2,1.514-2,2.816
		c0,1.654,1.346,3,3,3s3-1.346,3-3C20,17.698,19.161,16.599,18,16.184z M7,20c-0.552,0-1-0.449-1-1s0.448-1,1-1s1,0.449,1,1
		S7.552,20,7,20z M12,4c0.552,0,1,0.449,1,1s-0.448,1-1,1s-1-0.449-1-1S11.448,4,12,4z M17,20c-0.552,0-1-0.449-1-1s0.448-1,1-1
		s1,0.449,1,1S17.552,20,17,20z"/>
</g>
<g id="nyt_x5F_exporter_x5F_info" display="none">
</g>
</svg>
