<?xml version="1.0" encoding="iso-8859-1"?>
<!-- Generator: Adobe Illustrator 16.2.1, SVG Export Plug-In . SVG Version: 6.00 Build 0)  -->
<svg version="1.2" baseProfile="tiny" id="Layer_1" xmlns="http://www.w3.org/2000/svg" xmlns:xlink="http://www.w3.org/1999/xlink"
   x="0px" y="0px" width="24px" height="24px" viewBox="0 0 24 24" xml:space="preserve">
<path d="M22.3,8h-2.4c-0.4-1.2-1.5-2-2.8-2h-6c0-1.1-0.9-2-2-2H5C3.3,4,2,5.3,2,7v10c0,1.7,1.3,3,3,3h12c1.7,0,3.4-1.3,3.8-3L23,9
	C23.1,8.4,22.8,8,22.3,8z M4,9V7c0-0.6,0.4-1,1-1h4c0,1.1,0.9,2,2,2h6c0.6,0,1,0.4,1,1H6.9c-0.6,0-1.1,0.4-1.3,1L4,16.3V9z
	 M18.9,16.5C18.7,17.3,17.8,18,17,18h-2c0,0-9.7,0-10,0s-0.4-0.2-0.2-0.8s1.9-7,1.9-7c0-0.1,0.2-0.2,0.3-0.2h13.7L18.9,16.5z"/>
</svg>
