<?xml version="1.0" encoding="iso-8859-1"?>
<!-- Generator: Adobe Illustrator 16.2.1, SVG Export Plug-In . SVG Version: 6.00 Build 0)  -->
<svg version="1.2" baseProfile="tiny" id="Layer_1" xmlns="http://www.w3.org/2000/svg" xmlns:xlink="http://www.w3.org/1999/xlink"
	 x="0px" y="0px" width="24px" height="24px" viewBox="0 0 24 24" xml:space="preserve">
<path d="M18,6h-6c0-1.104-0.896-2-2-2H6C4.346,4,3,5.346,3,7v10c0,1.654,1.346,3,3,3h12c1.654,0,3-1.346,3-3V9
	C21,7.346,19.654,6,18,6z M6,6h4c0,1.104,0.896,2,2,2h6c0.552,0,1,0.448,1,1H5V7C5,6.448,5.448,6,6,6z M18,18H6
	c-0.552,0-1-0.448-1-1v-7h14v7C19,17.552,18.552,18,18,18z"/>
<g>
	<path d="M15,14H9c-0.553,0-1-0.447-1-1s0.447-1,1-1h6c0.553,0,1,0.447,1,1S15.553,14,15,14z"/>
</g>
</svg>
