<svg height="1000px" width="791.50390625px" xmlns="http://www.w3.org/2000/svg">
  <g>
    <path d="M0 750c0 0 0 -29.297 0 -29.297c0 0 0 -12.207 0 -12.207c0 -74.87 20.833 -141.601 62.5 -200.195c41.667 -61.198 102.702 -113.933 183.105 -158.203c5.534 -2.93 13.184 -6.429 22.95 -10.498c9.765 -4.069 20.914 -8.871 33.447 -14.405c12.533 -5.534 24.333 -9.765 35.4 -12.695c41.667 -13.997 66.732 -20.996 75.196 -20.996c0 0 3.906 0 3.906 0c0 0 0 -166.504 0 -166.504c0 0 375 291.504 375 291.504c0 0 -375 291.992 -375 291.992c0 0 0 -166.992 0 -166.992c-25.065 -8.464 -55.501 -12.533 -91.309 -12.207c-161.132 0 -269.531 73.568 -325.195 220.703c0 0 0 0 0 0" />
  </g>
</svg>