<?xml version="1.0" encoding="iso-8859-1"?>
<!-- Generator: Adobe Illustrator 16.2.1, SVG Export Plug-In . SVG Version: 6.00 Build 0)  -->
<!DOCTYPE svg PUBLIC "-//W3C//DTD SVG 1.1//EN" "http://www.w3.org/Graphics/SVG/1.1/DTD/svg11.dtd">
<svg version="1.1" id="Layer_1" xmlns="http://www.w3.org/2000/svg" xmlns:xlink="http://www.w3.org/1999/xlink" x="0px" y="0px"
	 width="24px" height="24px" viewBox="0 0 24 24" style="enable-background:new 0 0 24 24;" xml:space="preserve">
<path d="M19,8h-2.351C16.867,7.543,17,7.039,17,6.5C17,4.57,15.43,3,13.5,3c-0.979,0-1.864,0.407-2.5,1.058
	C10.364,3.407,9.479,3,8.5,3C6.57,3,5,4.57,5,6.5C5,7.039,5.133,7.543,5.351,8H3C2.448,8,2,8.448,2,9v4c0,0.552,0.448,1,1,1v5
	c0,1.654,1.346,3,3,3h10c1.654,0,3-1.346,3-3v-5c0.552,0,1-0.448,1-1V9C20,8.448,19.552,8,19,8z M9,20H6c-0.551,0-1-0.449-1-1v-6h4
	V20z M9,12H5H4v-2h5V12z M9,7v0.908C8.843,7.964,8.676,8,8.5,8C7.673,8,7,7.327,7,6.5S7.673,5,8.5,5
	c0.657,0,1.211,0.428,1.413,1.018C9.404,6.063,9,6.479,9,7z M12,20h-2v-7h2V20z M12,12h-2v-2h2V12z M12,8h-2V7h2V8z M12.087,6.018
	C12.289,5.428,12.843,5,13.5,5C14.327,5,15,5.673,15,6.5S14.327,8,13.5,8c-0.176,0-0.343-0.036-0.5-0.092V7
	C13,6.479,12.596,6.063,12.087,6.018z M17,19c0,0.551-0.449,1-1,1h-3v-7h4V19z M18,12h-1h-4v-2h5V12z"/>
</svg>
