<?xml version="1.0" encoding="iso-8859-1"?>
<!-- Generator: Adobe Illustrator 16.2.1, SVG Export Plug-In . SVG Version: 6.00 Build 0)  -->
<svg version="1.2" baseProfile="tiny" xmlns="http://www.w3.org/2000/svg" xmlns:xlink="http://www.w3.org/1999/xlink" x="0px"
	 y="0px" width="24px" height="24px" viewBox="0 0 24 24" xml:space="preserve">
<g id="Layer_1">
	<path d="M19,8h-2.352C16.867,7.543,17,7.039,17,6.5C17,4.57,15.43,3,13.5,3c-0.979,0-1.864,0.407-2.5,1.058
		C10.364,3.407,9.479,3,8.5,3C6.57,3,5,4.57,5,6.5C5,7.039,5.133,7.543,5.352,8H3C2.447,8,2,8.448,2,9v4c0,0.552,0.447,1,1,1v5
		c0,1.654,1.346,3,3,3h10c1.654,0,3-1.346,3-3v-5c0.553,0,1-0.448,1-1V9C20,8.448,19.553,8,19,8z M18,12h-5v-2h5V12z M10,7h2v1h-2V7
		z M12,10v2h-2v-2H12z M13.5,5C14.327,5,15,5.673,15,6.5S14.327,8,13.5,8c-0.177,0-0.344-0.039-0.5-0.097V7
		c0-0.521-0.404-0.937-0.913-0.982C12.289,5.428,12.843,5,13.5,5z M7,6.5C7,5.673,7.673,5,8.5,5c0.657,0,1.211,0.428,1.413,1.018
		C9.404,6.063,9,6.479,9,7v0.903C8.844,7.961,8.677,8,8.5,8C7.673,8,7,7.327,7,6.5z M9,10v2H4v-2H9z M6,20c-0.551,0-1-0.449-1-1v-6
		h4v7H6z M10,20v-7h2v7H10z M16,20h-3v-7h4v6C17,19.551,16.551,20,16,20z"/>
</g>
<g id="nyt_x5F_exporter_x5F_info" display="none">
</g>
</svg>
