<svg height="1000px" width="579.345703125px" xmlns="http://www.w3.org/2000/svg">
  <g>
    <path d="M0 833.251953125c0 -27.832 13.835 -41.748 41.504 -41.748c0 0 166.992 0 166.992 0c0 0 0 -49.805 0 -49.805c-69.336 -8.463 -133.301 -39.062 -191.894 -91.797c-5.534 -5.533 -8.301 -15.299 -8.301 -29.296c0 -11.068 2.767 -19.369 8.301 -24.903c8.463 -8.463 16.764 -12.532 24.902 -12.207c11.068 0 20.833 4.069 29.297 12.207c38.737 38.737 84.635 62.337 137.695 70.801c0 0 83.008 0 83.008 0c52.734 -8.464 98.633 -32.064 137.695 -70.801c50.13 -50.13 75.196 -109.863 75.196 -179.199c0 -69.336 -25.066 -129.069 -75.196 -179.199c0 0 -24.902 -28.809 -24.902 -28.809c0 0 112.305 -108.398 112.305 -108.398c5.533 -8.464 13.834 -12.696 24.902 -12.696c11.068 0 19.531 4.232 25.391 12.696c8.463 5.534 12.613 13.834 12.451 24.902c-0.163 11.068 -4.313 19.369 -12.451 24.902c0 0 -58.594 62.5 -58.594 62.5c47.2 61.198 70.801 129.232 70.801 204.102c0 86.263 -31.901 164.062 -95.704 233.398c-58.268 52.735 -122.233 83.334 -191.894 91.797c0 0 0 49.805 0 49.805c0 0 166.992 0 166.992 0c27.669 0 41.504 13.916 41.504 41.748c0 27.832 -13.835 41.748 -41.504 41.748c0 0 -416.992 0 -416.992 0c-27.669 0 -41.504 -13.916 -41.504 -41.748c0 0 0 0 0 0m45.898 -416.504c0 -55.501 20.101 -103.434 60.303 -143.799c40.202 -40.364 88.135 -60.547 143.799 -60.547c55.664 0 103.597 20.183 143.799 60.547c40.202 40.365 60.303 88.298 60.303 143.799c0 55.501 -20.101 103.353 -60.303 143.555c-40.202 40.202 -88.135 60.303 -143.799 60.303c-55.664 0 -103.597 -20.101 -143.799 -60.303c-40.202 -40.202 -60.303 -88.054 -60.303 -143.555c0 0 0 0 0 0" />
  </g>
</svg>