<svg height="1000px" width="750px" xmlns="http://www.w3.org/2000/svg">
  <g>
    <path d="M0 500c0 -102.865 36.133 -190.43 108.398 -262.695c74.87 -74.87 163.737 -112.305 266.602 -112.305c105.469 0 193.034 37.435 262.695 112.305c74.87 69.336 112.305 156.901 112.305 262.695c0 102.865 -37.435 191.732 -112.305 266.602c-72.265 72.265 -159.83 108.398 -262.695 108.398c-99.935 0 -188.802 -36.133 -266.602 -108.398c-72.265 -77.8 -108.398 -166.667 -108.398 -266.602c0 0 0 0 0 0m79.102 -162.598c0 0 24.902 0 24.902 0c13.997 16.602 22.461 24.903 25.391 24.903c13.997 50.13 29.134 79.427 45.41 87.89c0 0 20.996 12.207 20.996 12.207c8.463 0 12.695 -6.836 12.695 -20.507c0 -11.068 -2.767 -19.532 -8.301 -25.391c0 -11.068 1.302 -17.904 3.907 -20.508c5.533 -11.068 11.067 -18.066 16.601 -20.996c5.534 -11.068 9.766 -16.602 12.695 -16.602c0 0 8.301 12.207 8.301 12.207c8.464 16.602 16.765 26.368 24.903 29.297c0 0 0 8.301 0 8.301c2.929 8.464 4.394 13.998 4.394 16.602c0 0 0 8.3 0 8.3c0 2.93 -1.465 4.395 -4.394 4.395c0 2.93 -2.116 4.395 -6.348 4.395c0 0 -10.254 0 -10.254 0c2.93 0 4.395 2.766 4.395 8.3c2.929 5.534 5.696 9.603 8.3 12.207c0 0 8.301 20.996 8.301 20.996c0 0 12.207 20.997 12.207 20.997c2.93 5.533 7.162 11.067 12.695 16.601c8.464 16.602 18.23 26.205 29.297 28.809c11.068 8.463 26.205 12.695 45.41 12.695c0 0 0 16.602 0 16.602c0 0 8.79 4.394 8.79 4.394c2.929 0 4.231 1.302 3.906 3.906c11.067 0 19.368 -1.302 24.902 -3.906c0 0 4.395 3.906 4.395 3.906c-2.93 11.068 -15.463 22.136 -37.598 33.203c0 0 -33.203 12.696 -33.203 12.696c0 0 0 8.301 0 8.301c0 2.929 -0.733 7.161 -2.197 12.695c-1.465 5.534 -2.198 12.37 -2.198 20.508c-5.534 30.599 -9.603 47.363 -12.207 50.293c13.998 2.929 25.065 4.231 33.203 3.906c5.534 0 16.602 -2.767 33.204 -8.301c0 0 33.203 -8.301 33.203 -8.301c8.463 5.534 15.462 12.533 20.996 20.996c0 0 0 12.207 0 12.207c0 0 12.695 4.395 12.695 4.395c0 0 0 16.602 0 16.602c0 0 -4.394 4.394 -4.394 4.394c0 0 4.394 8.301 4.394 8.301c0 0 12.207 0 12.207 0c16.602 0 26.367 -9.766 29.297 -29.297c22.135 -8.464 38.737 -20.996 49.805 -37.598c11.067 -13.997 16.764 -33.366 17.09 -58.105c0 0 -4.395 -4.395 -4.395 -4.395c-11.068 -19.531 -16.602 -32.063 -16.602 -37.597c-8.463 -16.602 -12.695 -27.67 -12.695 -33.203c5.534 8.463 13.835 12.695 24.902 12.695c0 0 4.395 0 4.395 0c0 0 20.996 -4.395 20.996 -4.395c0 0 -12.695 -20.507 -12.695 -20.507c0 0 0 -4.395 0 -4.395c0 0 16.601 16.602 16.601 16.602c0 0 -8.3 20.996 -8.3 20.996c0 0 20.996 -12.696 20.996 -12.696c0 0 12.207 4.395 12.207 4.395c8.463 -2.93 15.462 -11.231 20.996 -24.902c0 0 -8.301 0 -8.301 0c0 0 0 -20.997 0 -20.997c0 0 -12.695 8.301 -12.695 8.301c0 0 -3.907 -4.394 -3.907 -4.394c0 0 0 -3.907 0 -3.907c-8.463 0 -13.997 -1.464 -16.601 -4.394c-2.93 0 -4.395 -2.767 -4.395 -8.301c0 0 0 -3.906 0 -3.906c-19.531 -11.068 -32.063 -16.602 -37.597 -16.602c0 0 0 16.602 0 16.602c0 0 0 8.301 0 8.301c0 0 -3.907 0 -3.907 0c-13.997 -16.602 -29.296 -24.903 -45.898 -24.903c0 0 -16.602 0 -16.602 0c-5.533 -5.534 -11.067 -8.3 -16.601 -8.3c0 0 -8.301 0 -8.301 0c0 0 0 -12.696 0 -12.696c0 0 -8.301 -4.394 -8.301 -4.394c0 -2.93 -0.732 -7.08 -2.197 -12.451c-1.465 -5.372 -2.197 -10.824 -2.197 -16.358c-2.93 -11.068 -7.162 -19.531 -12.696 -25.391c0 0 4.395 -8.3 4.395 -8.3c0 0 -16.602 0 -16.602 0c-5.533 -19.532 -11.067 -29.134 -16.601 -28.809c0 0 3.906 -20.996 3.906 -20.996c0 0 0 -16.602 0 -16.602c0 0 -12.207 -4.394 -12.207 -4.394c-13.997 0 -20.996 6.999 -20.996 20.996c0 0 12.695 24.902 12.695 24.902c-5.534 11.068 -8.3 18.067 -8.3 20.996c0 8.464 1.302 13.998 3.906 16.602c0 0 -3.906 8.301 -3.906 8.301c-5.534 5.534 -8.464 11.067 -8.79 16.601c0 0 0 4.395 0 4.395c0 0 -37.109 28.808 -37.109 28.808c-2.93 0 -4.394 -2.766 -4.394 -8.3c0 0 0 -8.301 0 -8.301c0 0 0 -8.301 0 -8.301c0 -8.463 -4.069 -18.066 -12.207 -28.808c0 0 12.207 3.906 12.207 3.906c8.463 0 15.462 -9.766 20.996 -29.297c0 0 0 -16.602 0 -16.602c0 -11.067 -1.465 -17.903 -4.395 -20.507c5.534 0 8.301 -6.999 8.301 -20.997c30.599 -5.533 45.898 -25.065 45.898 -58.593c0 -8.464 -4.069 -20.834 -12.207 -37.11c0 0 -8.3 -8.3 -8.3 -8.3c0 0 3.906 0 3.906 0c8.463 13.997 16.764 20.833 24.902 20.507c2.93 0 7.162 -2.767 12.695 -8.3c2.93 -5.534 4.232 -11.068 3.907 -16.602c0 -8.464 -2.767 -15.462 -8.301 -20.996c0 0 -3.906 -3.906 -3.906 -3.906c0 0 0 -4.395 0 -4.395c11.067 -5.534 16.601 -9.603 16.601 -12.207c2.93 -2.93 4.232 -7.161 3.906 -12.695c0 0 0 -24.903 0 -24.903c-27.669 -5.533 -47.037 -8.3 -58.105 -8.3c-122.396 0 -221.029 58.268 -295.898 174.804c0 0 0 0 0 0m325.195 154.297c0 0 0 -16.601 0 -16.601c0 2.929 2.767 6.998 8.301 12.207c0 0 -8.301 4.394 -8.301 4.394m20.508 54.199c0 0 0 -12.695 0 -12.695c0 -5.534 1.465 -9.603 4.394 -12.207c0 0 0 24.902 0 24.902c0 0 16.602 0 16.602 0c0 0 0 -4.394 0 -4.394c0 0 0 4.394 0 4.394c0 0 4.394 0 4.394 0c5.534 0 9.603 -1.464 12.207 -4.394c0 0 8.301 4.394 8.301 4.394c8.464 2.93 12.695 6.999 12.695 12.207c0 2.93 -1.464 5.86 -4.394 8.79c0 0 -8.301 0 -8.301 0c-11.068 0 -19.368 2.766 -24.902 8.3c-5.534 5.534 -9.766 8.301 -12.696 8.301c0 0 -3.906 -4.394 -3.906 -4.394c11.068 0 16.602 -5.534 16.602 -16.602c0 0 0 -12.695 0 -12.695c0 0 -12.696 0 -12.696 0c0 0 -3.906 -3.907 -3.906 -3.907c0 0 -4.394 0 -4.394 0c0 0 0 0 0 0m66.894 24.903c2.93 2.929 5.697 4.394 8.301 4.394c0 0 0 8.301 0 8.301c-2.93 5.534 -4.395 9.603 -4.395 12.207c0 0 0 -8.301 0 -8.301c-2.604 -2.604 -3.906 -8.138 -3.906 -16.601c0 0 0 0 0 0m108.399 54.199c0 8.464 4.069 16.764 12.207 24.902c5.534 5.534 12.532 8.301 20.996 8.301c0 0 8.301 4.395 8.301 4.395c5.533 0 8.3 1.302 8.3 3.906c-8.463 -27.669 -15.299 -42.969 -20.507 -45.899c-8.464 -8.463 -16.928 -15.299 -25.391 -20.507c0 5.534 -1.302 11.067 -3.906 16.601c0 0 0 8.301 0 8.301c0 0 0 0 0 0" />
  </g>
</svg>