<?xml version="1.0" encoding="iso-8859-1"?>
<!-- Generator: Adobe Illustrator 16.2.1, SVG Export Plug-In . SVG Version: 6.00 Build 0)  -->
<svg version="1.2" baseProfile="tiny" id="Layer_1" xmlns="http://www.w3.org/2000/svg" xmlns:xlink="http://www.w3.org/1999/xlink"
	 x="0px" y="0px" width="24px" height="24px" viewBox="0 0 24 24" xml:space="preserve">
<path d="M11,20H7c-0.553,0-1,0.447-1,1s0.447,1,1,1h10c0.553,0,1-0.447,1-1s-0.447-1-1-1h-4v-1.23
	c1.64-0.371,3.146-1.188,4.363-2.406C19.063,14.664,20,12.404,20,10c0-2.067-0.692-4.029-1.968-5.619l0.675-0.673
	c0.391-0.391,0.391-1.023,0.001-1.415c-0.391-0.391-1.024-0.39-1.415-0.001l-2.052,2.049l0.708,0.708C17.271,6.371,18,8.13,18,10
	s-0.729,3.627-2.051,4.949S12.87,17,11,17s-3.627-0.729-4.949-2.051c-0.391-0.391-1.023-0.391-1.414,0
	c-0.391,0.39-0.391,1.023,0,1.414C6.336,18.063,8.596,19,11,19V20z"/>
<g>
	<circle cx="11" cy="10" r="6"/>
</g>
</svg>
