<?xml version="1.0" encoding="iso-8859-1"?>
<!-- Generator: Adobe Illustrator 16.2.1, SVG Export Plug-In . SVG Version: 6.00 Build 0)  -->
<!DOCTYPE svg PUBLIC "-//W3C//DTD SVG 1.1//EN" "http://www.w3.org/Graphics/SVG/1.1/DTD/svg11.dtd">
<svg version="1.1" id="Layer_1" xmlns="http://www.w3.org/2000/svg" xmlns:xlink="http://www.w3.org/1999/xlink" x="0px" y="0px"
	 width="24px" height="24px" viewBox="0 0 24 24" style="enable-background:new 0 0 24 24;" xml:space="preserve">
<g>
	<path d="M11,6c2.206,0,4,1.794,4,4s-1.794,4-4,4c-2.204,0-3.998-1.794-3.998-4S8.796,6,11,6 M11,4c-3.315,0-5.998,2.686-5.998,6
		S7.685,16,11,16c3.313,0,6-2.688,6-6C17,6.686,14.313,4,11,4L11,4z"/>
</g>
<path d="M17,20h-4v-1.23c1.64-0.371,3.146-1.188,4.363-2.406C19.063,14.664,20,12.404,20,10c0-2.067-0.692-4.029-1.968-5.619
	l0.675-0.673c0.391-0.391,0.391-1.023,0.001-1.415c-0.391-0.391-1.024-0.39-1.415-0.001l-2.052,2.049l0.708,0.708
	C17.271,6.371,18,8.13,18,10s-0.729,3.627-2.051,4.949S12.87,17,11,17s-3.627-0.729-4.949-2.051c-0.391-0.391-1.023-0.391-1.414,0
	c-0.391,0.39-0.391,1.023,0,1.414C6.336,18.063,8.596,19,11,19v1H7c-0.553,0-1,0.447-1,1s0.447,1,1,1h10c0.553,0,1-0.447,1-1
	S17.553,20,17,20z"/>
</svg>
