<?xml version="1.0" encoding="iso-8859-1"?>
<!-- Generator: Adobe Illustrator 16.2.1, SVG Export Plug-In . SVG Version: 6.00 Build 0)  -->
<!DOCTYPE svg PUBLIC "-//W3C//DTD SVG 1.1//EN" "http://www.w3.org/Graphics/SVG/1.1/DTD/svg11.dtd">
<svg version="1.1" id="Layer_1" xmlns="http://www.w3.org/2000/svg" xmlns:xlink="http://www.w3.org/1999/xlink" x="0px" y="0px"
	 width="24px" height="24px" viewBox="0 0 24 24" style="enable-background:new 0 0 24 24;" xml:space="preserve">
<g>
	<path d="M12,14c2.763,0,5-2.238,5-5s-2.237-5-5-5S7,6.238,7,9S9.237,14,12,14z M12,6c1.654,0,3,1.346,3,3s-1.346,3-3,3
		s-3-1.346-3-3S10.346,6,12,6z"/>
	<path d="M20,15c1.381,0,2.5-1.117,2.5-2.5c0-1.381-1.119-2.5-2.5-2.5c-1.382,0-2.5,1.119-2.5,2.5C17.5,13.883,18.618,15,20,15z
		 M20,11c0.827,0,1.5,0.673,1.5,1.5S20.827,14,20,14s-1.5-0.673-1.5-1.5S19.173,11,20,11z"/>
	<path d="M20,15.59c-1.331,0-2.332,0.406-2.917,0.968C15.968,15.64,14.205,15,12,15c-2.266,0-3.995,0.648-5.092,1.564
		C6.312,15.999,5.3,15.59,4,15.59c-2.188,0-3.5,1.09-3.5,2.182c0,0.545,1.312,1.092,3.5,1.092c0.604,0,1.146-0.051,1.623-0.132
		c-0.01,0.09-0.04,0.179-0.04,0.269c0,1,2.406,2,6.417,2c3.762,0,6.417-1,6.417-2c0-0.085-0.011-0.17-0.02-0.255
		c0.463,0.073,0.995,0.118,1.603,0.118c2.051,0,3.5-0.547,3.5-1.092C23.5,16.68,22.127,15.59,20,15.59z M4,17.863
		c-1.309,0-2.069-0.207-2.417-0.353C1.822,17.104,2.586,16.59,4,16.59c1.108,0,1.837,0.351,2.208,0.706
		c-0.084,0.114-0.169,0.226-0.235,0.344C5.522,17.758,4.865,17.863,4,17.863z M12,19c-2.163,0-3.501-0.313-4.184-0.561
		C8.338,17.761,9.734,17,12,17c2.169,0,3.59,0.761,4.149,1.425C15.393,18.696,13.986,19,12,19z M20,17.863
		c-0.914,0-1.546-0.102-1.972-0.212c-0.073-0.127-0.156-0.253-0.249-0.375C18.136,16.93,18.85,16.59,20,16.59
		c1.324,0,2.14,0.501,2.404,0.911C22.014,17.664,21.199,17.863,20,17.863z"/>
	<path d="M4,15c1.381,0,2.5-1.119,2.5-2.5C6.5,11.121,5.381,10,4,10c-1.382,0-2.5,1.121-2.5,2.5C1.5,13.881,2.618,15,4,15z M4,11
		c0.827,0,1.5,0.673,1.5,1.5S4.827,14,4,14s-1.5-0.673-1.5-1.5S3.173,11,4,11z"/>
</g>
</svg>
