<?xml version="1.0" encoding="iso-8859-1"?>
<!-- Generator: Adobe Illustrator 16.2.1, SVG Export Plug-In . SVG Version: 6.00 Build 0)  -->
<svg version="1.2" baseProfile="tiny" id="Layer_1" xmlns="http://www.w3.org/2000/svg" xmlns:xlink="http://www.w3.org/1999/xlink"
	 x="0px" y="0px" width="24px" height="24px" viewBox="0 0 24 24" xml:space="preserve">
<g>
	<circle cx="12" cy="9" r="5"/>
	<circle cx="20" cy="12.5" r="2.5"/>
	<path d="M20,15.59c-1.331,0-2.332,0.406-2.917,0.968C15.968,15.641,14.205,15,12,15c-2.266,0-3.995,0.648-5.092,1.564
		C6.312,15.999,5.3,15.59,4,15.59c-2.188,0-3.5,1.09-3.5,2.182c0,0.545,1.312,1.092,3.5,1.092c0.604,0,1.146-0.051,1.623-0.133
		c-0.01,0.091-0.04,0.18-0.04,0.27c0,1,2.406,2,6.417,2c3.762,0,6.417-1,6.417-2c0-0.085-0.011-0.17-0.02-0.255
		c0.463,0.073,0.995,0.118,1.603,0.118c2.051,0,3.5-0.547,3.5-1.092C23.5,16.68,22.127,15.59,20,15.59z"/>
	<circle cx="4" cy="12.5" r="2.5"/>
</g>
</svg>
