<?xml version="1.0" encoding="iso-8859-1"?>
<!-- Generator: Adobe Illustrator 16.2.1, SVG Export Plug-In . SVG Version: 6.00 Build 0)  -->
<svg version="1.2" baseProfile="tiny" xmlns="http://www.w3.org/2000/svg" xmlns:xlink="http://www.w3.org/1999/xlink" x="0px"
	 y="0px" width="24px" height="24px" viewBox="0 0 24 24" xml:space="preserve">
<g id="Layer_1">
	<path d="M21,13c0-4.963-4.037-9-9-9s-9,4.037-9,9v2.6c0,0.04,0.019,0.074,0.023,0.113C3.01,15.956,3,16.213,3,16.5v2
		C3,20.43,4.57,22,6.5,22s3.5-1.57,3.5-3.5v-2c0-1.511-0.83-2.79-1.982-3.278C8.113,11.1,9.855,9.399,12,9.399
		s3.887,1.7,3.982,3.822C14.83,13.711,14,14.989,14,16.5v2c0,1.93,1.57,3.5,3.5,3.5s3.5-1.57,3.5-3.5v-2
		c0-0.287-0.01-0.544-0.023-0.787C20.981,15.674,21,15.64,21,15.6V13z M5,13c0-1.586,0.538-3.046,1.432-4.221l0.89,0.889
		C6.58,10.596,6.104,11.743,6.02,13C6,13,6,14,6,14H5V13z M8,18.5C8,19.327,7.327,20,6.5,20S5,19.327,5,18.5v-2
		c0-0.666,0.057-1.176,0.114-1.5H7c0.473,0,1,0.616,1,1.5V18.5z M15.77,9.162l-0.354,0.354C14.504,8.603,13.291,8.1,12,8.1
		S9.496,8.603,8.583,9.516L8.229,9.162L7.088,8.021L6.461,7.395C7.94,5.915,9.908,5.1,12,5.1c2.093,0,4.06,0.815,5.539,2.295
		l-0.627,0.626L15.77,9.162z M19,18.5c0,0.827-0.673,1.5-1.5,1.5S16,19.327,16,18.5v-2c0-0.884,0.527-1.5,1-1.5h1.886
		C18.943,15.324,19,15.834,19,16.5V18.5z M19,14h-1v-1c-0.104-1.257-0.58-2.404-1.322-3.332l0.891-0.889
		C18.462,9.954,19,11.413,19,13V14z"/>
</g>
<g id="nyt_x5F_exporter_x5F_info" display="none">
</g>
</svg>
