<?xml version="1.0" encoding="iso-8859-1"?>
<!-- Generator: Adobe Illustrator 16.2.1, SVG Export Plug-In . SVG Version: 6.00 Build 0)  -->
<!DOCTYPE svg PUBLIC "-//W3C//DTD SVG 1.1//EN" "http://www.w3.org/Graphics/SVG/1.1/DTD/svg11.dtd">
<svg version="1.1" id="Layer_1" xmlns="http://www.w3.org/2000/svg" xmlns:xlink="http://www.w3.org/1999/xlink" x="0px" y="0px"
	 width="24px" height="24px" viewBox="0 0 24 24" style="enable-background:new 0 0 24 24;" xml:space="preserve">
<path d="M21,13c0-4.963-4.038-9-9-9s-9,4.037-9,9v5.1c0,1.93,1.57,3.5,3.5,3.5s3.5-1.57,3.5-3.5v-2c0-1.355-0.671-2.521-1.64-3.102
	C8.501,11.103,10.07,9.6,12,9.6s3.499,1.504,3.639,3.398C14.671,13.58,14,14.744,14,16.1v2c0,1.93,1.57,3.5,3.5,3.5
	s3.5-1.57,3.5-3.5V13z M18.979,12.6h-1.356c-0.162-1.378-0.822-2.604-1.793-3.497l1.082-1.082
	C18.11,9.203,18.878,10.812,18.979,12.6z M7.088,8.021l1.082,1.082c-0.971,0.895-1.63,2.119-1.793,3.497H5.021
	C5.122,10.813,5.89,9.203,7.088,8.021z M8,18.1c0,0.827-0.673,1.5-1.5,1.5S5,18.927,5,18.1v-2c0-0.666,0.056-1.176,0.114-1.5H7
	c0.473,0,1,0.616,1,1.5V18.1z M19,18.1c0,0.827-0.673,1.5-1.5,1.5S16,18.927,16,18.1v-2c0-0.884,0.527-1.5,1-1.5h1.886
	C18.944,14.924,19,15.434,19,16.1V18.1z"/>
</svg>
