<?xml version="1.0" encoding="iso-8859-1"?>
<!-- Generator: Adobe Illustrator 16.2.1, SVG Export Plug-In . SVG Version: 6.00 Build 0)  -->
<!DOCTYPE svg PUBLIC "-//W3C//DTD SVG 1.1//EN" "http://www.w3.org/Graphics/SVG/1.1/DTD/svg11.dtd">
<svg version="1.1" id="Layer_1" xmlns="http://www.w3.org/2000/svg" xmlns:xlink="http://www.w3.org/1999/xlink" x="0px" y="0px"
	 width="24px" height="24px" viewBox="0 0 24 24" style="enable-background:new 0 0 24 24;" xml:space="preserve">
<g>
	<path d="M12,21c-0.195,0-0.391-0.057-0.561-0.172c-0.224-0.151-5.507-3.731-7.146-5.371C2.462,13.626,2.25,11.68,2.25,10.375
		C2.25,7.411,4.661,5,7.625,5C9.427,5,11.024,5.891,12,7.256C12.976,5.891,14.573,5,16.375,5c2.964,0,5.375,2.411,5.375,5.375
		c0,1.305-0.212,3.251-2.043,5.082c-1.64,1.64-6.923,5.22-7.146,5.371C12.391,20.943,12.195,21,12,21z M7.625,7
		C5.764,7,4.25,8.514,4.25,10.375c0,1.093,0.173,2.384,1.457,3.668c1.212,1.212,4.883,3.775,6.293,4.746
		c1.41-0.971,5.081-3.534,6.293-4.746c1.284-1.284,1.457-2.575,1.457-3.668C19.75,8.514,18.236,7,16.375,7S13,8.514,13,10.375
		c0,0.552-0.447,1-1,1s-1-0.448-1-1C11,8.514,9.486,7,7.625,7z"/>
</g>
</svg>
