<?xml version="1.0" encoding="iso-8859-1"?>
<!-- Generator: Adobe Illustrator 16.2.1, SVG Export Plug-In . SVG Version: 6.00 Build 0)  -->
<svg version="1.2" baseProfile="tiny" id="Layer_1" xmlns="http://www.w3.org/2000/svg" xmlns:xlink="http://www.w3.org/1999/xlink"
	 x="0px" y="0px" width="24px" height="24px" viewBox="0 0 24 24" xml:space="preserve">
<g>
	<path d="M12,20c-0.195,0-0.391-0.057-0.561-0.172c-0.225-0.151-5.508-3.73-7.146-5.371C2.462,12.626,2.25,10.68,2.25,9.375
		C2.25,6.411,4.661,4,7.625,4C9.427,4,11.023,4.891,12,6.256C12.977,4.891,14.573,4,16.375,4c2.964,0,5.375,2.411,5.375,5.375
		c0,1.305-0.212,3.251-2.043,5.082c-1.641,1.641-6.923,5.22-7.146,5.371C12.391,19.943,12.195,20,12,20z M7.625,6
		C5.764,6,4.25,7.514,4.25,9.375c0,1.093,0.173,2.384,1.457,3.668c1.212,1.212,4.883,3.775,6.293,4.746
		c1.41-0.971,5.081-3.534,6.293-4.746c1.284-1.284,1.457-2.575,1.457-3.668C19.75,7.514,18.236,6,16.375,6S13,7.514,13,9.375
		c0,0.552-0.447,1-1,1s-1-0.448-1-1C11,7.514,9.486,6,7.625,6z"/>
</g>
</svg>
