<?xml version="1.0" encoding="utf-8"?>
<!-- Generator: Adobe Illustrator 17.1.0, SVG Export Plug-In . SVG Version: 6.00 Build 0)  -->
<!DOCTYPE svg PUBLIC "-//W3C//DTD SVG 1.0//EN" "http://www.w3.org/TR/2001/REC-SVG-20010904/DTD/svg10.dtd">
<svg version="1.0" id="Layer_1" xmlns="http://www.w3.org/2000/svg" xmlns:xlink="http://www.w3.org/1999/xlink" x="0px" y="0px"
	 width="24px" height="24px" viewBox="0 0 24 24" enable-background="new 0 0 24 24" xml:space="preserve">
<path d="M2.2,9.4c0,1.3,0.2,3.3,2,5.1c1.6,1.6,6.9,5.2,7.1,5.4c0.2,0.1,0.4,0.2,0.6,0.2s0.4-0.1,0.6-0.2c0.2-0.2,5.5-3.7,7.1-5.4
	c1.8-1.8,2-3.8,2-5.1c0-3-2.4-5.4-5.4-5.4C14.6,4,13,4.9,12,6.3C11,4.9,9.4,4,7.6,4C4.7,4,2.2,6.4,2.2,9.4z"/>
</svg>
