<svg height="1000px" width="412.59765625px" xmlns="http://www.w3.org/2000/svg">
  <g>
    <path d="M0 354.00390625c0 -52.734 20.833 -97.168 62.5 -133.301c44.596 -36.133 91.797 -54.199 141.602 -54.199c61.197 0 109.863 20.833 145.996 62.5c41.666 36.133 62.5 84.798 62.5 145.996c0 50.13 -19.532 89.03 -58.594 116.699c-72.266 52.735 -108.399 97.168 -108.399 133.301c0 0 -125 0 -125 0c0 0 0 -20.996 0 -20.996c0 -55.664 19.532 -95.866 58.594 -120.605c2.93 -2.93 17.497 -12.045 43.701 -27.344c26.205 -15.3 43.539 -28.483 52.002 -39.551c8.464 -11.068 12.696 -24.902 12.696 -41.504c0 -22.135 -8.383 -41.585 -25.147 -58.35c-16.764 -16.764 -36.214 -25.146 -58.349 -25.146c-22.136 0 -40.202 6.999 -54.2 20.996c-13.997 13.997 -22.298 27.832 -24.902 41.504c-2.93 11.068 -9.928 25.065 -20.996 41.992c-5.534 13.998 -19.369 20.834 -41.504 20.508c-19.531 0 -34.831 -5.534 -45.898 -16.602c-11.068 -13.997 -16.602 -29.296 -16.602 -45.898c0 0 0 0 0 0m104.004 416.748c0 -19.368 8.301 -37.353 24.902 -53.955c11.068 -13.997 29.134 -20.996 54.199 -20.996c22.136 0 40.202 6.917 54.2 20.752c13.997 13.834 20.996 31.982 20.996 54.443c0 25.065 -6.999 43.132 -20.996 54.199c-16.602 16.602 -34.587 24.903 -53.955 24.903c-19.369 0 -37.435 -8.382 -54.2 -25.147c-16.764 -16.764 -25.146 -34.83 -25.146 -54.199c0 0 0 0 0 0" />
  </g>
</svg>