<?xml version="1.0" encoding="iso-8859-1"?>
<!-- Generator: Adobe Illustrator 16.2.1, SVG Export Plug-In . SVG Version: 6.00 Build 0)  -->
<!DOCTYPE svg PUBLIC "-//W3C//DTD SVG 1.1//EN" "http://www.w3.org/Graphics/SVG/1.1/DTD/svg11.dtd">
<svg version="1.1" id="Layer_1" xmlns="http://www.w3.org/2000/svg" xmlns:xlink="http://www.w3.org/1999/xlink" x="0px" y="0px"
	 width="24px" height="24px" viewBox="0 0 24 24" style="enable-background:new 0 0 24 24;" xml:space="preserve">
<path d="M22.262,10.468c-3.39-2.855-9.546-8.171-9.608-8.225L12,1.679l-0.653,0.564c-0.062,0.053-6.22,5.368-9.66,8.248
	C1.25,10.885,1,11.435,1,12c0,1.103,0.897,2,2,2h1v6c0,1.103,0.897,2,2,2h3h9c1.103,0,2-0.897,2-2v-6h1c1.103,0,2-0.897,2-2
	C23,11.403,22.725,10.839,22.262,10.468z M14,20h-4v-5h4V20z M18,12l0.002,8H18h-3v-6H9v6H6v-8l-3.001,0
	C5.763,9.687,10.314,5.772,12,4.32c1.685,1.452,6.234,5.366,9,7.68H18z"/>
</svg>
