<svg height="1000px" width="791.9921875px" xmlns="http://www.w3.org/2000/svg">
  <g>
    <path d="M0 491.69921875c0 -5.534 4.232 -11.068 12.695 -16.602c0 0 383.301 -308.593 383.301 -308.593c0 0 383.301 308.593 383.301 308.593c8.463 5.534 12.695 11.068 12.695 16.602c0 5.534 -6.999 8.301 -20.996 8.301c0 0 -41.504 0 -41.504 0c0 0 -41.992 0 -41.992 0c0 0 0 41.504 0 41.504c0 0 0 208.496 0 208.496c0 0 0 41.504 0 41.504c0 27.669 -13.835 41.666 -41.504 41.992c0 0 -125 0 -125 0c-27.669 0 -41.504 -13.998 -41.504 -41.992c0 0 0 -166.504 0 -166.504c0 0 0 -41.504 0 -41.504c0 0 -41.992 0 -41.992 0c0 0 -83.008 0 -83.008 0c0 0 -41.992 0 -41.992 0c0 0 0 41.504 0 41.504c0 0 0 166.504 0 166.504c0 27.669 -13.835 41.666 -41.504 41.992c0 0 -125 0 -125 0c-27.669 0 -41.504 -13.998 -41.504 -41.992c0 0 0 -41.504 0 -41.504c0 0 0 -208.496 0 -208.496c0 0 0 -41.504 0 -41.504c0 0 -41.992 0 -41.992 0c0 0 -41.504 0 -41.504 0c-13.997 0 -20.996 -2.767 -20.996 -8.301c0 0 0 0 0 0" />
  </g>
</svg>