<?xml version="1.0" encoding="utf-8"?>
<!-- Generator: Adobe Illustrator 17.1.0, SVG Export Plug-In . SVG Version: 6.00 Build 0)  -->
<!DOCTYPE svg PUBLIC "-//W3C//DTD SVG 1.0//EN" "http://www.w3.org/TR/2001/REC-SVG-20010904/DTD/svg10.dtd">
<svg version="1.0" id="Layer_1" xmlns="http://www.w3.org/2000/svg" xmlns:xlink="http://www.w3.org/1999/xlink" x="0px" y="0px"
	 width="24px" height="24px" viewBox="0 0 24 24" enable-background="new 0 0 24 24" xml:space="preserve">
<polygon points="13.1,3.5 13.8,4.6 13.8,4.6 14.5,3.5 14.5,5 15.5,5 15.5,2 14.5,2 13.8,3.1 13.2,2 12.1,2 12.1,5 13.1,5 "/>
<polygon points="18.4,5 18.4,4 17,4 17,2 16,2 16,5 "/>
<polygon points="9.8,5 10.8,5 10.8,3 11.7,3 11.7,2 8.9,2 8.9,3 9.8,3 "/>
<polygon points="6.6,4 7.5,4 7.5,5 8.5,5 8.5,2 7.5,2 7.5,3 6.6,3 6.6,2 5.6,2 5.6,5 6.6,5 "/>
<path d="M5,6l1.2,14.4L12,22l5.8-1.6L19,6H5z M16.3,10.6H12H9.5l0.2,1.8H12h4.1l-0.5,5.5l-3.6,1l0,0l-3.6-1l-0.3-2.9h1.8l0.1,1.5
	l2,0.5h0l2-0.5l0.2-2.3H12H8L7.5,8.9H12h4.5L16.3,10.6z"/>
</svg>
