<?xml version="1.0" encoding="iso-8859-1"?>
<!-- Generator: Adobe Illustrator 16.2.1, SVG Export Plug-In . SVG Version: 6.00 Build 0)  -->
<!DOCTYPE svg PUBLIC "-//W3C//DTD SVG 1.1//EN" "http://www.w3.org/Graphics/SVG/1.1/DTD/svg11.dtd">
<svg version="1.1" id="Layer_1" xmlns="http://www.w3.org/2000/svg" xmlns:xlink="http://www.w3.org/1999/xlink" x="0px" y="0px"
	 width="24px" height="24px" viewBox="0 0 24 24" style="enable-background:new 0 0 24 24;" xml:space="preserve">
<g>
	<path d="M8.5,8.999c0.827,0,1.5,0.673,1.5,1.5s-0.673,1.5-1.5,1.5S7,11.326,7,10.499S7.673,8.999,8.5,8.999 M8.5,7.999
		c-1.381,0-2.5,1.119-2.5,2.5s1.119,2.5,2.5,2.5s2.5-1.119,2.5-2.5S9.881,7.999,8.5,7.999L8.5,7.999z"/>
</g>
<g>
	<path d="M16,12.999c0.45,0.051,1.269,1.803,1.78,4H6.388c0.433-1.034,1.055-2,1.612-2c0.805,0,1.125,0.185,1.531,0.42
		c0.447,0.258,1.005,0.58,1.969,0.58c1.138,0,1.943-0.885,2.654-1.666C14.779,13.647,15.37,12.999,16,12.999 M16,11.999
		c-2,0-3,3-4.5,3s-1.499-1-3.5-1c-2,0-3.001,4-3.001,4H19C19,17.999,18,11.999,16,11.999L16,11.999z"/>
</g>
<path d="M22,7c0-1.104-0.896-2-2-2H4C2.896,5,2,5.896,2,7v12c0,1.104,0.896,2,2,2h16c1.104,0,2-0.896,2-2V7z M20,19H4V7h16.003
	L20,19z"/>
</svg>
