<?xml version="1.0" encoding="iso-8859-1"?>
<!-- Generator: Adobe Illustrator 16.2.1, SVG Export Plug-In . SVG Version: 6.00 Build 0)  -->
<svg version="1.2" baseProfile="tiny" id="Layer_1" xmlns="http://www.w3.org/2000/svg" xmlns:xlink="http://www.w3.org/1999/xlink"
	 x="0px" y="0px" width="24px" height="24px" viewBox="0 0 24 24" xml:space="preserve">
<g>
	<circle cx="8.5" cy="8.501" r="2.5"/>
	<path d="M16,10c-2,0-3,3-4.5,3s-1.499-1-3.5-1c-2,0-3.001,4-3.001,4H19C19,16,18,10,16,10z"/>
	<path d="M20,3H4C2.897,3,2,3.897,2,5v12c0,1.103,0.897,2,2,2h16c1.103,0,2-0.897,2-2V5C22,3.897,21.103,3,20,3z M20,17H4V5h16V17z"
		/>
</g>
</svg>
