<?xml version="1.0" encoding="iso-8859-1"?>
<!-- Generator: Adobe Illustrator 16.2.1, SVG Export Plug-In . SVG Version: 6.00 Build 0)  -->
<svg version="1.2" baseProfile="tiny" id="Layer_1" xmlns="http://www.w3.org/2000/svg" xmlns:xlink="http://www.w3.org/1999/xlink"
	 x="0px" y="0px" width="24px" height="24px" viewBox="0 0 24 24" xml:space="preserve">
<path d="M16.433,8.596c-1.153,0-2.237,0.449-3.036,1.246l-1.396,1.34l-1.375-1.32C9.811,9.045,8.725,8.596,7.571,8.596
	c-1.154,0-2.239,0.451-3.053,1.266c-0.817,0.816-1.267,1.9-1.267,3.055c0,1.152,0.449,2.238,1.266,3.053
	c0.814,0.816,1.899,1.266,3.054,1.266c1.153,0,2.239-0.449,3.036-1.248l1.395-1.338l1.376,1.32c0.815,0.816,1.901,1.266,3.055,1.266
	s2.238-0.449,3.053-1.266c0.817-0.814,1.267-1.9,1.267-3.055s-0.449-2.238-1.266-3.055C18.67,9.045,17.586,8.596,16.433,8.596z
	 M8.857,14.201c-0.687,0.688-1.884,0.688-2.572,0c-0.344-0.344-0.533-0.801-0.533-1.285c0-0.486,0.189-0.941,0.535-1.287
	c0.342-0.344,0.799-0.533,1.284-0.533s0.942,0.189,1.305,0.551l1.321,1.27L8.857,14.201z M17.718,14.201
	c-0.687,0.689-1.866,0.705-2.59-0.018l-1.321-1.27l1.339-1.285c0.688-0.688,1.886-0.688,2.573-0.002
	c0.344,0.346,0.533,0.801,0.533,1.287S18.062,13.857,17.718,14.201z"/>
</svg>
