<?xml version="1.0" encoding="iso-8859-1"?>
<!-- Generator: Adobe Illustrator 16.2.1, SVG Export Plug-In . SVG Version: 6.00 Build 0)  -->
<svg version="1.2" baseProfile="tiny" id="Layer_1" xmlns="http://www.w3.org/2000/svg" xmlns:xlink="http://www.w3.org/1999/xlink"
	 x="0px" y="0px" width="24px" height="24px" viewBox="0 0 24 24" xml:space="preserve">
<g>
	<g>
		<path d="M16.434,8.596c1.152,0,2.237,0.449,3.053,1.264c0.815,0.816,1.266,1.9,1.266,3.056s-0.45,2.239-1.268,3.056
			c-0.813,0.815-1.898,1.266-3.053,1.266s-2.238-0.449-3.055-1.266l-1.376-1.32l-1.395,1.338c-0.797,0.799-1.882,1.248-3.036,1.248
			c-1.154,0-2.239-0.449-3.054-1.267c-0.815-0.813-1.265-1.899-1.265-3.053s0.45-2.237,1.267-3.056
			c0.814-0.813,1.898-1.266,3.053-1.266c1.154,0,2.239,0.449,3.055,1.266l1.375,1.32l1.396-1.34
			C14.195,9.045,15.279,8.596,16.434,8.596 M16.434,6.596c-1.679,0-3.25,0.645-4.433,1.813c-1.163-1.159-2.746-1.813-4.43-1.813
			c-1.688,0-3.274,0.657-4.467,1.853c-1.194,1.192-1.852,2.78-1.852,4.469s0.658,3.274,1.852,4.468
			c1.191,1.192,2.779,1.852,4.468,1.852c1.679,0,3.251-0.645,4.431-1.814c1.163,1.16,2.746,1.814,4.431,1.814
			c1.689,0,3.276-0.658,4.469-1.854c1.193-1.188,1.852-2.776,1.852-4.467c0-1.688-0.658-3.274-1.852-4.47
			C19.706,7.252,18.12,6.596,16.434,6.596z"/>
	</g>
</g>
<g>
	<path d="M7.571,12.096c0.225,0,0.426,0.088,0.612,0.271l0.57,0.548L8.15,13.494c-0.141,0.142-0.352,0.223-0.578,0.223
		c-0.227,0-0.438-0.08-0.58-0.223c-0.155-0.155-0.24-0.36-0.24-0.578c0-0.221,0.084-0.422,0.243-0.581
		C7.151,12.18,7.35,12.096,7.571,12.096 M7.571,11.096c-0.486,0-0.942,0.189-1.285,0.533c-0.345,0.346-0.535,0.801-0.535,1.287
		c0,0.484,0.189,0.941,0.533,1.285c0.344,0.344,0.815,0.516,1.287,0.516c0.471,0,0.942-0.172,1.285-0.516l1.339-1.285l-1.321-1.27
		C8.514,11.285,8.057,11.096,7.571,11.096z"/>
</g>
<g>
	<path d="M16.434,12.113c0.228,0,0.438,0.08,0.576,0.219c0.158,0.159,0.242,0.359,0.242,0.582s-0.083,0.422-0.243,0.581
		c-0.144,0.146-0.352,0.228-0.571,0.228c-0.23,0-0.444-0.088-0.617-0.261l-0.571-0.548l0.603-0.578
		C15.994,12.193,16.206,12.113,16.434,12.113 M16.434,11.113c-0.472,0-0.943,0.172-1.287,0.516l-1.34,1.285l1.322,1.27
		c0.362,0.361,0.838,0.539,1.311,0.539c0.472,0,0.937-0.177,1.279-0.521c0.346-0.344,0.534-0.801,0.534-1.287
		s-0.188-0.941-0.532-1.287C17.375,11.284,16.904,11.113,16.434,11.113z"/>
</g>
</svg>
