<svg height="1000px" width="833.0078125px" xmlns="http://www.w3.org/2000/svg">
  <g>
    <path d="M0 500c0 -58.268 19.368 -106.934 58.105 -145.996c41.667 -41.667 90.332 -62.5 145.997 -62.5c58.268 0 106.77 20.833 145.507 62.5c0 0 66.895 62.5 66.895 62.5c0 0 66.894 -66.406 66.894 -66.406c38.737 -38.737 87.24 -58.269 145.508 -58.594c55.664 0 104.33 20.833 145.996 62.5c38.737 38.737 58.106 87.321 58.106 145.752c0 58.431 -19.369 107.178 -58.106 146.24c-41.666 41.667 -90.332 62.5 -145.996 62.5c-58.268 0 -106.771 -20.833 -145.508 -62.5c0 0 -66.894 -62.5 -66.894 -62.5c0 0 -66.895 66.406 -66.895 66.406c-38.737 38.737 -87.239 58.269 -145.507 58.594c-55.665 0 -104.33 -20.833 -145.997 -62.5c-38.737 -39.062 -58.105 -87.728 -58.105 -145.996c0 0 0 0 0 0m120.605 0c0 25.065 8.301 45.898 24.903 62.5c13.997 16.602 33.528 24.902 58.594 24.902c0 0 3.906 0 3.906 0c22.135 0 41.666 -8.3 58.594 -24.902c0 0 62.5 -62.5 62.5 -62.5c0 0 -62.5 -62.5 -62.5 -62.5c-16.602 -16.602 -37.435 -24.902 -62.5 -24.902c-22.136 0 -41.586 8.3 -58.35 24.902c-16.764 16.602 -25.147 37.435 -25.147 62.5c0 0 0 0 0 0m383.301 0c0 0 62.5 62.5 62.5 62.5c16.602 16.602 36.133 24.902 58.594 24.902c0 0 3.906 0 3.906 0c25.065 0 44.597 -8.3 58.594 -24.902c16.602 -16.602 24.902 -37.435 24.902 -62.5c0 -25.065 -8.3 -45.898 -24.902 -62.5c-13.997 -16.602 -33.529 -24.902 -58.594 -24.902c0 0 -3.906 0 -3.906 0c-22.135 0 -41.667 8.3 -58.594 24.902c0 0 -62.5 62.5 -62.5 62.5" />
  </g>
</svg>