<?xml version="1.0" encoding="iso-8859-1"?>
<!-- Generator: Adobe Illustrator 16.2.1, SVG Export Plug-In . SVG Version: 6.00 Build 0)  -->
<!DOCTYPE svg PUBLIC "-//W3C//DTD SVG 1.1//EN" "http://www.w3.org/Graphics/SVG/1.1/DTD/svg11.dtd">
<svg version="1.1" id="Layer_1" xmlns="http://www.w3.org/2000/svg" xmlns:xlink="http://www.w3.org/1999/xlink" x="0px" y="0px"
	 width="24px" height="24px" viewBox="0 0 24 24" style="enable-background:new 0 0 24 24;" xml:space="preserve">
<path d="M14.234,16.013l0.554-1.104c0.808-1.61,0.897-3.227,0.253-4.552c-0.122-0.252-0.278-0.478-0.444-0.693
	C16.009,9.046,17,7.639,17,6.001c0-2.206-1.794-4-4-4s-4,1.794-4,4c0,0.783,0.234,1.508,0.624,2.126
	c-1.696,0.33-2.805,1.248-2.947,1.375c-0.716,0.631-0.885,1.68-0.406,2.504c0.325,0.559,0.886,0.909,1.494,0.981l-0.553,1.104
	c-0.808,1.61-0.897,3.227-0.254,4.552c0.565,1.163,1.621,1.954,2.971,2.229C10.343,20.957,10.765,21,11.183,21
	c2.369,0,3.966-1.347,4.14-1.501c0.716-0.63,0.887-1.678,0.408-2.503C15.406,16.437,14.844,16.085,14.234,16.013z M13,4.001
	c1.104,0,2,0.895,2,2c0,1.104-0.896,2-2,2c-1.105,0-2-0.896-2-2C11,4.896,11.895,4.001,13,4.001z M11.183,19
	c-0.271,0-0.558-0.026-0.854-0.087C8.688,18.579,8,16.981,9,14.987l1-1.996c0.5-0.996,0.469-1.629-0.109-2.035
	c-0.18-0.125-0.43-0.169-0.689-0.169C8.624,10.787,8,11.001,8,11.001S9.135,10,10.815,10c0.271,0,0.559,0.026,0.856,0.087
	C13.311,10.421,14,12.019,13,14.013l-1,1.994c-0.5,0.998-0.471,1.631,0.107,2.035c0.18,0.126,0.432,0.169,0.692,0.169
	c0.577,0,1.2-0.212,1.2-0.212S12.865,19,11.183,19z"/>
</svg>
