<?xml version="1.0" encoding="iso-8859-1"?>
<!-- Generator: Adobe Illustrator 16.2.1, SVG Export Plug-In . SVG Version: 6.00 Build 0)  -->
<svg version="1.2" baseProfile="tiny" id="Layer_1" xmlns="http://www.w3.org/2000/svg" xmlns:xlink="http://www.w3.org/1999/xlink"
	 x="0px" y="0px" width="24px" height="24px" viewBox="0 0 24 24" xml:space="preserve">
<g>
	<path d="M13.839,17.525c-0.006,0.002-0.559,0.186-1.039,0.186c-0.265,0-0.372-0.055-0.406-0.079c-0.168-0.117-0.48-0.336,0.054-1.4
		l1-1.994c0.593-1.184,0.681-2.329,0.245-3.225c-0.356-0.733-1.039-1.236-1.92-1.416C11.456,9.532,11.134,9.5,10.815,9.5
		c-1.849,0-3.094,1.08-3.146,1.126c-0.179,0.158-0.221,0.42-0.102,0.626c0.12,0.206,0.367,0.3,0.595,0.222
		c0.005-0.002,0.559-0.187,1.039-0.187c0.263,0,0.369,0.055,0.402,0.078c0.169,0.118,0.482,0.34-0.051,1.402l-1,1.995
		c-0.594,1.185-0.681,2.33-0.245,3.225c0.356,0.733,1.038,1.236,1.921,1.416c0.314,0.063,0.636,0.097,0.954,0.097
		c1.85,0,3.096-1.08,3.148-1.126c0.179-0.157,0.221-0.42,0.102-0.626C14.312,17.543,14.063,17.451,13.839,17.525z"/>
	<circle cx="13" cy="6.001" r="2.5"/>
</g>
</svg>
