<svg version="1.2" baseProfile="tiny" xmlns="http://www.w3.org/2000/svg" width="24" height="24" viewBox="0 0 24 24"><path d="M21.171 15.398l-5.912-9.854c-.776-1.293-1.963-2.033-3.259-2.033s-2.483.74-3.259 2.031l-5.912 9.856c-.786 1.309-.872 2.705-.235 3.83.636 1.126 1.878 1.772 3.406 1.772h12c1.528 0 2.77-.646 3.406-1.771.637-1.125.551-2.521-.235-3.831zm-9.171-6.949c.854.002 1.549.698 1.551 1.55 0 .853-.695 1.549-1.55 1.551-.854-.002-1.55-.698-1.552-1.55 0-.855.696-1.551 1.551-1.551zm1.69 8.461c-.032.037-.795.918-2.068.918l-.154-.004c-.508-.03-.928-.255-1.185-.634-.315-.465-.358-1.113-.121-1.825l.406-1.221c.225-.683.01-.792-.106-.85l-.14-.025c-.251 0-.597.148-.708.206-.104.054-.235.026-.311-.067-.073-.095-.071-.227.007-.318.033-.039.867-.995 2.223-.914.505.029.925.253 1.182.631.316.465.36 1.114.124 1.828l-.406 1.221c-.227.682-.01.792.106.85l.137.023c.254 0 .6-.148.712-.205.106-.056.235-.026.31.068.072.095.07.227-.008.318z"/></svg>