<?xml version="1.0" encoding="iso-8859-1"?>
<!-- Generator: Adobe Illustrator 16.2.1, SVG Export Plug-In . SVG Version: 6.00 Build 0)  -->
<svg version="1.2" baseProfile="tiny" id="Layer_1" xmlns="http://www.w3.org/2000/svg" xmlns:xlink="http://www.w3.org/1999/xlink"
	 x="0px" y="0px" width="24px" height="24px" viewBox="0 0 24 24" xml:space="preserve">
<g>
	<path d="M12,5.511c0.561,0,1.119,0.354,1.544,1.062l5.912,9.854C20.307,17.842,19.65,19,18,19H6c-1.65,0-2.307-1.159-1.456-2.573
		l5.912-9.854C10.881,5.865,11.439,5.511,12,5.511 M12,3.511c-1.296,0-2.482,0.74-3.259,2.031l-5.912,9.856
		c-0.786,1.309-0.872,2.705-0.235,3.83S4.473,21,6,21h12c1.527,0,2.77-0.646,3.406-1.771s0.551-2.521-0.235-3.83l-5.912-9.854
		C14.482,4.251,13.296,3.511,12,3.511z"/>
</g>
<g>
	<path d="M13.5,16.748c0,0-0.711,0.361-1.075,0.182c-0.362-0.184-0.434-0.541-0.229-1.152l0.406-1.221
		c0.403-1.221-0.121-2.076-1.082-2.131c-1.258-0.07-2.02,0.826-2.02,0.826s0.71-0.365,1.075-0.182
		c0.362,0.184,0.432,0.541,0.229,1.152l-0.406,1.221c-0.405,1.221,0.119,2.074,1.082,2.131C12.738,17.645,13.5,16.748,13.5,16.748z"
		/>
</g>
<g>
	<circle cx="12" cy="10" r="1.301"/>
</g>
</svg>
