<?xml version="1.0" encoding="iso-8859-1"?>
<!-- Generator: Adobe Illustrator 16.2.1, SVG Export Plug-In . SVG Version: 6.00 Build 0)  -->
<!DOCTYPE svg PUBLIC "-//W3C//DTD SVG 1.1//EN" "http://www.w3.org/Graphics/SVG/1.1/DTD/svg11.dtd">
<svg version="1.1" id="Layer_1" xmlns="http://www.w3.org/2000/svg" xmlns:xlink="http://www.w3.org/1999/xlink" x="0px" y="0px"
	 width="24px" height="24px" viewBox="0 0 24 24" style="enable-background:new 0 0 24 24;" xml:space="preserve">
<g>
	<path d="M12,6.511c0.56,0,1.119,0.354,1.544,1.061l5.912,9.855C20.306,18.842,19.65,20,18,20H6c-1.65,0-2.306-1.158-1.456-2.572
		l5.912-9.855C10.881,6.865,11.44,6.511,12,6.511 M12,4.511c-1.296,0-2.483,0.74-3.259,2.031l-5.912,9.856
		c-0.786,1.309-0.872,2.705-0.235,3.83C3.23,21.354,4.472,22,6,22h12c1.528,0,2.77-0.646,3.406-1.771
		c0.637-1.125,0.551-2.521-0.235-3.831l-5.912-9.854C14.483,5.251,13.296,4.511,12,4.511L12,4.511z"/>
</g>
<g>
	<path d="M13.5,17.748c0,0-0.711,0.361-1.075,0.182c-0.362-0.184-0.434-0.541-0.23-1.152l0.406-1.221
		c0.404-1.221-0.121-2.076-1.082-2.131c-1.257-0.07-2.019,0.826-2.019,0.826s0.71-0.365,1.075-0.182
		c0.362,0.184,0.432,0.541,0.23,1.152l-0.406,1.221c-0.406,1.221,0.119,2.074,1.082,2.131C12.738,18.645,13.5,17.748,13.5,17.748z"
		/>
</g>
<g>
	<circle cx="12" cy="11" r="1.301"/>
</g>
</svg>
