<?xml version="1.0" encoding="iso-8859-1"?>
<!-- Generator: Adobe Illustrator 16.2.1, SVG Export Plug-In . SVG Version: 6.00 Build 0)  -->
<svg version="1.2" baseProfile="tiny" id="Layer_1" xmlns="http://www.w3.org/2000/svg" xmlns:xlink="http://www.w3.org/1999/xlink"
	 x="0px" y="0px" width="24px" height="24px" viewBox="0 0 24 24" xml:space="preserve">
<path d="M21.171,15.398l-5.912-9.854C14.483,4.251,13.296,3.511,12,3.511s-2.483,0.74-3.259,2.031l-5.912,9.856
	c-0.786,1.309-0.872,2.705-0.235,3.83C3.23,20.354,4.472,21,6,21h12c1.528,0,2.77-0.646,3.406-1.771
	C22.043,18.104,21.957,16.708,21.171,15.398z M12,8.449c0.854,0.002,1.549,0.698,1.551,1.55c0,0.853-0.695,1.549-1.55,1.551
	c-0.854-0.002-1.55-0.698-1.552-1.55C10.449,9.145,11.145,8.449,12,8.449z M13.69,16.91c-0.032,0.037-0.795,0.918-2.068,0.918
	c-0.051,0-0.103-0.001-0.154-0.004c-0.508-0.03-0.928-0.255-1.185-0.634c-0.315-0.465-0.358-1.113-0.121-1.825l0.406-1.221
	c0.225-0.683,0.01-0.792-0.106-0.85c-0.031-0.016-0.08-0.025-0.14-0.025c-0.251,0-0.597,0.148-0.708,0.206
	c-0.104,0.054-0.235,0.026-0.311-0.067C9.23,13.313,9.232,13.181,9.31,13.09c0.033-0.039,0.867-0.995,2.223-0.914
	c0.505,0.029,0.925,0.253,1.182,0.631c0.316,0.465,0.36,1.114,0.124,1.828l-0.406,1.221c-0.227,0.682-0.01,0.792,0.106,0.85
	c0.02,0.01,0.062,0.023,0.137,0.023c0.254,0,0.6-0.148,0.712-0.205c0.106-0.056,0.235-0.026,0.31,0.068
	C13.77,16.687,13.768,16.819,13.69,16.91z"/>
</svg>
