<?xml version="1.0" encoding="iso-8859-1"?>
<!-- Generator: Adobe Illustrator 16.2.1, SVG Export Plug-In . SVG Version: 6.00 Build 0)  -->
<svg version="1.2" baseProfile="tiny" id="Layer_1" xmlns="http://www.w3.org/2000/svg" xmlns:xlink="http://www.w3.org/1999/xlink"
	 x="0px" y="0px" width="24px" height="24px" viewBox="0 0 24 24" xml:space="preserve">
<path d="M14.234,16.014l0.554-1.104c0.808-1.61,0.897-3.228,0.253-4.552c-0.122-0.252-0.277-0.479-0.443-0.693
	C16.009,9.046,17,7.639,17,6.001c0-2.206-1.794-4-4-4s-4,1.794-4,4c0,0.783,0.234,1.508,0.624,2.126
	c-1.696,0.33-2.806,1.248-2.947,1.375c-0.716,0.631-0.885,1.68-0.405,2.504c0.324,0.559,0.886,0.909,1.494,0.98l-0.554,1.104
	c-0.808,1.61-0.897,3.228-0.254,4.552c0.565,1.164,1.621,1.955,2.972,2.229c0.413,0.084,0.836,0.127,1.254,0.127
	c2.368,0,3.965-1.347,4.14-1.501c0.716-0.63,0.887-1.678,0.407-2.503C15.406,16.438,14.844,16.085,14.234,16.014z M13,4.001
	c1.104,0,2,0.896,2,2s-0.896,2-2,2c-1.105,0-2-0.896-2-2S11.895,4.001,13,4.001z M11.184,19c-0.271,0-0.559-0.025-0.854-0.087
	c-1.642-0.334-2.328-1.933-1.328-3.927l1-1.995c0.5-0.996,0.47-1.63-0.108-2.035c-0.181-0.125-0.431-0.169-0.689-0.169
	c-0.577,0-1.201,0.214-1.201,0.214S9.137,10,10.816,10c0.271,0,0.56,0.025,0.856,0.087c1.64,0.334,2.328,1.933,1.328,3.927l-1,1.993
	c-0.5,0.998-0.472,1.632,0.106,2.035c0.181,0.126,0.433,0.169,0.692,0.169c0.577,0,1.2-0.212,1.2-0.212S12.865,19,11.184,19z"/>
</svg>
