<?xml version="1.0" encoding="iso-8859-1"?>
<!-- Generator: Adobe Illustrator 16.2.1, SVG Export Plug-In . SVG Version: 6.00 Build 0)  -->
<svg version="1.2" baseProfile="tiny" xmlns="http://www.w3.org/2000/svg" xmlns:xlink="http://www.w3.org/1999/xlink" x="0px"
	 y="0px" width="24px" height="24px" viewBox="0 0 24 24" xml:space="preserve">
<g id="Layer_1">
	<path d="M19.885,6.177c-0.221-0.771-0.728-1.409-1.427-1.798C18.013,4.131,17.509,4,17.001,4c-0.862,0-1.661,0.381-2.219,1H8
		C6.346,5,5,6.346,5,8v8c0,1.654,1.346,3,3,3h8c1.654,0,3-1.346,3-3V9.546l0.622-1.088C20.012,7.758,20.104,6.948,19.885,6.177z
		 M16.127,6.515c0.104-0.189,0.27-0.328,0.459-0.416c0.301-0.113,0.623-0.127,0.9,0.027c0.232,0.13,0.402,0.343,0.476,0.6
		c0.033,0.117,0.039,0.236,0.03,0.353C17.98,7.194,17.949,7.306,17.9,7.411c-0.01,0.021-0.01,0.045-0.021,0.065l-4.006,7.011
		c-0.151,0.273-0.427,0.461-0.742,0.506c-0.044,0.006-0.088,0.009-0.132,0.009c-0.267,0-0.518-0.104-0.707-0.293l-3-3
		c-0.39-0.39-0.39-1.024,0-1.414c0.189-0.189,0.44-0.293,0.707-0.293s0.518,0.104,0.707,0.293l1.125,1.125l0.92,0.92l0.652-1.125
		L16.127,6.515z M16,17H8c-0.552,0-1-0.449-1-1V8c0-0.551,0.448-1,1-1h6.689l-2.15,3.712l-1.125-1.125
		C11.023,9.196,10.512,9.001,10,9.001S8.977,9.196,8.586,9.587c-0.781,0.781-0.781,2.047,0,2.828l3,3
		c0.378,0.378,0.888,0.586,1.414,0.586c0.092,0,0.185-0.006,0.277-0.02c0.621-0.087,1.166-0.461,1.471-1.01L17,11.031V16
		C17,16.551,16.552,17,16,17z"/>
</g>
<g id="nyt_x5F_exporter_x5F_info" display="none">
</g>
</svg>
