<?xml version="1.0" encoding="iso-8859-1"?>
<!-- Generator: Adobe Illustrator 16.2.1, SVG Export Plug-In . SVG Version: 6.00 Build 0)  -->
<svg version="1.2" baseProfile="tiny" id="Layer_1" xmlns="http://www.w3.org/2000/svg" xmlns:xlink="http://www.w3.org/1999/xlink"
	 x="0px" y="0px" width="24px" height="24px" viewBox="0 0 24 24" xml:space="preserve">
<g>
	<path d="M10,21H4v-4.414l3.783-3.783C7.596,12.216,7.5,11.611,7.5,11c0-3.309,2.691-6,6-6s6,2.691,6,6s-2.691,6-6,6H12v2h-2V21z
		 M6,19h2v-2h2v-2h3.5c2.206,0,4-1.794,4-4s-1.794-4-4-4s-4,1.794-4,4c0,0.559,0.121,1.109,0.359,1.639l0.285,0.631L6,17.414V19z"/>
</g>
<g>
	<path d="M13.5,9.998c0.551,0,1,0.449,1,1.002c0,0.552-0.449,1-1,1s-1-0.448-1-1C12.5,10.447,12.949,9.998,13.5,9.998 M13.5,8.998
		c-1.104,0-2,0.896-2,2.002c0,1.104,0.896,2,2,2c1.105,0,2-0.896,2-2C15.5,9.895,14.605,8.998,13.5,8.998z"/>
</g>
</svg>
