<?xml version="1.0" encoding="iso-8859-1"?>
<!-- Generator: Adobe Illustrator 16.2.1, SVG Export Plug-In . SVG Version: 6.00 Build 0)  -->
<svg version="1.2" baseProfile="tiny" id="Layer_1" xmlns="http://www.w3.org/2000/svg" xmlns:xlink="http://www.w3.org/1999/xlink"
	 x="0px" y="0px" width="24px" height="24px" viewBox="0 0 24 24" xml:space="preserve">
<g>
	<path d="M8.5,11c0,0.732,0.166,1.424,0.449,2.051L5,17c0,0,0,0.672,0,1.5S5.896,20,7,20h2v-2h2v-2c0,0,2.329,0,2.5,0
		c2.762,0,5-2.238,5-5s-2.238-5-5-5S8.5,8.238,8.5,11z M13.5,13c-1.104,0-2-0.896-2-2c0-1.105,0.896-2.002,2-2.002
		c1.105,0,2,0.896,2,2.002C15.5,12.104,14.605,13,13.5,13z"/>
</g>
</svg>
