<?xml version="1.0" encoding="iso-8859-1"?>
<!-- Generator: Adobe Illustrator 16.2.1, SVG Export Plug-In . SVG Version: 6.00 Build 0)  -->
<svg version="1.2" baseProfile="tiny" id="Layer_1" xmlns="http://www.w3.org/2000/svg" xmlns:xlink="http://www.w3.org/1999/xlink"
	 x="0px" y="0px" width="24px" height="24px" viewBox="0 0 24 24" xml:space="preserve">
	<rect x="8" y="13" width="7" height="2"/>
	<rect x="5" y="13" width="2" height="2"/>
	<rect x="5" y="9" width="2" height="1"/>
	<polygon points="8,12 8,11 7,11 5,11 5,12 7,12 	"/>
	<rect x="8" y="9" width="1" height="1"/>
	<rect x="9" y="11" width="1" height="1"/>
	<rect x="10" y="9" width="1" height="1"/>
	<rect x="11" y="11" width="1" height="1"/>
	<rect x="12" y="9" width="1" height="1"/>
	<rect x="13" y="11" width="1" height="1"/>
	<rect x="14" y="9" width="1" height="1"/>
	<rect x="15" y="11" width="1" height="1"/>
	<rect x="16" y="9" width="1" height="1"/>
	<polygon points="17,12 18,12 19,12 19,11 19,9 18,9 18,11 17,11 	"/>
	<polygon points="18,13 17,13 17,14 16,14 16,15 18,15 19,15 19,14 18,14 	"/>
	<path d="M20,6H4C2.9,6,2,6.9,2,8v8c0,1.1,0.9,2,2,2h16c1.1,0,2-0.9,2-2V8C22,6.9,21.1,6,20,6z M20,16H4V8h16V16z"/>
</svg>
