<?xml version="1.0" encoding="iso-8859-1"?>
<!-- Generator: Adobe Illustrator 16.2.1, SVG Export Plug-In . SVG Version: 6.00 Build 0)  -->
<svg version="1.2" baseProfile="tiny" xmlns="http://www.w3.org/2000/svg" xmlns:xlink="http://www.w3.org/1999/xlink" x="0px"
	 y="0px" width="24px" height="24px" viewBox="0 0 24 24" xml:space="preserve">
<g id="Layer_1">
	<g>
		<path d="M12.5,5.5C12.224,5.5,12,5.724,12,6s0.224,0.5,0.5,0.5c1.083,0,1.964,0.881,1.964,1.964c0,0.276,0.224,0.5,0.5,0.5
			s0.5-0.224,0.5-0.5C15.464,6.83,14.134,5.5,12.5,5.5z"/>
		<path d="M12.5,1C8.364,1,5,4.364,5,8.5c0,1.486,0.44,2.922,1.274,4.165c0.023,0.047,0.049,0.092,0.08,0.135
			C8.179,15.406,8.5,16.23,8.5,17v3c0,0.552,0.448,1,1,1h2c0,0.26,0.11,0.52,0.29,0.71C11.98,21.89,12.24,22,12.5,22
			c0.26,0,0.52-0.11,0.71-0.29c0.18-0.19,0.29-0.45,0.29-0.71h2c0.552,0,1-0.448,1-1v-3c0-0.782,0.319-1.61,2.132-4.199
			C19.527,11.526,20,10.039,20,8.5C20,4.364,16.636,1,12.5,1z M14.5,19h-4v-1h4V19z M16.995,11.653
			c-1.466,2.093-2.143,3.289-2.385,4.347H13.5v-2c0-0.552-0.448-1-1-1s-1,0.448-1,1v2h-1.113c-0.24-1.03-0.898-2.2-2.306-4.22
			c-0.022-0.044-0.048-0.087-0.077-0.129C7.347,10.717,7,9.627,7,8.5C7,5.467,9.467,3,12.5,3S18,5.467,18,8.5
			C18,9.626,17.653,10.716,16.995,11.653z"/>
	</g>
</g>
<g id="nyt_x5F_exporter_x5F_info" display="none">
</g>
</svg>
