<?xml version="1.0" encoding="iso-8859-1"?>
<!-- Generator: Adobe Illustrator 16.2.1, SVG Export Plug-In . SVG Version: 6.00 Build 0)  -->
<svg version="1.2" baseProfile="tiny" id="Layer_1" xmlns="http://www.w3.org/2000/svg" xmlns:xlink="http://www.w3.org/1999/xlink"
	 x="0px" y="0px" width="24px" height="24px" viewBox="0 0 24 24" xml:space="preserve">
<path d="M18.277,6.321c-0.43-0.43-1.126-0.43-1.556,0L15,8.043l-0.308-0.308c-1.168-1.168-3.216-1.168-4.384,0l-4.172,4.172
	C5.552,12.491,5.23,13.27,5.23,14.099s0.322,1.608,0.906,2.192l0.308,0.308l-1.722,1.722c-0.43,0.43-0.43,1.126,0,1.556
	c0.215,0.215,0.496,0.322,0.778,0.322s0.563-0.107,0.778-0.322L8,18.155l0.308,0.308c0.584,0.584,1.362,0.906,2.192,0.906
	s1.608-0.322,2.192-0.906l4.172-4.172c0.584-0.584,0.906-1.362,0.906-2.192s-0.322-1.608-0.906-2.192l-0.308-0.308l1.722-1.722
	C18.707,7.447,18.707,6.751,18.277,6.321z M15.308,12.735l-4.172,4.172c-0.168,0.168-0.402,0.253-0.636,0.253
	s-0.468-0.084-0.636-0.253l-0.308-0.308l0.722-0.722c0.43-0.43,0.43-1.126,0-1.556c-0.215-0.215-0.496-0.322-0.778-0.322
	s-0.563,0.107-0.778,0.322L8,15.043l-0.308-0.308c-0.168-0.168-0.261-0.395-0.261-0.636s0.093-0.468,0.261-0.636l4.172-4.172
	C12.032,9.123,12.258,9.03,12.5,9.03s0.468,0.093,0.636,0.261l0.308,0.308l-0.722,0.722c-0.43,0.43-0.43,1.126,0,1.556
	c0.215,0.215,0.496,0.322,0.778,0.322s0.563-0.107,0.778-0.322L15,11.155l0.308,0.308c0.168,0.168,0.261,0.395,0.261,0.636
	S15.476,12.567,15.308,12.735z"/>
</svg>
