<?xml version="1.0" encoding="iso-8859-1"?>
<!-- Generator: Adobe Illustrator 16.2.1, SVG Export Plug-In . SVG Version: 6.00 Build 0)  -->
<!DOCTYPE svg PUBLIC "-//W3C//DTD SVG 1.1//EN" "http://www.w3.org/Graphics/SVG/1.1/DTD/svg11.dtd">
<svg version="1.1" id="Layer_1" xmlns="http://www.w3.org/2000/svg" xmlns:xlink="http://www.w3.org/1999/xlink" x="0px" y="0px"
	 width="24px" height="24px" viewBox="0 0 24 24" style="enable-background:new 0 0 24 24;" xml:space="preserve">
<g>
	<path d="M17.5,5.999c0.282,0,0.563,0.107,0.778,0.322c0.43,0.43,0.43,1.126,0,1.556l-1.722,1.722l0.308,0.308
		c0.584,0.584,0.906,1.362,0.906,2.192s-0.322,1.608-0.906,2.192l-4.172,4.172c-0.584,0.584-1.362,0.906-2.192,0.906
		s-1.608-0.322-2.192-0.906L8,18.155l-1.722,1.722c-0.215,0.215-0.496,0.322-0.778,0.322s-0.563-0.107-0.778-0.322
		c-0.43-0.43-0.43-1.126,0-1.556l1.722-1.722l-0.308-0.308c-0.584-0.584-0.906-1.362-0.906-2.192s0.322-1.608,0.906-2.192
		l4.172-4.172c0.584-0.584,1.388-0.876,2.192-0.876s1.608,0.292,2.192,0.876L15,8.043l1.722-1.722
		C16.937,6.106,17.218,5.999,17.5,5.999 M17.5,3.999c-0.828,0-1.606,0.322-2.192,0.908l-0.492,0.492
		c-0.707-0.351-1.503-0.54-2.316-0.54c-1.363,0-2.677,0.533-3.606,1.462l-4.172,4.172C3.76,11.455,3.23,12.735,3.23,14.099
		c0,0.823,0.193,1.617,0.558,2.328l-0.48,0.48c-0.586,0.585-0.908,1.364-0.908,2.192s0.322,1.606,0.908,2.192
		c0.585,0.586,1.364,0.908,2.192,0.908s1.606-0.322,2.192-0.908l0.48-0.48c0.711,0.365,1.504,0.558,2.328,0.558
		c1.364,0,2.644-0.53,3.606-1.492l4.172-4.172c0.962-0.962,1.492-2.242,1.492-3.606c0-0.823-0.193-1.617-0.558-2.328l0.48-0.48
		C20.277,8.706,20.6,7.927,20.6,7.099s-0.322-1.606-0.908-2.192C19.106,4.321,18.328,3.999,17.5,3.999L17.5,3.999z"/>
</g>
<g>
	<path d="M11.4,11.168c0.017,0.535,0.234,1.036,0.614,1.416s0.881,0.597,1.416,0.614l-1.832,1.832
		c-0.017-0.535-0.234-1.036-0.614-1.416S10.104,13.017,9.568,13L11.4,11.168 M12.5,9.03c-0.242,0-0.468,0.093-0.636,0.261
		l-4.172,4.172c-0.168,0.168-0.261,0.395-0.261,0.636s0.093,0.468,0.261,0.636L8,15.043l0.722-0.722
		c0.215-0.215,0.496-0.322,0.778-0.322s0.563,0.107,0.778,0.322c0.43,0.43,0.43,1.126,0,1.556l-0.722,0.722l0.308,0.308
		c0.168,0.168,0.402,0.253,0.636,0.253s0.468-0.084,0.636-0.253l4.172-4.172c0.168-0.168,0.261-0.395,0.261-0.636
		s-0.093-0.468-0.261-0.636L15,11.155l-0.722,0.722c-0.215,0.215-0.496,0.322-0.778,0.322s-0.563-0.107-0.778-0.322
		c-0.43-0.43-0.43-1.126,0-1.556l0.722-0.722l-0.308-0.308C12.967,9.123,12.741,9.03,12.5,9.03L12.5,9.03z"/>
</g>
</svg>
