<?xml version="1.0" encoding="iso-8859-1"?>
<!-- Generator: Adobe Illustrator 16.2.1, SVG Export Plug-In . SVG Version: 6.00 Build 0)  -->
<svg version="1.2" baseProfile="tiny" id="Layer_1" xmlns="http://www.w3.org/2000/svg" xmlns:xlink="http://www.w3.org/1999/xlink"
	 x="0px" y="0px" width="24px" height="24px" viewBox="0 0 24 24" xml:space="preserve">
<g>
	<path d="M17.5,5.999c0.282,0,0.562,0.106,0.777,0.321c0.431,0.431,0.431,1.127,0,1.557L16.557,9.6l0.307,0.308
		c0.585,0.584,0.906,1.362,0.906,2.192s-0.321,1.607-0.906,2.191l-4.172,4.172c-0.584,0.584-1.361,0.906-2.191,0.906
		s-1.607-0.322-2.191-0.906L8,18.154l-1.723,1.723c-0.215,0.215-0.495,0.322-0.777,0.322s-0.562-0.107-0.777-0.322
		c-0.431-0.43-0.431-1.126,0-1.557L6.443,16.6l-0.308-0.309C5.552,15.707,5.23,14.93,5.23,14.1s0.321-1.608,0.905-2.192l4.173-4.173
		c0.584-0.584,1.387-0.875,2.191-0.875s1.607,0.291,2.191,0.875L15,8.043l1.723-1.723C16.938,6.105,17.218,5.999,17.5,5.999
		 M17.5,3.999c-0.828,0-1.605,0.321-2.191,0.908l-0.492,0.491c-0.707-0.351-1.504-0.539-2.316-0.539
		c-1.363,0-2.677,0.533-3.605,1.461l-4.172,4.173C3.76,11.455,3.23,12.734,3.23,14.1c0,0.822,0.192,1.616,0.558,2.327l-0.479,0.48
		C2.723,17.492,2.4,18.271,2.4,19.1c0,0.827,0.322,1.605,0.908,2.191c0.584,0.586,1.363,0.908,2.191,0.908s1.605-0.322,2.191-0.908
		l0.48-0.48c0.711,0.365,1.504,0.559,2.328,0.559c1.363,0,2.645-0.53,3.605-1.492l4.172-4.172c0.963-0.962,1.492-2.242,1.492-3.605
		c0-0.824-0.192-1.617-0.558-2.328l0.479-0.48C20.277,8.706,20.6,7.927,20.6,7.1c0-0.828-0.322-1.606-0.908-2.192
		C19.105,4.32,18.328,3.999,17.5,3.999z"/>
</g>
<g>
	<path d="M11.4,11.168c0.017,0.535,0.233,1.036,0.613,1.416c0.381,0.38,0.881,0.598,1.416,0.614l-1.832,1.831
		c-0.017-0.534-0.234-1.035-0.613-1.415c-0.381-0.38-0.881-0.597-1.416-0.614L11.4,11.168 M12.5,9.029
		c-0.242,0-0.468,0.094-0.637,0.262l-4.172,4.172c-0.168,0.168-0.26,0.395-0.26,0.637c0,0.24,0.092,0.467,0.26,0.635L8,15.043
		l0.723-0.723c0.215-0.215,0.495-0.321,0.777-0.321s0.562,0.106,0.777,0.321c0.431,0.431,0.431,1.127,0,1.557L9.557,16.6
		l0.308,0.308c0.168,0.168,0.401,0.253,0.636,0.253s0.468-0.084,0.637-0.253l4.172-4.173c0.168-0.168,0.26-0.395,0.26-0.635
		c0-0.242-0.092-0.469-0.26-0.637L15,11.154l-0.723,0.723c-0.215,0.215-0.495,0.322-0.777,0.322s-0.562-0.107-0.777-0.322
		c-0.431-0.43-0.431-1.126,0-1.557L13.443,9.6l-0.307-0.309C12.967,9.123,12.741,9.029,12.5,9.029z"/>
</g>
</svg>
