<svg height="1000px" width="583.0078125px" xmlns="http://www.w3.org/2000/svg">
  <g>
    <path d="M0 708.251953125c0 -22.298 8.301 -41.748 24.902 -58.35c16.602 -16.601 35.97 -24.902 58.106 -24.902c0 0 416.992 0 416.992 0c22.135 0 41.504 8.301 58.105 24.902c16.602 16.602 24.903 36.052 24.903 58.35c0 22.298 -8.301 41.748 -24.903 58.35c-16.601 16.601 -35.97 24.902 -58.105 24.902c0 0 -416.992 0 -416.992 0c-22.136 0 -41.504 -8.301 -58.106 -24.902c-16.601 -16.602 -24.902 -36.052 -24.902 -58.35c0 0 0 0 0 0m0 -208.252c0 -22.135 8.301 -41.585 24.902 -58.35c16.602 -16.764 35.97 -25.146 58.106 -25.146c0 0 416.992 0 416.992 0c22.135 0 41.504 8.382 58.105 25.146c16.602 16.765 24.903 36.215 24.903 58.35c0 22.135 -8.301 41.585 -24.903 58.35c-16.601 16.764 -35.97 25.146 -58.105 25.146c0 0 -416.992 0 -416.992 0c-22.136 0 -41.504 -8.382 -58.106 -25.146c-16.601 -16.765 -24.902 -36.215 -24.902 -58.35c0 0 0 0 0 0m0 -208.252c0 -22.298 8.301 -41.748 24.902 -58.35c16.602 -16.601 35.97 -24.902 58.106 -24.902c0 0 416.992 0 416.992 0c22.135 0 41.504 8.301 58.105 24.902c16.602 16.602 24.903 36.052 24.903 58.35c0 22.298 -8.301 41.748 -24.903 58.35c-16.601 16.601 -35.97 24.902 -58.105 24.902c0 0 -416.992 0 -416.992 0c-22.136 0 -41.504 -8.301 -58.106 -24.902c-16.601 -16.602 -24.902 -36.052 -24.902 -58.35c0 0 0 0 0 0" />
  </g>
</svg>