<?xml version="1.0" encoding="iso-8859-1"?>
<!-- Generator: Adobe Illustrator 16.2.1, SVG Export Plug-In . SVG Version: 6.00 Build 0)  -->
<!DOCTYPE svg PUBLIC "-//W3C//DTD SVG 1.1//EN" "http://www.w3.org/Graphics/SVG/1.1/DTD/svg11.dtd">
<svg version="1.1" id="Layer_1" xmlns="http://www.w3.org/2000/svg" xmlns:xlink="http://www.w3.org/1999/xlink" x="0px" y="0px"
	 width="24px" height="24px" viewBox="0 0 24 24" style="enable-background:new 0 0 24 24;" xml:space="preserve">
<g>
	<path d="M11.087,20.914C11.086,20.914,11.086,20.914,11.087,20.914c-0.352,0-1.219-0.146-1.668-1.496l-1.209-3.627l-3.628-1.209
		c-1.244-0.415-1.469-1.172-1.493-1.587c-0.024-0.415,0.114-1.193,1.301-1.747l11.375-5.309c1.032-0.479,1.922-0.308,2.349,0.363
		c0.223,0.351,0.396,0.97-0.053,1.933L12.752,19.61C12.223,20.744,11.481,20.914,11.087,20.914z M5.697,12.845l4.094,1.364
		l1.365,4.093l4.776-10.233L5.697,12.845z"/>
</g>
</svg>
