<?xml version="1.0" encoding="iso-8859-1"?>
<!-- Generator: Adobe Illustrator 16.2.1, SVG Export Plug-In . SVG Version: 6.00 Build 0)  -->
<svg version="1.2" baseProfile="tiny" id="Layer_1" xmlns="http://www.w3.org/2000/svg" xmlns:xlink="http://www.w3.org/1999/xlink"
	 x="0px" y="0px" width="24px" height="24px" viewBox="0 0 24 24" xml:space="preserve">
<g>
	<path d="M12,5c1.609,0,3.12,0.614,4.254,1.73C17.38,7.837,18,9.309,18,10.87s-0.62,3.03-1.745,4.139L12,19.193l-4.254-4.186
		c-1.125-1.107-1.745-2.576-1.745-4.139s0.62-3.032,1.745-4.141C8.881,5.614,10.393,5,12,5 M12,3C9.953,3,7.904,3.768,6.343,5.305
		c-3.124,3.074-3.124,8.057,0,11.131L12,21.999l5.657-5.565c3.124-3.072,3.124-8.056,0-11.129C16.096,3.768,14.048,3,12,3z"/>
</g>
<g>
	<path d="M12,8.499c0.668,0,1.296,0.26,1.768,0.731c0.976,0.976,0.976,2.562,0,3.537c-0.473,0.472-1.1,0.731-1.768,0.731
		s-1.295-0.26-1.768-0.731c-0.976-0.976-0.976-2.562,0-3.537C10.705,8.759,11.333,8.499,12,8.499 M12,7.499
		c-0.896,0-1.792,0.342-2.475,1.024c-1.367,1.367-1.367,3.584,0,4.951c0.684,0.684,1.578,1.024,2.475,1.024s1.792-0.342,2.475-1.024
		c1.366-1.367,1.366-3.584,0-4.951C13.792,7.84,12.896,7.499,12,7.499z"/>
</g>
</svg>
