<svg height="1000px" width="666.50390625px" xmlns="http://www.w3.org/2000/svg">
  <g>
    <path d="M0 412.59765625c0 -91.797 33.203 -169.596 99.609 -233.398c63.802 -63.803 141.602 -95.704 233.399 -95.704c91.797 0 169.596 31.901 233.398 95.704c66.732 63.802 100.098 141.601 100.098 233.398c0 74.87 -27.832 147.135 -83.496 216.797c-27.669 36.133 -52.572 63.802 -74.707 83.008c-13.998 16.601 -44.597 45.735 -91.797 87.402c-50.13 44.596 -77.962 69.661 -83.496 75.195c-27.669 -27.669 -55.339 -52.734 -83.008 -75.195c-25.065 -22.135 -55.664 -51.27 -91.797 -87.402c-22.135 -19.532 -47.2 -47.201 -75.195 -83.008c-55.339 -64.128 -83.008 -136.393 -83.008 -216.797c0 0 0 0 0 0m187.5 3.906c0 41.667 13.835 76.416 41.504 104.248c27.669 27.832 62.337 41.748 104.004 41.748c41.666 0 76.416 -13.916 104.248 -41.748c27.832 -27.832 41.748 -62.581 41.748 -104.248c0 -41.666 -13.916 -76.334 -41.748 -104.004c-27.832 -27.669 -62.582 -41.504 -104.248 -41.504c-41.667 0 -76.335 13.835 -104.004 41.504c-27.669 27.67 -41.504 62.338 -41.504 104.004c0 0 0 0 0 0" />
  </g>
</svg>