<svg height="1000px" width="500px" xmlns="http://www.w3.org/2000/svg">
  <g>
    <path d="M0 750c0 0 0 -291.504 0 -291.504c0 -16.601 4.232 -26.367 12.695 -29.297c0 0 24.903 -12.695 24.903 -12.695c0 0 12.207 0 12.207 0c0 0 8.3 0 8.3 0c0 0 8.79 0 8.79 0c0 0 16.601 0 16.601 0c0 -33.203 1.302 -56.803 3.906 -70.801c0 -11.068 2.767 -33.203 8.301 -66.406c8.464 -22.136 18.229 -41.667 29.297 -58.594c25.065 -36.133 66.732 -54.199 125 -54.199c58.268 0 99.935 18.066 125 54.199c11.068 16.602 20.833 36.133 29.297 58.594c5.534 33.203 8.301 55.338 8.301 66.406c2.929 13.998 4.231 37.598 3.906 70.801c0 0 12.695 0 12.695 0c0 0 12.696 0 12.696 0c0 0 8.3 0 8.3 0c0 0 12.207 0 12.207 0c0 0 24.903 12.695 24.903 12.695c8.463 2.93 12.695 12.696 12.695 29.297c0 0 0 291.504 0 291.504c0 27.669 -13.835 41.504 -41.504 41.504c0 0 -416.992 0 -416.992 0c-27.669 0 -41.504 -13.835 -41.504 -41.504c0 0 0 0 0 0m166.504 -333.496c0 0 166.992 0 166.992 0c0 0 0 -83.008 0 -83.008c0 -22.135 -8.382 -41.585 -25.146 -58.35c-16.765 -16.764 -36.215 -25.146 -58.35 -25.146c-22.135 0 -41.585 8.301 -58.35 24.902c-16.764 16.602 -25.146 36.133 -25.146 58.594c0 0 0 83.008 0 83.008c0 0 0 0 0 0" />
  </g>
</svg>