<?xml version="1.0" encoding="iso-8859-1"?>
<!-- Generator: Adobe Illustrator 16.2.1, SVG Export Plug-In . SVG Version: 6.00 Build 0)  -->
<!DOCTYPE svg PUBLIC "-//W3C//DTD SVG 1.1//EN" "http://www.w3.org/Graphics/SVG/1.1/DTD/svg11.dtd">
<svg version="1.1" id="Layer_1" xmlns="http://www.w3.org/2000/svg" xmlns:xlink="http://www.w3.org/1999/xlink" x="0px" y="0px"
	 width="24px" height="24px" viewBox="0 0 24 24" style="enable-background:new 0 0 24 24;" xml:space="preserve">
<g>
	<circle cx="12" cy="17" r="1.3"/>
</g>
<path d="M17,10h-1V8c0-2.206-1.794-4-4-4S8,5.794,8,8v2H7c-1.103,0-2,0.897-2,2v7c0,1.103,0.897,2,2,2h10c1.103,0,2-0.897,2-2v-7
	C19,10.897,18.103,10,17,10z M10,8c0-1.103,0.897-2,2-2s2,0.897,2,2v2v1h-4v-1V8z M17,19H7v-7h1h2h4h2h1.003L17,19z"/>
</svg>
