<?xml version="1.0" encoding="iso-8859-1"?>
<!-- Generator: Adobe Illustrator 16.2.1, SVG Export Plug-In . SVG Version: 6.00 Build 0)  -->
<!DOCTYPE svg PUBLIC "-//W3C//DTD SVG 1.1//EN" "http://www.w3.org/Graphics/SVG/1.1/DTD/svg11.dtd">
<svg version="1.1" id="Layer_1" xmlns="http://www.w3.org/2000/svg" xmlns:xlink="http://www.w3.org/1999/xlink" x="0px" y="0px"
	 width="24px" height="24px" viewBox="0 0 24 24" style="enable-background:new 0 0 24 24;" xml:space="preserve">
<g>
	<circle cx="12" cy="17" r="1.3"/>
</g>
<path d="M18,4c-2.206,0-4,1.794-4,4v2v1h-4v-1H7c-1.103,0-2,0.897-2,2v7c0,1.103,0.897,2,2,2h10c1.103,0,2-0.897,2-2v-7
	c0-1.103-0.897-2-2-2h-1V8c0-1.103,0.897-2,2-2s2,0.897,2,2v3c0,0.552,0.448,1,1,1s1-0.448,1-1V8C22,5.794,20.206,4,18,4z M17,19H7
	v-7h10.003L17,19z"/>
</svg>
