<svg height="1000px" width="750px" xmlns="http://www.w3.org/2000/svg">
  <g>
    <path d="M0 541.50390625c0 -58.268 18.066 -99.935 54.199 -125c11.068 -11.068 30.436 -19.368 58.106 -24.902c25.065 -8.464 47.363 -12.533 66.894 -12.207c11.068 -2.93 34.668 -4.395 70.801 -4.395c0 0 -41.504 41.504 -41.504 41.504c0 0 41.504 41.992 41.504 41.992c0 0 -29.297 0 -29.297 0c0 0 -20.508 0 -20.508 0c0 0 -12.695 0 -12.695 0c0 0 -29.297 3.906 -29.297 3.906c-5.534 0 -11.719 0.733 -18.555 2.198c-6.835 1.465 -11.718 2.197 -14.648 2.197c-8.464 8.464 -15.462 13.997 -20.996 16.602c-13.997 11.067 -20.833 30.436 -20.508 58.105c0 22.135 8.301 41.585 24.902 58.35c16.602 16.764 35.97 25.146 58.106 25.146c0 0 416.992 0 416.992 0c22.136 0 41.504 -8.301 58.106 -24.902c16.601 -16.602 24.902 -36.052 24.902 -58.35c0 -22.298 -8.301 -41.748 -24.902 -58.349c-16.602 -16.602 -35.97 -24.903 -58.106 -24.903c0 0 -125 0 -125 0c0 0 0 125 0 125c0 0 -162.598 -166.992 -162.598 -166.992c0 0 162.598 -166.504 162.598 -166.504c0 0 0 125 0 125c0 0 16.602 0 16.602 0c0 0 54.199 0 54.199 0c19.531 0 37.598 1.465 54.199 4.395c16.602 0 33.203 2.767 49.805 8.3c5.534 2.93 13.183 5.697 22.949 8.301c9.766 2.604 17.415 5.371 22.949 8.301c13.998 8.464 26.53 19.531 37.598 33.203c22.135 27.669 33.203 62.337 33.203 104.004c0 44.596 -16.683 83.577 -50.049 116.943c-33.366 33.366 -72.184 50.049 -116.455 50.049c0 0 -416.992 0 -416.992 0c-44.596 0 -83.496 -16.683 -116.699 -50.049c-33.203 -33.366 -49.805 -72.347 -49.805 -116.943c0 0 0 0 0 0" />
  </g>
</svg>