<?xml version="1.0" encoding="iso-8859-1"?>
<!-- Generator: Adobe Illustrator 16.2.1, SVG Export Plug-In . SVG Version: 6.00 Build 0)  -->
<!DOCTYPE svg PUBLIC "-//W3C//DTD SVG 1.1//EN" "http://www.w3.org/Graphics/SVG/1.1/DTD/svg11.dtd">
<svg version="1.1" id="Layer_1" xmlns="http://www.w3.org/2000/svg" xmlns:xlink="http://www.w3.org/1999/xlink" x="0px" y="0px"
	 width="24px" height="24px" viewBox="0 0 24 24" style="enable-background:new 0 0 24 24;" xml:space="preserve">
<path d="M19,7H5C3.897,7,3,7.897,3,9v9c0,1.103,0.897,2,2,2h14c1.103,0,2-0.897,2-2V9C21,7.897,20.103,7,19,7z M9.316,14.316
	l1.602,1.401c0.304,0.265,0.692,0.398,1.082,0.398s0.778-0.133,1.082-0.398l1.602-1.401l-0.037,0.037L18.293,18H5.707l3.646-3.646
	L9.316,14.316z M5,17.293V10.54l3.602,3.151L5,17.293z M15.398,13.691L19,10.54v6.75L15.398,13.691z M19,9v0.21l-6.576,5.754
	c-0.227,0.198-0.621,0.198-0.848,0L5,9.21V9H19z"/>
</svg>
