<svg height="1000px" width="833.0078125px" xmlns="http://www.w3.org/2000/svg">
  <g>
    <path d="M0 791.50390625c0 0 0 -583.008 0 -583.008c0 0 833.008 0 833.008 0c0 0 0 583.008 0 583.008c0 0 -833.008 0 -833.008 0c0 0 0 0 0 0m83.008 -99.609c0 0 183.594 -183.594 183.594 -183.594c0 0 -183.594 -162.598 -183.594 -162.598c0 0 0 346.192 0 346.192c0 0 0 0 0 0m62.5 -400.391c0 0 270.996 237.793 270.996 237.793c0 0 270.996 -237.793 270.996 -237.793c0 0 -541.992 0 -541.992 0c0 0 0 0 0 0m37.597 416.992c0 0 466.797 0 466.797 0c0 0 -145.996 -145.996 -145.996 -145.996c0 0 -87.402 75.195 -87.402 75.195c0 0 -87.402 -75.195 -87.402 -75.195c0 0 -145.997 145.996 -145.997 145.996m383.301 -200.195c0 0 183.594 183.594 183.594 183.594c0 0 0 -346.192 0 -346.192c0 0 -183.594 162.598 -183.594 162.598" />
  </g>
</svg>