<?xml version="1.0" encoding="iso-8859-1"?>
<!-- Generator: Adobe Illustrator 16.2.1, SVG Export Plug-In . SVG Version: 6.00 Build 0)  -->
<!DOCTYPE svg PUBLIC "-//W3C//DTD SVG 1.1//EN" "http://www.w3.org/Graphics/SVG/1.1/DTD/svg11.dtd">
<svg version="1.1" id="Layer_1" xmlns="http://www.w3.org/2000/svg" xmlns:xlink="http://www.w3.org/1999/xlink" x="0px" y="0px"
	 width="24px" height="24px" viewBox="0 0 24 24" style="enable-background:new 0 0 24 24;" xml:space="preserve">
<g>
	<path d="M12,5c1.609,0,3.12,0.614,4.254,1.73C17.38,7.837,18,9.308,18,10.87c0,1.562-0.62,3.031-1.745,4.139L12,19.193
		l-4.254-4.185c-1.125-1.107-1.745-2.577-1.745-4.139c0-1.562,0.62-3.032,1.745-4.14C8.881,5.614,10.392,5,12,5 M12,3
		C9.953,3,7.906,3.768,6.344,5.304c-3.124,3.074-3.124,8.057,0,11.13L12,21.999l5.657-5.565c3.124-3.073,3.124-8.056,0-11.13
		C16.095,3.768,14.048,3,12,3L12,3z"/>
</g>
<g>
	<path d="M12,8.499c0.668,0,1.296,0.26,1.768,0.732c0.975,0.975,0.975,2.562,0,3.536c-0.473,0.472-1.1,0.732-1.768,0.732
		s-1.295-0.26-1.768-0.732c-0.975-0.975-0.975-2.561,0-3.536C10.705,8.759,11.333,8.499,12,8.499 M12,7.499
		c-0.896,0-1.792,0.342-2.475,1.025c-1.367,1.367-1.367,3.583,0,4.95c0.684,0.684,1.579,1.025,2.475,1.025s1.792-0.342,2.475-1.025
		c1.366-1.367,1.366-3.583,0-4.95C13.792,7.84,12.896,7.499,12,7.499L12,7.499z"/>
</g>
</svg>
