<?xml version="1.0" encoding="iso-8859-1"?>
<!-- Generator: Adobe Illustrator 16.2.1, SVG Export Plug-In . SVG Version: 6.00 Build 0)  -->
<svg version="1.2" baseProfile="tiny" id="Layer_1" xmlns="http://www.w3.org/2000/svg" xmlns:xlink="http://www.w3.org/1999/xlink"
	 x="0px" y="0px" width="24px" height="24px" viewBox="0 0 24 24" xml:space="preserve">
<path d="M20.383,3.076c-0.373-0.155-0.804-0.069-1.09,0.217L15.426,7.16l-4.301-3.441c-0.396-0.316-0.973-0.287-1.332,0.074
	l-4.5,4.5C5.105,8.48,5,8.734,5,9v10c0,0.404,0.243,0.77,0.617,0.924C5.741,19.977,5.871,20,6,20c0.26,0,0.516-0.102,0.707-0.293
	l3.867-3.867l4.301,3.441c0.396,0.316,0.971,0.285,1.332-0.074l4.5-4.5C20.895,14.52,21,14.266,21,14V4
	C21,3.596,20.757,3.23,20.383,3.076z M7,16.586V9.414l3-3v7.24C9.93,13.697,7,16.586,7,16.586z M11.125,13.719
	c-0.038-0.029-0.084-0.045-0.125-0.068V6.182c0,0,3.959,3.143,4,3.166v7.473L11.125,13.719z M19,13.586l-3,3V9.35
	c0.07-0.043,3-2.936,3-2.936V13.586z"/>
</svg>
