<?xml version="1.0" encoding="iso-8859-1"?>
<!-- Generator: Adobe Illustrator 16.2.1, SVG Export Plug-In . SVG Version: 6.00 Build 0)  -->
<!DOCTYPE svg PUBLIC "-//W3C//DTD SVG 1.1//EN" "http://www.w3.org/Graphics/SVG/1.1/DTD/svg11.dtd">
<svg version="1.1" id="Layer_1" xmlns="http://www.w3.org/2000/svg" xmlns:xlink="http://www.w3.org/1999/xlink" x="0px" y="0px"
	 width="24px" height="24px" viewBox="0 0 24 24" style="enable-background:new 0 0 24 24;" xml:space="preserve">
<g>
	<path d="M8.998,7.002C9.025,7.028,9.054,7.055,9.083,7.08L14.134,12l-5.096,4.964C9.025,16.976,9.013,16.988,9,17L8.998,7.002 M9,5
		C7.896,5,7,5.896,7,7v10c0,1.104,0.896,2,2,2c0.543,0,1.033-0.218,1.393-0.568l0.004,0.001C13.037,15.859,17,12,17,12
		s-3.963-3.859-6.604-6.433l-0.004,0.001C10.033,5.218,9.543,5,9,5L9,5z"/>
</g>
</svg>
