<?xml version="1.0" encoding="iso-8859-1"?>
<!-- Generator: Adobe Illustrator 16.2.1, SVG Export Plug-In . SVG Version: 6.00 Build 0)  -->
<!DOCTYPE svg PUBLIC "-//W3C//DTD SVG 1.1//EN" "http://www.w3.org/Graphics/SVG/1.1/DTD/svg11.dtd">
<svg version="1.1" id="Layer_1" xmlns="http://www.w3.org/2000/svg" xmlns:xlink="http://www.w3.org/1999/xlink" x="0px" y="0px"
	 width="24px" height="24px" viewBox="0 0 24 24" style="enable-background:new 0 0 24 24;" xml:space="preserve">
<g>
	<path d="M14,8.676l4.133,4.025L14,16.727v-4.025V8.676 M13.8,6.4c-0.994,0-1.8,0.807-1.8,1.801v4.5v4.5
		C12,18.195,12.806,19,13.8,19c0.488,0,0.93-0.195,1.253-0.512l0.003,0.002C17.434,16.174,21,12.701,21,12.701
		s-3.566-3.475-5.944-5.789h-0.003C14.729,6.598,14.288,6.4,13.8,6.4L13.8,6.4z"/>
</g>
<g>
	<path d="M5,8.676l4.133,4.025L5,16.727V8.676 M4.8,6.4C3.806,6.4,3,7.207,3,8.201v9C3,18.195,3.806,19,4.8,19
		c0.488,0,0.93-0.195,1.253-0.512l0.003,0.002C8.434,16.174,12,12.701,12,12.701S8.434,9.227,6.056,6.912H6.053
		C5.729,6.598,5.288,6.4,4.8,6.4L4.8,6.4z"/>
</g>
</svg>
