<?xml version="1.0" encoding="iso-8859-1"?>
<!-- Generator: Adobe Illustrator 16.2.1, SVG Export Plug-In . SVG Version: 6.00 Build 0)  -->
<svg version="1.2" baseProfile="tiny" id="Layer_1" xmlns="http://www.w3.org/2000/svg" xmlns:xlink="http://www.w3.org/1999/xlink"
	 x="0px" y="0px" width="24px" height="24px" viewBox="0 0 24 24" xml:space="preserve">
<g>
	<g>
		<path d="M8,20c-1.654,0-3-1.346-3-3V8c0-1.654,1.346-3,3-3s3,1.346,3,3v9C11,18.654,9.654,20,8,20z M8,7C7.448,7,7,7.449,7,8v9
			c0,0.551,0.448,1,1,1s1-0.449,1-1V8C9,7.449,8.552,7,8,7z"/>
	</g>
</g>
<g>
	<g>
		<path d="M15,20c-1.654,0-3-1.346-3-3V8c0-1.654,1.346-3,3-3s3,1.346,3,3v9C18,18.654,16.654,20,15,20z M15,7c-0.552,0-1,0.449-1,1
			v9c0,0.551,0.448,1,1,1s1-0.449,1-1V8C16,7.449,15.552,7,15,7z"/>
	</g>
</g>
</svg>
