<?xml version="1.0" encoding="iso-8859-1"?>
<!-- Generator: Adobe Illustrator 16.2.1, SVG Export Plug-In . SVG Version: 6.00 Build 0)  -->
<!DOCTYPE svg PUBLIC "-//W3C//DTD SVG 1.1//EN" "http://www.w3.org/Graphics/SVG/1.1/DTD/svg11.dtd">
<svg version="1.1" id="Layer_1" xmlns="http://www.w3.org/2000/svg" xmlns:xlink="http://www.w3.org/1999/xlink" x="0px" y="0px"
	 width="24px" height="24px" viewBox="0 0 24 24" style="enable-background:new 0 0 24 24;" xml:space="preserve">
<g>
	<path d="M10,8.676v4.025v4.025l-4.133-4.025L10,8.676 M10.2,6.4c-0.488,0-0.931,0.197-1.253,0.512H8.944
		C6.566,9.227,3,12.701,3,12.701s3.566,3.473,5.944,5.789l0.003-0.002C9.27,18.805,9.712,19,10.2,19c0.994,0,1.8-0.805,1.8-1.799
		v-4.5v-4.5C12,7.207,11.194,6.4,10.2,6.4L10.2,6.4z"/>
</g>
<g>
	<path d="M19,8.676v8.051l-4.133-4.025L19,8.676 M19.2,6.4c-0.488,0-0.931,0.197-1.253,0.512h-0.003
		C15.566,9.227,12,12.701,12,12.701s3.566,3.473,5.944,5.789l0.003-0.002C18.27,18.805,18.712,19,19.2,19
		c0.994,0,1.8-0.805,1.8-1.799v-9C21,7.207,20.194,6.4,19.2,6.4L19.2,6.4z"/>
</g>
</svg>
