<svg height="1000px" width="500px" xmlns="http://www.w3.org/2000/svg">
  <g>
    <path d="M0 458.49609375c0 0 0 -125 0 -125c0 -27.669 13.916 -41.585 41.748 -41.748c27.832 -0.163 41.748 13.753 41.748 41.748c0 0 0 125 0 125c0 16.602 2.035 34.587 6.104 53.955c4.069 19.369 20.019 42.969 47.851 70.801c27.832 27.832 65.348 41.748 112.549 41.748c50.13 0 89.03 -14.567 116.699 -43.701c27.669 -29.134 42.888 -53.467 45.655 -72.998c2.766 -19.532 4.15 -36.133 4.15 -49.805c0 0 0 -125 0 -125c0 -27.669 13.916 -41.585 41.748 -41.748c27.832 -0.163 41.748 13.753 41.748 41.748c0 0 0 125 0 125c0 52.734 -16.683 104.818 -50.049 156.25c-33.366 51.432 -86.181 81.217 -158.447 89.355c0 0 0 87.403 0 87.403c0 0 125 0 125 0c27.669 0 41.585 13.916 41.748 41.748c0.163 27.832 -13.753 41.748 -41.748 41.748c0 0 -333.008 0 -333.008 0c-27.669 0 -41.585 -13.916 -41.748 -41.748c-0.163 -27.832 13.753 -41.748 41.748 -41.748c0 0 125 0 125 0c0 0 0 -87.403 0 -87.403c-72.266 -8.463 -125.081 -38.33 -158.447 -89.599c-33.366 -51.27 -50.049 -103.272 -50.049 -156.006c0 0 0 0 0 0m125 -20.996c0 0 0 -16.602 0 -16.602c0 0 0 -4.394 0 -4.394c0 0 0 -166.504 0 -166.504c0 -36.133 11.8 -65.999 35.4 -89.6c23.601 -23.6 53.467 -35.4 89.6 -35.4c36.133 0 65.999 11.8 89.6 35.4c23.6 23.601 35.4 53.467 35.4 89.6c0 0 0 166.504 0 166.504c0 0 0 20.996 0 20.996c0 36.133 -11.8 65.999 -35.4 89.6c-23.601 23.6 -53.467 35.4 -89.6 35.4c-36.133 0 -65.999 -11.8 -89.6 -35.4c-23.6 -23.601 -35.4 -53.467 -35.4 -89.6c0 0 0 0 0 0" />
  </g>
</svg>