<?xml version="1.0" encoding="iso-8859-1"?>
<!-- Generator: Adobe Illustrator 16.2.1, SVG Export Plug-In . SVG Version: 6.00 Build 0)  -->
<svg version="1.2" baseProfile="tiny" id="Layer_1" xmlns="http://www.w3.org/2000/svg" xmlns:xlink="http://www.w3.org/1999/xlink"
	 x="0px" y="0px" width="24px" height="24px" viewBox="0 0 24 24" xml:space="preserve">
<g>
	<path d="M12,16c2.206,0,4-1.795,4-4V6c0-2.206-1.794-4-4-4S8,3.794,8,6v6C8,14.205,9.794,16,12,16z"/>
	<path d="M19,12v-2c0-0.552-0.447-1-1-1s-1,0.448-1,1v2c0,2.757-2.243,5-5,5s-5-2.243-5-5v-2c0-0.552-0.447-1-1-1s-1,0.448-1,1v2
		c0,3.52,2.613,6.432,6,6.92V20H8c-0.553,0-1,0.447-1,1s0.447,1,1,1h8c0.553,0,1-0.447,1-1s-0.447-1-1-1h-3v-1.08
		C16.387,18.432,19,15.52,19,12z"/>
</g>
</svg>
