<?xml version="1.0" encoding="iso-8859-1"?>
<!-- Generator: Adobe Illustrator 16.2.1, SVG Export Plug-In . SVG Version: 6.00 Build 0)  -->
<!DOCTYPE svg PUBLIC "-//W3C//DTD SVG 1.1//EN" "http://www.w3.org/Graphics/SVG/1.1/DTD/svg11.dtd">
<svg version="1.1" id="Layer_1" xmlns="http://www.w3.org/2000/svg" xmlns:xlink="http://www.w3.org/1999/xlink" x="0px" y="0px"
	 width="24px" height="24px" viewBox="0 0 24 24" style="enable-background:new 0 0 24 24;" xml:space="preserve">
<g>
	<path d="M12,16c-2.206,0-4-1.794-4-4V6c0-2.206,1.794-4,4-4s4,1.794,4,4v6C16,14.206,14.206,16,12,16z M12,4c-1.103,0-2,0.897-2,2
		v6c0,1.103,0.897,2,2,2s2-0.897,2-2V6C14,4.897,13.103,4,12,4z"/>
</g>
<path d="M19,12v-2c0-0.552-0.447-1-1-1s-1,0.448-1,1v2c0,2.757-2.243,5-5,5s-5-2.243-5-5v-2c0-0.552-0.447-1-1-1s-1,0.448-1,1v2
	c0,3.52,2.613,6.432,6,6.92V20H8c-0.553,0-1,0.447-1,1s0.447,1,1,1h8c0.553,0,1-0.447,1-1s-0.447-1-1-1h-3v-1.08
	C16.387,18.432,19,15.52,19,12z"/>
</svg>
