<?xml version="1.0" encoding="iso-8859-1"?>
<!-- Generator: Adobe Illustrator 16.2.1, SVG Export Plug-In . SVG Version: 6.00 Build 0)  -->
<svg version="1.2" baseProfile="tiny" id="Layer_1" xmlns="http://www.w3.org/2000/svg" xmlns:xlink="http://www.w3.org/1999/xlink"
   x="0px" y="0px" width="24px" height="24px" viewBox="0 0 24 24" xml:space="preserve">
<path d="M20.5,7.9c0,0-5.8-2.9-6.9-3.5s-1.7-0.7-3,0C9.3,5,3.9,7.7,3.9,7.7c-0.8,0.4-1.5,1.2-1.5,2c0,0.8,0.2,1.2,0.2,1.2
	s-0.1,0.3-0.3,1.5C2,13.6,2,15.1,2,15.7c0,1.5,1.3,2.6,2.2,2.7c0.9,0.1,1.6-0.1,1.6-0.1c1.4,1.3,3.7,2.1,6.4,2.1
	c4.4,0,7.8-2.2,7.8-5c0-1.1-0.4-2.7-0.4-2.7l1.1-0.6c0.9-0.5,1.3-1.4,1.3-2.3C21.9,9,21.4,8.3,20.5,7.9z M12.3,18.3
	c-3.2,0-5.8-1.3-5.8-3L7,12.5l4.2,2.1c0.6,0.3,1.5,0.3,2.2,0l4.3-2.1l0.4,2.8C18.1,16.9,15.6,18.3,12.3,18.3z M19.6,10.2L13,13.6
	c-0.4,0.2-1,0.2-1.4,0l-5.7-2.9c-0.2,0.5-0.3,1.2-0.3,2c0,1.4,0.2,2.4,0.2,2.9s-0.3,0.8-0.7,0.8c-0.1,0-0.1,0-0.1,0
	c-0.4,0-0.8-0.3-0.8-0.8s0-1.6,0.3-3.1c0.2-0.9,0.4-1.7,0.6-2.2l-0.2-0.1c-0.4-0.2-0.4-0.5,0-0.7c0.4-0.2,6.3-3.2,6.7-3.4
	c0.4-0.2,0.9-0.2,1.3,0c0.4,0.2,6.7,3.4,6.7,3.4C20,9.7,20,10,19.6,10.2z"/>
</svg>
