<svg height="1000px" width="750px" xmlns="http://www.w3.org/2000/svg">
  <g>
    <path d="M0 500c0 0 166.504 -166.504 166.504 -166.504c0 0 0 83.008 0 83.008c0 0 125 0 125 0c0 0 0 -125 0 -125c0 0 -83.008 0 -83.008 0c0 0 166.504 -166.504 166.504 -166.504c0 0 166.504 166.504 166.504 166.504c0 0 -83.008 0 -83.008 0c0 0 0 125 0 125c0 0 125 0 125 0c0 0 0 -83.008 0 -83.008c0 0 166.504 166.504 166.504 166.504c0 0 -166.504 166.504 -166.504 166.504c0 0 0 -83.008 0 -83.008c0 0 -125 0 -125 0c0 0 0 125 0 125c0 0 83.008 0 83.008 0c0 0 -166.504 166.504 -166.504 166.504c0 0 -166.504 -166.504 -166.504 -166.504c0 0 83.008 0 83.008 0c0 0 0 -125 0 -125c0 0 -125 0 -125 0c0 0 0 83.008 0 83.008c0 0 -166.504 -166.504 -166.504 -166.504" />
  </g>
</svg>