<svg height="1000px" width="541.50390625px" xmlns="http://www.w3.org/2000/svg">
  <g>
    <path d="M0 708.49609375c0 -33.203 13.835 -55.501 41.504 -66.895c30.599 -13.997 58.431 -19.531 83.496 -16.601c0 0 0 -366.699 0 -366.699c0 0 416.504 -87.403 416.504 -87.403c0 0 0 462.403 0 462.403c-2.93 19.531 -15.462 37.597 -37.598 54.199c-22.135 13.997 -44.271 20.996 -66.406 20.996c-25.065 0 -48.665 -8.464 -70.801 -25.391c-22.135 -13.997 -33.366 -33.366 -33.691 -58.105c0 -33.203 13.997 -55.501 41.992 -66.895c22.135 -16.601 49.805 -22.135 83.008 -16.601c0 0 0 -266.602 0 -266.602c0 0 -250 50.293 -250 50.293c0 0 0 391.602 0 391.602c-5.534 25.065 -17.904 43.131 -37.11 54.199c-22.135 13.997 -44.433 20.833 -66.894 20.508c-25.065 0 -48.665 -8.301 -70.801 -24.903c-22.135 -13.671 -33.203 -33.04 -33.203 -58.105c0 0 0 0 0 0" />
  </g>
</svg>