<?xml version="1.0" encoding="iso-8859-1"?>
<!-- Generator: Adobe Illustrator 16.2.1, SVG Export Plug-In . SVG Version: 6.00 Build 0)  -->
<svg version="1.2" baseProfile="tiny" id="Layer_1" xmlns="http://www.w3.org/2000/svg" xmlns:xlink="http://www.w3.org/1999/xlink"
	 x="0px" y="0px" width="24px" height="24px" viewBox="0 0 24 24" xml:space="preserve">
<g>
	<path d="M21,4H3C1.896,4,1,4.896,1,6v12c0,1.104,0.896,2,2,2h18c1.104,0,2-0.896,2-2V6C23,4.896,22.104,4,21,4z M3,6h8v12H3V6z
		 M21,18h-9V6h9.003L21,18z"/>
	<path d="M20,13.5c0-0.275-0.225-0.5-0.5-0.5h-1c-0.275,0-0.5,0.225-0.5,0.5v3c0,0.275,0.225,0.5,0.5,0.5h1
		c0.275,0,0.5-0.225,0.5-0.5V13.5z"/>
	<path d="M17,7.5C17,7.225,16.775,7,16.5,7h-3C13.225,7,13,7.225,13,7.5v5c0,0.275,0.225,0.5,0.5,0.5h3c0.275,0,0.5-0.225,0.5-0.5
		V7.5z"/>
	<path d="M18.5,10h1c0.275,0,0.5-0.225,0.5-0.5S19.775,9,19.5,9h-1C18.225,9,18,9.225,18,9.5S18.225,10,18.5,10z"/>
	<path d="M18.5,12h1c0.275,0,0.5-0.225,0.5-0.5S19.775,11,19.5,11h-1c-0.275,0-0.5,0.225-0.5,0.5S18.225,12,18.5,12z"/>
	<path d="M13.5,15h3c0.275,0,0.5-0.225,0.5-0.5S16.775,14,16.5,14h-3c-0.275,0-0.5,0.225-0.5,0.5S13.225,15,13.5,15z"/>
	<path d="M16.5,16h-3c-0.275,0-0.5,0.225-0.5,0.5s0.225,0.5,0.5,0.5h3c0.275,0,0.5-0.225,0.5-0.5S16.775,16,16.5,16z"/>
	<path d="M18.5,8h1C19.775,8,20,7.775,20,7.5S19.775,7,19.5,7h-1C18.225,7,18,7.225,18,7.5S18.225,8,18.5,8z"/>
	<path d="M10,7.5C10,7.225,9.775,7,9.5,7h-5C4.225,7,4,7.225,4,7.5v3C4,10.775,4.225,11,4.5,11h5c0.275,0,0.5-0.225,0.5-0.5V7.5z"/>
	<path d="M9.501,14h-5c-0.274,0-0.5,0.225-0.5,0.5s0.226,0.5,0.5,0.5h5C9.775,15,10,14.775,10,14.5S9.775,14,9.501,14z"/>
	<path d="M9.501,12h-5c-0.274,0-0.5,0.225-0.5,0.5s0.226,0.5,0.5,0.5h5C9.775,13,10,12.775,10,12.5S9.775,12,9.501,12z"/>
	<path d="M9.501,16h-5c-0.274,0-0.5,0.225-0.5,0.5s0.226,0.5,0.5,0.5h5C9.775,17,10,16.775,10,16.5S9.775,16,9.501,16z"/>
</g>
</svg>
