<?xml version="1.0" encoding="iso-8859-1"?>
<!-- Generator: Adobe Illustrator 16.2.1, SVG Export Plug-In . SVG Version: 6.00 Build 0)  -->
<!DOCTYPE svg PUBLIC "-//W3C//DTD SVG 1.1//EN" "http://www.w3.org/Graphics/SVG/1.1/DTD/svg11.dtd">
<svg version="1.1" id="Layer_1" xmlns="http://www.w3.org/2000/svg" xmlns:xlink="http://www.w3.org/1999/xlink" x="0px" y="0px"
	 width="24px" height="24px" viewBox="0 0 24 24" style="enable-background:new 0 0 24 24;" xml:space="preserve">
<g>
	<path d="M21,5H4C2.897,5,2,5.897,2,7v11c0,1.103,0.897,2,2,2h17c1.103,0,2-0.897,2-2V7C23,5.897,22.103,5,21,5z M4,7h8v11H4V7z
		 M21,18h-8V7h8.003L21,18z"/>
	<path d="M20,14.5c0-0.276-0.224-0.5-0.5-0.5h-1c-0.276,0-0.5,0.224-0.5,0.5v2c0,0.276,0.224,0.5,0.5,0.5h1
		c0.276,0,0.5-0.224,0.5-0.5V14.5z"/>
	<path d="M17,8.5C17,8.224,16.776,8,16.5,8h-2C14.224,8,14,8.224,14,8.5v4c0,0.276,0.224,0.5,0.5,0.5h2c0.276,0,0.5-0.224,0.5-0.5
		V8.5z"/>
	<path d="M18.5,11h1c0.275,0,0.5-0.225,0.5-0.5S19.775,10,19.5,10h-1c-0.275,0-0.5,0.225-0.5,0.5S18.225,11,18.5,11z"/>
	<path d="M18.5,13h1c0.275,0,0.5-0.225,0.5-0.5S19.775,12,19.5,12h-1c-0.275,0-0.5,0.225-0.5,0.5S18.225,13,18.5,13z"/>
	<path d="M14.5,15h2c0.275,0,0.5-0.225,0.5-0.5S16.775,14,16.5,14h-2c-0.275,0-0.5,0.225-0.5,0.5S14.225,15,14.5,15z"/>
	<path d="M16.5,16h-2c-0.275,0-0.5,0.225-0.5,0.5s0.225,0.5,0.5,0.5h2c0.275,0,0.5-0.225,0.5-0.5S16.775,16,16.5,16z"/>
	<path d="M18.5,9h1C19.775,9,20,8.775,20,8.5S19.775,8,19.5,8h-1C18.225,8,18,8.225,18,8.5S18.225,9,18.5,9z"/>
	<path d="M11,8.5C11,8.224,10.776,8,10.5,8h-5C5.224,8,5,8.224,5,8.5v2C5,10.776,5.224,11,5.5,11h5c0.276,0,0.5-0.224,0.5-0.5V8.5z"
		/>
	<path d="M10.501,14h-5c-0.275,0-0.5,0.225-0.5,0.5s0.225,0.5,0.5,0.5h5C10.776,15,11,14.775,11,14.5S10.776,14,10.501,14z"/>
	<path d="M10.501,12h-5c-0.275,0-0.5,0.225-0.5,0.5s0.225,0.5,0.5,0.5h5C10.776,13,11,12.775,11,12.5S10.776,12,10.501,12z"/>
	<path d="M10.501,16h-5c-0.275,0-0.5,0.225-0.5,0.5s0.225,0.5,0.5,0.5h5C10.776,17,11,16.775,11,16.5S10.776,16,10.501,16z"/>
</g>
</svg>
