<?xml version="1.0" encoding="iso-8859-1"?>
<!-- Generator: Adobe Illustrator 16.2.1, SVG Export Plug-In . SVG Version: 6.00 Build 0)  -->
<svg version="1.2" baseProfile="tiny" id="Layer_1" xmlns="http://www.w3.org/2000/svg" xmlns:xlink="http://www.w3.org/1999/xlink"
	 x="0px" y="0px" width="24px" height="24px" viewBox="0 0 24 24" xml:space="preserve">
<path d="M18.831,4.059c-0.107-0.095-0.243-0.139-0.394-0.121l-11,1.25C7.188,5.219,7,5.432,7,5.684V16c-1.654,0-3,1.122-3,2.5
	S5.346,21,7,21s3-1.122,3-2.5v-7.609l6-0.625V14c-1.654,0-3,1.122-3,2.5s1.346,2.5,3,2.5s3-1.122,3-2.5V4.434
	C19,4.29,18.938,4.154,18.831,4.059z"/>
</svg>
