<svg height="1000px" width="683.59375px" xmlns="http://www.w3.org/2000/svg">
  <g>
    <path d="M0 479.00390625c0 -22.135 11.23 -47.038 33.691 -74.707c19.532 -19.531 44.434 -29.297 74.707 -29.297c16.602 0 31.901 5.534 45.899 16.602c22.135 16.601 37.435 29.134 45.898 37.597c0 0 45.899 45.899 45.899 45.899c11.067 13.997 20.833 25.065 29.297 33.203c0 0 220.703 -312.5 220.703 -312.5c22.135 -30.599 51.269 -45.899 87.402 -45.899c25.065 0 48.665 11.068 70.801 33.204c19.531 19.531 29.297 43.212 29.297 71.044c0 27.833 -25.065 79.183 -75.196 154.053c-36.132 55.664 -98.632 145.996 -187.5 270.996c0 0 -116.699 154.297 -116.699 154.297c0 0 -270.508 -275.39 -270.508 -275.39c-22.461 -22.136 -33.691 -48.503 -33.691 -79.102c0 0 0 0 0 0" />
  </g>
</svg>