<?xml version="1.0" encoding="iso-8859-1"?>
<!-- Generator: Adobe Illustrator 16.2.1, SVG Export Plug-In . SVG Version: 6.00 Build 0)  -->
<svg version="1.2" baseProfile="tiny" id="Layer_1" xmlns="http://www.w3.org/2000/svg" xmlns:xlink="http://www.w3.org/1999/xlink"
	 x="0px" y="0px" width="24px" height="24px" viewBox="0 0 24 24" xml:space="preserve">
<path d="M21.329,7.207C21.329,5.995,20.857,4.855,20,4s-1.996-1.329-3.207-1.329c-1.199,0-2.327,0.463-3.18,1.304
	C13.586,4,5.646,11.939,5.646,11.939c-0.373,0.373-0.717,0.91-0.967,1.514c-0.195,0.473-1.979,5.863-2.336,6.939
	c-0.119,0.358-0.025,0.754,0.242,1.021c0.189,0.189,0.445,0.293,0.707,0.293c0.105,0,0.211-0.018,0.314-0.051
	c1.076-0.355,6.465-2.141,6.938-2.336c0.603-0.248,1.14-0.592,1.515-0.967l2.157-2.156c0.025,0.001,0.05,0.01,0.076,0.01
	c0.64,0,1.28-0.244,1.769-0.732l4.5-4.5c0.696-0.695,0.887-1.699,0.588-2.572C21.256,8.016,21.329,7.619,21.329,7.207z
	 M9.465,17.586c-0.406,0.143-1.145,0.393-2.038,0.691l-1.704-1.704c0.301-0.894,0.551-1.634,0.691-2.038L9.465,17.586z
	 M5.368,17.633l0.999,0.999c-0.493,0.164-1,0.333-1.498,0.499C5.035,18.633,5.204,18.125,5.368,17.633z M13.066,14.52l-2.42,2.42
	c-0.061,0.061-0.151,0.119-0.235,0.18l-3.53-3.529c0.061-0.084,0.12-0.176,0.18-0.234l7.131-7.131l2.731,2.731l-3.69,3.69
	C12.72,13.159,12.684,13.936,13.066,14.52z M19.146,9.561l-4.5,4.5c-0.098,0.099-0.226,0.146-0.354,0.146s-0.256-0.049-0.354-0.146
	c-0.195-0.194-0.195-0.512,0-0.707l4.5-4.5c0.194-0.194,0.512-0.194,0.707,0C19.341,9.049,19.342,9.365,19.146,9.561z M19.253,7.797
	c-0.519-0.168-1.108-0.062-1.521,0.35L17.63,8.249l-2.731-2.731l0.078-0.078c0.984-0.98,2.652-0.981,3.608-0.023
	c0.479,0.479,0.743,1.116,0.743,1.793C19.329,7.409,19.298,7.604,19.253,7.797z"/>
</svg>
