<?xml version="1.0" encoding="iso-8859-1"?>
<!-- Generator: Adobe Illustrator 16.2.1, SVG Export Plug-In . SVG Version: 6.00 Build 0)  -->
<!DOCTYPE svg PUBLIC "-//W3C//DTD SVG 1.1//EN" "http://www.w3.org/Graphics/SVG/1.1/DTD/svg11.dtd">
<svg version="1.1" id="Layer_1" xmlns="http://www.w3.org/2000/svg" xmlns:xlink="http://www.w3.org/1999/xlink" x="0px" y="0px"
	 width="24px" height="24px" viewBox="0 0 24 24" style="enable-background:new 0 0 24 24;" xml:space="preserve">
<path d="M21.036,8.5c0-1.212-0.472-2.351-1.329-3.207S17.712,3.964,16.5,3.964c-1.199,0-2.327,0.463-3.18,1.303
	c-0.009,0.009-0.019,0.018-0.027,0.026l-7.939,7.939c-0.374,0.374-0.717,0.911-0.967,1.514c-0.196,0.473-1.98,5.864-2.336,6.94
	c-0.119,0.358-0.025,0.753,0.242,1.021C2.483,22.897,2.739,23,3,23c0.105,0,0.211-0.017,0.314-0.051
	c1.076-0.355,6.466-2.141,6.939-2.336c0.602-0.248,1.14-0.592,1.515-0.967l2.157-2.156c0.025,0.001,0.05,0.01,0.076,0.01
	c0.64,0,1.28-0.244,1.768-0.732l4.5-4.5c0.697-0.696,0.887-1.699,0.589-2.572C20.963,9.309,21.036,8.912,21.036,8.5z M9.172,18.879
	c-0.406,0.142-1.145,0.392-2.038,0.691L5.43,17.866c0.3-0.894,0.55-1.633,0.691-2.038L9.172,18.879z M5.075,18.926l0.999,0.999
	c-0.493,0.164-1,0.333-1.498,0.499C4.742,19.926,4.911,19.418,5.075,18.926z M12.774,15.812l-2.421,2.421
	c-0.06,0.06-0.151,0.119-0.235,0.179l-3.53-3.529c0.06-0.084,0.12-0.176,0.179-0.235l7.131-7.131l2.732,2.732l-3.691,3.691
	C12.427,14.452,12.39,15.229,12.774,15.812z M18.854,10.854l-4.5,4.5C14.256,15.451,14.128,15.5,14,15.5s-0.256-0.049-0.354-0.146
	c-0.195-0.195-0.195-0.512,0-0.707l4.5-4.5c0.195-0.195,0.512-0.195,0.707,0S19.049,10.658,18.854,10.854z M18.96,9.09
	c-0.519-0.168-1.108-0.062-1.521,0.35l-0.102,0.102l-2.732-2.732l0.078-0.078c0.009-0.008,0.018-0.017,0.026-0.025
	c0.959-0.955,2.627-0.956,3.583,0.002c0.479,0.479,0.743,1.116,0.743,1.793C19.036,8.702,19.005,8.897,18.96,9.09z"/>
</svg>
