<?xml version="1.0" encoding="iso-8859-1"?>
<!-- Generator: Adobe Illustrator 16.2.1, SVG Export Plug-In . SVG Version: 6.00 Build 0)  -->
<svg version="1.2" baseProfile="tiny" id="Layer_1" xmlns="http://www.w3.org/2000/svg" xmlns:xlink="http://www.w3.org/1999/xlink"
	 x="0px" y="0px" width="24px" height="24px" viewBox="0 0 24 24" xml:space="preserve">
<path d="M21,6.879L17.121,3c-0.293-0.293-0.678-0.439-1.061-0.439C15.676,2.561,15.293,2.707,15,3L4.061,13.939
	c-0.293,0.293-0.558,0.727-0.75,1.188C3.119,15.59,3,16.086,3,16.5V21h4.5c0.414,0,0.908-0.119,1.371-0.311
	c0.463-0.192,0.896-0.457,1.189-0.75L21,9c0.293-0.293,0.439-0.678,0.439-1.061C21.439,7.555,21.293,7.172,21,6.879z M5.768,15.061
	l8.293-8.293L15.293,8L7,16.293L5.768,15.061z M7.5,19H6l-1-1v-1.5c0-0.077,0.033-0.305,0.158-0.605
	c0.01-0.02,2.967,2.938,2.967,2.938C7.803,18.967,7.577,19,7.5,19z M8.939,18.232L7.707,17L16,8.707l1.232,1.232L8.939,18.232z
	 M17.939,9.232l-3.172-3.172l1.293-1.293l3.17,3.172L17.939,9.232z"/>
</svg>
