<?xml version="1.0" encoding="iso-8859-1"?>
<!-- Generator: Adobe Illustrator 16.2.1, SVG Export Plug-In . SVG Version: 6.00 Build 0)  -->
<!DOCTYPE svg PUBLIC "-//W3C//DTD SVG 1.1//EN" "http://www.w3.org/Graphics/SVG/1.1/DTD/svg11.dtd">
<svg version="1.1" id="Layer_1" xmlns="http://www.w3.org/2000/svg" xmlns:xlink="http://www.w3.org/1999/xlink" x="0px" y="0px"
	 width="24px" height="24px" viewBox="0 0 24 24" style="enable-background:new 0 0 24 24;" xml:space="preserve">
<path d="M22,6.879L18.121,3c-0.293-0.293-0.677-0.439-1.061-0.439S16.293,2.707,16,3L5.061,13.939
	c-0.293,0.293-0.558,0.727-0.75,1.189S4,16.086,4,16.5V21h4.5c0.414,0,0.908-0.119,1.371-0.311s0.896-0.457,1.189-0.75L22,9
	c0.293-0.293,0.439-0.678,0.439-1.061C22.439,7.555,22.293,7.172,22,6.879z M6.768,15.061l8.293-8.293L16.293,8L8,16.293
	L6.768,15.061z M8.5,19H7l-1-1v-1.5c0-0.077,0.033-0.304,0.158-0.605c0.003-0.008,0.006-0.012,0.01-0.02l2.957,2.957
	c-0.007,0.003-0.01,0.006-0.018,0.009C8.803,18.967,8.577,19,8.5,19z M9.939,18.232L8.707,17L17,8.707l1.232,1.232L9.939,18.232z
	 M18.939,9.232l-3.172-3.172l1.293-1.293l3.171,3.172L18.939,9.232z"/>
</svg>
