<svg height="1000px" width="666.9921875px" xmlns="http://www.w3.org/2000/svg">
  <g>
    <path d="M0 825.1953125c0 0 0 -208.496 0 -208.496c0 0 333.496 -333.496 333.496 -333.496c0 0 208.496 208.496 208.496 208.496c0 0 -333.496 333.496 -333.496 333.496c0 0 -208.496 0 -208.496 0c0 0 0 0 0 0m83.496 -83.496c0 0 125 0 125 0c0 0 -125 -125 -125 -125c0 0 0 125 0 125c0 0 0 0 0 0m291.504 -500c0 0 83.496 -83.496 83.496 -83.496c0 0 208.496 208.496 208.496 208.496c0 0 -83.496 83.496 -83.496 83.496c0 0 -208.496 -208.496 -208.496 -208.496" />
  </g>
</svg>