<?xml version="1.0" encoding="iso-8859-1"?>
<!-- Generator: Adobe Illustrator 16.2.1, SVG Export Plug-In . SVG Version: 6.00 Build 0)  -->
<svg version="1.2" baseProfile="tiny" id="Layer_1" xmlns="http://www.w3.org/2000/svg" xmlns:xlink="http://www.w3.org/1999/xlink"
	 x="0px" y="0px" width="24px" height="24px" viewBox="0 0 24 24" xml:space="preserve">
<g>
	<path d="M18.707,8.535c-0.391-0.391-1.023-0.391-1.414,0c-1.264,1.264-3.321,1.264-4.586,0c-2.045-2.044-5.371-2.042-7.414,0
		c-0.391,0.391-0.391,1.023,0,1.414s1.023,0.391,1.414,0C7.081,9.575,7.527,9.325,8,9.173V17c0,0.553,0.447,1,1,1s1-0.447,1-1V9.174
		c0.472,0.152,0.919,0.401,1.293,0.775c0.768,0.767,1.715,1.245,2.707,1.437V17c0,0.553,0.447,1,1,1s1-0.447,1-1v-5.614
		c0.992-0.191,1.939-0.67,2.707-1.437C19.098,9.559,19.098,8.926,18.707,8.535z"/>
</g>
</svg>
