<?xml version="1.0" encoding="iso-8859-1"?>
<!-- Generator: Adobe Illustrator 16.2.1, SVG Export Plug-In . SVG Version: 6.00 Build 0)  -->
<!DOCTYPE svg PUBLIC "-//W3C//DTD SVG 1.1//EN" "http://www.w3.org/Graphics/SVG/1.1/DTD/svg11.dtd">
<svg version="1.1" id="Layer_1" xmlns="http://www.w3.org/2000/svg" xmlns:xlink="http://www.w3.org/1999/xlink" x="0px" y="0px"
	 width="24px" height="24px" viewBox="0 0 24 24" style="enable-background:new 0 0 24 24;" xml:space="preserve">
<path d="M21.436,7.586l-3.998-4.02c-0.752-0.756-2.064-0.763-2.83-0.006c-0.197,0.197-0.35,0.436-0.419,0.63
	c-0.653,1.362-1.354,2.214-2.253,2.726l-0.217,0.105C10.751,7.506,9.434,8,7,8C6.735,8,6.478,8.052,6.235,8.152
	C5.75,8.354,5.355,8.747,5.152,9.236c-0.199,0.484-0.199,1.041,0,1.526c0.104,0.249,0.251,0.47,0.435,0.651l3.235,3.235L5,20
	l5.351-3.822l3.227,3.227c0.186,0.189,0.407,0.338,0.657,0.44C14.481,19.948,14.738,20,15,20s0.519-0.052,0.765-0.154
	c0.497-0.206,0.882-0.592,1.08-1.078C16.946,18.525,17,18.261,17,18c0-2.436,0.494-3.752,0.978-4.72
	c0.496-0.993,1.369-1.749,2.753-2.415c0.271-0.104,0.51-0.256,0.711-0.457C22.216,9.626,22.212,8.358,21.436,7.586z M16.188,12.387
	c-0.82,1.642-1.188,3.37-1.196,5.604L7,10c2.139,0,3.815-0.335,5.396-1.084l0.236-0.105c1.399-0.699,2.467-1.893,3.387-3.834
	l3.925,4.051C18.08,9.921,16.887,10.988,16.188,12.387z"/>
</svg>
