<svg height="1000px" width="533.203125px" xmlns="http://www.w3.org/2000/svg">
  <g>
    <path d="M0 716.796875c0 0 158.203 -170.898 158.203 -170.898c0 0 -16.601 -20.997 -16.601 -20.997c-8.464 -5.533 -20.997 -16.601 -37.598 -33.203c-52.734 -52.734 -79.102 -81.868 -79.102 -87.402c0 -5.534 8.301 -8.301 24.903 -8.301c0 0 17.09 0 17.09 0c0 0 16.601 0 16.601 0c0 0 12.207 0 12.207 0c55.664 0 94.564 -5.534 116.699 -16.601c2.93 -2.93 15.463 -8.627 37.598 -17.09c13.997 -5.534 29.297 -12.37 45.898 -20.508c2.93 -2.93 7.813 -7.161 14.649 -12.695c6.836 -5.534 13.021 -11.068 18.555 -16.602c11.067 -16.601 16.601 -30.436 16.601 -41.504c-2.93 -11.067 -4.232 -19.531 -3.906 -25.39c0 -25.066 4.15 -37.517 12.451 -37.354c8.301 0.163 38.818 26.611 91.553 79.346c58.268 52.734 87.402 84.635 87.402 95.703c-8.463 8.463 -18.066 12.695 -28.808 12.695c0 0 -8.79 0 -8.79 0c0 0 -12.207 0 -12.207 0c0 0 -12.695 0 -12.695 0c-11.068 0 -24.902 5.534 -41.504 16.602c-13.997 13.997 -23.763 25.065 -29.297 33.203c-8.463 16.601 -15.299 31.901 -20.507 45.898c-2.93 8.464 -7.162 16.765 -12.696 24.903c0 0 -4.394 8.3 -4.394 8.3c-8.464 11.068 -12.533 25.066 -12.207 41.993c-5.534 22.135 -8.301 34.505 -8.301 37.109c0 0 0 12.695 0 12.695c0 0 0 33.203 0 33.203c0 0 3.906 37.598 3.906 37.598c0 13.998 -5.534 20.996 -16.601 20.996c-5.534 0 -23.601 -15.299 -54.2 -45.898c0 0 -37.597 -37.598 -37.597 -37.598c0 0 -37.11 -37.598 -37.11 -37.598c0 0 -20.996 -20.507 -20.996 -20.507c0 0 -179.199 149.902 -179.199 149.902" />
  </g>
</svg>