<?xml version="1.0" encoding="iso-8859-1"?>
<!-- Generator: Adobe Illustrator 16.2.1, SVG Export Plug-In . SVG Version: 6.00 Build 0)  -->
<svg version="1.2" baseProfile="tiny" id="Layer_1" xmlns="http://www.w3.org/2000/svg" xmlns:xlink="http://www.w3.org/1999/xlink"
	 x="0px" y="0px" width="24px" height="24px" viewBox="0 0 24 24" xml:space="preserve">
<path d="M21.384,7.331c0.073-1.199-0.354-2.388-1.146-3.179C19.506,3.421,18.445,3,17.326,3c-1.176,0-2.206,0.453-2.825,1.243
	c-0.692,0.883-1.392,2.625-1.769,3.647l-1.616-1.617c-0.392-0.391-1.023-0.391-1.414,0c-0.392,0.392-0.392,1.023,0,1.414L9.995,7.98
	l-5.231,5.232c-0.375,0.375-0.719,0.912-0.968,1.516c-0.019,0.043-1.726,4.328-0.093,5.959c0.527,0.526,1.33,0.707,2.178,0.707
	c1.778-0.002,3.753-0.787,3.783-0.801c0.602-0.248,1.141-0.592,1.514-0.967l5.232-5.232l0.293,0.293
	c0.195,0.195,0.451,0.293,0.707,0.293s0.512-0.098,0.707-0.293c0.391-0.391,0.391-1.022,0-1.414L16.5,11.657
	c1.023-0.376,2.766-1.075,3.648-1.769C20.869,9.326,21.318,8.395,21.384,7.331z M5.119,19.275c-0.247-0.295-0.105-1.508,0.154-2.58
	l2.422,2.423C6.624,19.379,5.412,19.521,5.119,19.275z M9.764,18.214c-0.188,0.188-0.511,0.388-0.865,0.533
	c-0.034,0.015-0.08,0.028-0.116,0.042l-3.181-3.18c0.016-0.037,0.028-0.082,0.043-0.117c0.146-0.354,0.346-0.678,0.533-0.864
	l5.232-5.231l3.586,3.586L9.764,18.214z"/>
</svg>
