<?xml version="1.0" encoding="iso-8859-1"?>
<!-- Generator: Adobe Illustrator 16.2.1, SVG Export Plug-In . SVG Version: 6.00 Build 0)  -->
<!DOCTYPE svg PUBLIC "-//W3C//DTD SVG 1.1//EN" "http://www.w3.org/Graphics/SVG/1.1/DTD/svg11.dtd">
<svg version="1.1" id="Layer_1" xmlns="http://www.w3.org/2000/svg" xmlns:xlink="http://www.w3.org/1999/xlink" x="0px" y="0px"
	 width="24px" height="24px" viewBox="0 0 24 24" style="enable-background:new 0 0 24 24;" xml:space="preserve">
<path d="M21.384,7.331c0.073-1.199-0.355-2.388-1.146-3.178C19.506,3.421,18.445,3,17.327,3c-1.176,0-2.206,0.453-2.825,1.243
	c-0.692,0.883-1.391,2.625-1.768,3.648l-1.617-1.617c-0.391-0.391-1.023-0.391-1.414,0s-0.391,1.023,0,1.414l0.293,0.293
	l-5.232,5.232c-0.375,0.375-0.718,0.912-0.967,1.515c-0.018,0.043-1.725,4.328-0.093,5.96c0.527,0.526,1.33,0.706,2.178,0.706
	c1.778-0.001,3.753-0.787,3.783-0.8c0.602-0.249,1.14-0.592,1.514-0.967l5.232-5.232l0.293,0.293
	c0.195,0.195,0.451,0.293,0.707,0.293s0.512-0.098,0.707-0.293c0.391-0.391,0.391-1.023,0-1.414L16.5,11.657
	c1.023-0.376,2.765-1.075,3.648-1.768C20.869,9.326,21.319,8.394,21.384,7.331z M5.119,19.276c-0.247-0.296-0.106-1.508,0.154-2.581
	l2.423,2.423C6.624,19.379,5.412,19.521,5.119,19.276z M9.764,18.214c-0.188,0.188-0.511,0.387-0.865,0.533
	c-0.035,0.015-0.08,0.028-0.117,0.042l-3.18-3.179c0.015-0.038,0.028-0.083,0.043-0.118c0.146-0.354,0.345-0.677,0.533-0.864
	l5.232-5.232l3.586,3.586L9.764,18.214z"/>
</svg>
