<?xml version="1.0" encoding="iso-8859-1"?>
<!-- Generator: Adobe Illustrator 16.2.1, SVG Export Plug-In . SVG Version: 6.00 Build 0)  -->
<!DOCTYPE svg PUBLIC "-//W3C//DTD SVG 1.1//EN" "http://www.w3.org/Graphics/SVG/1.1/DTD/svg11.dtd">
<svg version="1.1" id="Layer_1" xmlns="http://www.w3.org/2000/svg" xmlns:xlink="http://www.w3.org/1999/xlink" x="0px" y="0px"
	 width="24px" height="24px" viewBox="0 0 24 24" style="enable-background:new 0 0 24 24;" xml:space="preserve">
<path d="M20.988,12.396L16,9.545V4.75c0-1.93-1.57-3.5-3.5-3.5S9,2.82,9,4.75v4.795l-4.988,2.851
	c-1.317,0.752-1.865,2.371-1.276,3.769c0.589,1.399,2.132,2.135,3.589,1.72L9,17.12v0.838l-0.874,0.699
	c-1.161,0.929-1.467,2.568-0.718,3.853c0.749,1.285,2.326,1.827,3.706,1.275l1.386-0.555l1.386,0.555
	C14.25,23.931,14.627,24,14.999,24c1.041,0,2.042-0.544,2.593-1.49c0.749-1.285,0.443-2.924-0.718-3.853L16,17.958V17.12
	l2.676,0.765C18.95,17.963,19.228,18,19.501,18c1.18,0,2.285-0.7,2.764-1.836C22.854,14.766,22.306,13.148,20.988,12.396z
	 M20.422,15.388C20.262,15.767,19.894,16,19.5,16c-0.091,0-0.184-0.012-0.274-0.039L14,14.469v4.451l1.625,1.3
	c0.387,0.31,0.488,0.856,0.239,1.284C15.681,21.819,15.347,22,15,22c-0.124,0-0.25-0.023-0.371-0.071L12.5,21.077l-2.129,0.852
	c-0.459,0.183-0.986,0.003-1.235-0.425s-0.147-0.975,0.239-1.284l1.625-1.3v-4.451l-5.226,1.493
	c-0.485,0.14-0.999-0.107-1.196-0.573c-0.196-0.466-0.014-1.005,0.426-1.256L11,10.706V4.75c0-0.827,0.673-1.5,1.5-1.5
	S14,3.923,14,4.75v5.956l5.996,3.426C20.436,14.383,20.618,14.922,20.422,15.388z"/>
<g>
	<circle cx="12.5" cy="4.5" r="0.5"/>
</g>
</svg>
