<?xml version="1.0" encoding="iso-8859-1"?>
<!-- Generator: Adobe Illustrator 16.2.1, SVG Export Plug-In . SVG Version: 6.00 Build 0)  -->
<svg version="1.2" baseProfile="tiny" xmlns="http://www.w3.org/2000/svg" xmlns:xlink="http://www.w3.org/1999/xlink" x="0px"
	 y="0px" width="24px" height="24px" viewBox="0 0 24 24" xml:space="preserve">
<g id="Layer_1">
	<path d="M20.988,12.396L16,9.545V4.75c0-1.93-1.57-3.5-3.5-3.5S9,2.82,9,4.75v4.795l-4.988,2.851
		c-1.317,0.752-1.865,2.371-1.276,3.769c0.589,1.399,2.132,2.135,3.589,1.72L9,17.12v0.838l-0.874,0.699
		c-1.198,0.959-1.48,2.667-0.653,3.959c0.827,1.293,2.494,1.753,3.869,1.066c0.004-0.001,0.5-0.183,1.158-0.183
		s1.154,0.182,1.158,0.183c1.375,0.687,3.042,0.227,3.869-1.066c0.827-1.292,0.545-3-0.653-3.959L16,17.958V17.12l2.676,0.765
		c1.457,0.415,3-0.321,3.589-1.72C22.854,14.766,22.306,13.148,20.988,12.396z M20.422,15.388c-0.197,0.466-0.711,0.713-1.196,0.573
		L14,14.469v4.451l1.625,1.3c0.399,0.319,0.493,0.889,0.218,1.32c-0.275,0.43-0.828,0.583-1.29,0.355
		C14.545,21.891,13.729,21.5,12.5,21.5s-2.045,0.391-2.053,0.395c-0.462,0.227-1.015,0.074-1.29-0.355
		c-0.275-0.431-0.182-1,0.218-1.32l1.625-1.3v-4.451l-5.226,1.493c-0.485,0.14-0.999-0.107-1.196-0.573
		c-0.196-0.466-0.014-1.005,0.426-1.256L11,10.706V4.75c0-0.827,0.673-1.5,1.5-1.5S14,3.923,14,4.75v5.956l5.996,3.426
		C20.436,14.383,20.618,14.922,20.422,15.388z"/>
	<circle cx="12.5" cy="4.5" r="0.5"/>
</g>
<g id="nyt_x5F_exporter_x5F_info" display="none">
</g>
</svg>
