<?xml version="1.0" encoding="iso-8859-1"?>
<!-- Generator: Adobe Illustrator 16.2.1, SVG Export Plug-In . SVG Version: 6.00 Build 0)  -->
<!DOCTYPE svg PUBLIC "-//W3C//DTD SVG 1.1//EN" "http://www.w3.org/Graphics/SVG/1.1/DTD/svg11.dtd">
<svg version="1.1" id="Layer_1" xmlns="http://www.w3.org/2000/svg" xmlns:xlink="http://www.w3.org/1999/xlink" x="0px" y="0px"
	 width="24px" height="24px" viewBox="0 0 24 24" style="enable-background:new 0 0 24 24;" xml:space="preserve">
<path d="M18,6h-1V3c0-0.553-0.447-1-1-1h-2c-0.553,0-1,0.447-1,1v3h-2V3c0-0.553-0.447-1-1-1H8C7.447,2,7,2.447,7,3v3H6
	C5.447,6,5,6.447,5,7v4c0,0.06,0.023,0.111,0.034,0.168C5.271,13.666,6.83,15.779,9,16.814V17.5V18v2c0,1.104,0.896,2,2,2h2
	c1.104,0,2-0.896,2-2v-2v-0.5v-0.686c2.17-1.035,3.729-3.148,3.966-5.646C18.977,11.111,19,11.06,19,11V7C19,6.447,18.553,6,18,6z
	 M14,3h2v3h-2V3z M8,3h2v3H8V3z M13,20h-2v-2h2V20z M12,15.5c-2.23,0-4.104-1.479-4.744-3.5h9.488C16.104,14.021,14.23,15.5,12,15.5
	z M16.949,11H7.051C7.033,10.833,7,10.671,7,10.5V8h10v2.5C17,10.671,16.967,10.833,16.949,11z"/>
</svg>
