<?xml version="1.0" encoding="iso-8859-1"?>
<!-- Generator: Adobe Illustrator 16.2.1, SVG Export Plug-In . SVG Version: 6.00 Build 0)  -->
<svg version="1.2" baseProfile="tiny" xmlns="http://www.w3.org/2000/svg" xmlns:xlink="http://www.w3.org/1999/xlink" x="0px"
	 y="0px" width="24px" height="24px" viewBox="0 0 24 24" xml:space="preserve">
<g id="Layer_1">
	<g>
		<path d="M12,17.5c-3.859,0-7-3.141-7-7h2c0,2.757,2.243,5,5,5s5-2.243,5-5h2C19,14.359,15.859,17.5,12,17.5z"/>
	</g>
	<g>
		<path d="M18,12c-0.553,0-1-0.447-1-1V8H7v3c0,0.553-0.447,1-1,1s-1-0.447-1-1V7c0-0.553,0.447-1,1-1h12c0.553,0,1,0.447,1,1v4
			C19,11.553,18.553,12,18,12z"/>
	</g>
	<g>
		<path d="M10,3v3H8V3H10 M10,2H8C7.447,2,7,2.447,7,3v3c0,0.553,0.447,1,1,1h2c0.553,0,1-0.447,1-1V3C11,2.447,10.553,2,10,2z"/>
	</g>
	<g>
		<path d="M13,17.5V20h-2v-2.5h1H13 M13,15.5h-1h-1c-1.104,0-2,0.896-2,2V20c0,1.104,0.896,2,2,2h2c1.104,0,2-0.896,2-2v-2.5
			C15,16.396,14.104,15.5,13,15.5z"/>
	</g>
	<g>
		<path d="M16,3v3h-2V3H16 M16,2h-2c-0.553,0-1,0.447-1,1v3c0,0.553,0.447,1,1,1h2c0.553,0,1-0.447,1-1V3C17,2.447,16.553,2,16,2z"
			/>
	</g>
	<g>
		<path d="M18,12H6c-0.276,0-0.5-0.224-0.5-0.5S5.724,11,6,11h12c0.276,0,0.5,0.224,0.5,0.5S18.276,12,18,12z"/>
	</g>
	<g>
		<path fill="#FFFFFF" d="M12,16.5c-0.343,0-0.677-0.035-1-0.101V18h2v-1.601C12.677,16.465,12.343,16.5,12,16.5z"/>
	</g>
	<g>
		<rect x="9" y="16" width="1" height="2"/>
	</g>
	<g>
		<rect x="14" y="16" width="1" height="2"/>
	</g>
</g>
<g id="nyt_x5F_exporter_x5F_info" display="none">
</g>
</svg>
