<svg version="1.2" baseProfile="tiny" xmlns="http://www.w3.org/2000/svg" width="24" height="24" viewBox="0 0 24 24"><g><path d="M12 17.5c-3.859 0-7-3.141-7-7h2c0 2.757 2.243 5 5 5s5-2.243 5-5h2c0 3.859-3.141 7-7 7zM18 12c-.553 0-1-.447-1-1v-3h-10v3c0 .553-.447 1-1 1s-1-.447-1-1v-4c0-.553.447-1 1-1h12c.553 0 1 .447 1 1v4c0 .553-.447 1-1 1zM10 3v3h-2v-3h2m0-1h-2c-.553 0-1 .447-1 1v3c0 .553.447 1 1 1h2c.553 0 1-.447 1-1v-3c0-.553-.447-1-1-1zM13 17.5v2.5h-2v-2.5h2m0-2h-2c-1.104 0-2 .896-2 2v2.5c0 1.104.896 2 2 2h2c1.104 0 2-.896 2-2v-2.5c0-1.104-.896-2-2-2zM16 3v3h-2v-3h2m0-1h-2c-.553 0-1 .447-1 1v3c0 .553.447 1 1 1h2c.553 0 1-.447 1-1v-3c0-.553-.447-1-1-1zM18 12h-12c-.276 0-.5-.224-.5-.5s.224-.5.5-.5h12c.276 0 .5.224.5.5s-.224.5-.5.5z"/><path fill="#fff" d="M12 16.5c-.343 0-.677-.035-1-.101v1.601h2v-1.601c-.323.066-.657.101-1 .101z"/><path d="M9 16h1v2h-1zM14 16h1v2h-1z"/></g></svg>