<?xml version="1.0" encoding="iso-8859-1"?>
<!-- Generator: Adobe Illustrator 16.2.1, SVG Export Plug-In . SVG Version: 6.00 Build 0)  -->
<svg version="1.2" baseProfile="tiny" id="Layer_1" xmlns="http://www.w3.org/2000/svg" xmlns:xlink="http://www.w3.org/1999/xlink"
	 x="0px" y="0px" width="24px" height="24px" viewBox="0 0 24 24" xml:space="preserve">
<g>
	<path d="M12,21c-1.654,0-3-1.346-3-3l0.053-3.053L6.018,15C4.346,15,3,13.654,3,12c0-1.654,1.346-3,3-3l3.053-0.054L9,6.018
		C9,4.346,10.346,3,12,3c1.654,0,3,1.346,3,3l0.055,2.946L18.018,9C19.654,9,21,10.346,21,12c0,1.654-1.346,3-3,3l-2.945-0.053
		L15,18.018C15,19.654,13.654,21,12,21z M11,13v5.018C11,18.551,11.449,19,12,19s1-0.449,1-1v-5h5.018C18.551,13,19,12.551,19,12
		s-0.449-1-1-1h-5V6c0-0.569-0.449-1-1-1s-1,0.449-1,1v5H6c-0.569,0-1,0.449-1,1s0.449,1,1,1H11z"/>
</g>
</svg>
