<?xml version="1.0" encoding="iso-8859-1"?>
<!-- Generator: Adobe Illustrator 16.2.1, SVG Export Plug-In . SVG Version: 6.00 Build 0)  -->
<!DOCTYPE svg PUBLIC "-//W3C//DTD SVG 1.1//EN" "http://www.w3.org/Graphics/SVG/1.1/DTD/svg11.dtd">
<svg version="1.1" id="Layer_1" xmlns="http://www.w3.org/2000/svg" xmlns:xlink="http://www.w3.org/1999/xlink" x="0px" y="0px"
	 width="24px" height="24px" viewBox="0 0 24 24" style="enable-background:new 0 0 24 24;" xml:space="preserve">
<path d="M16.5,6h-0.759C15.6,4.018,13.788,2.5,11.5,2.5S7.4,4.018,7.259,6H6.5C4.57,6,3,7.57,3,9.5V11v0.25v4.5V16v2.5
	C3,20.43,4.57,22,6.5,22H9h0.25h4.5H14h2.5c1.93,0,3.5-1.57,3.5-3.5V16v-0.25v-4.5V11V9.5C20,7.57,18.43,6,16.5,6z M18,18.5
	c0,0.825-0.675,1.5-1.5,1.5h-2.75c-0.356,0-0.724-0.216-0.391-0.766c0.246-0.28,0.391-0.619,0.391-0.984
	c0-0.967-1.007-1.75-2.25-1.75s-2.25,0.747-2.25,1.713c0,0.3,0.095,0.787,0.255,0.787H9.493c0.519,1,0.147,1-0.243,1H6.5
	C5.675,20,5,19.325,5,18.5v-2.75c0-0.258,0.113-0.521,0.384-0.521c0.104,0,0.229,0.039,0.382,0.13
	c0.28,0.246,0.62,0.391,0.984,0.391c0.966,0,1.75-1.008,1.75-2.25s-0.748-2.25-1.714-2.25C6.486,11.25,6,11.345,6,11.505v-0.011
	c0,0.182-0.458,0.254-0.599,0.254C5.143,11.748,5,11.503,5,11.25V9.5C5,8.675,5.675,8,6.5,8h2.75c0.391,0,0.762,0,0.243-1h0.012
	C9.345,7,9.25,6.513,9.25,6.213c0-0.967,1.007-1.732,2.25-1.732s2.25,0.792,2.25,1.759c0,0.365-0.145,0.709-0.391,0.989
	C13.026,7.78,13.394,8,13.75,8h2.75C17.325,8,18,8.675,18,9.5v1.75c0,0.258-0.113,0.521-0.384,0.521
	c-0.104,0-0.229-0.039-0.382-0.13c-0.28-0.246-0.62-0.391-0.984-0.391c-0.966,0-1.75,1.008-1.75,2.25s0.748,2.25,1.714,2.25
	c0.3,0,0.786-0.095,0.786-0.255v0.011c0-0.182,0.458-0.254,0.599-0.254c0.259,0,0.401,0.245,0.401,0.498V18.5z"/>
</svg>
