<svg height="1000px" width="500px" xmlns="http://www.w3.org/2000/svg">
  <g>
    <path d="M0 750c0 0 0 -166.504 0 -166.504c0 -13.997 2.767 -20.996 8.301 -20.996c5.534 2.93 11.8 7.161 18.799 12.695c6.998 5.534 11.8 8.301 14.404 8.301c5.534 5.534 16.764 8.301 33.691 8.301c19.532 0 34.831 -9.766 45.899 -29.297c11.067 -19.531 16.601 -40.365 16.601 -62.5c0 -22.135 -5.615 -42.969 -16.845 -62.5c-11.231 -19.531 -26.449 -29.297 -45.655 -29.297c-16.601 0 -30.599 4.232 -41.992 12.695c-13.997 11.068 -22.298 16.602 -24.902 16.602c-5.534 -5.534 -8.301 -12.533 -8.301 -20.996c0 0 0 -83.008 0 -83.008c0 -25.065 16.602 -40.364 49.805 -45.898c0 0 45.898 0 45.898 0c0 0 41.992 0 41.992 0c11.068 2.929 20.671 4.231 28.809 3.906c13.997 0 20.996 -4.069 20.996 -12.207c-2.93 -2.93 -7.161 -7.813 -12.695 -14.649c-5.534 -6.836 -8.301 -11.718 -8.301 -14.648c-5.534 -5.534 -8.301 -16.602 -8.301 -33.203c0 -19.531 9.766 -34.831 29.297 -45.899c19.531 -11.067 40.365 -16.601 62.5 -16.601c22.135 0 42.969 5.534 62.5 16.601c19.531 11.068 29.297 26.368 29.297 45.899c0 16.601 -4.232 30.436 -12.695 41.504c0 0 -16.602 20.996 -16.602 20.996c2.93 8.463 15.462 12.532 37.598 12.207c0 0 66.406 0 66.406 0c25.065 -5.534 44.596 -4.069 58.594 4.394c16.601 8.464 24.902 20.997 24.902 37.598c0 0 0 83.008 0 83.008c0 13.997 -2.767 20.996 -8.301 20.996c-5.534 -2.93 -11.8 -7.161 -18.799 -12.695c-6.998 -5.534 -11.8 -8.301 -14.404 -8.301c-5.534 -5.534 -16.764 -8.301 -33.691 -8.301c-19.532 0 -34.831 9.766 -45.899 29.297c-11.067 19.531 -16.601 40.365 -16.601 62.5c0 22.135 5.615 42.969 16.845 62.5c11.231 19.531 26.449 29.297 45.655 29.297c13.997 0 29.297 -4.232 45.898 -12.695c11.068 -11.068 18.067 -16.602 20.996 -16.602c5.534 5.534 8.301 12.533 8.301 20.996c0 0 0 166.504 0 166.504c0 27.669 -13.835 41.504 -41.504 41.504c0 0 -125 0 -125 0c-13.997 0 -20.996 -4.069 -20.996 -12.207c2.93 -2.93 7.161 -7.813 12.695 -14.649c5.534 -6.836 8.301 -11.718 8.301 -14.648c5.534 -5.534 8.301 -16.602 8.301 -33.203c0 -19.531 -9.766 -34.831 -29.297 -45.899c-19.531 -11.067 -40.365 -16.601 -62.5 -16.601c-22.135 0 -42.969 5.534 -62.5 16.601c-19.531 11.068 -29.297 26.368 -29.297 45.899c0 16.601 4.232 30.436 12.695 41.504c0 0 16.602 20.996 16.602 20.996c-2.93 8.463 -9.928 12.532 -20.996 12.207c0 0 -125 0 -125 0c-27.669 0 -41.504 -13.835 -41.504 -41.504c0 0 0 0 0 0" />
  </g>
</svg>