<?xml version="1.0" encoding="iso-8859-1"?>
<!-- Generator: Adobe Illustrator 16.2.1, SVG Export Plug-In . SVG Version: 6.00 Build 0)  -->
<svg version="1.2" baseProfile="tiny" id="Layer_1" xmlns="http://www.w3.org/2000/svg" xmlns:xlink="http://www.w3.org/1999/xlink"
	 x="0px" y="0px" width="24px" height="24px" viewBox="0 0 24 24" xml:space="preserve">
<g>
	<path d="M16.25,11.25c0.364,0,0.704,0.145,0.984,0.391C17.783,11.973,18,11.607,18,11.25V9.5C18,8.675,17.325,8,16.5,8h-2.75
		c-0.356,0-0.724-0.216-0.391-0.766c0.246-0.28,0.391-0.619,0.391-0.984c0-0.967-1.007-1.75-2.25-1.75S9.25,5.283,9.25,6.25
		c0,0.3,0.095,0.576,0.255,0.823C10.012,7.746,9.641,8,9.25,8H6.5C5.675,8,5,8.675,5,9.5v1.75c0,0.391,0.254,0.762,0.928,0.244
		C6.174,11.345,6.45,11.25,6.75,11.25c0.966,0,1.75,1.008,1.75,2.25s-0.784,2.25-1.75,2.25c-0.364,0-0.704-0.145-0.984-0.391
		C5.217,15.027,5,15.393,5,15.75v2.75C5,19.325,5.675,20,6.5,20h2.75c0.391,0,0.762-0.254,0.243-0.927
		C9.345,18.826,9.25,18.55,9.25,18.25c0-0.967,1.007-1.75,2.25-1.75s2.25,0.783,2.25,1.75c0,0.365-0.145,0.704-0.391,0.984
		C13.026,19.784,13.394,20,13.75,20h2.75c0.825,0,1.5-0.675,1.5-1.5v-2.75c0-0.391-0.254-0.762-0.928-0.244
		c-0.246,0.149-0.522,0.244-0.822,0.244c-0.966,0-1.75-1.008-1.75-2.25S15.284,11.25,16.25,11.25z"/>
</g>
</svg>
