<?xml version="1.0" encoding="iso-8859-1"?>
<!-- Generator: Adobe Illustrator 16.2.1, SVG Export Plug-In . SVG Version: 6.00 Build 0)  -->
<svg version="1.2" baseProfile="tiny" xmlns="http://www.w3.org/2000/svg" xmlns:xlink="http://www.w3.org/1999/xlink" x="0px"
	 y="0px" width="24px" height="24px" viewBox="0 0 24 24" xml:space="preserve">
<g id="Layer_1">
	<g>
		<path d="M20,11.25V9.5C20,7.57,18.43,6,16.5,6h-0.759C15.6,4.018,13.788,2.5,11.5,2.5S7.4,4.018,7.259,6H6.5C4.57,6,3,7.57,3,9.5
			v1.75c0,1.012,0.514,1.847,1.295,2.246c-0.358,0.188-0.668,0.469-0.894,0.825C3.139,14.735,3,15.229,3,15.75v2.75
			C3,20.43,4.57,22,6.5,22h2.75c0.976,0,1.831-0.497,2.242-1.299c0.013,0.024,0.024,0.046,0.036,0.066
			C11.963,21.539,12.794,22,13.75,22h2.75c1.93,0,3.5-1.57,3.5-3.5v-2.75c0-1.013-0.515-1.849-1.297-2.247
			C19.479,13.092,20,12.247,20,11.25z M18,18.5c0,0.825-0.675,1.5-1.5,1.5h-2.75c-0.356,0-0.724-0.216-0.391-0.766
			c0.246-0.28,0.391-0.619,0.391-0.984c0-0.967-1.007-1.75-2.25-1.75s-2.25,0.783-2.25,1.75c0,0.3,0.095,0.576,0.255,0.823
			C10.012,19.746,9.641,20,9.25,20H6.5C5.675,20,5,19.325,5,18.5v-2.75c0-0.258,0.113-0.521,0.384-0.521
			c0.104,0,0.229,0.039,0.382,0.13c0.28,0.246,0.62,0.391,0.984,0.391c0.966,0,1.75-1.008,1.75-2.25s-0.784-2.25-1.75-2.25
			c-0.3,0-0.576,0.095-0.822,0.255c-0.237,0.171-0.422,0.243-0.562,0.243C5.106,11.748,5,11.503,5,11.25V9.5C5,8.675,5.675,8,6.5,8
			h2.75c0.391,0,0.762-0.254,0.243-0.927C9.345,6.826,9.25,6.55,9.25,6.25c0-0.967,1.007-1.75,2.25-1.75s2.25,0.783,2.25,1.75
			c0,0.365-0.145,0.704-0.391,0.984C13.026,7.784,13.394,8,13.75,8h2.75C17.325,8,18,8.675,18,9.5v1.75
			c0,0.258-0.113,0.521-0.384,0.521c-0.104,0-0.229-0.039-0.382-0.13c-0.28-0.246-0.62-0.391-0.984-0.391
			c-0.966,0-1.75,1.008-1.75,2.25s0.784,2.25,1.75,2.25c0.3,0,0.576-0.095,0.822-0.255c0.237-0.171,0.422-0.244,0.562-0.243
			c0.259,0,0.365,0.245,0.365,0.498V18.5z M5,12.694c0.116,0.032,0.236,0.054,0.365,0.054c0.342,0,0.683-0.119,1.038-0.364
			c0.023-0.013,0.047-0.026,0.069-0.041C6.569,12.28,6.66,12.25,6.75,12.25c0.354,0,0.75,0.535,0.75,1.25s-0.396,1.25-0.75,1.25
			c-0.108,0-0.217-0.048-0.324-0.142c-0.045-0.039-0.092-0.074-0.143-0.104c-0.301-0.183-0.604-0.275-0.899-0.275
			c-0.134,0-0.261,0.023-0.384,0.059V12.694z M17.635,14.252c-0.342,0-0.683,0.119-1.038,0.364
			c-0.023,0.013-0.047,0.026-0.069,0.041c-0.097,0.063-0.188,0.093-0.277,0.093c-0.354,0-0.75-0.535-0.75-1.25s0.396-1.25,0.75-1.25
			c0.108,0,0.217,0.048,0.324,0.142c0.045,0.039,0.092,0.074,0.143,0.104c0.302,0.183,0.604,0.275,0.899,0.275
			c0.136,0,0.262-0.025,0.384-0.062v1.597C17.884,14.274,17.764,14.252,17.635,14.252z M10.692,20
			c0.101-0.346,0.093-0.816-0.305-1.396c-0.014-0.025-0.028-0.05-0.044-0.074c-0.062-0.098-0.094-0.189-0.094-0.279
			c0-0.354,0.534-0.75,1.25-0.75s1.25,0.396,1.25,0.75c0,0.108-0.048,0.217-0.143,0.325c-0.038,0.044-0.073,0.091-0.104,0.142
			c-0.325,0.537-0.311,0.979-0.22,1.284H10.692z"/>
	</g>
</g>
<g id="nyt_x5F_exporter_x5F_info" display="none">
</g>
</svg>
