<?xml version="1.0" encoding="iso-8859-1"?>
<!-- Generator: Adobe Illustrator 16.2.1, SVG Export Plug-In . SVG Version: 6.00 Build 0)  -->
<!DOCTYPE svg PUBLIC "-//W3C//DTD SVG 1.1//EN" "http://www.w3.org/Graphics/SVG/1.1/DTD/svg11.dtd">
<svg version="1.1" id="Layer_1" xmlns="http://www.w3.org/2000/svg" xmlns:xlink="http://www.w3.org/1999/xlink" x="0px" y="0px"
	 width="24px" height="24px" viewBox="0 0 24 24" style="enable-background:new 0 0 24 24;" xml:space="preserve">
<g>
	<path d="M11.997,4.5C7.312,4.5,3.5,8.313,3.5,13s3.813,8.5,8.5,8.5s8.5-3.813,8.5-8.5S16.687,4.5,11.997,4.5z M12,19.5
		c-3.584,0-6.5-2.916-6.5-6.5S8.414,6.5,12,6.5c3.584,0,6.5,2.916,6.5,6.5S15.584,19.5,12,19.5z"/>
	<path d="M15.347,12.031L15.347,12.031C15.398,12.022,15.446,12,15.5,12h0.879c-0.383-1.677-1.7-2.995-3.379-3.378V9.5
		c0,0.551-0.449,1-1,1c-0.497,0-0.892-0.371-0.969-0.846l0,0C11.022,9.602,11,9.555,11,9.5V8.62C9.322,9.002,8.003,10.322,7.62,12
		H8.5c0.054,0,0.101,0.022,0.153,0.031c0,0,0,0,0,0C9.129,12.107,9.5,12.503,9.5,13c0,0.497-0.371,0.892-0.846,0.969l0,0
		C8.602,13.978,8.555,14,8.5,14H7.622c0.384,1.677,1.702,2.995,3.378,3.379V16.5c0-0.055,0.022-0.102,0.031-0.154l0,0
		C11.108,15.871,11.503,15.5,12,15.5c0.497,0,0.892,0.371,0.969,0.847l0,0C12.978,16.398,13,16.446,13,16.5v0.879
		c1.677-0.383,2.996-1.702,3.379-3.379H15.5c-0.055,0-0.102-0.022-0.153-0.031l0,0C14.871,13.892,14.5,13.497,14.5,13
		S14.871,12.108,15.347,12.031z M14.902,14.898c-0.263,0.4-0.603,0.741-1.003,1.003C13.643,15.092,12.893,14.5,12,14.5
		s-1.642,0.592-1.898,1.401c-0.4-0.262-0.74-0.602-1.003-1.002C9.908,14.642,10.5,13.893,10.5,13c0-0.894-0.592-1.643-1.402-1.898
		c0.263-0.4,0.603-0.741,1.004-1.003C10.357,10.908,11.106,11.5,12,11.5s1.643-0.593,1.899-1.403c0.4,0.263,0.741,0.603,1.003,1.004
		C14.092,11.357,13.5,12.106,13.5,13C13.5,13.893,14.092,14.643,14.902,14.898z"/>
</g>
</svg>
