<?xml version="1.0" encoding="iso-8859-1"?>
<!-- Generator: Adobe Illustrator 16.2.1, SVG Export Plug-In . SVG Version: 6.00 Build 0)  -->
<svg version="1.2" baseProfile="tiny" id="Layer_1" xmlns="http://www.w3.org/2000/svg" xmlns:xlink="http://www.w3.org/1999/xlink"
	 x="0px" y="0px" width="24px" height="24px" viewBox="0 0 24 24" xml:space="preserve">
<g>
	<path d="M12.872,13.191H18V8.064c-0.008-1.135-0.671-1.408-1.473-0.605l-1.154,1.158c-1.015-0.795-2.257-1.23-3.566-1.23
		c-1.55,0-3.009,0.604-4.104,1.701C6.604,10.18,6,11.641,6,13.191c0,1.553,0.604,3.012,1.701,4.107
		C8.798,18.395,10.256,19,11.807,19c1.55,0,3.009-0.605,4.106-1.703c0.296-0.297,0.558-0.621,0.78-0.965
		c0.347-0.541,0.19-1.26-0.35-1.605c-0.539-0.346-1.258-0.189-1.604,0.35c-0.133,0.207-0.292,0.4-0.468,0.58
		c-0.659,0.658-1.534,1.02-2.464,1.02c-0.93,0-1.805-0.361-2.464-1.02c-0.657-0.658-1.02-1.533-1.02-2.465
		c0-0.93,0.362-1.805,1.02-2.461c0.659-0.658,1.534-1.021,2.464-1.021c0.688,0,1.346,0.201,1.909,0.572l-1.448,1.451
		C11.465,12.535,11.738,13.191,12.872,13.191z"/>
</g>
</svg>
