<?xml version="1.0" encoding="iso-8859-1"?>
<!-- Generator: Adobe Illustrator 16.2.1, SVG Export Plug-In . SVG Version: 6.00 Build 0)  -->
<!DOCTYPE svg PUBLIC "-//W3C//DTD SVG 1.1//EN" "http://www.w3.org/Graphics/SVG/1.1/DTD/svg11.dtd">
<svg version="1.1" id="Layer_1" xmlns="http://www.w3.org/2000/svg" xmlns:xlink="http://www.w3.org/1999/xlink" x="0px" y="0px"
	 width="24px" height="24px" viewBox="0 0 24 24" style="enable-background:new 0 0 24 24;" xml:space="preserve">
<path d="M17.368,4.998c-0.488,0-1.2,0.144-1.956,0.774C14.376,5.282,13.222,5,12,5c-4.418,0-8,3.582-8,8s3.582,8,8,8
	c4.312,0,8-3.317,8-8c0-0.043,0-4.936,0-4.936C19.985,5.953,18.625,4.998,17.368,4.998z M18,13h-5.128
	c-1.134,0-1.407-0.561-0.604-1.363l1.448-1.403c-0.562-0.371-1.22-0.548-1.909-0.548c-0.93,0-1.805,0.375-2.464,1.033
	c-0.658,0.656-1.02,1.537-1.02,2.467c0,0.932,0.362,1.81,1.02,2.468c0.659,0.658,1.534,1.021,2.464,1.021
	c0.93,0,1.805-0.36,2.464-1.019c0.177-0.18,0.335-0.372,0.468-0.579c0.222-0.345,0.596-0.533,0.979-0.533
	c0.215,0,0.432,0.06,0.625,0.184c0.54,0.346,0.697,1.064,0.35,1.605c-0.222,0.344-0.484,0.668-0.78,0.965
	C14.815,18.395,13.356,19,11.807,19c-1.55,0-3.009-0.605-4.105-1.701C6.604,16.203,6,14.744,6,13.191
	c0-1.551,0.604-3.012,1.702-4.104c1.096-1.098,2.554-1.701,4.104-1.701c1.31,0,2.551,0.436,3.566,1.23l1.154-1.158
	c0.311-0.312,0.602-0.461,0.841-0.461c0.377,0,0.627,0.372,0.632,1.066V13z M10.92,13.05C11.082,13.44,11.55,14,12.872,14h1.299
	c0,0-0.21,0.504-0.614,0.907s-1.087,0.745-1.751,0.745c-0.664,0-1.288-0.246-1.757-0.715c-0.468-0.469-0.727-1.088-0.727-1.752
	c0-0.663,0.258-1.138,0.726-1.604C10.52,11.11,11.144,11,11.807,11c0.023,0-0.247,0.123-0.247,0.123
	C10.626,12.057,10.758,12.659,10.92,13.05z"/>
</svg>
