<?xml version="1.0" encoding="iso-8859-1"?>
<!-- Generator: Adobe Illustrator 16.2.1, SVG Export Plug-In . SVG Version: 6.00 Build 0)  -->
<svg version="1.2" baseProfile="tiny" id="Layer_1" xmlns="http://www.w3.org/2000/svg" xmlns:xlink="http://www.w3.org/1999/xlink"
	 x="0px" y="0px" width="24px" height="24px" viewBox="0 0 24 24" xml:space="preserve">
<path d="M17.368,4.998c-0.488,0-1.2,0.145-1.956,0.773C14.376,5.282,13.223,5,12,5c-4.418,0-8,3.582-8,8s3.582,8,8,8
	c4.312,0,8-3.316,8-8c0-0.043,0-4.936,0-4.936C19.984,5.953,18.625,4.998,17.368,4.998z M18,13h-5.128
	c-1.134,0-1.407-0.561-0.604-1.363l1.448-1.402c-0.562-0.371-1.22-0.549-1.909-0.549c-0.93,0-1.805,0.375-2.464,1.033
	c-0.657,0.656-1.02,1.537-1.02,2.467c0,0.933,0.362,1.811,1.02,2.469c0.659,0.658,1.534,1.021,2.464,1.021s1.805-0.36,2.465-1.019
	c0.177-0.18,0.334-0.372,0.468-0.579c0.222-0.345,0.596-0.533,0.979-0.533c0.216,0,0.433,0.06,0.625,0.185
	c0.54,0.346,0.697,1.063,0.351,1.604c-0.223,0.344-0.484,0.668-0.78,0.965c-1.097,1.099-2.556,1.703-4.106,1.703
	c-1.55,0-3.009-0.604-4.104-1.701c-1.097-1.096-1.701-2.555-1.701-4.106c0-1.551,0.604-3.012,1.702-4.104
	c1.096-1.098,2.554-1.7,4.104-1.7c1.311,0,2.551,0.436,3.566,1.229l1.154-1.158c0.311-0.312,0.602-0.461,0.841-0.461
	c0.377,0,0.627,0.372,0.632,1.065V13z M10.92,13.05c0.162,0.392,0.63,0.95,1.952,0.95h1.299c0,0-0.21,0.504-0.614,0.907
	s-1.086,0.745-1.75,0.745s-1.289-0.246-1.758-0.715c-0.468-0.47-0.727-1.088-0.727-1.752s0.258-1.139,0.726-1.604
	C10.52,11.109,11.145,11,11.807,11c0.023,0-0.246,0.123-0.246,0.123C10.626,12.057,10.758,12.659,10.92,13.05z"/>
</svg>
