<svg height="1000px" width="791.50390625px" xmlns="http://www.w3.org/2000/svg">
  <g>
    <path d="M0 416.50390625c0 0 375 -291.504 375 -291.504c0 0 0 166.504 0 166.504c0 0 3.906 0 3.906 0c13.998 0 39.063 6.999 75.196 20.996c44.596 13.997 75.195 26.53 91.796 37.598c80.404 44.596 141.439 97.33 183.106 158.203c41.667 58.268 62.5 125 62.5 200.195c0 0 0 12.207 0 12.207c0 0 0 29.297 0 29.297c-55.664 -147.135 -164.063 -220.703 -325.195 -220.703c-36.133 0 -66.569 4.069 -91.309 12.207c0 0 0 166.992 0 166.992c0 0 -375 -291.992 -375 -291.992" />
  </g>
</svg>