<svg height="1000px" width="583.0078125px" xmlns="http://www.w3.org/2000/svg">
  <g>
    <path d="M0 791.50390625c0 0 0 -250 0 -250c0 0 83.008 83.496 83.008 83.496c0 0 83.496 -83.496 83.496 -83.496c0 0 83.496 83.496 83.496 83.496c0 0 -83.496 83.496 -83.496 83.496c0 0 83.496 83.008 83.496 83.008c0 0 -250 0 -250 0c0 0 0 0 0 0m0 -333.008c0 0 0 -250 0 -250c0 0 250 0 250 0c0 0 -83.496 83.008 -83.496 83.008c0 0 83.496 83.496 83.496 83.496c0 0 -83.496 83.496 -83.496 83.496c0 0 -83.496 -83.496 -83.496 -83.496c0 0 -83.008 83.496 -83.008 83.496m333.008 166.504c0 0 83.496 -83.496 83.496 -83.496c0 0 83.496 83.496 83.496 83.496c0 0 83.008 -83.496 83.008 -83.496c0 0 0 250 0 250c0 0 -237.305 0 -237.305 0c0 0 70.801 -83.008 70.801 -83.008c0 0 -83.496 -83.496 -83.496 -83.496m0 -250c0 0 83.496 -83.496 83.496 -83.496c0 0 -83.496 -83.008 -83.496 -83.008c0 0 250 0 250 0c0 0 0 250 0 250c0 0 -83.008 -83.496 -83.008 -83.496c0 0 -83.496 83.496 -83.496 83.496c0 0 -83.496 -83.496 -83.496 -83.496" />
  </g>
</svg>