<?xml version="1.0" encoding="iso-8859-1"?>
<!-- Generator: Adobe Illustrator 16.2.1, SVG Export Plug-In . SVG Version: 6.00 Build 0)  -->
<svg version="1.2" baseProfile="tiny" id="Layer_1" xmlns="http://www.w3.org/2000/svg" xmlns:xlink="http://www.w3.org/1999/xlink"
	 x="0px" y="0px" width="24px" height="24px" viewBox="0 0 24 24" xml:space="preserve">
<path d="M8,4.999c-1.657,0-3.011,1.344-3.011,3c0,0.073,0.005,8.795,0.005,9c0,2.209,1.793,4,4.002,4
	c0.184,0,8.908,0.001,9.003,0.001c1.655,0,3-1.346,3-3.001C21,10.82,15.18,4.999,8,4.999z M9.001,18.999C7.896,19.001,7,18.105,7,17
	c-0.002-1.105,0.894-2.001,2.001-2.001C10.106,14.997,11.002,15.893,11,17C11.002,18.105,10.106,19.001,9.001,18.999z M13.5,18.999
	c-0.829,0-1.5-0.671-1.5-1.5c0-1.931-1.57-3.5-3.5-3.5c-0.829,0-1.5-0.671-1.5-1.5s0.671-1.5,1.5-1.5c3.584,0,6.5,2.916,6.5,6.5
	C15,18.328,14.329,18.999,13.5,18.999z M17.5,18.999c-0.829,0-1.5-0.671-1.5-1.5c0-4.136-3.364-7.5-7.5-7.5
	c-0.829,0-1.5-0.671-1.5-1.5s0.671-1.5,1.5-1.5c5.79,0,10.5,4.71,10.5,10.5C19,18.328,18.329,18.999,17.5,18.999z"/>
</svg>
