<?xml version="1.0" encoding="iso-8859-1"?>
<!-- Generator: Adobe Illustrator 16.2.1, SVG Export Plug-In . SVG Version: 6.00 Build 0)  -->
<svg version="1.2" baseProfile="tiny" id="Layer_1" xmlns="http://www.w3.org/2000/svg" xmlns:xlink="http://www.w3.org/1999/xlink"
	 x="0px" y="0px" width="24px" height="24px" viewBox="0 0 24 24" xml:space="preserve">
<path d="M6.002,15.999C4.895,15.999,3.998,16.896,4,18c0,1.104,0.896,2.001,2.002,1.999C7.105,20.001,8.002,19.105,8,18
	C8.002,16.893,7.105,15.997,6.002,15.999z"/>
<path d="M6,4C4.896,4,4,4.896,4,6s0.896,2,2,2c5.514,0,10,4.486,10,10c0,1.104,0.896,2,2,2s2-0.896,2-2C20,10.28,13.72,4,6,4z"/>
<path d="M6,10c-1.104,0-2,0.896-2,2s0.896,2,2,2c2.205,0,4,1.794,4,4c0,1.104,0.896,2,2,2s2-0.896,2-2C14,13.589,10.411,10,6,10z"/>
</svg>
