<svg height="1000px" width="674.8046875px" xmlns="http://www.w3.org/2000/svg">
  <g>
    <path d="M0 279.296875c0 -22.135 6.999 -44.434 20.996 -66.895c16.602 -16.601 35.97 -24.902 58.106 -24.902c22.135 0 42.968 9.766 62.5 29.297c13.997 13.997 27.994 34.831 41.992 62.5c19.531 41.667 36.133 70.801 49.804 87.402c16.602 27.67 40.202 54.037 70.801 79.102c25.065 -22.136 48.666 -49.968 70.801 -83.496c27.669 -38.737 45.736 -66.406 54.199 -83.008c13.998 -25.065 27.832 -47.363 41.504 -66.895c25.065 -19.531 44.596 -29.296 58.594 -29.296c16.601 0 30.436 4.231 41.504 12.695c27.669 -19.531 49.886 -29.297 66.65 -29.297c16.764 0 29.216 5.534 37.354 16.602c0 0 -28.809 -3.907 -28.809 -3.907c-22.135 8.464 -38.9 22.299 -50.293 41.504c11.068 13.998 16.602 32.064 16.602 54.199c0 22.136 -8.301 44.434 -24.903 66.895c-19.531 19.531 -40.364 29.134 -62.5 28.809c-11.067 0 -22.135 -2.767 -33.203 -8.301c-11.067 -5.534 -20.833 -11.068 -29.297 -16.602c0 0 -8.3 -8.301 -8.3 -8.301c-13.998 0 -48.666 52.735 -104.004 158.204c2.929 0 23.763 22.298 62.5 66.894c38.737 44.596 66.569 80.729 83.496 108.399c19.531 33.203 29.134 61.035 28.808 83.496c0 27.669 -8.3 54.036 -24.902 79.101c0 0 -195.801 -262.695 -195.801 -262.695c0 0 -191.894 262.695 -191.894 262.695c-16.602 -25.065 -24.903 -51.513 -24.903 -79.345c0 -27.833 9.766 -55.583 29.297 -83.252c8.464 -16.602 34.831 -52.735 79.102 -108.399c0 0 62.5 -66.894 62.5 -66.894c0 0 -3.906 -3.907 -3.906 -3.907c0 0 -10.743 -20.996 -10.743 -20.996c-4.231 -8.463 -9.114 -15.299 -14.648 -20.508c-5.534 -13.997 -19.369 -39.062 -41.504 -75.195c-13.997 -22.135 -23.763 -33.203 -29.297 -33.203c-2.93 0 -11.23 5.534 -24.902 16.602c-16.602 11.067 -31.901 16.601 -45.899 16.601c-25.065 0 -45.898 -11.068 -62.5 -33.203c-16.601 -16.602 -24.902 -37.435 -24.902 -62.5c0 0 0 0 0 0m33.203 -4.395c0 41.667 19.531 62.5 58.594 62.5c13.997 0 26.53 -4.882 37.598 -14.648c11.067 -9.766 16.601 -21.484 16.601 -35.156c0 -16.602 -6.999 -31.901 -20.996 -45.899c-13.997 -13.997 -27.832 -20.996 -41.504 -20.996c-33.529 0 -50.293 18.067 -50.293 54.199c0 0 0 0 0 0m433.594 8.301c0 13.998 5.534 26.53 16.601 37.598c8.464 8.463 20.997 12.695 37.598 12.695c16.602 0 30.436 -5.534 41.504 -16.601c11.068 -16.602 16.602 -30.599 16.602 -41.993c0 -36.132 -16.602 -54.199 -49.805 -54.199c-19.531 0 -34.831 5.534 -45.899 16.602c-11.067 13.997 -16.601 29.297 -16.601 45.898c0 0 0 0 0 0" />
  </g>
</svg>