<?xml version="1.0" encoding="iso-8859-1"?>
<!-- Generator: Adobe Illustrator 16.2.1, SVG Export Plug-In . SVG Version: 6.00 Build 0)  -->
<svg version="1.2" baseProfile="tiny" id="Layer_1" xmlns="http://www.w3.org/2000/svg" xmlns:xlink="http://www.w3.org/1999/xlink"
	 x="0px" y="0px" width="24px" height="24px" viewBox="0 0 24 24" xml:space="preserve">
<path d="M20.625,5.515c-1-1.522-2.915-1.67-4.397-0.824l-0.186,0.107c-0.025-0.002-0.05-0.003-0.076-0.003
	c-1.042,0-2.01,0.511-2.604,1.369c-0.012,0.015-0.023,0.029-0.034,0.045c-0.43,0.645-0.723,1.236-1.005,1.809
	c-0.255,0.516-0.5,1.01-0.824,1.483c-0.325-0.475-0.57-0.97-0.826-1.486c-0.283-0.571-0.575-1.162-1.004-1.806
	c-0.01-0.016-0.021-0.03-0.033-0.044c-0.593-0.859-1.562-1.37-2.603-1.37c-1.747,0-3.167,1.42-3.167,3.166
	c0,1.747,1.421,3.168,3.167,3.168c0.775,0,1.515-0.287,2.087-0.791l0.652,1.198c-1.621,1.876-2.979,4.054-3.019,4.121
	c-1.236,1.702,0.705,4.42,0.789,4.534c0.094,0.131,0.245,0.207,0.405,0.207c0.204-0.012,0.357-0.11,0.439-0.261l3.112-5.717
	l3.113,5.717c0.082,0.15,0.235,0.249,0.407,0.26c0.174,0.019,0.336-0.066,0.437-0.206c0.083-0.114,2.024-2.832,0.809-4.504
	l-0.323-0.521c-1.076-1.736-1.187-1.916-2.715-3.634l0.651-1.195c0.572,0.504,1.313,0.791,2.088,0.791
	c1.746,0,3.167-1.421,3.167-3.168c0-0.634-0.191-1.246-0.547-1.768c0.472-0.27,0.997-0.123,1.456,0.095
	C20.507,6.478,20.938,5.91,20.625,5.515z M7,9C6.448,9,6,8.553,6,8s0.448-1,1-1s1,0.447,1,1S7.552,9,7,9z M11.5,12.395
	c-0.277,0-0.5-0.225-0.5-0.5c0-0.277,0.223-0.5,0.5-0.5s0.5,0.223,0.5,0.5C12,12.17,11.777,12.395,11.5,12.395z M16,9
	c-0.552,0-1-0.447-1-1s0.448-1,1-1s1,0.447,1,1S16.552,9,16,9z"/>
</svg>
