<?xml version="1.0" encoding="iso-8859-1"?>
<!-- Generator: Adobe Illustrator 16.2.1, SVG Export Plug-In . SVG Version: 6.00 Build 0)  -->
<!DOCTYPE svg PUBLIC "-//W3C//DTD SVG 1.1//EN" "http://www.w3.org/Graphics/SVG/1.1/DTD/svg11.dtd">
<svg version="1.1" id="Layer_1" xmlns="http://www.w3.org/2000/svg" xmlns:xlink="http://www.w3.org/1999/xlink" x="0px" y="0px"
	 width="24px" height="24px" viewBox="0 0 24 24" style="enable-background:new 0 0 24 24;" xml:space="preserve">
<g>
	<path d="M18.124,5.27c0.084,0,0.168,0.004,0.25,0.012c0.163,0.023,0.319,0.02,0.468,0.078c0.147,0.049,0.292,0.084,0.42,0.146
		c0.253,0.131,0.471,0.262,0.631,0.422c0.173,0.137,0.247,0.279,0.321,0.371c0.069,0.096,0.109,0.146,0.109,0.146
		s-0.061-0.025-0.167-0.074c-0.105-0.043-0.257-0.139-0.442-0.16c-0.129-0.037-0.283-0.047-0.443-0.047
		c-0.049,0-0.1,0.001-0.15,0.002c-0.106,0.008-0.216,0.041-0.318,0.061c-0.103,0.01-0.202,0.078-0.295,0.113
		c-0.186,0.088-0.35,0.203-0.461,0.34c-0.023,0.025-0.037,0.049-0.057,0.076c0.451,0.477,0.733,1.115,0.733,1.824
		c0,1.471-1.195,2.668-2.667,2.668c-0.907,0-1.707-0.457-2.189-1.15l-1.657,2.625c1.712,1.92,3.22,4.348,3.22,4.348
		c1.037,1.428-0.789,3.947-0.789,3.947l-3.552-6.523l-3.551,6.523c0,0-1.826-2.52-0.789-3.947c0,0,1.507-2.428,3.22-4.348
		l-1.657-2.625c-0.482,0.693-1.282,1.15-2.188,1.15c-1.471,0-2.667-1.197-2.667-2.668c0-1.469,1.196-2.666,2.667-2.666
		c0.925,0,1.74,0.475,2.218,1.193l0.002-0.002c0.953,1.43,1.737,3.158,2.746,4.336c1.008-1.178,1.792-2.906,2.746-4.336l0.002,0.002
		c0.478-0.719,1.293-1.193,2.219-1.193c0.063,0,0.122,0.014,0.185,0.018c0.092-0.053,0.198-0.115,0.326-0.189
		c0.118-0.066,0.248-0.139,0.383-0.211c0.132-0.072,0.297-0.107,0.449-0.158C17.627,5.304,17.878,5.27,18.124,5.27 M16.055,9.646
		c0.273,0,0.547-0.104,0.755-0.312c0.417-0.416,0.417-1.092,0-1.508c-0.208-0.208-0.481-0.312-0.754-0.312s-0.545,0.104-0.753,0.312
		l-0.24,0.377c-0.144,0.381-0.067,0.826,0.24,1.131C15.51,9.543,15.782,9.646,16.055,9.646 M6.124,9.646
		c0.273,0,0.545-0.104,0.752-0.312c0.307-0.305,0.382-0.75,0.238-1.131L6.876,7.826c-0.207-0.208-0.48-0.312-0.753-0.312
		c-0.273,0-0.547,0.104-0.755,0.312c-0.417,0.416-0.417,1.092,0,1.508C5.576,9.542,5.85,9.646,6.124,9.646 M11.089,13.408
		c0.218,0,0.395-0.178,0.395-0.395c0-0.219-0.176-0.395-0.395-0.395s-0.394,0.176-0.394,0.395
		C10.695,13.23,10.871,13.408,11.089,13.408 M18.124,3.27c-0.448,0-0.902,0.066-1.311,0.191l-0.117,0.036
		c-0.169,0.051-0.426,0.126-0.707,0.28c-0.087,0.047-0.181,0.098-0.272,0.149c-1.388,0.101-2.657,0.815-3.467,1.96
		c-0.027,0.035-0.054,0.071-0.079,0.109c-0.39,0.584-0.742,1.193-1.082,1.785c-0.339-0.592-0.691-1.2-1.081-1.785
		C9.982,5.959,9.956,5.922,9.929,5.887C9.053,4.648,7.641,3.914,6.123,3.914c-2.574,0-4.667,2.093-4.667,4.666
		c0,2.574,2.094,4.668,4.667,4.668c0.308,0,0.612-0.03,0.908-0.09c-1.016,1.338-1.777,2.531-1.948,2.803
		c-1.714,2.467,0.392,5.619,0.835,6.23c0.377,0.521,0.98,0.826,1.619,0.826c0.043,0,0.086-0.001,0.129-0.004
		c0.685-0.044,1.3-0.437,1.628-1.04l1.795-3.297l1.795,3.297c0.328,0.604,0.943,0.996,1.628,1.04
		c0.043,0.003,0.086,0.004,0.129,0.004c0.638,0,1.241-0.306,1.619-0.826c0.443-0.611,2.548-3.764,0.834-6.23
		c-0.17-0.271-0.932-1.465-1.948-2.803c0.296,0.06,0.601,0.09,0.909,0.09c2.573,0,4.667-2.094,4.667-4.668
		c0-0.06-0.001-0.119-0.003-0.179c0.467-0.095,0.898-0.356,1.2-0.758c0.547-0.729,0.536-1.733-0.032-2.445l-0.049-0.067
		c-0.013-0.018-0.026-0.035-0.039-0.053c-0.102-0.145-0.279-0.393-0.573-0.644c-0.349-0.326-0.737-0.547-1.044-0.705
		c-0.276-0.135-0.488-0.2-0.628-0.243l-0.062-0.02c-0.333-0.117-0.622-0.146-0.784-0.16l-0.053-0.006
		c-0.017-0.002-0.069-0.009-0.086-0.01C18.422,3.276,18.273,3.27,18.124,3.27L18.124,3.27z"/>
</g>
</svg>
