<?xml version="1.0" encoding="iso-8859-1"?>
<!-- Generator: Adobe Illustrator 16.2.1, SVG Export Plug-In . SVG Version: 6.00 Build 0)  -->
<svg version="1.2" baseProfile="tiny" id="Layer_1" xmlns="http://www.w3.org/2000/svg" xmlns:xlink="http://www.w3.org/1999/xlink"
	 x="0px" y="0px" width="24px" height="24px" viewBox="0 0 24 24" xml:space="preserve">
<g>
	<path d="M18.124,5.27c0.084,0,0.168,0.004,0.25,0.013c0.163,0.022,0.319,0.02,0.468,0.077c0.146,0.05,0.292,0.084,0.42,0.146
		c0.254,0.131,0.471,0.262,0.631,0.422c0.174,0.137,0.248,0.279,0.321,0.371c0.069,0.096,0.108,0.146,0.108,0.146
		s-0.061-0.025-0.166-0.074c-0.105-0.043-0.258-0.139-0.442-0.16c-0.129-0.037-0.282-0.047-0.442-0.047
		c-0.049,0-0.101,0.001-0.15,0.002c-0.105,0.008-0.217,0.041-0.318,0.061c-0.103,0.01-0.201,0.078-0.295,0.113
		c-0.186,0.088-0.35,0.203-0.461,0.34c-0.023,0.025-0.037,0.049-0.057,0.076c0.451,0.477,0.732,1.115,0.732,1.824
		c0,1.471-1.195,2.668-2.666,2.668c-0.908,0-1.707-0.457-2.189-1.15l-1.657,2.625c1.712,1.92,3.22,4.348,3.22,4.348
		c1.037,1.429-0.789,3.947-0.789,3.947l-3.552-6.522l-3.551,6.522c0,0-1.826-2.52-0.789-3.947c0,0,1.507-2.428,3.22-4.348
		l-1.656-2.625c-0.482,0.693-1.283,1.15-2.188,1.15c-1.472,0-2.667-1.197-2.667-2.668c0-1.469,1.195-2.666,2.667-2.666
		c0.925,0,1.739,0.475,2.218,1.193c0.955,1.428,1.739,3.156,2.748,4.334c1.008-1.178,1.792-2.906,2.746-4.336
		c0.48-0.717,1.295-1.191,2.221-1.191c0.063,0,0.123,0.014,0.186,0.018c0.092-0.053,0.197-0.115,0.326-0.188
		c0.117-0.065,0.248-0.14,0.383-0.211c0.132-0.072,0.297-0.107,0.449-0.158C17.627,5.305,17.878,5.27,18.124,5.27 M16.055,9.646
		c0.273,0,0.547-0.104,0.756-0.312c0.416-0.416,0.416-1.092,0-1.508c-0.209-0.208-0.481-0.312-0.754-0.312
		c-0.273,0-0.545,0.104-0.754,0.312l-0.24,0.377c-0.144,0.381-0.066,0.826,0.24,1.131C15.51,9.543,15.782,9.646,16.055,9.646
		 M6.124,9.646c0.272,0,0.545-0.104,0.752-0.312c0.308-0.305,0.382-0.75,0.237-1.131L6.876,7.826
		C6.669,7.618,6.396,7.514,6.123,7.514S5.576,7.618,5.368,7.826c-0.417,0.416-0.417,1.092,0,1.508
		C5.576,9.542,5.85,9.646,6.124,9.646 M11.089,13.408c0.218,0,0.396-0.178,0.396-0.395c0-0.22-0.176-0.396-0.396-0.396
		c-0.219,0-0.394,0.176-0.394,0.396C10.695,13.23,10.871,13.408,11.089,13.408 M18.124,3.27c-0.448,0-0.901,0.066-1.312,0.191
		l-0.117,0.036c-0.168,0.051-0.426,0.126-0.707,0.28c-0.086,0.047-0.18,0.098-0.271,0.148c-1.388,0.102-2.656,0.815-3.467,1.961
		c-0.027,0.034-0.055,0.07-0.079,0.108c-0.39,0.584-0.741,1.192-1.082,1.784c-0.339-0.592-0.69-1.199-1.081-1.784
		C9.982,5.958,9.956,5.921,9.93,5.887C9.053,4.648,7.641,3.913,6.123,3.913c-2.574,0-4.667,2.093-4.667,4.666
		s2.094,4.668,4.667,4.668c0.309,0,0.611-0.03,0.908-0.09c-1.016,1.338-1.777,2.53-1.948,2.803
		c-1.714,2.467,0.392,5.619,0.835,6.229c0.377,0.521,0.98,0.826,1.619,0.826c0.043,0,0.086,0,0.129-0.004
		c0.686-0.044,1.3-0.437,1.628-1.039l1.795-3.298l1.795,3.298c0.328,0.604,0.943,0.995,1.628,1.039
		c0.043,0.004,0.086,0.004,0.129,0.004c0.639,0,1.241-0.306,1.619-0.826c0.443-0.61,2.549-3.764,0.834-6.229
		c-0.17-0.271-0.932-1.465-1.947-2.803c0.295,0.06,0.601,0.09,0.908,0.09c2.573,0,4.668-2.095,4.668-4.668
		c0-0.06-0.002-0.119-0.004-0.179c0.467-0.096,0.898-0.356,1.2-0.758c0.547-0.729,0.536-1.733-0.032-2.445L21.838,5.13
		c-0.013-0.019-0.025-0.034-0.039-0.053c-0.102-0.146-0.279-0.394-0.572-0.644c-0.35-0.326-0.738-0.547-1.045-0.705
		c-0.275-0.136-0.488-0.201-0.628-0.244l-0.062-0.02c-0.333-0.117-0.622-0.146-0.784-0.16l-0.054-0.006
		c-0.016-0.002-0.068-0.009-0.086-0.01C18.422,3.275,18.273,3.27,18.124,3.27z"/>
</g>
</svg>
