<?xml version="1.0" encoding="iso-8859-1"?>
<!-- Generator: Adobe Illustrator 16.2.1, SVG Export Plug-In . SVG Version: 6.00 Build 0)  -->
<!DOCTYPE svg PUBLIC "-//W3C//DTD SVG 1.1//EN" "http://www.w3.org/Graphics/SVG/1.1/DTD/svg11.dtd">
<svg version="1.1" id="Layer_1" xmlns="http://www.w3.org/2000/svg" xmlns:xlink="http://www.w3.org/1999/xlink" x="0px" y="0px"
	 width="24px" height="24px" viewBox="0 0 24 24" style="enable-background:new 0 0 24 24;" xml:space="preserve">
<path d="M17,4H7C5.346,4,4,5.346,4,7v11c0,1.654,1.346,3,3,3h10c1.654,0,3-1.346,3-3V7C20,5.346,18.654,4,17,4z M18,9
	c0,0.551-0.448,1-1,1H7c-0.552,0-1-0.449-1-1V7c0-0.551,0.448-1,1-1h10c0.552,0,1,0.449,1,1V9z M14.5,11c0,1.378-1.121,2.5-2.5,2.5
	S9.5,12.378,9.5,11H14.5z M17,19H7c-0.552,0-1-0.449-1-1v-7.28C6.296,10.894,6.635,11,7,11h1.5c0,1.93,1.57,3.5,3.5,3.5
	s3.5-1.57,3.5-3.5H17c0.365,0,0.704-0.106,1-0.279V18C18,18.551,17.552,19,17,19z"/>
</svg>
