<svg height="1000px" width="562.5px" xmlns="http://www.w3.org/2000/svg">
  <g>
    <path d="M0 708.49609375c0 0 0 -125 0 -125c30.599 2.93 65.267 4.232 104.004 3.906c16.601 0 31.901 -6.836 45.898 -20.508c16.602 -22.135 27.67 -40.201 33.203 -54.199c2.93 -8.463 12.696 -30.761 29.297 -66.894c16.602 -33.203 30.437 -56.804 41.504 -70.801c30.599 -50.13 84.798 -76.497 162.598 -79.102c0 0 0 -87.402 0 -87.402c0 0 145.996 145.508 145.996 145.508c0 0 -145.996 145.996 -145.996 145.996c0 0 145.996 145.996 145.996 145.996c0 0 -145.996 145.508 -145.996 145.508c0 0 0 -87.403 0 -87.403c-27.669 0 -52.734 -2.766 -75.195 -8.3c-22.136 -11.068 -41.504 -24.903 -58.106 -41.504c19.531 -22.136 38.9 -55.502 58.106 -100.098c16.601 22.136 30.599 33.203 41.992 33.203c0 0 3.906 0 3.906 0c0 0 29.297 0 29.297 0c0 0 0 -87.402 0 -87.402c0 0 0 -87.402 0 -87.402c0 0 -29.297 0 -29.297 0c0 0 -3.906 0 -3.906 0c-11.068 0 -25.065 11.067 -41.992 33.203c-13.998 16.601 -27.832 41.666 -41.504 75.195c-19.532 38.737 -36.133 67.871 -49.805 87.402c-22.135 36.133 -44.434 59.733 -66.895 70.801c-13.997 11.068 -29.296 18.067 -45.898 20.996c-11.068 2.93 -24.902 4.232 -41.504 3.906c0 0 -49.805 4.395 -49.805 4.395c0 0 -45.898 0 -45.898 0c0 0 0 0 0 0m0 -291.992c0 0 0 -125 0 -125c0 0 45.898 0 45.898 0c25.066 0 41.667 1.465 49.805 4.394c13.998 0 26.53 1.302 37.598 3.907c30.599 8.463 58.268 23.763 83.008 45.898c-27.67 30.599 -47.038 63.965 -58.106 100.098c-16.601 -22.136 -34.668 -33.203 -54.199 -33.203c-38.737 -0.326 -73.405 0.976 -104.004 3.906c0 0 0 0 0 0" />
  </g>
</svg>