<?xml version="1.0" encoding="iso-8859-1"?>
<!-- Generator: Adobe Illustrator 16.2.1, SVG Export Plug-In . SVG Version: 6.00 Build 0)  -->
<svg version="1.2" baseProfile="tiny" xmlns="http://www.w3.org/2000/svg" xmlns:xlink="http://www.w3.org/1999/xlink" x="0px"
	 y="0px" width="24px" height="24px" viewBox="0 0 24 24" xml:space="preserve">
<g id="Layer_1">
	<g>
		<g>
			<path d="M14.377,15.59v-1.234c-0.399,0.268-0.788,0.4-1.166,0.4c-0.178,0-0.377-0.057-0.6-0.166
				c-0.134-0.09-0.211-0.189-0.234-0.301c-0.066-0.133-0.1-0.422-0.1-0.867v-1.966h1.834v-1.233h-1.834V8.256h-1.066
				c-0.089,0.467-0.178,0.8-0.267,1c-0.11,0.244-0.288,0.467-0.533,0.666c-0.245,0.201-0.5,0.345-0.767,0.434v1.101h0.833v2.7
				c0,0.311,0.044,0.576,0.134,0.799c0.066,0.178,0.199,0.355,0.4,0.533c0.154,0.156,0.377,0.289,0.666,0.4
				c0.355,0.09,0.666,0.133,0.934,0.133c0.311,0,0.6-0.033,0.866-0.1C13.789,15.855,14.089,15.744,14.377,15.59"/>
		</g>
	</g>
	<g>
		<path d="M12,21c-4.963,0-9-4.037-9-9s4.037-9,9-9s9,4.037,9,9S16.963,21,12,21z M12,5c-3.859,0-7,3.141-7,7s3.141,7,7,7
			s7-3.141,7-7S15.859,5,12,5z"/>
	</g>
</g>
<g id="nyt_x5F_exporter_x5F_info" display="none">
</g>
</svg>
