<?xml version="1.0" encoding="iso-8859-1"?>
<!-- Generator: Adobe Illustrator 16.2.1, SVG Export Plug-In . SVG Version: 6.00 Build 0)  -->
<!DOCTYPE svg PUBLIC "-//W3C//DTD SVG 1.1//EN" "http://www.w3.org/Graphics/SVG/1.1/DTD/svg11.dtd">
<svg version="1.1" id="Layer_1" xmlns="http://www.w3.org/2000/svg" xmlns:xlink="http://www.w3.org/1999/xlink" x="0px" y="0px"
	 width="24px" height="24px" viewBox="0 0 24 24" style="enable-background:new 0 0 24 24;" xml:space="preserve">
<g>
	<path d="M14.463,9.141c-0.512,0-0.988,0.238-1.43,0.715c-0.311,0.312-0.5,0.678-0.566,1.101c0.207-0.131,0.387-0.196,0.541-0.196
		c0.16,0,0.291,0.07,0.393,0.212c0.2,0.278,0.189,0.629-0.033,1.051c-0.489,0.934-0.845,1.4-1.066,1.4
		c-0.156,0-0.356-0.522-0.601-1.567c-0.044-0.155-0.089-0.378-0.133-0.667c-0.045-0.288-0.089-0.538-0.134-0.75
		c-0.044-0.211-0.111-0.428-0.2-0.649s-0.2-0.384-0.333-0.483c-0.093-0.069-0.202-0.104-0.327-0.104
		c-0.055,0-0.112,0.007-0.173,0.021c-0.289,0.067-0.622,0.245-1,0.534c-0.378,0.288-0.688,0.566-0.933,0.833l-0.333,0.4l0.3,0.399
		c0.045-0.044,0.1-0.089,0.167-0.133c0.066-0.045,0.188-0.101,0.367-0.167c0.076-0.028,0.14-0.043,0.192-0.043
		c0.069,0,0.116,0.025,0.142,0.076c0.066,0.089,0.272,0.717,0.616,1.884c0.345,1.167,0.562,1.839,0.65,2.017
		c0.155,0.311,0.366,0.55,0.633,0.717c0.129,0.08,0.271,0.121,0.426,0.121c0.165,0,0.346-0.047,0.541-0.139
		c0.6-0.399,1.289-1.066,2.067-2c0.778-0.933,1.255-1.922,1.433-2.966c0.156-0.911-0.111-1.434-0.8-1.567
		C14.729,9.156,14.595,9.141,14.463,9.141L14.463,9.141z"/>
</g>
<g>
	<path d="M12,21c-4.962,0-9-4.037-9-9s4.038-9,9-9s9,4.037,9,9S16.962,21,12,21z M12,5c-3.86,0-7,3.141-7,7s3.14,7,7,7s7-3.141,7-7
		S15.86,5,12,5z"/>
</g>
</svg>
