<?xml version="1.0" encoding="iso-8859-1"?>
<!-- Generator: Adobe Illustrator 16.2.1, SVG Export Plug-In . SVG Version: 6.00 Build 0)  -->
<!DOCTYPE svg PUBLIC "-//W3C//DTD SVG 1.1//EN" "http://www.w3.org/Graphics/SVG/1.1/DTD/svg11.dtd">
<svg version="1.1" id="Layer_1" xmlns="http://www.w3.org/2000/svg" xmlns:xlink="http://www.w3.org/1999/xlink" x="0px" y="0px"
	 width="24px" height="24px" viewBox="0 0 24 24" style="enable-background:new 0 0 24 24;" xml:space="preserve">
<g>
	<path d="M13.842,7c0.806,0,1.476,0.285,2.005,0.855c0.59-0.117,1.18-0.334,1.771-0.648c-0.197,0.648-0.601,1.16-1.208,1.533
		C16.958,8.662,17.488,8.514,18,8.297c-0.354,0.533-0.815,1.014-1.386,1.445v0.355c0,1.277-0.295,2.506-0.885,3.686
		c-0.589,1.18-1.504,2.178-2.742,2.994C11.748,17.592,10.323,18,8.712,18c-1.574,0-2.998-0.412-4.276-1.238
		c0.136,0.02,0.362,0.027,0.678,0.027c1.298,0,2.448-0.393,3.45-1.178c-0.609-0.02-1.151-0.207-1.622-0.561
		c-0.472-0.354-0.797-0.816-0.974-1.387c0.1,0.041,0.267,0.059,0.502,0.059c0.255,0,0.502-0.027,0.738-0.086
		c-0.65-0.141-1.182-0.463-1.594-0.975c-0.413-0.512-0.619-1.1-0.619-1.77v-0.029c0.354,0.195,0.768,0.314,1.239,0.354
		c-0.825-0.57-1.239-1.346-1.239-2.328c0-0.473,0.129-0.936,0.383-1.387c1.514,1.848,3.431,2.811,5.751,2.891
		c-0.06-0.178-0.089-0.385-0.089-0.619c0-0.768,0.271-1.422,0.812-1.963C12.392,7.271,13.057,7,13.842,7 M18,8.297h0.005 M13.842,5
		c-1.312,0-2.489,0.482-3.403,1.396C9.955,6.88,9.591,7.435,9.356,8.041C8.436,7.695,7.631,7.097,6.925,6.234
		c-0.381-0.466-0.95-0.732-1.547-0.732c-0.058,0-0.115,0.003-0.174,0.008C4.546,5.566,3.959,5.945,3.635,6.521
		c-0.424,0.754-0.64,1.551-0.64,2.367c0,0.428,0.049,0.837,0.146,1.226c-0.095,0.234-0.146,0.488-0.146,0.749
		c0,1.115,0.329,2.098,0.978,2.947c0.011,0.149,0.039,0.299,0.084,0.445c0.054,0.176,0.117,0.346,0.188,0.51
		c-0.754,0.064-1.418,0.558-1.694,1.293c-0.33,0.881,0.008,1.873,0.798,2.383C4.95,19.476,6.754,20,8.712,20
		c2,0,3.808-0.521,5.374-1.552c1.534-1.011,2.688-2.279,3.433-3.771c0.638-1.276,1-2.62,1.079-4.001
		c0.389-0.374,0.73-0.774,1.019-1.199c0.243-0.331,0.386-0.738,0.386-1.18c0-0.443-0.144-0.853-0.387-1.185
		c-0.026-0.554-0.283-1.084-0.728-1.449c-0.366-0.302-0.816-0.456-1.271-0.456c-0.321,0-0.644,0.077-0.939,0.234
		c-0.14,0.074-0.279,0.142-0.417,0.2C15.547,5.219,14.729,5,13.842,5L13.842,5z"/>
</g>
</svg>
