<?xml version="1.0" encoding="iso-8859-1"?>
<!-- Generator: Adobe Illustrator 16.2.1, SVG Export Plug-In . SVG Version: 6.00 Build 0)  -->
<!DOCTYPE svg PUBLIC "-//W3C//DTD SVG 1.1//EN" "http://www.w3.org/Graphics/SVG/1.1/DTD/svg11.dtd">
<svg version="1.1" id="Layer_1" xmlns="http://www.w3.org/2000/svg" xmlns:xlink="http://www.w3.org/1999/xlink" x="0px" y="0px"
	 width="24px" height="24px" viewBox="0 0 24 24" style="enable-background:new 0 0 24 24;" xml:space="preserve">
<g>
	<path d="M17,5v3h-2.217c-0.178,0-0.337,0.051-0.477,0.24C14.168,8.43,14,8.662,14,8.941V11h3v3h-3v6h-3v-6H8v-3h3l-0.121-1.756
		c0-1.188,0.374-2.191,1.118-3.012C12.741,5.41,13.67,5,14.783,5H17 M17,3h-2.217c-1.674,0-3.15,0.653-4.269,1.891
		C9.482,6.028,8.934,7.41,8.883,9H8c-1.104,0-2,0.896-2,2v3c0,1.104,0.896,2,2,2h1v4c0,1.104,0.896,2,2,2h3c1.104,0,2-0.896,2-2v-4
		h1c1.104,0,2-0.896,2-2v-3c0-0.598-0.262-1.134-0.677-1.5C18.738,9.134,19,8.598,19,8V5C19,3.896,18.104,3,17,3L17,3z"/>
</g>
</svg>
