<?xml version="1.0" encoding="iso-8859-1"?>
<!-- Generator: Adobe Illustrator 16.2.1, SVG Export Plug-In . SVG Version: 6.00 Build 0)  -->
<svg version="1.2" baseProfile="tiny" xmlns="http://www.w3.org/2000/svg" xmlns:xlink="http://www.w3.org/1999/xlink" x="0px"
	 y="0px" width="24px" height="24px" viewBox="0 0 24 24" xml:space="preserve">
<g id="Layer_1">
	<g>
		<path d="M15.279,10.283c0.358-0.221,0.597-0.521,0.713-0.904c-0.349,0.186-0.697,0.312-1.045,0.383
			c-0.312-0.336-0.708-0.507-1.182-0.507c-0.464,0-0.855,0.163-1.175,0.479c-0.317,0.318-0.478,0.706-0.478,1.158
			c0,0.137,0.017,0.26,0.052,0.364c-1.368-0.048-2.499-0.614-3.391-1.706c-0.151,0.267-0.227,0.539-0.227,0.82
			c0,0.578,0.244,1.036,0.73,1.373c-0.277-0.023-0.521-0.094-0.73-0.209c0,0.413,0.121,0.758,0.365,1.062
			c0.243,0.3,0.557,0.492,0.939,0.573c-0.139,0.036-0.285,0.053-0.435,0.053c-0.14,0-0.237-0.012-0.296-0.037
			c0.104,0.337,0.296,0.609,0.574,0.818c0.277,0.21,0.597,0.32,0.957,0.33c-0.591,0.465-1.269,0.694-2.035,0.694
			c-0.188,0-0.32-0.002-0.4-0.017c0.754,0.489,1.594,0.733,2.521,0.733c0.951,0,1.792-0.241,2.522-0.723
			c0.73-0.479,1.271-1.07,1.617-1.767c0.348-0.695,0.521-1.419,0.521-2.174v-0.209c0.336-0.253,0.609-0.538,0.818-0.854
			C15.916,10.149,15.603,10.238,15.279,10.283z"/>
	</g>
	<g>
		<g>
			<path d="M12,21c-2.49,0-4.635-0.89-6.376-2.646C3.883,16.603,3,14.465,3,12c0-2.488,0.884-4.634,2.627-6.375
				C7.367,3.884,9.511,3,12,3c2.466,0,4.604,0.883,6.354,2.624C20.11,7.366,21,9.512,21,12c0,2.465-0.889,4.604-2.644,6.357
				C16.605,20.11,14.467,21,12,21z M12,5c-1.966,0-3.588,0.667-4.958,2.04C5.667,8.412,5,10.034,5,12
				c0,1.944,0.668,3.562,2.043,4.945C8.415,18.328,10.036,19,12,19c1.943,0,3.56-0.673,4.942-2.057C18.327,15.559,19,13.941,19,12
				c0-1.963-0.672-3.585-2.055-4.957C15.562,5.668,13.945,5,12,5z"/>
		</g>
	</g>
</g>
<g id="nyt_x5F_exporter_x5F_info" display="none">
</g>
</svg>
