<?xml version="1.0" encoding="iso-8859-1"?>
<!-- Generator: Adobe Illustrator 16.2.1, SVG Export Plug-In . SVG Version: 6.00 Build 0)  -->
<svg version="1.2" baseProfile="tiny" xmlns="http://www.w3.org/2000/svg" xmlns:xlink="http://www.w3.org/1999/xlink" x="0px"
	 y="0px" width="24px" height="24px" viewBox="0 0 24 24" xml:space="preserve">
<g id="Layer_1">
	<g>
		<path d="M11.844,7.5c-2.481,0-4.438,2.019-4.438,4.5s2.05,4.5,4.531,4.5c0.908,0,1.799-0.27,2.547-0.778
			c0.228-0.155,0.295-0.466,0.139-0.694c-0.155-0.229-0.462-0.287-0.691-0.132c-0.58,0.396-1.258,0.604-1.965,0.604
			c-1.93,0-3.499-1.57-3.499-3.5s1.446-3.5,3.376-3.5s3.375,1.57,3.375,3.5v0.25c0,0.414-0.336,0.75-0.75,0.75
			s-0.75-0.336-0.75-0.75V10.5c0-0.276-0.099-0.5-0.375-0.5c-0.205,0-0.318,0.124-0.396,0.301C12.645,10.113,12.32,10,11.938,10
			c-1.104,0-1.984,0.896-1.984,2s0.904,2,2.008,2c0.562,0,1.073-0.235,1.438-0.609C13.719,13.76,14.064,14,14.592,14
			c0.965,0,1.627-0.785,1.627-1.75V12C16.219,9.519,14.325,7.5,11.844,7.5z M11.969,13c-0.551,0-1-0.449-1-1s0.449-1,1-1
			s1,0.449,1,1S12.52,13,11.969,13z"/>
	</g>
	<g>
		<path d="M12,21c-4.963,0-9-4.037-9-9s4.037-9,9-9s9,4.037,9,9S16.963,21,12,21z M12,5c-3.859,0-7,3.141-7,7s3.141,7,7,7
			s7-3.141,7-7S15.859,5,12,5z"/>
	</g>
</g>
<g id="nyt_x5F_exporter_x5F_info" display="none">
</g>
</svg>
