<?xml version="1.0" encoding="iso-8859-1"?>
<!-- Generator: Adobe Illustrator 16.2.1, SVG Export Plug-In . SVG Version: 6.00 Build 0)  -->
<svg version="1.2" baseProfile="tiny" xmlns="http://www.w3.org/2000/svg" xmlns:xlink="http://www.w3.org/1999/xlink" x="0px"
	 y="0px" width="24px" height="24px" viewBox="0 0 24 24" xml:space="preserve">
<g id="Layer_1">
	<path d="M18.354,5.624C16.604,3.883,14.466,3,12,3C9.511,3,7.367,3.884,5.627,5.625C3.884,7.366,3,9.512,3,12
		c0,2.465,0.883,4.603,2.624,6.354C7.365,20.11,9.51,21,12,21c2.467,0,4.605-0.89,6.356-2.643C20.111,16.604,21,14.465,21,12
		C21,9.512,20.11,7.366,18.354,5.624z M16.942,16.943c-1.137,1.139-2.436,1.788-3.942,1.985V14h2v-2h-2v-1.4
		c0-0.331,0.269-0.6,0.601-0.6H15V8h-1.397c-0.742,0-1.361,0.273-1.857,0.822C11.25,9.369,11,10.037,11,10.83V12H9v2h2v4.93
		c-1.522-0.195-2.826-0.845-3.957-1.984C5.668,15.562,5,13.944,5,12c0-1.966,0.667-3.588,2.042-4.96C8.412,5.667,10.034,5,12,5
		c1.945,0,3.562,0.668,4.945,2.043C18.328,8.415,19,10.037,19,12C19,13.941,18.327,15.559,16.942,16.943z"/>
</g>
<g id="nyt_x5F_exporter_x5F_info" display="none">
</g>
</svg>
