<?xml version="1.0" encoding="iso-8859-1"?>
<!-- Generator: Adobe Illustrator 16.2.1, SVG Export Plug-In . SVG Version: 6.00 Build 0)  -->
<svg version="1.2" baseProfile="tiny" id="Layer_1" xmlns="http://www.w3.org/2000/svg" xmlns:xlink="http://www.w3.org/1999/xlink"
	 x="0px" y="0px" width="24px" height="24px" viewBox="0 0 24 24" xml:space="preserve">
<g>
	<path d="M7.5,16c-2.206,0-4-1.794-4-4s1.794-4,4-4s4,1.794,4,4S9.706,16,7.5,16z M7.5,10c-1.103,0-2,0.897-2,2s0.897,2,2,2
		s2-0.897,2-2S8.603,10,7.5,10z"/>
</g>
<path d="M16.5,8c-2.206,0-4,1.794-4,4s1.794,4,4,4s4-1.794,4-4S18.706,8,16.5,8z"/>
</svg>
