<?xml version="1.0" encoding="iso-8859-1"?>
<!-- Generator: Adobe Illustrator 16.2.1, SVG Export Plug-In . SVG Version: 6.00 Build 0)  -->
<svg version="1.2" baseProfile="tiny" xmlns="http://www.w3.org/2000/svg" xmlns:xlink="http://www.w3.org/1999/xlink" x="0px"
	 y="0px" width="24px" height="24px" viewBox="0 0 24 24" xml:space="preserve">
<g id="Layer_1">
	<g>
		<path d="M8.865,5c0.751,0,1.44,0.202,2.069,0.609c0.324-0.08,0.711-0.121,1.157-0.121c1.846,0,3.418,0.67,4.717,2.008
			c1.299,1.339,1.948,2.962,1.948,4.87c0,0.466-0.051,0.953-0.152,1.461C18.868,14.416,19,15.014,19,15.621
			c0,1.097-0.38,2.036-1.142,2.815c-0.761,0.781-1.668,1.173-2.725,1.173c-0.629,0-1.237-0.162-1.825-0.488
			c-0.527,0.081-0.933,0.122-1.217,0.122c-1.847,0-3.425-0.67-4.733-2.009s-1.963-2.962-1.963-4.868c0-0.447,0.051-0.902,0.152-1.37
			C5.183,10.387,5,9.708,5,8.957c0-1.096,0.376-2.029,1.126-2.799C6.876,5.386,7.79,5,8.865,5 M12,15.53
			c-0.406,0-0.729-0.061-0.975-0.183c-0.263-0.142-0.445-0.284-0.547-0.425c-0.243-0.447-0.376-0.681-0.396-0.7
			c-0.081-0.243-0.202-0.447-0.364-0.609C9.515,13.473,9.312,13.4,9.108,13.4c-0.284,0-0.517,0.091-0.7,0.274
			c-0.183,0.182-0.274,0.396-0.274,0.639c0,0.386,0.144,0.801,0.428,1.248c0.263,0.405,0.629,0.741,1.096,1.003
			c0.648,0.346,1.45,0.519,2.404,0.519c0.79,0,1.49-0.122,2.1-0.365c0.609-0.284,1.055-0.639,1.339-1.065
			c0.304-0.467,0.456-0.975,0.456-1.522c0-0.445-0.08-0.852-0.242-1.217c-0.163-0.304-0.416-0.578-0.762-0.82
			c-0.365-0.225-0.75-0.407-1.156-0.548c-0.689-0.204-1.178-0.336-1.461-0.396c-0.143-0.021-0.32-0.055-0.533-0.107
			c-0.213-0.05-0.35-0.085-0.41-0.106c-0.243-0.08-0.416-0.152-0.518-0.212c-0.163-0.081-0.294-0.193-0.396-0.336
			c-0.103-0.1-0.152-0.233-0.152-0.396c0-0.243,0.142-0.455,0.426-0.639c0.265-0.203,0.649-0.305,1.156-0.305
			c0.508,0,0.884,0.092,1.127,0.273c0.263,0.225,0.456,0.478,0.577,0.762c0.163,0.264,0.295,0.446,0.396,0.547
			c0.162,0.123,0.355,0.184,0.578,0.184c0.264,0,0.498-0.102,0.699-0.306c0.184-0.181,0.275-0.404,0.275-0.669
			c0-0.202-0.072-0.467-0.214-0.791c-0.162-0.243-0.376-0.486-0.639-0.729c-0.284-0.224-0.659-0.417-1.127-0.579
			c-0.485-0.143-1.004-0.213-1.552-0.213c-0.73,0-1.38,0.11-1.948,0.335C9.515,8.063,9.078,8.368,8.774,8.774
			c-0.305,0.406-0.457,0.872-0.457,1.4c0,0.527,0.143,0.984,0.426,1.37c0.346,0.405,0.73,0.688,1.156,0.851
			c0.488,0.224,1.076,0.407,1.766,0.548c0.121,0.021,0.27,0.056,0.441,0.106c0.172,0.052,0.324,0.092,0.457,0.123
			c0.131,0.028,0.238,0.055,0.319,0.075c0.284,0.103,0.517,0.243,0.699,0.427c0.183,0.141,0.274,0.354,0.274,0.639
			c0,0.346-0.162,0.629-0.486,0.853C13.005,15.409,12.548,15.53,12,15.53 M8.865,3C7.256,3,5.812,3.61,4.691,4.765
			C3.586,5.899,3,7.35,3,8.957c0,0.832,0.156,1.619,0.466,2.348c-0.047,0.357-0.07,0.713-0.07,1.062
			c0,2.438,0.853,4.547,2.532,6.267c1.693,1.732,3.768,2.61,6.164,2.61c0.254,0,0.547-0.02,0.896-0.06
			c0.69,0.283,1.409,0.426,2.146,0.426c1.588,0,3.025-0.614,4.157-1.777c1.117-1.143,1.709-2.6,1.709-4.211
			c0-0.677-0.111-1.349-0.332-2.004c0.059-0.427,0.089-0.846,0.089-1.251c0-2.437-0.846-4.544-2.513-6.263
			c-1.685-1.735-3.755-2.615-6.152-2.615c-0.279,0-0.546,0.013-0.801,0.038C10.535,3.177,9.723,3,8.865,3z"/>
	</g>
</g>
<g id="nyt_x5F_exporter_x5F_info" display="none">
</g>
</svg>
