<?xml version="1.0" encoding="utf-8"?>
<!-- Generator: Adobe Illustrator 17.1.0, SVG Export Plug-In . SVG Version: 6.00 Build 0)  -->
<!DOCTYPE svg PUBLIC "-//W3C//DTD SVG 1.0//EN" "http://www.w3.org/TR/2001/REC-SVG-20010904/DTD/svg10.dtd">
<svg version="1.0" id="Layer_1" xmlns="http://www.w3.org/2000/svg" xmlns:xlink="http://www.w3.org/1999/xlink" x="0px" y="0px"
	 width="24px" height="24px" viewBox="0 0 24 24" enable-background="new 0 0 24 24" xml:space="preserve">
<path d="M16.2,15.3v-0.8c0-0.3-0.1-0.5-0.2-0.7c-0.1-0.2-0.4-0.2-0.6-0.2c-0.3,0-0.5,0.1-0.7,0.3c-0.2,0.2-0.3,0.4-0.3,0.7v1.4
	c0,0.3,0.1,0.5,0.2,0.7c0.2,0.2,0.4,0.3,0.6,0.3c0.3,0,0.5-0.1,0.7-0.2c0.2-0.2,0.2-0.4,0.2-0.7v-0.2h-0.6v0.1c0,0.2,0,0.3-0.1,0.4
	c0,0.1-0.1,0.1-0.2,0.1c-0.1,0-0.2,0-0.2-0.1c0-0.1-0.1-0.2-0.1-0.3v-0.6H16.2z M15,14.9v-0.3c0-0.1,0-0.2,0.1-0.3
	c0-0.1,0.1-0.1,0.2-0.1c0.1,0,0.2,0,0.2,0.1c0,0.1,0.1,0.1,0.1,0.3v0.3H15z"/>
<path d="M13.9,13.9c-0.1-0.1-0.2-0.2-0.4-0.2c-0.1,0-0.2,0-0.3,0.1c-0.1,0-0.2,0.1-0.3,0.2v-1.3h-0.6v4.2H13v-0.2
	c0.1,0.1,0.2,0.2,0.3,0.2c0.1,0,0.2,0.1,0.3,0.1c0.2,0,0.3-0.1,0.4-0.2c0.1-0.1,0.1-0.3,0.1-0.5v-1.7C14.1,14.2,14,14,13.9,13.9z
	 M13.5,16.1c0,0.1,0,0.2-0.1,0.2c0,0-0.1,0.1-0.2,0.1c-0.1,0-0.1,0-0.1,0c0,0-0.1-0.1-0.1-0.1v-1.9c0,0,0.1-0.1,0.1-0.1
	c0,0,0.1,0,0.1,0c0.1,0,0.1,0,0.2,0.1c0,0.1,0.1,0.1,0.1,0.2V16.1z"/>
<path d="M11.3,16.8v-0.3c-0.1,0.1-0.2,0.2-0.3,0.3c-0.1,0.1-0.2,0.1-0.4,0.1c-0.1,0-0.2,0-0.3-0.1c-0.1-0.1-0.1-0.2-0.1-0.4v-2.6
	h0.6v2.4c0,0.1,0,0.1,0,0.2c0,0,0.1,0,0.1,0c0,0,0.1,0,0.2-0.1c0.1,0,0.1-0.1,0.2-0.2v-2.3h0.6v3.1L11.3,16.8L11.3,16.8z"/>
<polygon points="9.2,13.2 9.2,16.8 8.5,16.8 8.5,13.2 7.8,13.2 7.8,12.6 9.9,12.6 9.9,13.2 "/>
<path d="M11.6,9.4c0,0.1,0.1,0.1,0.2,0.1c0.1,0,0.2,0,0.2-0.1c0.1-0.1,0.1-0.1,0.1-0.2V7.4c0-0.1,0-0.1-0.1-0.2
	c-0.1,0-0.1-0.1-0.2-0.1c-0.1,0-0.2,0-0.2,0.1c-0.1,0-0.1,0.1-0.1,0.2v1.8C11.5,9.3,11.6,9.4,11.6,9.4z"/>
<path d="M12,3c-5,0-9,4-9,9c0,5,4,9,9,9s9-4,9-9C21,7,17,3,12,3z M13.4,6.6H14v2.6c0,0.1,0,0.1,0,0.2c0,0,0.1,0.1,0.1,0.1
	c0,0,0.1,0,0.2-0.1c0.1,0,0.1-0.1,0.2-0.2V6.6h0.7V10h-0.7V9.6c-0.1,0.1-0.3,0.2-0.4,0.3c-0.1,0.1-0.3,0.1-0.4,0.1
	c-0.2,0-0.3-0.1-0.4-0.2c-0.1-0.1-0.1-0.3-0.1-0.5V6.6z M10.8,7.4c0-0.3,0.1-0.5,0.3-0.6c0.2-0.2,0.4-0.2,0.7-0.2
	c0.3,0,0.5,0.1,0.7,0.2c0.2,0.2,0.3,0.4,0.3,0.6v1.7c0,0.3-0.1,0.5-0.3,0.7c-0.2,0.2-0.4,0.2-0.7,0.2c-0.3,0-0.5-0.1-0.7-0.3
	c-0.2-0.2-0.3-0.4-0.3-0.7V7.4z M9,5.4l0.5,1.8h0L10,5.4h0.8L9.9,8.1V10H9.1V8.2L8.2,5.4H9z M16.7,17.7c-0.5,0.5-4.7,0.5-4.7,0.5
	s-4.2,0-4.7-0.5c-0.5-0.5-0.5-2.9-0.5-3c0,0,0-2.5,0.5-3c0.5-0.5,4.7-0.5,4.7-0.5c0,0,4.2,0,4.7,0.5c0.5,0.5,0.5,2.9,0.5,3
	C17.2,14.8,17.2,17.2,16.7,17.7z"/>
</svg>
