<?xml version="1.0" encoding="iso-8859-1"?>
<!-- Generator: Adobe Illustrator 16.2.1, SVG Export Plug-In . SVG Version: 6.00 Build 0)  -->
<svg version="1.2" baseProfile="tiny" xmlns="http://www.w3.org/2000/svg" xmlns:xlink="http://www.w3.org/1999/xlink" x="0px"
	 y="0px" width="24px" height="24px" viewBox="0 0 24 24" xml:space="preserve">
<g id="Layer_1">
	<g>
		<path d="M12,21c-4.962,0-9-4.037-9-9s4.038-9,9-9s9,4.037,9,9S16.962,21,12,21z M12,5c-3.86,0-7,3.141-7,7s3.14,7,7,7s7-3.141,7-7
			S15.86,5,12,5z"/>
	</g>
	<path d="M12,6.5c-3.033,0-5.5,2.468-5.5,5.5s2.467,5.5,5.5,5.5s5.5-2.468,5.5-5.5S15.033,6.5,12,6.5z M16.49,11.902
		c-1.048-0.186-2.1-0.18-3.103,0.042c-0.127-0.326-0.267-0.647-0.417-0.965c0.875-0.524,1.652-1.221,2.284-2.07
		C16,9.694,16.465,10.743,16.49,11.902z M14.49,8.256c-0.546,0.748-1.215,1.367-1.975,1.832c-0.479-0.856-1.046-1.663-1.692-2.412
		C11.201,7.573,11.59,7.5,12,7.5C12.921,7.5,13.776,7.78,14.49,8.256z M9.849,8.072c0.687,0.758,1.278,1.59,1.776,2.473
		c-1.238,0.531-2.622,0.691-3.998,0.437C7.92,9.723,8.745,8.68,9.849,8.072z M7.5,12c0.468,0.064,0.936,0.121,1.399,0.121
		c1.106,0,2.187-0.244,3.185-0.683c0.123,0.261,0.238,0.524,0.344,0.793c-1.469,0.526-2.769,1.489-3.728,2.805
		C7.962,14.234,7.5,13.174,7.5,12z M9.448,15.699c0.842-1.189,2.004-2.057,3.318-2.527c0.314,1.001,0.518,2.039,0.596,3.095
		C12.929,16.405,12.478,16.5,12,16.5C11.052,16.5,10.174,16.202,9.448,15.699z M14.32,15.836c-0.099-1-0.296-1.983-0.593-2.937
		c0.87-0.176,1.778-0.172,2.683,0.001C16.154,14.147,15.375,15.196,14.32,15.836z"/>
</g>
<g id="nyt_x5F_exporter_x5F_info" display="none">
</g>
</svg>
