<?xml version="1.0" encoding="iso-8859-1"?>
<!-- Generator: Adobe Illustrator 16.2.1, SVG Export Plug-In . SVG Version: 6.00 Build 0)  -->
<svg version="1.2" baseProfile="tiny" xmlns="http://www.w3.org/2000/svg" xmlns:xlink="http://www.w3.org/1999/xlink" x="0px"
	 y="0px" width="24px" height="24px" viewBox="0 0 24 24" xml:space="preserve">
<g id="Layer_1">
	<g>
		<g>
			<path d="M12,21c-2.489,0-4.635-0.89-6.376-2.646C3.883,16.603,3,14.465,3,12c0-2.488,0.884-4.634,2.627-6.375
				C7.367,3.884,9.512,3,12,3c2.466,0,4.604,0.883,6.354,2.624C20.109,7.366,21,9.512,21,12c0,2.465-0.89,4.604-2.644,6.357
				C16.605,20.11,14.467,21,12,21z M12,5c-1.966,0-3.588,0.667-4.958,2.04C5.668,8.412,5,10.034,5,12
				c0,1.944,0.668,3.562,2.043,4.945C8.415,18.328,10.036,19,12,19c1.943,0,3.56-0.673,4.941-2.057C18.327,15.559,19,13.941,19,12
				c0-1.963-0.672-3.585-2.055-4.957C15.562,5.668,13.945,5,12,5z"/>
		</g>
	</g>
	<g>
		<path d="M9,14.5c-1.379,0-2.5-1.121-2.5-2.5S7.621,9.5,9,9.5s2.5,1.121,2.5,2.5S10.379,14.5,9,14.5z M9,10.5
			c-0.827,0-1.5,0.673-1.5,1.5s0.673,1.5,1.5,1.5s1.5-0.673,1.5-1.5S9.827,10.5,9,10.5z"/>
	</g>
	<g>
		<path d="M15,14.5c-1.379,0-2.5-1.121-2.5-2.5s1.121-2.5,2.5-2.5s2.5,1.121,2.5,2.5S16.379,14.5,15,14.5z"/>
	</g>
</g>
<g id="nyt_x5F_exporter_x5F_info" display="none">
</g>
</svg>
