<?xml version="1.0" encoding="iso-8859-1"?>
<!-- Generator: Adobe Illustrator 16.2.1, SVG Export Plug-In . SVG Version: 6.00 Build 0)  -->
<svg version="1.2" baseProfile="tiny" xmlns="http://www.w3.org/2000/svg" xmlns:xlink="http://www.w3.org/1999/xlink" x="0px"
	 y="0px" width="24px" height="24px" viewBox="0 0 24 24" xml:space="preserve">
<g id="Layer_1">
	<g>
		<g>
			<path d="M12,21c-2.489,0-4.635-0.89-6.376-2.646C3.883,16.603,3,14.464,3,12c0-2.489,0.884-4.633,2.627-6.375
				C7.367,3.884,9.512,3,12,3c2.466,0,4.604,0.883,6.354,2.624C20.109,7.366,21,9.511,21,12c0,2.464-0.89,4.604-2.644,6.357
				C16.605,20.111,14.467,21,12,21z M12,5c-1.966,0-3.588,0.667-4.958,2.04C5.668,8.412,5,10.034,5,12
				c0,1.944,0.668,3.562,2.043,4.945C8.415,18.328,10.036,19,12,19c1.943,0,3.56-0.673,4.941-2.056C18.327,15.559,19,13.942,19,12
				c0-1.963-0.672-3.585-2.055-4.957C15.562,5.668,13.945,5,12,5z"/>
		</g>
	</g>
	<g>
		<path d="M14.199,14.333c1.335,0,2-0.444,2-1.333c0-0.733-0.422-1.199-1.267-1.4l-0.632-0.133
			c-0.354-0.089-0.534-0.277-0.534-0.566c0-0.334,0.224-0.5,0.666-0.5c0.49,0,0.746,0.188,0.767,0.565l0.967-0.1
			c-0.063-0.822-0.622-1.233-1.666-1.233c-1.134,0-1.699,0.467-1.699,1.401c0,0.665,0.365,1.088,1.099,1.267l0.668,0.133
			c0.443,0.11,0.666,0.312,0.666,0.601c0,0.354-0.345,0.532-1.034,0.532c-0.844,0-1.398-0.411-1.666-1.233l-0.334-0.967
			c-0.199-0.644-0.449-1.095-0.75-1.35c-0.3-0.255-0.771-0.384-1.416-0.384c-0.601,0-1.128,0.223-1.584,0.667
			c-0.456,0.445-0.683,1.033-0.683,1.767c0,0.688,0.216,1.239,0.649,1.649c0.435,0.413,0.95,0.617,1.55,0.617
			c0.602,0,1.078-0.144,1.434-0.433l-0.299-0.834c-0.311,0.312-0.679,0.468-1.101,0.468c-0.354,0-0.662-0.14-0.916-0.417
			c-0.257-0.277-0.385-0.64-0.385-1.084c0-0.556,0.139-0.961,0.417-1.217s0.594-0.383,0.951-0.383c0.379,0,0.648,0.1,0.816,0.299
			c0.167,0.201,0.315,0.512,0.45,0.935l0.3,0.967C11.989,13.767,12.845,14.333,14.199,14.333"/>
	</g>
</g>
<g id="nyt_x5F_exporter_x5F_info" display="none">
</g>
</svg>
