<svg version="1" xmlns="http://www.w3.org/2000/svg" width="24" height="24" viewBox="0 0 24 24"><path d="M16.2 15.3v-.8c0-.3-.1-.5-.2-.7-.1-.2-.4-.2-.6-.2-.3 0-.5.1-.7.3-.2.2-.3.4-.3.7v1.4c0 .3.1.5.2.7.2.2.4.3.6.3.3 0 .5-.1.7-.2.2-.2.2-.4.2-.7v-.2h-.6v.1c0 .2 0 .3-.1.4 0 .1-.1.1-.2.1s-.2 0-.2-.1l-.1-.3v-.6h1.3zm-1.2-.4v-.3c0-.1 0-.2.1-.3 0-.1.1-.1.2-.1s.2 0 .2.1.1.1.1.3v.3h-.6zM13.9 13.9c-.1-.1-.2-.2-.4-.2-.1 0-.2 0-.3.1-.1 0-.2.1-.3.2v-1.3h-.6v4.2h.7v-.2c.1.1.2.2.3.2l.3.1c.2 0 .3-.1.4-.2.1-.1.1-.3.1-.5v-1.7c0-.4-.1-.6-.2-.7zm-.4 2.2c0 .1 0 .2-.1.2 0 0-.1.1-.2.1h-.1l-.1-.1v-1.9l.1-.1h.1c.1 0 .1 0 .2.1l.1.2v1.5zM11.3 16.8v-.3l-.3.3c-.1.1-.2.1-.4.1-.1 0-.2 0-.3-.1-.1-.1-.1-.2-.1-.4v-2.6h.6v2.6h.1s.1 0 .2-.1c.1 0 .1-.1.2-.2v-2.3h.6v3.1l-.6-.1zM9.2 13.2v3.6h-.7v-3.6h-.7v-.6h2.1v.6zM11.6 9.4c0 .1.1.1.2.1s.2 0 .2-.1c.1-.1.1-.1.1-.2v-1.8c0-.1 0-.1-.1-.2l-.2-.1c-.1 0-.2 0-.2.1-.1 0-.1.1-.1.2v1.8c0 .1.1.2.1.2zM12 3c-5 0-9 4-9 9s4 9 9 9 9-4 9-9-4-9-9-9zm1.4 3.6h.6v2.8000000000000003l.1.1s.1 0 .2-.1c.1 0 .1-.1.2-.2v-2.6h.7v3.4h-.7v-.4l-.4.3c-.1.1-.3.1-.4.1-.2 0-.3-.1-.4-.2-.1-.1-.1-.3-.1-.5v-2.7zm-2.6.8c0-.3.1-.5.3-.6.2-.2.4-.2.7-.2.3 0 .5.1.7.2.2.2.3.4.3.6v1.7c0 .3-.1.5-.3.7-.2.2-.4.2-.7.2-.3 0-.5-.1-.7-.3-.2-.2-.3-.4-.3-.7v-1.6zm-1.8-2l.5 1.8.5-1.8h.8l-.9 2.7v1.9h-.8v-1.8l-.9-2.8h.8zm7.7 12.3c-.5.5-4.7.5-4.7.5s-4.2 0-4.7-.5-.5-2.9-.5-3c0 0 0-2.5.5-3s4.7-.5 4.7-.5 4.2 0 4.7.5.5 2.9.5 3c0 .1 0 2.5-.5 3z"/></svg>