<?xml version="1.0" encoding="utf-8"?>
<!-- Generator: Adobe Illustrator 17.1.0, SVG Export Plug-In . SVG Version: 6.00 Build 0)  -->
<!DOCTYPE svg PUBLIC "-//W3C//DTD SVG 1.0//EN" "http://www.w3.org/TR/2001/REC-SVG-20010904/DTD/svg10.dtd">
<svg version="1.0" id="Layer_1" xmlns="http://www.w3.org/2000/svg" xmlns:xlink="http://www.w3.org/1999/xlink" x="0px" y="0px"
	 width="24px" height="24px" viewBox="0 0 24 24" enable-background="new 0 0 24 24" xml:space="preserve">
<path d="M12.9,13.5L12.2,13c-0.2-0.2-0.5-0.4-0.5-0.8c0-0.4,0.3-0.7,0.6-1c0.8-0.6,1.7-1.3,1.7-2.8c0-1.5-0.9-2.3-1.4-2.7v0h1.2
	L15,5h-4.1C9.9,5,8.5,5.2,7.4,6.1C6.6,6.8,6.2,7.8,6.2,8.7c0,1.5,1.2,3.1,3.3,3.1c0.2,0,0.4,0,0.6,0C10,12,9.9,12.2,9.9,12.5
	c0,0.6,0.3,1,0.6,1.3c-0.9,0.1-2.5,0.2-3.8,0.9c-1.2,0.7-1.5,1.7-1.5,2.4c0,1.5,1.4,2.8,4.2,2.8c3.4,0,5.2-1.9,5.2-3.7
	C14.6,14.9,13.8,14.3,12.9,13.5z M10.4,11.3c-1.7,0-2.5-2.2-2.5-3.5c0-0.5,0.1-1,0.4-1.5c0.3-0.4,0.9-0.7,1.4-0.7
	c1.6,0,2.5,2.2,2.5,3.6c0,0.4,0,1-0.5,1.4C11.4,11,10.8,11.3,10.4,11.3z M10.4,19.2c-2.1,0-3.5-1-3.5-2.4c0-1.4,1.3-1.9,1.7-2
	c0.8-0.3,1.9-0.3,2.1-0.3c0.2,0,0.3,0,0.5,0c1.5,1.1,2.1,1.6,2.1,2.6C13.3,18.3,12.3,19.2,10.4,19.2z"/>
<polygon points="17,12 15,12 15,11 17,11 17,9.1 18,9 18,11 20,11 20,12 18,12 18,14 17,14 "/>
</svg>
