<?xml version="1.0" encoding="iso-8859-1"?>
<!-- Generator: Adobe Illustrator 16.2.1, SVG Export Plug-In . SVG Version: 6.00 Build 0)  -->
<svg version="1.2" baseProfile="tiny" id="Layer_1" xmlns="http://www.w3.org/2000/svg" xmlns:xlink="http://www.w3.org/1999/xlink"
	 x="0px" y="0px" width="24px" height="24px" viewBox="0 0 24 24" xml:space="preserve">
<path d="M12,3c-4.962,0-9,4.037-9,9s4.038,9,9,9s9-4.037,9-9S16.962,3,12,3z M18.962,11.275c-1.765-0.289-3.534-0.187-5.205,0.262
	c-0.18-0.436-0.383-0.859-0.59-1.283c1.422-0.81,2.685-1.912,3.713-3.262C18.023,8.105,18.789,9.603,18.962,11.275z M16.13,6.361
	c-0.939,1.243-2.1,2.259-3.401,3.009c-0.782-1.445-1.729-2.8-2.807-4.056C10.579,5.11,11.277,5,12,5
	C13.545,5,14.971,5.51,16.13,6.361z M8.947,5.711c1.119,1.265,2.093,2.645,2.892,4.117c-2.061,0.957-4.396,1.294-6.717,0.899
	C5.53,8.515,6.982,6.669,8.947,5.711z M5,12c0-0.1,0.011-0.195,0.015-0.294c0.676,0.111,1.353,0.188,2.024,0.188
	c1.827,0,3.607-0.426,5.237-1.187c0.182,0.373,0.365,0.744,0.525,1.127C10.372,12.7,8.218,14.32,6.7,16.56
	C5.644,15.333,5,13.742,5,12z M7.393,17.257c1.43-2.129,3.465-3.673,5.764-4.487c0.683,1.854,1.123,3.795,1.292,5.779
	C13.686,18.836,12.862,19,12,19C10.235,19,8.625,18.339,7.393,17.257z M15.407,18.109c-0.196-1.932-0.631-3.822-1.293-5.632
	c1.564-0.404,3.222-0.486,4.871-0.19C18.883,14.789,17.469,16.955,15.407,18.109z"/>
</svg>
