<?xml version="1.0" encoding="utf-8"?>
<!-- Generator: Adobe Illustrator 17.1.0, SVG Export Plug-In . SVG Version: 6.00 Build 0)  -->
<svg version="1.2" baseProfile="tiny" id="Layer_1" xmlns="http://www.w3.org/2000/svg" xmlns:xlink="http://www.w3.org/1999/xlink"
	 x="0px" y="0px" viewBox="0 0 24 24" xml:space="preserve">
<path d="M22.8,8.6c-0.2-1.5-0.4-2.6-1-3C21.2,5.1,16,5,12,5S2.8,5.1,2.2,5.6c-0.6,0.4-0.8,1.5-1,3S1,11,1,12l0,0c0,1,0,1.9,0.2,3.4
	s0.4,2.6,1,3C2.8,18.9,8,19,12,19l0,0c4,0,9.2-0.1,9.8-0.6c0.6-0.4,0.8-1.5,1-3S23,13,23,12l0,0C23,11,23,10.1,22.8,8.6z M10,15.6
	V8.4l6,3.6L10,15.6z"/>
</svg>
