<?xml version="1.0" encoding="iso-8859-1"?>
<!-- Generator: Adobe Illustrator 16.2.1, SVG Export Plug-In . SVG Version: 6.00 Build 0)  -->
<svg version="1.2" baseProfile="tiny" xmlns="http://www.w3.org/2000/svg" xmlns:xlink="http://www.w3.org/1999/xlink" x="0px"
	 y="0px" width="24px" height="24px" viewBox="0 0 24 24" xml:space="preserve">
<g id="Layer_1">
	<g>
		<path d="M14.463,9.141c-0.512,0-0.988,0.238-1.43,0.715c-0.311,0.312-0.5,0.678-0.566,1.101c0.207-0.131,0.387-0.196,0.541-0.196
			c0.159,0,0.29,0.07,0.393,0.212c0.199,0.278,0.188,0.629-0.033,1.051c-0.489,0.934-0.846,1.4-1.066,1.4
			c-0.156,0-0.356-0.522-0.602-1.567c-0.043-0.155-0.088-0.378-0.133-0.667c-0.045-0.288-0.088-0.538-0.133-0.75
			c-0.045-0.211-0.111-0.428-0.2-0.649s-0.2-0.384-0.333-0.483c-0.094-0.069-0.202-0.104-0.327-0.104
			c-0.055,0-0.112,0.007-0.173,0.021c-0.289,0.067-0.623,0.245-1,0.534c-0.379,0.288-0.689,0.566-0.934,0.833l-0.334,0.4
			l0.301,0.399c0.045-0.044,0.1-0.089,0.166-0.133c0.066-0.045,0.189-0.101,0.367-0.167c0.076-0.028,0.141-0.043,0.191-0.043
			c0.069,0,0.116,0.025,0.143,0.076c0.066,0.089,0.271,0.717,0.615,1.884c0.346,1.167,0.562,1.839,0.65,2.017
			c0.156,0.311,0.367,0.55,0.633,0.717c0.13,0.08,0.271,0.121,0.427,0.121c0.165,0,0.346-0.047,0.54-0.139
			c0.601-0.399,1.289-1.066,2.067-2c0.778-0.933,1.255-1.922,1.433-2.966c0.156-0.911-0.11-1.434-0.799-1.567
			C14.729,9.156,14.595,9.141,14.463,9.141z"/>
	</g>
	<g>
		<path d="M12,21c-4.963,0-9-4.037-9-9s4.037-9,9-9s9,4.037,9,9S16.963,21,12,21z M12,5c-3.859,0-7,3.141-7,7s3.141,7,7,7
			s7-3.141,7-7S15.859,5,12,5z"/>
	</g>
</g>
<g id="nyt_x5F_exporter_x5F_info" display="none">
</g>
</svg>
