<?xml version="1.0" encoding="iso-8859-1"?>
<!-- Generator: Adobe Illustrator 16.2.1, SVG Export Plug-In . SVG Version: 6.00 Build 0)  -->
<svg version="1.2" baseProfile="tiny" id="Layer_1" xmlns="http://www.w3.org/2000/svg" xmlns:xlink="http://www.w3.org/1999/xlink"
   x="0px" y="0px" width="24px" height="24px" viewBox="0 0 24 24" xml:space="preserve">
<path d="M18,3H6C4.3,3,3,4.3,3,6v12c0,1.7,1.3,3,3,3h12c1.7,0,3-1.3,3-3V6C21,4.3,19.7,3,18,3z M12,9c1.7,0,3,1.3,3,3s-1.3,3-3,3
	s-3-1.3-3-3S10.3,9,12,9z M15.8,7c0-0.7,0.6-1.2,1.2-1.2s1.2,0.6,1.2,1.2S17.7,8.2,17,8.2S15.8,7.7,15.8,7z M18,19H6
	c-0.6,0-1-0.4-1-1v-6h2c0,2.8,2.2,5,5,5s5-2.2,5-5h2v6C19,18.6,18.6,19,18,19z"/>
</svg>
