<?xml version="1.0" encoding="iso-8859-1"?>
<!-- Generator: Adobe Illustrator 16.2.1, SVG Export Plug-In . SVG Version: 6.00 Build 0)  -->
<svg version="1.2" baseProfile="tiny" id="Layer_1" xmlns="http://www.w3.org/2000/svg" xmlns:xlink="http://www.w3.org/1999/xlink"
	 x="0px" y="0px" width="24px" height="24px" viewBox="0 0 24 24" xml:space="preserve">
<path d="M20.668,13.312c0.059-0.427,0.089-0.846,0.089-1.251c0-2.437-0.846-4.544-2.513-6.263c-1.685-1.735-3.755-2.615-6.152-2.615
	c-0.279,0-0.546,0.013-0.801,0.038c-0.756-0.35-1.568-0.526-2.426-0.526c-1.609,0-3.053,0.61-4.174,1.765
	C3.586,5.595,3,7.045,3,8.652C3,9.484,3.156,10.271,3.466,11c-0.047,0.357-0.07,0.713-0.07,1.062c0,2.438,0.853,4.547,2.532,6.267
	c1.693,1.732,3.768,2.61,6.164,2.61c0.254,0,0.547-0.02,0.896-0.06c0.69,0.283,1.409,0.426,2.146,0.426
	c1.588,0,3.025-0.614,4.157-1.777c1.117-1.143,1.709-2.6,1.709-4.211C21,14.64,20.889,13.968,20.668,13.312z M15.5,15.348
	c-0.284,0.427-0.729,0.781-1.339,1.065c-0.609,0.243-1.31,0.365-2.1,0.365c-0.954,0-1.756-0.173-2.404-0.519
	c-0.467-0.262-0.833-0.598-1.096-1.003c-0.284-0.447-0.428-0.862-0.428-1.248c0-0.243,0.092-0.457,0.274-0.639
	c0.184-0.184,0.416-0.274,0.7-0.274c0.203,0,0.406,0.072,0.609,0.213c0.162,0.162,0.283,0.366,0.364,0.609
	c0.021,0.02,0.153,0.253,0.396,0.7c0.102,0.141,0.284,0.283,0.547,0.425c0.245,0.122,0.568,0.183,0.975,0.183
	c0.548,0,1.005-0.121,1.37-0.364c0.324-0.224,0.486-0.507,0.486-0.853c0-0.284-0.092-0.498-0.274-0.639
	c-0.183-0.184-0.415-0.324-0.699-0.427c-0.081-0.021-0.188-0.047-0.319-0.075c-0.133-0.031-0.285-0.071-0.457-0.123
	c-0.172-0.051-0.32-0.086-0.441-0.106c-0.689-0.141-1.277-0.324-1.766-0.548c-0.426-0.162-0.811-0.445-1.156-0.851
	c-0.283-0.386-0.426-0.843-0.426-1.37c0-0.528,0.152-0.994,0.457-1.4c0.304-0.406,0.74-0.711,1.308-0.913
	C10.65,7.332,11.3,7.222,12.03,7.222c0.548,0,1.066,0.07,1.552,0.213c0.468,0.162,0.843,0.355,1.127,0.579
	c0.263,0.243,0.477,0.486,0.639,0.729c0.142,0.324,0.214,0.589,0.214,0.791c0,0.265-0.092,0.488-0.275,0.669
	c-0.201,0.204-0.436,0.306-0.699,0.306c-0.223,0-0.416-0.061-0.578-0.184c-0.102-0.101-0.233-0.283-0.396-0.547
	c-0.121-0.284-0.314-0.537-0.577-0.762c-0.243-0.182-0.619-0.273-1.127-0.273c-0.507,0-0.892,0.102-1.156,0.305
	c-0.284,0.184-0.426,0.396-0.426,0.639c0,0.162,0.05,0.296,0.152,0.396c0.102,0.143,0.232,0.255,0.396,0.336
	c0.102,0.06,0.274,0.132,0.518,0.212c0.061,0.021,0.197,0.057,0.41,0.106c0.213,0.053,0.391,0.087,0.533,0.107
	c0.283,0.061,0.771,0.192,1.461,0.396c0.406,0.141,0.791,0.323,1.156,0.548c0.346,0.242,0.599,0.517,0.762,0.82
	c0.162,0.365,0.242,0.771,0.242,1.217C15.956,14.373,15.804,14.881,15.5,15.348z"/>
</svg>
