<?xml version="1.0" encoding="iso-8859-1"?>
<!-- Generator: Adobe Illustrator 16.2.1, SVG Export Plug-In . SVG Version: 6.00 Build 0)  -->
<!DOCTYPE svg PUBLIC "-//W3C//DTD SVG 1.1//EN" "http://www.w3.org/Graphics/SVG/1.1/DTD/svg11.dtd">
<svg version="1.1" id="Layer_1" xmlns="http://www.w3.org/2000/svg" xmlns:xlink="http://www.w3.org/1999/xlink" x="0px" y="0px"
	 width="24px" height="24px" viewBox="0 0 24 24" style="enable-background:new 0 0 24 24;" xml:space="preserve">
<g>
	<path d="M20.574,8.458C19.621,7.49,18.445,7,17.08,7s-2.541,0.49-3.495,1.46c-0.945,0.964-1.425,2.154-1.425,3.539
		c0,1.357,0.486,2.542,1.447,3.522c0.964,0.979,2.132,1.477,3.473,1.477s2.509-0.497,3.474-1.478C21.514,14.541,22,13.356,22,11.999
		C22,10.615,21.521,9.425,20.574,8.458z"/>
	<g>
		<path d="M5.92,16.998c-1.341,0-2.509-0.497-3.473-1.477C1.486,14.541,1,13.356,1,11.999c0-1.384,0.479-2.574,1.425-3.539
			C3.379,7.49,4.555,7,5.92,7s2.541,0.49,3.494,1.458c0.946,0.966,1.426,2.156,1.426,3.541c0,1.357-0.486,2.542-1.446,3.521
			C8.429,16.501,7.261,16.998,5.92,16.998z M5.92,9C5.099,9,4.422,9.282,3.852,9.862C3.279,10.445,3,11.146,3,11.999
			c0,0.827,0.286,1.521,0.874,2.121c0.581,0.591,1.251,0.878,2.046,0.878s1.465-0.287,2.047-0.879
			c0.587-0.599,0.873-1.293,0.873-2.12c0-0.854-0.279-1.554-0.853-2.139C7.418,9.282,6.741,9,5.92,9z"/>
	</g>
</g>
</svg>
