<?xml version="1.0" encoding="utf-8"?>
<!-- Generator: Adobe Illustrator 17.1.0, SVG Export Plug-In . SVG Version: 6.00 Build 0)  -->
<!DOCTYPE svg PUBLIC "-//W3C//DTD SVG 1.0//EN" "http://www.w3.org/TR/2001/REC-SVG-20010904/DTD/svg10.dtd">
<svg version="1.0" id="Layer_1" xmlns="http://www.w3.org/2000/svg" xmlns:xlink="http://www.w3.org/1999/xlink" x="0px" y="0px"
	 width="24px" height="24px" viewBox="0 0 24 24" enable-background="new 0 0 24 24" xml:space="preserve">
<path d="M12.8,13.1l-0.4-0.3c-0.1-0.1-0.3-0.2-0.3-0.5s0.2-0.4,0.3-0.6c0.5-0.4,1-0.8,1-1.7s-0.6-1.4-0.8-1.6l0,0h0.7L14,8h-2.4
	C11,8,10.2,8.1,9.5,8.6C9,9,8.7,9.6,8.7,10.2c0,0.9,0.7,1.9,2,1.9c0.1,0,0.2,0,0.4,0C11,12.2,11,12.3,11,12.5c0,0.4,0.2,0.6,0.4,0.8
	c-0.5,0-1.5,0.1-2.3,0.5c-0.7,0.4-0.9,1-0.9,1.4c0,0.9,0.8,1.7,2.5,1.7c2,0,3.1-1.1,3.1-2.2C13.8,14,13.3,13.6,12.8,13.1z
	 M11.2,11.8c-1,0-1.5-1.3-1.5-2.1C9.8,9.3,9.8,9,10,8.8s0.5-0.4,0.8-0.4c1,0,1.5,1.3,1.5,2.2c0,0.2,0,0.6-0.3,0.9
	C11.9,11.6,11.5,11.8,11.2,11.8z M11.3,16.5c-1.3,0-2.1-0.6-2.1-1.4c0-0.8,0.8-1.1,1-1.2c0.5-0.2,1.1-0.2,1.2-0.2c0.1,0,0.2,0,0.3,0
	c0.9,0.6,1.3,1,1.3,1.6C13,16,12.4,16.5,11.3,16.5z"/>
<polygon points="15,12 14,12 14,11 15,11 15,10 16,10 16,11 17,11 17,12 16,12 16,13 15,13 "/>
<g>
	<path d="M12,21c-5,0-9-4-9-9c0-5,4-9,9-9c5,0,9,4,9,9C21,17,17,21,12,21z M12,5c-3.9,0-7,3.1-7,7c0,3.9,3.1,7,7,7c3.9,0,7-3.1,7-7
		C19,8.1,15.9,5,12,5z"/>
</g>
</svg>
