<?xml version="1.0" encoding="iso-8859-1"?>
<!-- Generator: Adobe Illustrator 16.2.1, SVG Export Plug-In . SVG Version: 6.00 Build 0)  -->
<svg version="1.2" baseProfile="tiny" id="Layer_1" xmlns="http://www.w3.org/2000/svg" xmlns:xlink="http://www.w3.org/1999/xlink"
	 x="0px" y="0px" width="24px" height="24px" viewBox="0 0 24 24" xml:space="preserve">
<g>
	<path d="M4,18c-0.552,0-1-0.448-1-1v-6.382l-0.553,0.276c-0.495,0.248-1.095,0.046-1.342-0.447
		C0.858,9.953,1.059,9.353,1.553,9.105l2-1c0.31-0.155,0.678-0.139,0.973,0.044C4.82,8.332,5,8.653,5,9v8C5,17.552,4.552,18,4,18z"
		/>
</g>
<g>
	<path d="M13,18H8c-0.404,0-0.769-0.244-0.924-0.617c-0.155-0.374-0.069-0.804,0.217-1.09l4-4c0.254-0.254,0.394-0.591,0.394-0.95
		c0-0.358-0.14-0.695-0.394-0.949c-0.508-0.508-1.39-0.508-1.9,0.001C9.14,10.647,9,10.984,9,11.343c0,0.552-0.448,1-1,1
		s-1-0.448-1-1c0-0.894,0.348-1.733,0.98-2.364c1.265-1.263,3.464-1.263,4.727,0.001c0.632,0.631,0.979,1.471,0.979,2.363
		c0,0.893-0.348,1.733-0.979,2.364L10.414,16H13c0.552,0,1,0.448,1,1S13.552,18,13,18z"/>
</g>
<path d="M20.955,12.377c0.338-0.457,0.545-1.016,0.545-1.627C21.5,9.233,20.266,8,18.75,8c-1.031,0-1.966,0.569-2.44,1.484
	c-0.254,0.49-0.063,1.094,0.428,1.348c0.49,0.254,1.094,0.062,1.348-0.428C18.214,10.155,18.469,10,18.75,10
	c0.414,0,0.75,0.336,0.75,0.75s-0.336,0.75-0.75,0.75c-0.552,0-1,0.448-1,1s0.448,1,1,1c0.689,0,1.25,0.561,1.25,1.25
	S19.439,16,18.75,16s-1.25-0.561-1.25-1.25c0-0.552-0.448-1-1-1s-1,0.448-1,1c0,1.792,1.458,3.25,3.25,3.25S22,16.542,22,14.75
	C22,13.811,21.594,12.971,20.955,12.377z"/>
</svg>
