<?xml version="1.0" encoding="iso-8859-1"?>
<!-- Generator: Adobe Illustrator 16.2.1, SVG Export Plug-In . SVG Version: 6.00 Build 0)  -->
<!DOCTYPE svg PUBLIC "-//W3C//DTD SVG 1.1//EN" "http://www.w3.org/Graphics/SVG/1.1/DTD/svg11.dtd">
<svg version="1.1" id="Layer_1" xmlns="http://www.w3.org/2000/svg" xmlns:xlink="http://www.w3.org/1999/xlink" x="0px" y="0px"
	 width="24px" height="24px" viewBox="0 0 24 24" style="enable-background:new 0 0 24 24;" xml:space="preserve">
<path d="M10.895,16.553l-4-8c-0.339-0.678-1.45-0.678-1.789,0l-4,8c-0.247,0.494-0.047,1.095,0.447,1.342
	c0.495,0.248,1.095,0.046,1.342-0.447l0.759-1.518C3.762,15.971,3.877,16,4,16h4.382l0.724,1.447C9.281,17.798,9.634,18,10.001,18
	c0.15,0,0.303-0.034,0.446-0.105C10.941,17.647,11.142,17.047,10.895,16.553z M4.618,14L6,11.236L7.382,14H4.618z"/>
<g>
	<path d="M22,18h-6c-0.379,0-0.725-0.214-0.895-0.553S14.973,16.703,15.2,16.4L20,10h-4c-0.552,0-1-0.448-1-1s0.448-1,1-1h6
		c0.379,0,0.725,0.214,0.895,0.553S23.027,9.297,22.8,9.6L18,16h4c0.552,0,1,0.448,1,1S22.552,18,22,18z"/>
</g>
<g>
	<path d="M14,14h-2c-0.552,0-1-0.448-1-1s0.448-1,1-1h2c0.552,0,1,0.448,1,1S14.552,14,14,14z"/>
</g>
</svg>
