<?xml version="1.0" encoding="iso-8859-1"?>
<!-- Generator: Adobe Illustrator 16.2.1, SVG Export Plug-In . SVG Version: 6.00 Build 0)  -->
<svg version="1.2" baseProfile="tiny" id="Layer_1" xmlns="http://www.w3.org/2000/svg" xmlns:xlink="http://www.w3.org/1999/xlink"
	 x="0px" y="0px" width="24px" height="24px" viewBox="0 0 24 24" xml:space="preserve">
<path d="M20.285,7.119c-0.05-0.168-0.184-0.299-0.354-0.344c-0.172-0.047-0.352,0.003-0.477,0.126l-2.616,2.557l-1.914-0.383
	l-0.381-1.907l2.645-2.585c0.126-0.123,0.178-0.303,0.137-0.474s-0.168-0.308-0.336-0.361C16.458,3.582,15.971,3.5,15.5,3.5
	c-2.757,0-5,2.243-5,5c0,0.323,0.038,0.65,0.118,1.01c-0.562,0.463-1.096,0.862-1.701,1.314c-0.865,0.646-1.845,1.377-3.182,2.506
	C4.95,14.016,4.5,14.989,4.5,16c0,1.93,1.57,3.5,3.5,3.5c1.021,0,1.993-0.456,2.662-1.25c1.149-1.347,1.891-2.336,2.544-3.209
	c0.442-0.591,0.832-1.111,1.283-1.66c0.36,0.081,0.688,0.119,1.011,0.119c2.757,0,5-2.243,5-5C20.5,8.063,20.432,7.625,20.285,7.119
	z M8,17c-0.553,0-1-0.447-1-1s0.447-1,1-1s1,0.447,1,1S8.553,17,8,17z"/>
</svg>
