<?xml version="1.0" encoding="iso-8859-1"?>
<!-- Generator: Adobe Illustrator 16.2.1, SVG Export Plug-In . SVG Version: 6.00 Build 0)  -->
<!DOCTYPE svg PUBLIC "-//W3C//DTD SVG 1.1//EN" "http://www.w3.org/Graphics/SVG/1.1/DTD/svg11.dtd">
<svg version="1.1" id="Layer_1" xmlns="http://www.w3.org/2000/svg" xmlns:xlink="http://www.w3.org/1999/xlink" x="0px" y="0px"
	 width="24px" height="24px" viewBox="0 0 24 24" style="enable-background:new 0 0 24 24;" xml:space="preserve">
<g>
	<path d="M15.5,2C11.91,2,9,4.91,9,8.5c0,0.123,0.004,0.247,0.013,0.373C8.694,9.119,8.369,9.361,8.02,9.623
		c-0.882,0.658-1.881,1.404-3.246,2.558C3.638,13.17,3,14.555,3,16c0,2.757,2.243,5,5,5c1.465,0,2.854-0.65,3.811-1.784
		c1.173-1.375,1.93-2.385,2.597-3.276c0.251-0.335,0.483-0.647,0.721-0.953C15.253,14.996,15.377,15,15.5,15
		c3.59,0,6.5-2.91,6.5-6.5S19.09,2,15.5,2z M10.282,17.926C9.732,18.577,8.92,19,8,19c-1.656,0-3-1.343-3-3
		c0-0.92,0.423-1.732,1.064-2.292c2.368-2.002,3.617-2.748,5.115-4.015C11.074,9.311,11,8.916,11,8.5C11,6.015,13.015,4,15.5,4
		c0.47,0,0.914,0.092,1.339,0.226L14,7l0.5,2.5L17,10l2.805-2.741C19.92,7.655,20,8.066,20,8.5c0,2.485-2.015,4.5-4.5,4.5
		c-0.416,0-0.811-0.074-1.193-0.18C13.04,14.318,12.294,15.568,10.282,17.926z"/>
	<circle cx="8" cy="16" r="1"/>
</g>
</svg>
