<?xml version="1.0" encoding="iso-8859-1"?>
<!-- Generator: Adobe Illustrator 16.2.1, SVG Export Plug-In . SVG Version: 6.00 Build 0)  -->
<svg version="1.2" baseProfile="tiny" id="Layer_1" xmlns="http://www.w3.org/2000/svg" xmlns:xlink="http://www.w3.org/1999/xlink"
   x="0px" y="0px" width="24px" height="24px" viewBox="0 0 24 24" xml:space="preserve">
	<path d="M12,11.8c1-0.4,0.7-1.8,0-2.4C10.9,8.5,9.3,9,8.6,10.2c-1.5,2.4,0.9,5,3.4,4.9c2.7-0.2,4.3-2.9,3.7-5.4
		C15,6.7,11.8,5.2,9,6.1c-2.6,0.8-4.2,3.5-4,6.2c0.3,3,2.6,5.4,5.5,5.9c2.8,0.5,5.7-0.8,7.2-3.2c0.7-1.1,1.2-2.4,1.2-3.8
		c0-0.5,0.5-1,1.1-0.9c0.8,0,1,0.8,0.9,1.4c-0.4,4.7-4.5,8.6-9.3,8.6c-5.9,0-10.5-6.2-8-11.8C6.1,3.1,13.9,2,16.9,7.3
		c1.5,2.5,1.2,5.8-0.9,7.9c-2,2-5.3,2.4-7.7,0.7C6.1,14.3,5.4,11,7.2,8.7c1.7-2.3,5.5-2.4,7,0.2c1.1,1.9,0,5.2-2.5,4.9
		c-1.6,0-3-1.7-2.1-3.2c0.6-0.9,1.9-0.6,2.3,0.1C12.1,11.5,12,11.8,12,11.8z"/>
</svg>
