<?xml version="1.0" encoding="iso-8859-1"?>
<!-- Generator: Adobe Illustrator 16.2.1, SVG Export Plug-In . SVG Version: 6.00 Build 0)  -->
<svg version="1.2" baseProfile="tiny" id="Layer_1" xmlns="http://www.w3.org/2000/svg" xmlns:xlink="http://www.w3.org/1999/xlink"
	 x="0px" y="0px" width="24px" height="24px" viewBox="0 0 24 24" xml:space="preserve">
<path d="M19.064,10.109l1.179-2.387c0.074-0.149,0.068-0.327-0.015-0.471c-0.083-0.145-0.234-0.238-0.401-0.249L17.171,6.83
	l-0.172-2.656c-0.011-0.167-0.104-0.317-0.249-0.401c-0.145-0.084-0.322-0.09-0.472-0.015l-2.385,1.18l-1.477-2.215
	c-0.186-0.278-0.646-0.278-0.832,0l-1.477,2.215l-2.385-1.18C7.571,3.683,7.395,3.689,7.25,3.773
	C7.105,3.856,7.012,4.007,7.001,4.174L6.83,6.83L4.173,7.001C4.006,7.012,3.855,7.105,3.772,7.25
	C3.688,7.395,3.683,7.572,3.757,7.722l1.179,2.386l-2.214,1.477c-0.139,0.093-0.223,0.249-0.223,0.416s0.083,0.323,0.223,0.416
	l2.215,1.477l-1.18,2.386c-0.074,0.15-0.068,0.327,0.015,0.472C3.855,16.896,4.006,16.99,4.173,17l2.656,0.171L7,19.828
	c0.011,0.167,0.104,0.317,0.249,0.401c0.144,0.083,0.32,0.088,0.472,0.015l2.386-1.179l1.477,2.214
	c0.093,0.139,0.249,0.223,0.416,0.223s0.323-0.083,0.416-0.223l1.477-2.214l2.386,1.179c0.15,0.073,0.327,0.068,0.472-0.015
	s0.238-0.234,0.249-0.401l0.171-2.656L19.827,17c0.167-0.011,0.317-0.104,0.401-0.249c0.083-0.145,0.089-0.322,0.015-0.472
	l-1.179-2.385l2.214-1.478c0.139-0.093,0.223-0.249,0.223-0.416s-0.083-0.323-0.223-0.416L19.064,10.109z"/>
</svg>
