<?xml version="1.0" encoding="iso-8859-1"?>
<!-- Generator: Adobe Illustrator 16.2.1, SVG Export Plug-In . SVG Version: 6.00 Build 0)  -->
<svg version="1.2" baseProfile="tiny" id="Layer_1" xmlns="http://www.w3.org/2000/svg" xmlns:xlink="http://www.w3.org/1999/xlink"
   x="0px" y="0px" width="24px" height="24px" viewBox="0 0 24 24" xml:space="preserve">
<path d="M11.5,4.3c-0.9,1.9-2.2,4.8-2.2,4.8S6.2,9.5,4.1,9.7c-0.2,0-0.4,0.2-0.4,0.3c-0.1,0.2,0,0.4,0.1,0.5
	c1.6,1.4,3.9,3.6,3.9,3.6c0,0-0.6,3.1-1.1,5.2c0,0.2,0,0.4,0.2,0.5C7,20,7.2,20,7.4,19.9c1.8-1,4.6-2.6,4.6-2.6V4
	C11.8,4,11.6,4.2,11.5,4.3z"/>
</svg>
