<?xml version="1.0" encoding="iso-8859-1"?>
<!-- Generator: Adobe Illustrator 16.2.1, SVG Export Plug-In . SVG Version: 6.00 Build 0)  -->
<svg version="1.2" baseProfile="tiny" id="Layer_1" xmlns="http://www.w3.org/2000/svg" xmlns:xlink="http://www.w3.org/1999/xlink"
	 x="0px" y="0px" width="24px" height="24px" viewBox="0 0 24 24" xml:space="preserve">
<path d="M21.556,11.169l-1.849-1.232l0.984-1.993c0.148-0.3,0.137-0.654-0.03-0.943c-0.168-0.29-0.468-0.477-0.802-0.498
	l-2.218-0.143l-0.144-2.218C17.477,3.808,17.289,3.507,17,3.34c-0.29-0.167-0.645-0.18-0.943-0.03l-1.991,0.985l-1.233-1.849
	c-0.371-0.557-1.293-0.557-1.664,0L9.935,4.294L7.943,3.31C7.644,3.16,7.289,3.173,7,3.34C6.71,3.507,6.523,3.808,6.502,4.142
	L6.359,6.359L4.141,6.502C3.807,6.524,3.506,6.711,3.339,7S3.16,7.644,3.309,7.943l0.984,1.993l-1.849,1.233
	c-0.278,0.186-0.445,0.498-0.445,0.832s0.167,0.646,0.445,0.832l1.85,1.233l-0.985,1.992c-0.148,0.3-0.137,0.654,0.03,0.943
	s0.468,0.477,0.802,0.498l2.218,0.143l0.143,2.218c0.021,0.333,0.208,0.634,0.498,0.801s0.642,0.179,0.943,0.031l1.992-0.985
	l1.233,1.849c0.186,0.278,0.498,0.445,0.832,0.445s0.646-0.167,0.832-0.445l1.233-1.849l1.991,0.985
	c0.299,0.148,0.653,0.136,0.943-0.03c0.29-0.167,0.477-0.468,0.498-0.802l0.143-2.217l2.219-0.144
	c0.334-0.021,0.635-0.208,0.802-0.498s0.179-0.644,0.03-0.943l-0.984-1.992l1.849-1.233c0.278-0.186,0.445-0.498,0.445-0.832
	C22.001,11.667,21.834,11.354,21.556,11.169z M17.524,14.166l0.71,1.435l-1.6,0.104c-0.502,0.033-0.901,0.432-0.934,0.934
	l-0.103,1.598l-1.435-0.709c-0.45-0.224-0.996-0.077-1.275,0.342L12,19.2l-0.889-1.333c-0.191-0.287-0.508-0.445-0.833-0.445
	c-0.149,0-0.3,0.033-0.442,0.104L8.4,18.235l-0.103-1.598c-0.032-0.501-0.432-0.901-0.934-0.934L5.767,15.6l0.71-1.435
	c0.223-0.451,0.076-0.997-0.342-1.275l-1.333-0.889l1.332-0.888c0.418-0.279,0.564-0.825,0.342-1.275l-0.71-1.436l1.6-0.103
	c0.502-0.033,0.901-0.432,0.934-0.934l0.103-1.598l1.435,0.709c0.448,0.221,0.996,0.076,1.275-0.342L12,4.803l0.889,1.333
	c0.279,0.418,0.826,0.563,1.275,0.342l1.436-0.71l0.104,1.599c0.033,0.501,0.433,0.9,0.934,0.933l1.598,0.103l-0.709,1.437
	c-0.223,0.451-0.076,0.996,0.342,1.275l1.332,0.888l-1.333,0.889C17.448,13.169,17.302,13.715,17.524,14.166z"/>
</svg>
