<?xml version="1.0" encoding="iso-8859-1"?>
<!-- Generator: Adobe Illustrator 16.2.1, SVG Export Plug-In . SVG Version: 6.00 Build 0)  -->
<svg version="1.2" baseProfile="tiny" id="Layer_1" xmlns="http://www.w3.org/2000/svg" xmlns:xlink="http://www.w3.org/1999/xlink"
   x="0px" y="0px" width="24px" height="24px" viewBox="0 0 24 24" xml:space="preserve">
<path d="M3.1,11.3C3.1,11.3,3.1,11.3,3.1,11.3l3.6,3.3l-1,4.6c-0.1,0.6,0.1,1.2,0.6,1.5C6.5,20.9,6.8,21,7.1,21c0.2,0,0.4,0,0.6-0.1
	c0,0,0.1,0,0.1-0.1l4.1-2.3l4.1,2.3c0,0,0.1,0,0.1,0.1c0.5,0.2,1.1,0.2,1.5-0.1c0.5-0.3,0.7-0.9,0.6-1.5l-1-4.6
	c0.4-0.3,1-0.9,1.6-1.5l1.9-1.7c0,0,0.1-0.1,0.1-0.1c0.4-0.4,0.5-1,0.3-1.5c-0.2-0.5-0.6-0.9-1.2-1c0,0-0.1,0-0.1,0l-4.7-0.5
	l-1.9-4.3c0,0,0-0.1-0.1-0.1C13,3.3,12.5,3,12,3c-0.5,0-1,0.3-1.3,0.8c0,0,0,0.1-0.1,0.1L8.7,8.2L4,8.7c0,0-0.1,0-0.1,0
	c-0.5,0.1-1,0.5-1.2,1C2.6,10.3,2.7,10.9,3.1,11.3z M12,16.3V5.8l0,0l1.7,3.8c0.1,0.3,0.5,0.5,0.8,0.6l4.2,0.5l-3.1,2.8
	c-0.3,0.2-0.4,0.6-0.3,1c0,0.2,0.5,2.2,0.8,4.1l-3.6-2.1C12.3,16.3,12.2,16.3,12,16.3z"/>
</svg>
