<?xml version="1.0" encoding="iso-8859-1"?>
<!-- Generator: Adobe Illustrator 16.2.1, SVG Export Plug-In . SVG Version: 6.00 Build 0)  -->
<!DOCTYPE svg PUBLIC "-//W3C//DTD SVG 1.1//EN" "http://www.w3.org/Graphics/SVG/1.1/DTD/svg11.dtd">
<svg version="1.1" id="Layer_1" xmlns="http://www.w3.org/2000/svg" xmlns:xlink="http://www.w3.org/1999/xlink" x="0px" y="0px"
	 width="24px" height="24px" viewBox="0 0 24 24" style="enable-background:new 0 0 24 24;" xml:space="preserve">
<g>
	<g>
		<path d="M16.855,20.966c-0.223,0-0.443-0.05-0.645-0.145c-0.035-0.015-0.07-0.032-0.104-0.052l-4.108-2.342L7.891,20.77
			c-0.034,0.02-0.07,0.038-0.106,0.053c-0.487,0.229-1.084,0.175-1.52-0.143c-0.469-0.339-0.701-0.932-0.586-1.508l0.957-4.641
			c-0.374-0.34-0.962-0.875-1.602-1.458l-1.894-1.725c-0.028-0.025-0.055-0.052-0.079-0.081c-0.375-0.396-0.508-0.97-0.339-1.492
			c0.171-0.525,0.619-0.913,1.159-1.011C3.916,8.758,3.95,8.752,3.984,8.749l4.701-0.521l1.946-4.31
			c0.017-0.038,0.036-0.075,0.059-0.11c0.262-0.473,0.764-0.772,1.309-0.772c0.543,0,1.044,0.298,1.308,0.77
			c0.022,0.036,0.042,0.073,0.06,0.112l1.948,4.311l4.701,0.521c0.035,0.003,0.069,0.009,0.104,0.017
			c0.539,0.099,0.987,0.486,1.158,1.011c0.17,0.522,0.036,1.098-0.34,1.494c-0.024,0.027-0.051,0.054-0.078,0.079l-3.497,3.183
			l0.957,4.632c0.113,0.587-0.119,1.178-0.59,1.519C17.477,20.867,17.173,20.966,16.855,20.966z M8.706,14.402
			c-0.039,0.182-0.466,2.246-0.845,4.082l3.643-2.077c0.307-0.175,0.684-0.175,0.99,0l3.642,2.076l-0.848-4.105
			c-0.071-0.346,0.045-0.705,0.307-0.942l3.101-2.822l-4.168-0.462c-0.351-0.039-0.655-0.26-0.801-0.583l-1.728-3.822L10.273,9.57
			c-0.146,0.322-0.45,0.543-0.801,0.583l-4.168,0.462l3.101,2.822C8.676,13.682,8.788,14.053,8.706,14.402z"/>
	</g>
</g>
</svg>
