<?xml version="1.0" encoding="iso-8859-1"?>
<!-- Generator: Adobe Illustrator 16.2.1, SVG Export Plug-In . SVG Version: 6.00 Build 0)  -->
<svg version="1.2" baseProfile="tiny" xmlns="http://www.w3.org/2000/svg" xmlns:xlink="http://www.w3.org/1999/xlink" x="0px"
	 y="0px" width="24px" height="24px" viewBox="0 0 24 24" xml:space="preserve">
<g id="Layer_1">
	<g>
		<path d="M19.414,8.902c0.104-0.048,0.206-0.108,0.293-0.195l0.5-0.5c0.391-0.391,0.391-1.023,0-1.414s-1.023-0.391-1.414,0
			l-0.5,0.5c-0.051,0.051-0.077,0.115-0.115,0.173c-1.387-1.312-3.188-2.19-5.189-2.41C12.99,5.037,13,5.02,13,5V4h1
			c0.55,0,1-0.45,1-1s-0.45-1-1-1h-4C9.45,2,9,2.45,9,3s0.45,1,1,1h1v1c0,0.02,0.01,0.037,0.012,0.057C6.506,5.549,3,9.364,3,14
			c0,4.971,4.029,9,9,9s9-4.029,9-9C21,12.106,20.412,10.352,19.414,8.902z M12,21c-3.859,0-7-3.14-7-7s3.141-7,7-7s7,3.14,7,7
			S15.859,21,12,21z"/>
		<path d="M13,13v-2c0-0.55-0.45-1-1-1s-1,0.45-1,1v3c0,0.55,0.45,1,1,1h3c0.55,0,1-0.45,1-1s-0.45-1-1-1H13z"/>
		<path d="M12,8c-3.312,0-6,2.688-6,6s2.688,6,6,6s6-2.688,6-6S15.312,8,12,8z M12,19c-2.757,0-5-2.243-5-5s2.243-5,5-5s5,2.243,5,5
			S14.757,19,12,19z"/>
	</g>
</g>
<g id="nyt_x5F_exporter_x5F_info" display="none">
</g>
</svg>
