<svg height="1000px" width="716.796875px" xmlns="http://www.w3.org/2000/svg">
  <g>
    <path d="M0 604.00390625c0 -19.531 9.766 -33.366 29.297 -41.504c0 0 24.902 -8.301 24.902 -8.301c30.599 -11.067 52.897 -16.601 66.895 -16.601c27.669 0 41.504 13.834 41.504 41.504c0 16.601 -9.766 29.134 -29.297 37.597c0 0 -24.903 8.301 -24.903 8.301c-33.203 13.997 -55.501 20.996 -66.894 20.996c-27.669 -0.325 -41.504 -14.323 -41.504 -41.992c0 0 0 0 0 0m0 -208.008c0 -27.669 13.835 -41.666 41.504 -41.992c2.93 0 7.161 0.732 12.695 2.197c5.534 1.465 11.068 2.198 16.602 2.198c2.929 0 8.463 2.115 16.601 6.347c0 0 20.996 10.254 20.996 10.254c0 0 24.903 8.301 24.903 8.301c19.531 11.068 29.297 23.6 29.297 37.598c0 27.669 -13.835 41.503 -41.504 41.503c-11.068 0 -20.834 -1.302 -29.297 -3.906c-8.464 -5.534 -20.996 -9.765 -37.598 -12.695c0 0 -24.902 -8.301 -24.902 -8.301c-19.531 -8.138 -29.297 -21.973 -29.297 -41.504c0 0 0 0 0 0m121.094 375c0 -13.997 6.836 -30.762 20.508 -50.293c2.929 -2.929 6.429 -7.08 10.498 -12.451c4.069 -5.371 7.568 -9.521 10.498 -12.451c0 0 16.601 -16.602 16.601 -16.602c8.464 -11.067 19.531 -16.601 33.203 -16.601c27.67 0 41.667 13.834 41.993 41.504c0 13.997 -8.464 29.297 -25.391 45.898c-2.93 5.534 -9.766 13.835 -20.508 24.902c0 0 -12.695 20.997 -12.695 20.997c-11.068 11.067 -22.136 16.601 -33.203 16.601c-27.67 0 -41.504 -13.835 -41.504 -41.504c0 0 0 0 0 0m0 -541.992c0 -27.669 13.834 -41.504 41.504 -41.504c11.067 0 22.135 5.534 33.203 16.602c0 0 12.695 20.996 12.695 20.996c11.068 11.067 17.904 19.368 20.508 24.902c16.601 16.602 25.065 31.901 25.391 45.899c0 27.669 -13.998 41.503 -41.993 41.503c-13.997 0 -25.065 -5.533 -33.203 -16.601c0 0 -16.601 -16.602 -16.601 -16.602c-2.93 -2.929 -6.429 -7.161 -10.498 -12.695c-4.069 -5.534 -7.569 -9.603 -10.498 -12.207c-13.672 -27.995 -20.508 -44.759 -20.508 -50.293c0 0 0 0 0 0m70.801 270.996c0 -44.596 16.601 -83.496 49.804 -116.699c27.669 -33.203 66.569 -49.805 116.699 -49.805c44.597 0 83.497 16.602 116.7 49.805c33.203 33.203 49.804 72.103 49.804 116.699c0 50.13 -16.601 89.03 -49.804 116.699c-33.203 33.203 -72.103 49.805 -116.7 49.805c-50.13 0 -89.03 -16.602 -116.699 -49.805c-33.203 -27.669 -49.804 -66.569 -49.804 -116.699c0 0 0 0 0 0m83.007 0c0 22.136 8.383 41.585 25.147 58.35c16.764 16.764 36.214 25.146 58.349 25.146c22.136 0 41.586 -8.382 58.35 -25.146c16.764 -16.765 25.147 -36.214 25.147 -58.35c0 -22.135 -8.383 -41.585 -25.147 -58.35c-16.764 -16.764 -36.214 -25.146 -58.35 -25.146c-22.135 0 -41.585 8.382 -58.349 25.146c-16.764 16.765 -25.147 36.215 -25.147 58.35c0 0 0 0 0 0m41.993 333.496c0 0 0 -83.496 0 -83.496c0 -27.669 13.834 -41.504 41.503 -41.504c27.67 0 41.504 13.835 41.504 41.504c0 0 0 83.496 0 83.496c0 27.669 -13.834 41.504 -41.504 41.504c-27.669 0 -41.503 -13.835 -41.503 -41.504c0 0 0 0 0 0m0 -583.496c0 0 0 -83.496 0 -83.496c0 -27.669 13.834 -41.504 41.503 -41.504c27.67 0 41.504 13.835 41.504 41.504c0 0 0 83.496 0 83.496c0 27.669 -13.834 41.504 -41.504 41.504c-27.669 0 -41.503 -13.835 -41.503 -41.504c0 0 0 0 0 0m145.507 454.102c0 -27.67 13.998 -41.504 41.993 -41.504c13.997 0 25.065 5.534 33.203 16.601c0 0 16.601 16.602 16.601 16.602c2.93 2.93 6.429 7.161 10.498 12.695c4.069 5.534 7.569 9.603 10.498 12.207c13.998 27.669 20.834 44.434 20.508 50.293c0 27.669 -13.835 41.504 -41.504 41.504c-11.067 0 -22.135 -5.534 -33.203 -16.601c0 0 -16.601 -20.997 -16.601 -20.997c-2.93 -2.929 -5.778 -7.08 -8.545 -12.451c-2.767 -5.371 -5.453 -9.521 -8.057 -12.451c-16.927 -16.601 -25.391 -31.901 -25.391 -45.898c0 0 0 0 0 0m0 -408.203c0 -13.998 8.464 -29.297 25.391 -45.899c2.93 -2.93 5.697 -7.161 8.301 -12.695c2.604 -5.534 5.371 -9.603 8.301 -12.207c0 0 16.601 -20.996 16.601 -20.996c11.068 -11.068 22.136 -16.602 33.203 -16.602c27.669 0 41.504 13.835 41.504 41.504c0 11.068 -4.069 20.833 -12.207 29.297c-5.534 11.068 -13.835 23.6 -24.902 37.598c0 0 -20.996 24.902 -20.996 24.902c-8.464 11.068 -19.532 16.601 -33.203 16.601c-27.995 0 -41.993 -13.834 -41.993 -41.503c0 0 0 0 0 0m91.797 283.203c0 -27.67 13.835 -41.504 41.504 -41.504c11.068 0 19.531 1.302 25.391 3.906c5.534 0 13.834 1.465 24.902 4.395c5.534 5.533 11.068 8.3 16.602 8.3c0 0 24.902 8.301 24.902 8.301c19.531 8.464 29.297 22.298 29.297 41.504c0 27.669 -13.835 41.667 -41.504 41.992c-2.93 0 -7.161 -0.732 -12.695 -2.197c-5.534 -1.465 -11.068 -2.197 -16.602 -2.197c-2.93 0 -8.463 -2.116 -16.601 -6.348c0 0 -20.997 -10.254 -20.997 -10.254c0 0 -24.902 -8.301 -24.902 -8.301c-19.531 -8.463 -29.297 -20.996 -29.297 -37.597c0 0 0 0 0 0m0 -158.203c0 -16.602 9.766 -29.135 29.297 -37.598c0 0 24.902 -8.301 24.902 -8.301c33.204 -13.997 55.502 -20.996 66.895 -20.996c27.669 0 41.504 13.997 41.504 41.992c0 19.531 -9.766 33.366 -29.297 41.504c0 0 -24.902 8.301 -24.902 8.301c-25.065 11.068 -47.364 16.601 -66.895 16.601c-27.669 0 -41.504 -13.834 -41.504 -41.503c0 0 0 0 0 0" />
  </g>
</svg>