<?xml version="1.0" encoding="iso-8859-1"?>
<!-- Generator: Adobe Illustrator 16.2.1, SVG Export Plug-In . SVG Version: 6.00 Build 0)  -->
<svg version="1.2" baseProfile="tiny" id="Layer_1" xmlns="http://www.w3.org/2000/svg" xmlns:xlink="http://www.w3.org/1999/xlink"
	 x="0px" y="0px" width="24px" height="24px" viewBox="0 0 24 24" xml:space="preserve">
<path d="M12,3.5c-4.688,0-8.5,3.812-8.5,8.5s3.812,8.5,8.5,8.5s8.5-3.812,8.5-8.5S16.688,3.5,12,3.5z M18.5,12
	c0,1.064-0.264,2.066-0.718,2.956l-1.931-1.931c0.088-0.332,0.147-0.674,0.147-1.025c0-0.355-0.062-0.693-0.147-1.021l1.932-1.932
	C18.238,9.936,18.5,10.938,18.5,12z M5.5,12c0-1.064,0.264-2.066,0.718-2.956l1.933,1.933c-0.086,0.33-0.147,0.668-0.147,1.022
	c0,0.353,0.062,0.69,0.147,1.021l-1.934,1.934C5.762,14.064,5.5,13.062,5.5,12z M8.568,9.98L6.793,8.205l1.414-1.414l1.775,1.775
	C9.398,8.911,8.914,9.396,8.568,9.98z M6.791,15.793l1.773-1.773c0.17,0.289,0.362,0.564,0.605,0.809s0.52,0.438,0.807,0.607
	l-1.771,1.771L6.791,15.793z M10.586,13.414c-0.377-0.378-0.585-0.88-0.584-1.414c0-1.104,0.896-2,1.998-2c1.104,0,2,0.896,2,2.001
	c0.001,0.533-0.207,1.035-0.584,1.412C12.661,14.17,11.343,14.17,10.586,13.414z M17.209,8.207l-1.775,1.775
	c-0.345-0.586-0.828-1.069-1.412-1.416l1.773-1.773L17.209,8.207z M14.831,14.826c0.241-0.242,0.435-0.518,0.604-0.803l1.771,1.771
	l-1.414,1.414l-1.772-1.772C14.311,15.266,14.587,15.07,14.831,14.826z M14.956,6.218L13.023,8.15C12.695,8.062,12.355,8,12,8
	s-0.693,0.062-1.021,0.148L9.047,6.216C9.936,5.761,10.938,5.499,12,5.499C13.064,5.5,14.066,5.764,14.956,6.218z M9.044,17.782
	l1.933-1.933c0.332,0.088,0.672,0.149,1.023,0.149s0.691-0.062,1.021-0.147l1.932,1.932C14.064,18.238,13.062,18.5,12,18.5
	C10.936,18.5,9.934,18.236,9.044,17.782z"/>
</svg>
