<?xml version="1.0" encoding="iso-8859-1"?>
<!-- Generator: Adobe Illustrator 16.2.1, SVG Export Plug-In . SVG Version: 6.00 Build 0)  -->
<svg version="1.2" baseProfile="tiny" id="Layer_1" xmlns="http://www.w3.org/2000/svg" xmlns:xlink="http://www.w3.org/1999/xlink"
	 x="0px" y="0px" width="24px" height="24px" viewBox="0 0 24 24" xml:space="preserve">
<path d="M18,4H8C6.896,4,6,4.896,6,6v2H5c-1.104,0-2,0.896-2,2v9c0,1.104,0.896,2,2,2h9c1.104,0,2-0.896,2-2v-1h2
	c1.104,0,2-0.896,2-2V6C20,4.896,19.104,4,18,4z M5,19v-9h3h5.5c0.275,0,0.5,0.225,0.5,0.5V16v3H5z M18,16h-3v-5.5
	C15,9.673,14.327,9,13.5,9H8V8V6h10V16z"/>
</svg>
