<svg height="1000px" width="741.69921875px" xmlns="http://www.w3.org/2000/svg">
  <g>
    <path d="M0 458.49609375c0 0 0 -333.496 0 -333.496c0 0 333.496 0 333.496 0c0 0 387.207 387.695 387.207 387.695c13.998 13.998 20.996 30.599 20.996 49.805c0 16.601 -6.998 31.901 -20.996 45.898c0 0 -237.305 237.305 -237.305 237.305c-13.997 13.997 -29.296 20.996 -45.898 20.996c-19.531 0 -36.133 -6.999 -49.805 -20.996c0 0 -387.695 -387.207 -387.695 -387.207m104.004 -145.996c0 22.135 8.382 41.585 25.146 58.35c16.765 16.764 36.215 25.146 58.35 25.146c22.135 0 41.585 -8.382 58.35 -25.146c16.764 -16.765 25.146 -36.215 25.146 -58.35c0 -22.136 -8.382 -41.585 -25.146 -58.35c-16.765 -16.764 -36.215 -25.146 -58.35 -25.146c-22.135 0 -41.585 8.382 -58.35 25.146c-16.764 16.765 -25.146 36.214 -25.146 58.35c0 0 0 0 0 0" />
  </g>
</svg>