<?xml version="1.0" encoding="iso-8859-1"?>
<!-- Generator: Adobe Illustrator 16.2.1, SVG Export Plug-In . SVG Version: 6.00 Build 0)  -->
<!DOCTYPE svg PUBLIC "-//W3C//DTD SVG 1.1//EN" "http://www.w3.org/Graphics/SVG/1.1/DTD/svg11.dtd">
<svg version="1.1" id="Layer_1" xmlns="http://www.w3.org/2000/svg" xmlns:xlink="http://www.w3.org/1999/xlink" x="0px" y="0px"
	 width="24px" height="24px" viewBox="0 0 24 24" style="enable-background:new 0 0 24 24;" xml:space="preserve">
<g>
	<path d="M9,5c1.279,0,2.559,0.488,3.535,1.465L16,10l5,5l-7,7l-5.498-5.498l-0.037,0.033l-3-3c-1.953-1.953-1.953-5.119,0-7.07
		C6.441,5.488,7.721,5,9,5 M9,3C7.13,3,5.372,3.729,4.051,5.051C2.729,6.371,2,8.129,2,9.999s0.729,3.628,2.051,4.95l3,3
		c0.107,0.108,0.226,0.201,0.35,0.279l5.186,5.186C12.977,23.805,13.488,24,14,24s1.023-0.195,1.414-0.586l7-7
		c0.781-0.781,0.781-2.047,0-2.828l-5-5l-3.45-3.521C12.628,3.729,10.87,3,9,3L9,3z"/>
</g>
<g>
	<path d="M9,8.498c0.829,0,1.5,0.672,1.5,1.502S9.829,11.498,9,11.498S7.5,10.83,7.5,10S8.171,8.498,9,8.498 M9,7.498
		C7.621,7.498,6.5,8.62,6.5,10c0,1.377,1.121,2.498,2.5,2.498s2.5-1.121,2.5-2.498C11.5,8.62,10.379,7.498,9,7.498L9,7.498z"/>
</g>
</svg>
