<?xml version="1.0" encoding="iso-8859-1"?>
<!-- Generator: Adobe Illustrator 16.2.1, SVG Export Plug-In . SVG Version: 6.00 Build 0)  -->
<svg version="1.2" baseProfile="tiny" id="Layer_1" xmlns="http://www.w3.org/2000/svg" xmlns:xlink="http://www.w3.org/1999/xlink"
	 x="0px" y="0px" width="24px" height="24px" viewBox="0 0 24 24" xml:space="preserve">
<path d="M19,17H5c-1.103,0-2,0.897-2,2s0.897,2,2,2h14c1.103,0,2-0.897,2-2S20.103,17,19,17z"/>
<path d="M19,10H5c-1.103,0-2,0.897-2,2s0.897,2,2,2h14c1.103,0,2-0.897,2-2S20.103,10,19,10z"/>
<path d="M19,3H5C3.897,3,3,3.897,3,5s0.897,2,2,2h14c1.103,0,2-0.897,2-2S20.103,3,19,3z"/>
</svg>
