<svg height="1000px" width="583.0078125px" xmlns="http://www.w3.org/2000/svg">
  <g>
    <path d="M0 791.50390625c0 0 0 -166.504 0 -166.504c0 0 166.504 0 166.504 0c0 0 0 166.504 0 166.504c0 0 -166.504 0 -166.504 0c0 0 0 0 0 0m0 -208.008c0 0 0 -166.992 0 -166.992c0 0 166.504 0 166.504 0c0 0 0 166.992 0 166.992c0 0 -166.504 0 -166.504 0c0 0 0 0 0 0m0 -208.496c0 0 0 -166.504 0 -166.504c0 0 166.504 0 166.504 0c0 0 0 166.504 0 166.504c0 0 -166.504 0 -166.504 0c0 0 0 0 0 0m208.008 416.504c0 0 0 -166.504 0 -166.504c0 0 166.992 0 166.992 0c0 0 0 166.504 0 166.504c0 0 -166.992 0 -166.992 0c0 0 0 0 0 0m0 -208.008c0 0 0 -166.992 0 -166.992c0 0 166.992 0 166.992 0c0 0 0 166.992 0 166.992c0 0 -166.992 0 -166.992 0c0 0 0 0 0 0m0 -208.496c0 0 0 -166.504 0 -166.504c0 0 166.992 0 166.992 0c0 0 0 166.504 0 166.504c0 0 -166.992 0 -166.992 0c0 0 0 0 0 0m208.496 416.504c0 0 0 -166.504 0 -166.504c0 0 166.504 0 166.504 0c0 0 0 166.504 0 166.504c0 0 -166.504 0 -166.504 0c0 0 0 0 0 0m0 -208.008c0 0 0 -166.992 0 -166.992c0 0 166.504 0 166.504 0c0 0 0 166.992 0 166.992c0 0 -166.504 0 -166.504 0c0 0 0 0 0 0m0 -208.496c0 0 0 -166.504 0 -166.504c0 0 166.504 0 166.504 0c0 0 0 166.504 0 166.504c0 0 -166.504 0 -166.504 0c0 0 0 0 0 0" />
  </g>
</svg>