<?xml version="1.0" encoding="iso-8859-1"?>
<!-- Generator: Adobe Illustrator 16.2.1, SVG Export Plug-In . SVG Version: 6.00 Build 0)  -->
<svg version="1.2" baseProfile="tiny" xmlns="http://www.w3.org/2000/svg" xmlns:xlink="http://www.w3.org/1999/xlink" x="0px"
	 y="0px" width="24px" height="24px" viewBox="0 0 24 24" xml:space="preserve">
<g id="Layer_1">
	<g>
		<path d="M13,15.071V9.5C13,9.225,12.775,9,12.5,9S12,9.225,12,9.5v5.571c-0.86,0.224-1.5,1-1.5,1.929c0,1.103,0.896,2,2,2
			s2-0.897,2-2C14.5,16.071,13.86,15.295,13,15.071z"/>
		<path d="M16,13.459V5.5C16,3.57,14.43,2,12.5,2S9,3.57,9,5.5v7.959C8.078,14.361,7.5,15.61,7.5,17c0,2.757,2.243,5,5,5
			s5-2.243,5-5C17.5,15.61,16.922,14.361,16,13.459z M12.5,20c-1.654,0-3-1.346-3-3c0-1.105,0.607-2.062,1.5-2.583V5.5
			C11,4.673,11.673,4,12.5,4S14,4.673,14,5.5v8.917c0.893,0.521,1.5,1.478,1.5,2.583C15.5,18.654,14.154,20,12.5,20z"/>
	</g>
</g>
<g id="nyt_x5F_exporter_x5F_info" display="none">
</g>
</svg>
