<svg height="1000px" width="541.50390625px" xmlns="http://www.w3.org/2000/svg">
  <g>
    <path d="M0 708.49609375c0 0 0 -333.496 0 -333.496c0 0 125 0 125 0c0 0 0 333.496 0 333.496c0 0 -125 0 -125 0c0 0 0 0 0 0m166.504 -41.992c0 0 0 -250 0 -250c30.599 0 59.733 -27.669 87.402 -83.008c13.998 -33.203 26.53 -74.87 37.598 -125c0 0 83.496 0 83.496 0c0 19.531 -2.767 51.432 -8.301 95.703c-8.463 33.203 -19.694 56.804 -33.691 70.801c0 0 208.496 41.504 208.496 41.504c0 0 -41.504 291.992 -41.504 291.992c-27.669 27.669 -69.336 41.504 -125 41.504c-36.133 0 -75.033 -6.999 -116.699 -20.996c-44.597 -16.602 -75.196 -37.435 -91.797 -62.5c0 0 0 0 0 0" />
  </g>
</svg>