<?xml version="1.0" encoding="iso-8859-1"?>
<!-- Generator: Adobe Illustrator 16.2.1, SVG Export Plug-In . SVG Version: 6.00 Build 0)  -->
<!DOCTYPE svg PUBLIC "-//W3C//DTD SVG 1.1//EN" "http://www.w3.org/Graphics/SVG/1.1/DTD/svg11.dtd">
<svg version="1.1" id="Layer_1" xmlns="http://www.w3.org/2000/svg" xmlns:xlink="http://www.w3.org/1999/xlink" x="0px" y="0px"
	 width="24px" height="24px" viewBox="0 0 24 24" style="enable-background:new 0 0 24 24;" xml:space="preserve">
<path d="M17,6c-0.755,0-1.438,0.289-1.965,0.751c-0.064-0.062-0.116-0.139-0.188-0.193C13.887,5.822,11.182,5,9,5
	C7.121,5,6.392,5.293,5.748,5.552C5.645,5.594,5.541,5.636,5.431,5.676c-0.834,0.305-1.578,1.228-1.737,2.2l-0.664,5.972
	c-0.175,1.038,0.44,2.126,1.4,2.477c0.393,0.144,2.512,0.406,3.883,0.56C8.098,18.139,8,19.289,8,20.5c0,1.379,1.121,2.5,2.5,2.5
	s2.5-1.121,2.5-2.5c0-1.875,0.667-2.738,1.616-3.699C15.164,17.524,16.024,18,17,18c1.654,0,3-1.346,3-3V9C20,7.346,18.654,6,17,6z
	 M11,20.5c0,0.275-0.225,0.5-0.5,0.5S10,20.775,10,20.5c0-1.804,0.256-3.241,0.479-4.293l0.296-1.399l-1.321,0.188
	c-0.604-0.049-3.933-0.446-4.334-0.55c-0.058-0.029-0.132-0.181-0.109-0.322l0.664-5.975c0.037-0.223,0.291-0.54,0.443-0.595
	c0.131-0.048,0.254-0.098,0.377-0.146C7.038,7.189,7.509,7,9,7c1.914,0,4.118,0.753,4.633,1.146C13.79,8.266,14,8.71,14,9v4.977
	c-0.001,0.026-0.04,0.649-0.707,1.316C12.38,16.206,11,17.586,11,20.5z M18,15c0,0.552-0.448,1-1,1s-1-0.448-1-1V9
	c0-0.552,0.448-1,1-1s1,0.448,1,1V15z"/>
</svg>
