<?xml version="1.0" encoding="iso-8859-1"?>
<!-- Generator: Adobe Illustrator 16.2.1, SVG Export Plug-In . SVG Version: 6.00 Build 0)  -->
<!DOCTYPE svg PUBLIC "-//W3C//DTD SVG 1.1//EN" "http://www.w3.org/Graphics/SVG/1.1/DTD/svg11.dtd">
<svg version="1.1" id="Layer_1" xmlns="http://www.w3.org/2000/svg" xmlns:xlink="http://www.w3.org/1999/xlink" x="0px" y="0px"
	 width="24px" height="24px" viewBox="0 0 24 24" style="enable-background:new 0 0 24 24;" xml:space="preserve">
<path d="M19.571,9.676c-0.392-0.144-2.512-0.407-3.883-0.56C15.902,7.861,16,6.711,16,5.5C16,4.121,14.878,3,13.5,3S11,4.121,11,5.5
	c0,1.875-0.666,2.738-1.616,3.699C8.836,8.476,7.976,8,7,8c-1.654,0-3,1.346-3,3v6c0,1.654,1.346,3,3,3
	c0.755,0,1.438-0.29,1.965-0.752c0.065,0.063,0.117,0.14,0.188,0.194C10.114,20.178,12.819,21,15,21
	c1.879,0,2.609-0.293,3.253-0.553c0.103-0.041,0.207-0.083,0.317-0.123c0.833-0.305,1.576-1.227,1.736-2.2l0.665-5.974
	C21.145,11.113,20.529,10.026,19.571,9.676z M7,18c-0.551,0-1-0.448-1-1v-6c0-0.552,0.449-1,1-1s1,0.448,1,1v6
	C8,17.552,7.551,18,7,18z M18.327,17.85c-0.037,0.223-0.292,0.541-0.443,0.596c-0.131,0.048-0.254,0.098-0.376,0.146
	C16.963,18.811,16.492,19,15,19c-1.914,0-4.118-0.753-4.632-1.146C10.21,17.734,10,17.29,10,17v-4.981
	c0.003-0.047,0.051-0.656,0.707-1.312C11.62,9.794,13,8.414,13,5.5C13,5.225,13.224,5,13.5,5S14,5.225,14,5.5
	c0,1.407-0.147,2.731-0.479,4.293l-0.296,1.397l1.321-0.188c0.602,0.05,3.933,0.447,4.334,0.55c0.058,0.03,0.132,0.183,0.111,0.323
	L18.327,17.85z"/>
</svg>
