<?xml version="1.0" encoding="iso-8859-1"?>
<!-- Generator: Adobe Illustrator 16.2.1, SVG Export Plug-In . SVG Version: 6.00 Build 0)  -->
<svg version="1.2" baseProfile="tiny" id="Layer_1" xmlns="http://www.w3.org/2000/svg" xmlns:xlink="http://www.w3.org/1999/xlink"
   x="0px" y="0px" width="24px" height="24px" viewBox="0 0 24 24" xml:space="preserve">
<path d="M20.7,12.6c-0.1-0.3-0.2-0.6-0.4-0.9c0.3-0.6,0.5-1,0.3-1.9C20.4,9,19.8,8.1,19,7.3s-1.7-0.9-1.7-0.9l0.8-1.8
	c0.4-0.8,0.4-1.8-0.1-2.5c-0.5-0.8-1.4-1.3-2.3-1.3c-1,0-1.8,0.6-2.3,1.5c0,0-0.8-0.2-1.8,0.1s-1.3,1.2-1.3,1.2s-1.7,0.5-2,2
	S7.9,9,7.5,9.7S5,13,3.8,14.4c-0.9,1.1-0.7,2.3,0.1,3.2s5,5,5,5c0.8,0.8,2.7,1.1,4-0.3c1.4-1.4,0.5-3.3,0.5-3.3
	c0.4-0.3,1.5-1.2,2.6-1.5s2.8-0.9,3.7-2.1C20.5,14.4,20.9,13.6,20.7,12.6z M11.4,20.9c-0.4,0.4-1,0.4-1.4,0l-4.2-4.2
	c-0.2-0.2-0.3-0.4-0.3-0.7s0.1-0.5,0.3-0.7c0.3-0.3,0.5-0.5,0.7-0.7l4.9,4.9c0.2,0.2,0.3,0.4,0.3,0.7C11.7,20.5,11.6,20.7,11.4,20.9
	z M18,11c-0.5,0-0.7-0.5-1.1-0.9s-1.3-0.5-2-0.2s-1,1-1,1.7c0,1,0.7,1.9,1.7,1.9c0.7,0,0.9-0.1,1.3-0.3c0.6-0.4,0.8-0.8,1.2-0.8
	s0.7,0.2,0.7,0.8s-0.6,1.3-1.2,1.7s-1.1,0.5-1.7,0.6c-0.6,0.1-1,0.1-1.8,0.6c-0.7,0.4-1.4,0.9-1.8,1.3l-4.6-4.6
	c0.9-1.1,1.7-2.3,1.8-2.9C9.7,8.6,10,7.3,10.2,6c0.1-0.4,0.4-0.5,0.6-0.5c0.3,0,0.6,0.2,0.7,0.4c0.1-0.4,0.3-0.9,0.4-1.3
	c0.1-0.3,0.4-0.5,0.6-0.5c0.4,0,0.8,0.3,0.7,0.8l-0.5,2.4c0.6-1.2,1.5-2.7,2.1-3.8c0.2-0.3,0.4-0.6,0.9-0.6c0.5,0,0.9,0.6,0.7,1.1
	c-0.2,0.4-2,3.5-2.8,4.8c-0.1,0.1,0,0.2,0.2,0.1c0.3-0.2,1-0.7,1.7-0.7c1.2-0.1,1.8,0.4,2.1,0.6c0.4,0.3,0.8,0.8,1.1,1.3
	C18.9,10.6,18.5,11,18,11z M17.8,11.7c-0.4,0-0.7,0.1-0.9,0.4s-0.6,0.7-1.1,0.7c-0.7,0-1.1-0.5-1.1-1.1s0.4-1,1.1-1
	c0.5,0,0.9,0.4,1.1,0.7S17.4,11.7,17.8,11.7z"/>
</svg>
