<?xml version="1.0" encoding="iso-8859-1"?>
<!-- Generator: Adobe Illustrator 16.2.1, SVG Export Plug-In . SVG Version: 6.00 Build 0)  -->
<svg version="1.2" baseProfile="tiny" id="Layer_1" xmlns="http://www.w3.org/2000/svg" xmlns:xlink="http://www.w3.org/1999/xlink"
	 x="0px" y="0px" width="24px" height="24px" viewBox="0 0 24 24" xml:space="preserve">
<path d="M17,5c-0.755,0-1.438,0.289-1.965,0.751c-0.064-0.062-0.116-0.14-0.188-0.192C13.887,4.822,11.182,4,9,4
	C7.121,4,6.393,4.293,5.748,4.552C5.645,4.594,5.541,4.637,5.432,4.676c-0.834,0.305-1.578,1.229-1.738,2.2l-0.664,5.972
	c-0.174,1.039,0.441,2.127,1.4,2.478c0.394,0.144,2.512,0.405,3.883,0.56c-0.215,1.256-0.312,2.405-0.312,3.616
	c0,1.379,1.121,2.5,2.5,2.5s2.5-1.121,2.5-2.5c0-1.875,0.667-2.737,1.616-3.699c0.548,0.724,1.408,1.199,2.384,1.199
	c1.653,0,2.999-1.347,2.999-3v-6C19.999,6.346,18.654,5,17,5z M11,19.5c0,0.275-0.225,0.5-0.5,0.5S10,19.775,10,19.5
	c0-1.805,0.256-3.241,0.479-4.293l0.297-1.398l-1.321,0.188C8.85,13.947,5.521,13.55,5.12,13.445
	c-0.058-0.028-0.132-0.18-0.108-0.321l0.663-5.976c0.037-0.223,0.291-0.539,0.443-0.594c0.131-0.049,0.254-0.099,0.377-0.146
	C7.039,6.189,7.51,6,9.001,6c1.914,0,4.118,0.753,4.633,1.146C13.79,7.266,14,7.71,14,8v4.977c-0.001,0.026-0.04,0.649-0.707,1.316
	C12.38,15.206,11,16.586,11,19.5z M18,14c0,0.552-0.448,1-1,1s-1-0.448-1-1V8c0-0.552,0.448-1,1-1s1,0.448,1,1V14z"/>
</svg>
