<?xml version="1.0" encoding="iso-8859-1"?>
<!-- Generator: Adobe Illustrator 16.2.1, SVG Export Plug-In . SVG Version: 6.00 Build 0)  -->
<svg version="1.2" baseProfile="tiny" xmlns="http://www.w3.org/2000/svg" xmlns:xlink="http://www.w3.org/1999/xlink" x="0px"
	 y="0px" width="24px" height="24px" viewBox="0 0 24 24" xml:space="preserve">
<g id="Layer_1">
	<path d="M21.485,8.071l-5.364-5.364c-1.128-1.128-3.111-1.136-4.248-0.018l-9.148,9.002c-0.571,0.562-0.887,1.313-0.891,2.115
		c-0.003,0.803,0.307,1.556,0.873,2.121l5.365,5.365c0.567,0.567,1.325,0.88,2.133,0.88c0.799,0,1.551-0.307,2.115-0.862
		l9.147-9.003c0.571-0.562,0.888-1.313,0.891-2.115C22.361,9.39,22.051,8.637,21.485,8.071z M20.064,10.882l-9.146,9.003
		c-0.381,0.373-1.056,0.37-1.432-0.006l-1.275-1.275c0.71-0.785,0.693-1.994-0.062-2.752c-0.758-0.757-1.968-0.773-2.752-0.063
		l-1.275-1.274c-0.186-0.187-0.288-0.435-0.287-0.699s0.105-0.513,0.293-0.697l9.148-9.002c0.189-0.186,0.441-0.288,0.713-0.288
		c0.273,0,0.529,0.104,0.719,0.294l1.275,1.275c-0.711,0.785-0.694,1.994,0.062,2.751c0.758,0.757,1.967,0.773,2.752,0.063
		l1.274,1.274c0.187,0.187,0.288,0.435,0.287,0.699S20.253,10.697,20.064,10.882z"/>
	<g>
		<path d="M11.601,17.042l-4.657-4.656l5.649-5.429l4.657,4.656L11.601,17.042z M8.371,12.399l3.243,3.242L15.82,11.6l-3.241-3.242
			L8.371,12.399z"/>
	</g>
</g>
<g id="nyt_x5F_exporter_x5F_info" display="none">
</g>
</svg>
