<?xml version="1.0" encoding="iso-8859-1"?>
<!-- Generator: Adobe Illustrator 16.2.1, SVG Export Plug-In . SVG Version: 6.00 Build 0)  -->
<svg version="1.2" baseProfile="tiny" id="Layer_1" xmlns="http://www.w3.org/2000/svg" xmlns:xlink="http://www.w3.org/1999/xlink"
	 x="0px" y="0px" width="24px" height="24px" viewBox="0 0 24 24" xml:space="preserve">
<g>
	<g>
		<path d="M11,20c-0.801,0-1.555-0.312-2.121-0.879l-4-4C4.312,14.555,4,13.801,4,13s0.312-1.555,0.879-2.122
			c1.133-1.133,3.109-1.133,4.242,0l1.188,1.188l3.069-5.523c0.526-0.952,1.533-1.544,2.624-1.544c0.507,0,1.012,0.131,1.456,0.378
			c0.7,0.39,1.206,1.028,1.427,1.798c0.221,0.771,0.127,1.581-0.263,2.282l-5,9c-0.454,0.818-1.279,1.384-2.206,1.514
			C11.277,19.99,11.139,20,11,20z M7,12c-0.268,0-0.518,0.104-0.707,0.293S6,12.732,6,13s0.104,0.518,0.293,0.707l4,4
			c0.223,0.221,0.523,0.33,0.844,0.283c0.312-0.043,0.586-0.232,0.737-0.504l5-9c0.13-0.233,0.161-0.503,0.088-0.76
			c-0.073-0.257-0.243-0.47-0.478-0.6c-0.473-0.264-1.101-0.078-1.357,0.388l-4.357,7.841l-3.062-3.062C7.518,12.104,7.268,12,7,12z
			"/>
	</g>
</g>
</svg>
