<?xml version="1.0" encoding="iso-8859-1"?>
<!-- Generator: Adobe Illustrator 16.2.1, SVG Export Plug-In . SVG Version: 6.00 Build 0)  -->
<!DOCTYPE svg PUBLIC "-//W3C//DTD SVG 1.1//EN" "http://www.w3.org/Graphics/SVG/1.1/DTD/svg11.dtd">
<svg version="1.1" id="Layer_1" xmlns="http://www.w3.org/2000/svg" xmlns:xlink="http://www.w3.org/1999/xlink" x="0px" y="0px"
	 width="24px" height="24px" viewBox="0 0 24 24" style="enable-background:new 0 0 24 24;" xml:space="preserve">
<g>
	<g>
		<path d="M21.485,8.071l-5.364-5.364c-1.128-1.128-3.112-1.136-4.248-0.018l-9.148,9.002c-0.571,0.562-0.887,1.313-0.891,2.115
			c-0.003,0.803,0.307,1.556,0.873,2.121l5.365,5.365c0.567,0.567,1.325,0.88,2.133,0.88c0.799,0,1.55-0.307,2.115-0.862
			l9.147-9.003c0.571-0.562,0.887-1.313,0.891-2.115C22.361,9.39,22.051,8.637,21.485,8.071z M20.065,10.882l-9.147,9.003
			c-0.381,0.373-1.056,0.37-1.432-0.006l-1.279-1.278c0.682-0.785,0.658-1.973-0.089-2.72c-0.747-0.747-1.935-0.771-2.72-0.09
			l-1.278-1.277c-0.186-0.187-0.288-0.435-0.287-0.699s0.105-0.513,0.293-0.697l9.148-9.002c0.189-0.186,0.442-0.288,0.712-0.288
			c0.274,0,0.53,0.104,0.719,0.294l1.268,1.268l0.01,0.011c-0.682,0.785-0.657,1.972,0.09,2.719s1.933,0.771,2.719,0.089
			l1.278,1.278c0.186,0.187,0.288,0.435,0.287,0.699S20.253,10.697,20.065,10.882z"/>
		<path d="M6.943,12.386l4.658,4.656l5.649-5.429l-4.657-4.656L6.943,12.386z M11.614,15.642l-3.243-3.242l4.208-4.042l3.242,3.242
			L11.614,15.642z"/>
	</g>
</g>
</svg>
