<?xml version="1.0" encoding="iso-8859-1"?>
<!-- Generator: Adobe Illustrator 16.2.1, SVG Export Plug-In . SVG Version: 6.00 Build 0)  -->
<svg version="1.2" baseProfile="tiny" id="Layer_1" xmlns="http://www.w3.org/2000/svg" xmlns:xlink="http://www.w3.org/1999/xlink"
	 x="0px" y="0px" width="24px" height="24px" viewBox="0 0 24 24" xml:space="preserve">
<g>
	<path d="M16,13c0-0.55-0.45-1-1-1h-3c-0.55,0-1,0.45-1,1s0.45,1,1,1h3C15.55,14,16,13.55,16,13z"/>
</g>
<g>
	<path d="M12,6c3.859,0,7,3.141,7,7s-3.141,7-7,7s-7-3.141-7-7S8.141,6,12,6 M12,4c-4.971,0-9,4.029-9,9s4.029,9,9,9s9-4.029,9-9
		S16.971,4,12,4z"/>
</g>
<g>
	<path d="M13,10c0-0.55-0.45-1-1-1s-1,0.45-1,1v3c0,0.55,0.45,1,1,1s1-0.45,1-1V10z"/>
</g>
<g>
	<path d="M12,8c2.757,0,5,2.243,5,5s-2.243,5-5,5s-5-2.243-5-5S9.243,8,12,8 M12,7c-3.312,0-6,2.686-6,6c0,3.312,2.688,6,6,6
		s6-2.688,6-6C18,9.686,15.312,7,12,7z"/>
</g>
</svg>
