<?xml version="1.0" encoding="iso-8859-1"?>
<!-- Generator: Adobe Illustrator 16.2.1, SVG Export Plug-In . SVG Version: 6.00 Build 0)  -->
<svg version="1.2" baseProfile="tiny" id="Layer_1" xmlns="http://www.w3.org/2000/svg" xmlns:xlink="http://www.w3.org/1999/xlink"
	 x="0px" y="0px" width="24px" height="24px" viewBox="0 0 24 24" xml:space="preserve">
<g>
	<path d="M16,19c-0.802,0-1.555-0.312-2.122-0.879L12,16.242l-1.879,1.879c-1.133,1.133-3.109,1.133-4.243,0
		C5.312,17.555,5,16.801,5,16s0.312-1.555,0.879-2.122L7.757,12l-1.878-1.879C5.312,9.555,5,8.801,5,8s0.312-1.555,0.879-2.122
		c1.133-1.132,3.109-1.133,4.243,0.001L12,7.758l1.879-1.879c1.133-1.133,3.109-1.133,4.243,0C18.688,6.445,19,7.199,19,8
		s-0.312,1.555-0.879,2.122L16.243,12l1.878,1.879C18.688,14.445,19,15.199,19,16s-0.312,1.555-0.879,2.122
		C17.555,18.688,16.802,19,16,19z M12,13.414l3.293,3.293c0.378,0.378,1.037,0.377,1.414,0C16.896,16.518,17,16.268,17,16
		s-0.104-0.518-0.293-0.707L13.415,12l3.292-3.293C16.896,8.518,17,8.267,17,8s-0.104-0.518-0.293-0.707
		c-0.378-0.379-1.037-0.378-1.414-0.001L12,10.586L8.707,7.293c-0.378-0.378-1.037-0.377-1.414,0C7.104,7.482,7,7.733,7,8
		s0.104,0.518,0.293,0.707L10.585,12l-3.292,3.293C7.104,15.482,7,15.732,7,16s0.104,0.518,0.293,0.707
		c0.378,0.379,1.037,0.378,1.414,0.001L12,13.414z"/>
</g>
</svg>
