<?xml version="1.0" encoding="iso-8859-1"?>
<!-- Generator: Adobe Illustrator 16.2.1, SVG Export Plug-In . SVG Version: 6.00 Build 0)  -->
<svg version="1.2" baseProfile="tiny" id="Layer_1" xmlns="http://www.w3.org/2000/svg" xmlns:xlink="http://www.w3.org/1999/xlink"
	 x="0px" y="0px" width="24px" height="24px" viewBox="0 0 24 24" xml:space="preserve">
<path d="M17.414,6.586c-0.78-0.781-2.048-0.781-2.828,0L12,9.172L9.414,6.586c-0.78-0.781-2.048-0.781-2.828,0
	c-0.781,0.781-0.781,2.047,0,2.828L9.171,12l-2.585,2.586c-0.781,0.781-0.781,2.047,0,2.828C6.976,17.805,7.488,18,8,18
	s1.024-0.195,1.414-0.586L12,14.828l2.586,2.586C14.976,17.805,15.488,18,16,18s1.024-0.195,1.414-0.586
	c0.781-0.781,0.781-2.047,0-2.828L14.829,12l2.585-2.586C18.195,8.633,18.195,7.367,17.414,6.586z"/>
</svg>
