<?xml version="1.0" encoding="iso-8859-1"?>
<!-- Generator: Adobe Illustrator 16.2.1, SVG Export Plug-In . SVG Version: 6.00 Build 0)  -->
<svg version="1.2" baseProfile="tiny" id="Layer_1" xmlns="http://www.w3.org/2000/svg" xmlns:xlink="http://www.w3.org/1999/xlink"
	 x="0px" y="0px" width="24px" height="24px" viewBox="0 0 24 24" xml:space="preserve">
<g>
	<path d="M18,7h-1V6c0-1.104-0.896-2-2-2H8C6.896,4,6,4.896,6,6v1H5C4.448,7,4,7.448,4,8s0.448,1,1,1v8c0,2.206,1.794,4,4,4h5
		c2.206,0,4-1.794,4-4V9c0.552,0,1-0.448,1-1S18.552,7,18,7z M8,6h7v1H8V6z M16,17c0,1.104-0.896,2-2,2H9c-1.104,0-2-0.896-2-2V9h1
		h7h1V17z"/>
	<path d="M8.5,10.5C8.225,10.5,8,10.725,8,11v6c0,0.275,0.225,0.5,0.5,0.5S9,17.275,9,17v-6C9,10.725,8.775,10.5,8.5,10.5z"/>
	<path d="M10.5,10.5c-0.275,0-0.5,0.225-0.5,0.5v6c0,0.275,0.225,0.5,0.5,0.5S11,17.275,11,17v-6C11,10.725,10.775,10.5,10.5,10.5z"
		/>
	<path d="M12.5,10.5c-0.275,0-0.5,0.225-0.5,0.5v6c0,0.275,0.225,0.5,0.5,0.5S13,17.275,13,17v-6C13,10.725,12.775,10.5,12.5,10.5z"
		/>
	<path d="M14.5,10.5c-0.275,0-0.5,0.225-0.5,0.5v6c0,0.275,0.225,0.5,0.5,0.5S15,17.275,15,17v-6C15,10.725,14.775,10.5,14.5,10.5z"
		/>
</g>
</svg>
