<?xml version="1.0" encoding="iso-8859-1"?>
<!-- Generator: Adobe Illustrator 16.2.1, SVG Export Plug-In . SVG Version: 6.00 Build 0)  -->
<!DOCTYPE svg PUBLIC "-//W3C//DTD SVG 1.1//EN" "http://www.w3.org/Graphics/SVG/1.1/DTD/svg11.dtd">
<svg version="1.1" id="Layer_1" xmlns="http://www.w3.org/2000/svg" xmlns:xlink="http://www.w3.org/1999/xlink" x="0px" y="0px"
	 width="24px" height="24px" viewBox="0 0 24 24" style="enable-background:new 0 0 24 24;" xml:space="preserve">
<path d="M20.781,17.375L18.081,14H19c0.373,0,0.715-0.207,0.887-0.538c0.172-0.331,0.146-0.729-0.068-1.035l-7-10
	c-0.034-0.049-0.083-0.077-0.124-0.118c-0.042-0.042-0.071-0.093-0.122-0.128c-0.007-0.005-0.016-0.005-0.023-0.01
	c-0.062-0.042-0.132-0.062-0.201-0.088c-0.054-0.021-0.104-0.05-0.158-0.061C12.127,2.01,12.064,2.019,12,2.019
	c-0.064,0-0.127-0.009-0.19,0.004c-0.055,0.011-0.105,0.04-0.158,0.061c-0.069,0.026-0.139,0.046-0.202,0.087
	c-0.007,0.006-0.016,0.006-0.023,0.011c-0.051,0.035-0.081,0.087-0.123,0.129c-0.04,0.041-0.089,0.069-0.123,0.117l-7,10
	c-0.214,0.306-0.24,0.704-0.068,1.035C4.285,13.793,4.627,14,5,14h0.919l-2.7,3.375c-0.24,0.301-0.287,0.712-0.121,1.059
	C3.265,18.779,3.616,19,4,19h7v3c0,0.553,0.448,1,1,1s1-0.447,1-1v-3h7c0.384,0,0.735-0.221,0.901-0.566
	C21.068,18.087,21.021,17.676,20.781,17.375z M13,17v-5c0-0.553-0.448-1-1-1s-1,0.447-1,1v5H6.081l2.7-3.375
	c0.24-0.301,0.287-0.712,0.121-1.059C8.735,12.221,8.384,12,8,12H6.92L12,4.744L17.08,12H16c-0.384,0-0.735,0.221-0.901,0.566
	c-0.167,0.347-0.12,0.758,0.121,1.059l2.7,3.375H13z"/>
</svg>
