<?xml version="1.0" encoding="iso-8859-1"?>
<!-- Generator: Adobe Illustrator 16.2.1, SVG Export Plug-In . SVG Version: 6.00 Build 0)  -->
<!DOCTYPE svg PUBLIC "-//W3C//DTD SVG 1.1//EN" "http://www.w3.org/Graphics/SVG/1.1/DTD/svg11.dtd">
<svg version="1.1" id="Layer_1" xmlns="http://www.w3.org/2000/svg" xmlns:xlink="http://www.w3.org/1999/xlink" x="0px" y="0px"
	 width="24px" height="24px" viewBox="0 0 24 24" style="enable-background:new 0 0 24 24;" xml:space="preserve">
<path d="M20.987,17c0-0.105-0.004-0.211-0.039-0.316l-2-6c-0.092-0.277-0.302-0.484-0.559-0.594
	c0.881-1.175,0.799-2.847-0.269-3.914L12,0.055L5.879,6.176C4.812,7.243,4.729,8.915,5.61,10.09
	c-0.257,0.109-0.467,0.316-0.559,0.594l-2,6C3.017,16.789,3.013,16.895,3.013,17H3v5c0,0.553,0.447,1,1,1h16c0.553,0,1-0.447,1-1v-5
	H20.987z M7.293,7.59L12,2.883l4.707,4.707c0.39,0.39,0.39,1.024,0,1.414c-0.379,0.377-1.035,0.377-1.414,0L13,6.711V12.5
	c0,0.552-0.448,1-1,1s-1-0.448-1-1V6.711L8.707,9.004c-0.379,0.377-1.035,0.377-1.414,0C6.903,8.614,6.903,7.979,7.293,7.59z
	 M6.721,12H9v0.5c0,1.654,1.346,3,3,3s3-1.346,3-3V12h2.279l1.667,5H5.054L6.721,12z M5,21v-3h14v3H5z"/>
</svg>
