<?xml version="1.0" encoding="iso-8859-1"?>
<!-- Generator: Adobe Illustrator 16.2.1, SVG Export Plug-In . SVG Version: 6.00 Build 0)  -->
<svg version="1.2" baseProfile="tiny" id="Layer_1" xmlns="http://www.w3.org/2000/svg" xmlns:xlink="http://www.w3.org/1999/xlink"
	 x="0px" y="0px" width="24px" height="24px" viewBox="0 0 24 24" xml:space="preserve">
<g>
	<path d="M20.987,16c0-0.105-0.004-0.211-0.039-0.316l-2-6C18.812,9.275,18.431,9,18,9h-4v2h3.279l1.667,5H5.054l1.667-5H10V9H6
		C5.569,9,5.188,9.275,5.052,9.684l-2,6C3.017,15.789,3.013,15.895,3.013,16C3,16,3,21,3,21c0,0.553,0.447,1,1,1h16
		c0.553,0,1-0.447,1-1C21,21,21,16,20.987,16z"/>
	<path d="M16,7.904c0.259,0,0.518-0.095,0.707-0.283c0.39-0.39,0.39-1.024,0-1.414L12,1.5L7.293,6.207
		c-0.39,0.39-0.39,1.024,0,1.414C7.482,7.81,7.741,7.904,8,7.904S8.518,7.81,8.707,7.621L11,5.328V12c0,0.552,0.448,1,1,1
		s1-0.448,1-1V5.328l2.293,2.293C15.482,7.81,15.741,7.904,16,7.904z"/>
</g>
</svg>
