<?xml version="1.0" encoding="iso-8859-1"?>
<!-- Generator: Adobe Illustrator 16.2.1, SVG Export Plug-In . SVG Version: 6.00 Build 0)  -->
<svg version="1.2" baseProfile="tiny" id="Layer_1" xmlns="http://www.w3.org/2000/svg" xmlns:xlink="http://www.w3.org/1999/xlink"
	 x="0px" y="0px" width="24px" height="24px" viewBox="0 0 24 24" xml:space="preserve">
<g>
	<path d="M21,14h-6c-0.553,0-1-0.447-1-1s0.447-1,1-1h6c0.553,0,1,0.447,1,1S21.553,14,21,14z"/>
</g>
<g>
	<path d="M14,9c0,1.381-0.56,2.631-1.464,3.535C11.631,13.44,10.381,14,9,14s-2.631-0.56-3.536-1.465C4.56,11.631,4,10.381,4,9
		s0.56-2.631,1.464-3.535C6.369,4.56,7.619,4,9,4s2.631,0.56,3.536,1.465C13.44,6.369,14,7.619,14,9z"/>
</g>
<g>
	<g>
		<path d="M9,15c-3.75,0-6,2-6,4c0,1,2.25,2,6,2c3.518,0,6-1,6-2C15,17,12.646,15,9,15z"/>
	</g>
</g>
</svg>
