<?xml version="1.0" encoding="iso-8859-1"?>
<!-- Generator: Adobe Illustrator 16.2.1, SVG Export Plug-In . SVG Version: 6.00 Build 0)  -->
<svg version="1.2" baseProfile="tiny" id="Layer_1" xmlns="http://www.w3.org/2000/svg" xmlns:xlink="http://www.w3.org/1999/xlink"
	 x="0px" y="0px" width="24px" height="24px" viewBox="0 0 24 24" xml:space="preserve">
<g>
	<path d="M12,6c1.654,0,3,1.346,3,3s-1.346,3-3,3s-3-1.346-3-3S10.346,6,12,6 M12,4C9.236,4,7,6.238,7,9s2.236,5,5,5s5-2.238,5-5
		S14.764,4,12,4z"/>
</g>
<g>
	<g>
		<path d="M12,17c2.021,0,3.301,0.771,3.783,1.445C15.1,18.705,13.814,19,12,19c-1.984,0-3.206-0.305-3.818-0.542
			C8.641,17.743,9.959,17,12,17 M12,15c-3.75,0-6,2-6,4c0,1,2.25,2,6,2c3.518,0,6-1,6-2C18,17,15.646,15,12,15z"/>
	</g>
</g>
</svg>
