<?xml version="1.0" encoding="iso-8859-1"?>
<!-- Generator: Adobe Illustrator 16.2.1, SVG Export Plug-In . SVG Version: 6.00 Build 0)  -->
<svg version="1.2" baseProfile="tiny" id="Layer_1" xmlns="http://www.w3.org/2000/svg" xmlns:xlink="http://www.w3.org/1999/xlink"
	 x="0px" y="0px" width="24px" height="24px" viewBox="0 0 24 24" xml:space="preserve">
<circle cx="9" cy="9" r="5"/>
<path d="M9,21c3.518,0,6-1,6-2c0-2-2.354-4-6-4c-3.75,0-6,2-6,4C3,20,5.25,21,9,21z"/>
<path d="M21,12h-2v-2c0-0.553-0.447-1-1-1s-1,0.447-1,1v2h-2c-0.553,0-1,0.447-1,1s0.447,1,1,1h2v2c0,0.553,0.447,1,1,1s1-0.447,1-1
	v-2h2c0.553,0,1-0.447,1-1S21.553,12,21,12z"/>
</svg>
