<?xml version="1.0" encoding="iso-8859-1"?>
<!-- Generator: Adobe Illustrator 16.2.1, SVG Export Plug-In . SVG Version: 6.00 Build 0)  -->
<svg version="1.2" baseProfile="tiny" id="Layer_1" xmlns="http://www.w3.org/2000/svg" xmlns:xlink="http://www.w3.org/1999/xlink"
	 x="0px" y="0px" width="24px" height="24px" viewBox="0 0 24 24" xml:space="preserve">
	<path d="M10,12.5c0-0.3-0.2-0.5-0.5-0.5l-6,0C3.2,12,3,12.2,3,12.5v5c0,0.3,0.2,0.5,0.5,0.6l6,0.7c0.3,0,0.5-0.2,0.5-0.4V12.5z"/>
	<path d="M11.5,12c-0.3,0-0.5,0.2-0.5,0.5v5.9c0,0.3,0.2,0.5,0.5,0.6l9,1c0.3,0,0.5-0.2,0.5-0.4v-7c0-0.3-0.2-0.5-0.5-0.5L11.5,12z
		"/>
	<path d="M10,4.7c0-0.3-0.2-0.5-0.5-0.4l-6,0.7C3.2,5,3,5.2,3,5.5v5C3,10.8,3.2,11,3.5,11l6,0c0.3,0,0.5-0.2,0.5-0.5V4.7z"/>
	<path d="M11.5,4.1c-0.3,0-0.5,0.3-0.5,0.6v5.9c0,0.3,0.2,0.5,0.5,0.5l9,0c0.3,0,0.5-0.2,0.5-0.5v-7c0-0.3-0.2-0.5-0.5-0.4
		L11.5,4.1z"/>
</svg>
