<?xml version="1.0" encoding="iso-8859-1"?>
<!-- Generator: Adobe Illustrator 16.2.1, SVG Export Plug-In . SVG Version: 6.00 Build 0)  -->
<svg version="1.2" baseProfile="tiny" id="Layer_1" xmlns="http://www.w3.org/2000/svg" xmlns:xlink="http://www.w3.org/1999/xlink"
   x="0px" y="0px" width="24px" height="24px" viewBox="0 0 24 24" xml:space="preserve">
  <path d="M11.9,6.6c0,0-0.1-1.6,0.9-3S15.6,2,15.6,2h0c0,0,0.1,1.6-0.9,3S11.9,6.6,11.9,6.6L11.9,6.6z"/>
  <path d="M17.3,12.2c0-1.5,0.8-2.8,2-3.6c-0.2-0.2-0.6-0.6-0.9-0.9C17.9,7.4,17.3,7,16,7c-1.4,0-2.4,0.9-3.7,0.9
  	c-1.3,0-2.2-0.8-3.1-0.9C8.5,7,7.8,7,7.1,7.3C6.6,7.5,5.9,8,5.5,8.5c-0.6,0.6-1.2,1.9-1.3,3.1c-0.1,1.2-0.1,2.1,0.2,3.2
  	c0.2,0.9,0.6,1.8,1,2.6C5.7,18,6,18.6,6.4,19.2c0.3,0.4,0.7,0.8,1.1,1.1c0.3,0.2,0.6,0.4,1,0.6C8.7,20.9,9,21,9.3,21
  	c0.6-0.1,1.6-0.9,2.4-1.1c0.4-0.1,0.8-0.1,1.3,0c0.7,0.1,1.4,0.9,2.2,1c0.6,0.1,1.2,0,1.7-0.3c0.4-0.2,0.7-0.5,1-0.9
  	c0.4-0.4,0.7-0.9,1-1.3c0.4-0.7,0.9-1.5,1.1-2.3C18.4,15.5,17.3,14,17.3,12.2z"/>
</svg>
