<?xml version="1.0" encoding="iso-8859-1"?>
<!-- Generator: Adobe Illustrator 16.2.1, SVG Export Plug-In . SVG Version: 6.00 Build 0)  -->
<svg version="1.2" baseProfile="tiny" id="Layer_1" xmlns="http://www.w3.org/2000/svg" xmlns:xlink="http://www.w3.org/1999/xlink"
	 x="0px" y="0px" width="24px" height="24px" viewBox="0 0 24 24" xml:space="preserve">
<path d="M22.525,7.149C22.365,7.05,22.183,7,22,7c-0.153,0-0.306,0.035-0.447,0.105L19,8.382V8c0-1.654-1.346-3-3-3H5
	C3.346,5,2,6.346,2,8v8c0,1.654,1.346,3,3,3h11c1.654,0,3-1.346,3-3v-0.382l2.553,1.276C21.694,16.965,21.847,17,22,17
	c0.183,0,0.365-0.05,0.525-0.149C22.82,16.668,23,16.347,23,16V8C23,7.653,22.82,7.332,22.525,7.149z M7,13.5
	c-0.829,0-1.5-0.671-1.5-1.5s0.671-1.5,1.5-1.5s1.5,0.671,1.5,1.5S7.829,13.5,7,13.5z"/>
</svg>
