<?xml version="1.0" encoding="iso-8859-1"?>
<!-- Generator: Adobe Illustrator 16.2.1, SVG Export Plug-In . SVG Version: 6.00 Build 0)  -->
<!DOCTYPE svg PUBLIC "-//W3C//DTD SVG 1.1//EN" "http://www.w3.org/Graphics/SVG/1.1/DTD/svg11.dtd">
<svg version="1.1" id="Layer_1" xmlns="http://www.w3.org/2000/svg" xmlns:xlink="http://www.w3.org/1999/xlink" x="0px" y="0px"
	 width="24px" height="24px" viewBox="0 0 24 24" style="enable-background:new 0 0 24 24;" xml:space="preserve">
<g>
	<circle cx="7" cy="11" r="1"/>
	<path d="M21.585,7.188C21.323,7,20.987,6.947,20.684,7.052L18.977,7.62C18.789,6.145,17.525,5,16,5H5C3.346,5,2,6.346,2,8v6
		c0,1.654,1.346,3,3,3h3v1.021v0.089l0.008,0.09c0.066,0.738,0.381,1.423,0.886,1.928C9.456,20.69,10.204,21,10.999,21
		s1.542-0.309,2.104-0.87c0.575-0.577,0.899-1.346,0.896-2.114V17h2c1.525,0,2.789-1.145,2.977-2.62l1.707,0.568
		c0.304,0.104,0.64,0.051,0.901-0.137C21.846,14.623,22,14.321,22,14V8C22,7.679,21.846,7.377,21.585,7.188z M12,18.023
		c0.001,0.249-0.119,0.5-0.309,0.69C11.5,18.904,11.25,19,10.999,19c-0.25,0-0.501-0.096-0.691-0.286S10.022,18.272,10,18.021V16h2
		V18.023z M17,14c0,0.552-0.448,1-1,1H5c-0.552,0-1-0.448-1-1V8c0-0.552,0.448-1,1-1h11c0.552,0,1,0.448,1,1V14z M20,12.612
		c0,0-1.894-0.606-2-0.606V9.994c0.106,0,2-0.606,2-0.606V12.612z"/>
</g>
</svg>
