<?xml version="1.0" encoding="iso-8859-1"?>
<!-- Generator: Adobe Illustrator 16.2.1, SVG Export Plug-In . SVG Version: 6.00 Build 0)  -->
<!DOCTYPE svg PUBLIC "-//W3C//DTD SVG 1.1//EN" "http://www.w3.org/Graphics/SVG/1.1/DTD/svg11.dtd">
<svg version="1.1" id="Layer_1" xmlns="http://www.w3.org/2000/svg" xmlns:xlink="http://www.w3.org/1999/xlink" x="0px" y="0px"
	 width="24px" height="24px" viewBox="0 0 24 24" style="enable-background:new 0 0 24 24;" xml:space="preserve">
<g>
</g>
<path d="M19.707,5.293c-0.391-0.391-1.023-0.391-1.414,0l-1.551,1.551c-0.345-0.688-0.987-1.02-1.604-1.02
	c-0.449,0-0.905,0.152-1.356,0.453l-2.672,1.781C10.357,8.561,8.904,9,8,9c-1.654,0-3,1.346-3,3v2c0,1.237,0.754,2.302,1.826,2.76
	l-1.533,1.533c-0.391,0.391-0.391,1.023,0,1.414C5.488,19.902,5.744,20,6,20s0.512-0.098,0.707-0.293l2.527-2.527
	c0.697,0.174,1.416,0.455,1.875,0.762l2.672,1.781c0.451,0.301,0.907,0.453,1.356,0.453C16.035,20.176,17,19.495,17,18V9.414
	l2.707-2.707C20.098,6.316,20.098,5.684,19.707,5.293z M14.891,7.941c0.038-0.025,0.073-0.046,0.104-0.062
	C14.998,7.914,15,7.954,15,8v1.293l-2,2V9.202L14.891,7.941z M7,12c0-0.552,0.448-1,1-1c1.211,0,2.907-0.495,4-1.146v2.439
	l-2.83,2.83C8.757,15.046,8.356,15,8,15c-0.552,0-1-0.448-1-1V12z M10.301,15.406L12,13.707v2.439
	C11.519,15.859,10.925,15.604,10.301,15.406z M14.994,18.12c-0.03-0.016-0.065-0.036-0.104-0.062L13,16.798v-4.091l2-2V18
	C15,18.046,14.998,18.086,14.994,18.12z"/>
</svg>
