<?xml version="1.0" encoding="iso-8859-1"?>
<!-- Generator: Adobe Illustrator 16.2.1, SVG Export Plug-In . SVG Version: 6.00 Build 0)  -->
<svg version="1.2" baseProfile="tiny" xmlns="http://www.w3.org/2000/svg" xmlns:xlink="http://www.w3.org/1999/xlink" x="0px"
	 y="0px" width="24px" height="24px" viewBox="0 0 24 24" xml:space="preserve">
<g id="Layer_1">
	<path d="M15.138,5.824c-0.449,0-0.905,0.152-1.356,0.453l-2.672,1.781C10.357,8.561,8.904,9,8,9c-1.654,0-3,1.346-3,3v2
		c0,1.654,1.346,3,3,3c0.904,0,2.357,0.439,3.109,0.941l2.672,1.781c0.451,0.301,0.907,0.453,1.356,0.453
		C16.035,20.176,17,19.495,17,18V8C17,6.505,16.035,5.824,15.138,5.824z M8,15c-0.552,0-1-0.448-1-1v-2c0-0.552,0.448-1,1-1
		c1.211,0,2.907-0.495,4-1.146v6.293C10.907,15.495,9.211,15,8,15z M15,18c0,0.046-0.002,0.086-0.006,0.12
		c-0.03-0.016-0.065-0.036-0.104-0.062L13,16.798V9.202l1.891-1.261c0.038-0.025,0.073-0.046,0.104-0.062
		C14.998,7.914,15,7.954,15,8V18z"/>
	<path d="M18.292,10.294c-0.39,0.391-0.39,1.023,0.002,1.414c0.345,0.345,0.535,0.803,0.535,1.291c0,0.489-0.19,0.948-0.536,1.294
		c-0.391,0.39-0.391,1.023,0,1.414C18.488,15.902,18.744,16,19,16s0.512-0.098,0.707-0.293c0.724-0.723,1.122-1.685,1.122-2.708
		s-0.398-1.984-1.123-2.707C19.317,9.903,18.683,9.901,18.292,10.294z"/>
</g>
<g id="nyt_x5F_exporter_x5F_info" display="none">
</g>
</svg>
