<?xml version="1.0" encoding="iso-8859-1"?>
<!-- Generator: Adobe Illustrator 16.2.1, SVG Export Plug-In . SVG Version: 6.00 Build 0)  -->
<svg version="1.2" baseProfile="tiny" xmlns="http://www.w3.org/2000/svg" xmlns:xlink="http://www.w3.org/1999/xlink" x="0px"
	 y="0px" width="24px" height="24px" viewBox="0 0 24 24" xml:space="preserve">
<g id="Layer_1">
	<path d="M17.138,5.824c-0.449,0-0.905,0.152-1.356,0.453l-2.672,1.781C12.357,8.561,10.904,9,10,9c-1.654,0-3,1.346-3,3v2
		c0,1.654,1.346,3,3,3c0.904,0,2.357,0.439,3.109,0.941l2.672,1.781c0.451,0.301,0.907,0.453,1.356,0.453
		C18.035,20.176,19,19.495,19,18V8C19,6.505,18.035,5.824,17.138,5.824z M14,16.146C12.907,15.495,11.211,15,10,15
		c-0.552,0-1-0.448-1-1v-2c0-0.552,0.448-1,1-1c1.211,0,2.907-0.495,4-1.146V16.146z M17,18c0,0.046-0.002,0.086-0.006,0.12
		c-0.03-0.016-0.065-0.036-0.104-0.062L15,16.798V9.202l1.891-1.261c0.038-0.025,0.073-0.046,0.104-0.062
		C16.998,7.914,17,7.954,17,8V18z"/>
</g>
<g id="nyt_x5F_exporter_x5F_info" display="none">
</g>
</svg>
