<svg height="1000px" width="375px" xmlns="http://www.w3.org/2000/svg">
  <g>
    <path d="M0 562.5c0 0 0 -166.504 0 -166.504c0 -13.997 6.836 -20.996 20.508 -20.996c0 0 83.496 0 83.496 0c16.601 0 29.134 -4.232 37.598 -12.695c0 0 216.796 -141.602 216.796 -141.602c0 -2.93 2.767 -4.313 8.301 -4.15c5.534 0.162 8.301 4.313 8.301 12.451c0 0 0 500 0 500c0 8.463 -2.767 12.695 -8.301 12.695c-5.534 0 -8.301 -1.465 -8.301 -4.394c0 0 -216.796 -141.602 -216.796 -141.602c-8.464 -8.463 -20.997 -12.532 -37.598 -12.207c0 0 -83.496 0 -83.496 0c-13.672 0 -20.508 -6.999 -20.508 -20.996c0 0 0 0 0 0" />
  </g>
</svg>