<?xml version="1.0" encoding="iso-8859-1"?>
<!-- Generator: Adobe Illustrator 16.2.1, SVG Export Plug-In . SVG Version: 6.00 Build 0)  -->
<!DOCTYPE svg PUBLIC "-//W3C//DTD SVG 1.1//EN" "http://www.w3.org/Graphics/SVG/1.1/DTD/svg11.dtd">
<svg version="1.1" id="Layer_1" xmlns="http://www.w3.org/2000/svg" xmlns:xlink="http://www.w3.org/1999/xlink" x="0px" y="0px"
	 width="24px" height="24px" viewBox="0 0 24 24" style="enable-background:new 0 0 24 24;" xml:space="preserve">
<g>
	<path d="M18,12c0-1.226-0.369-2.364-1-3.314V5c0-1.654-1.346-3-3-3h-4C8.346,2,7,3.346,7,5v3.686C6.369,9.636,6,10.774,6,12
		c0,1.225,0.369,2.364,1,3.313V19c0,1.654,1.346,3,3,3h4c1.654,0,3-1.346,3-3v-3.687C17.631,14.364,18,13.225,18,12z M10,4h4
		c0.551,0,1,0.449,1,1v1.809C14.117,6.297,13.094,6,12,6S9.883,6.297,9,6.809V5C9,4.449,9.449,4,10,4z M12,7c2.757,0,5,2.243,5,5
		s-2.243,5-5,5s-5-2.243-5-5S9.243,7,12,7z M14,20h-4c-0.551,0-1-0.449-1-1v-1.81C9.883,17.702,10.906,18,12,18s2.117-0.298,3-0.81
		V19C15,19.551,14.551,20,14,20z"/>
	<path d="M12,13h2c0.55,0,1-0.45,1-1s-0.45-1-1-1h-1v-1c0-0.55-0.45-1-1-1s-1,0.45-1,1v2C11,12.55,11.45,13,12,13z"/>
</g>
</svg>
