<?xml version="1.0" encoding="iso-8859-1"?>
<!-- Generator: Adobe Illustrator 16.2.1, SVG Export Plug-In . SVG Version: 6.00 Build 0)  -->
<svg version="1.2" baseProfile="tiny" id="Layer_1" xmlns="http://www.w3.org/2000/svg" xmlns:xlink="http://www.w3.org/1999/xlink"
	 x="0px" y="0px" width="24px" height="24px" viewBox="0 0 24 24" xml:space="preserve">
<g>
	<g>
		<path d="M15,19c-1.342,0-2.685-0.511-3.707-1.532c-1.266-1.265-3.323-1.264-4.586,0c-0.391,0.391-1.023,0.391-1.414,0
			s-0.391-1.023,0-1.414c2.043-2.043,5.369-2.043,7.414,0c1.265,1.264,3.322,1.263,4.586,0c0.391-0.391,1.023-0.391,1.414,0
			s0.391,1.023,0,1.414C17.686,18.489,16.343,19,15,19z"/>
	</g>
</g>
<g>
	<g>
		<path d="M15,15c-1.342,0-2.685-0.511-3.707-1.532c-1.266-1.265-3.323-1.264-4.586,0c-0.391,0.391-1.023,0.391-1.414,0
			s-0.391-1.023,0-1.414c2.043-2.043,5.369-2.043,7.414,0c1.265,1.264,3.322,1.263,4.586,0c0.391-0.391,1.023-0.391,1.414,0
			s0.391,1.023,0,1.414C17.686,14.489,16.343,15,15,15z"/>
	</g>
</g>
<g>
	<g>
		<path d="M15,11c-1.342,0-2.685-0.511-3.707-1.532c-1.266-1.265-3.323-1.264-4.586,0c-0.391,0.391-1.023,0.391-1.414,0
			s-0.391-1.023,0-1.414c2.043-2.042,5.369-2.044,7.414,0c1.265,1.264,3.322,1.263,4.586,0c0.391-0.391,1.023-0.391,1.414,0
			s0.391,1.023,0,1.414C17.686,10.489,16.343,11,15,11z"/>
	</g>
</g>
</svg>
