<?xml version="1.0" encoding="iso-8859-1"?>
<!-- Generator: Adobe Illustrator 16.2.1, SVG Export Plug-In . SVG Version: 6.00 Build 0)  -->
<!DOCTYPE svg PUBLIC "-//W3C//DTD SVG 1.1//EN" "http://www.w3.org/Graphics/SVG/1.1/DTD/svg11.dtd">
<svg version="1.1" id="Layer_1" xmlns="http://www.w3.org/2000/svg" xmlns:xlink="http://www.w3.org/1999/xlink" x="0px" y="0px"
	 width="24px" height="24px" viewBox="0 0 24 24" style="enable-background:new 0 0 24 24;" xml:space="preserve">
<g>
	<path d="M17,18c-0.552,0-1-0.447-1-1s0.448-1,1-1c1.654,0,3-1.346,3-3s-1.346-3-3-3c-0.238,0-0.496,0.042-0.813,0.131l-1.072,0.301
		L14.93,9.334C14.604,7.402,12.952,6,11,6c-2.206,0-4,1.794-4,4c0,0.274,0.028,0.545,0.082,0.806l0.26,1.24l-1.437-0.052
		C4.897,12,4,12.897,4,14s0.897,2,2,2c0.552,0,1,0.447,1,1s-0.448,1-1,1c-2.206,0-4-1.794-4-4c0-1.861,1.277-3.429,3.001-3.874
		C5,10.084,5,10.042,5,10c0-3.309,2.691-6,6-6c2.587,0,4.824,1.638,5.649,4.015C19.574,7.774,22,10.127,22,13
		C22,15.757,19.757,18,17,18z"/>
</g>
<g>
	<polygon points="12.639,14 8.139,18.051 11.139,19.5 9.639,23 14.139,18.95 11.139,17.5 	"/>
</g>
</svg>
