<?xml version="1.0" encoding="iso-8859-1"?>
<!-- Generator: Adobe Illustrator 16.2.1, SVG Export Plug-In . SVG Version: 6.00 Build 0)  -->
<svg version="1.2" baseProfile="tiny" xmlns="http://www.w3.org/2000/svg" xmlns:xlink="http://www.w3.org/1999/xlink" x="0px"
	 y="0px" width="24px" height="24px" viewBox="0 0 24 24" xml:space="preserve">
<g id="Layer_1">
	<g>
		<g>
			<path d="M14.5,3l-1,3l-1-3c-0.184-0.553,0.114-1.149,0.666-1.333c0.553-0.185,1.15,0.114,1.334,0.666
				C14.575,2.559,14.57,2.791,14.5,3z"/>
		</g>
		<g>
			<path d="M19.864,6.05l-2.829,1.415l1.415-2.829c0.261-0.521,0.894-0.731,1.414-0.472c0.521,0.261,0.731,0.894,0.472,1.415
				C20.229,5.791,20.062,5.951,19.864,6.05z"/>
		</g>
		<g>
			<path d="M21.5,12l-3-1l3-1c0.553-0.185,1.149,0.114,1.334,0.667c0.184,0.552-0.115,1.148-0.668,1.333
				C21.941,12.075,21.709,12.069,21.5,12z"/>
		</g>
		<g>
			<path d="M8.55,4.636l1.415,2.829L7.136,6.05C6.615,5.789,6.404,5.156,6.664,4.636c0.261-0.521,0.895-0.731,1.414-0.472
				C8.291,4.271,8.451,4.438,8.55,4.636z"/>
		</g>
	</g>
	<path d="M17.776,12.342C17.915,11.918,18,11.471,18,11c0-2.481-2.019-4.5-4.5-4.5c-1.34,0-2.537,0.594-3.357,1.528
		C10.094,8.021,10.051,8,10,8c-1.776,0-3.369,0.78-4.469,2.011C5.291,9.931,5.059,9.925,4.834,10
		c-0.553,0.185-0.852,0.781-0.668,1.333c0.057,0.167,0.158,0.299,0.277,0.411C4.16,12.441,4,13.202,4,14
		c0,0.042,0,0.084,0.002,0.126C2.277,14.571,1,16.139,1,18c0,2.206,1.795,4,4,4h11c2.757,0,5-2.243,5-5
		C21,14.871,19.656,13.061,17.776,12.342z M13.5,8.5c1.379,0,2.5,1.121,2.5,2.5c0,0.366-0.096,0.706-0.238,1.019
		c-0.354,0.021-0.72,0.074-1.118,0.188c-0.521-1.353-1.604-2.415-2.967-2.905C12.133,8.812,12.779,8.5,13.5,8.5z M16,20H5
		c-1.104,0-2-0.897-2-2s0.896-2,1.908-2.006L6.33,16.01l-0.248-1.202C6.027,14.545,6,14.272,6,14c0-2.206,1.795-4,4-4
		c0.024,0,0.045-0.013,0.069-0.014c1.904,0.055,3.495,1.406,3.847,3.27c0.031,0.078,0.022,0.131,0.038,0.186
		c0.123,0.436,0.517,0.706,0.946,0.712c0.106-0.001,0.197,0.003,0.289-0.023C15.501,14.041,15.758,14,16,14c1.654,0,3,1.346,3,3
		S17.654,20,16,20z"/>
</g>
<g id="nyt_x5F_exporter_x5F_info" display="none">
</g>
</svg>
