<?xml version="1.0" encoding="iso-8859-1"?>
<!-- Generator: Adobe Illustrator 16.2.1, SVG Export Plug-In . SVG Version: 6.00 Build 0)  -->
<svg version="1.2" baseProfile="tiny" xmlns="http://www.w3.org/2000/svg" xmlns:xlink="http://www.w3.org/1999/xlink" x="0px"
	 y="0px" width="24px" height="24px" viewBox="0 0 24 24" xml:space="preserve">
<g id="Layer_1">
	<g>
		<path d="M4.798,15.75c-0.134,0-0.27-0.026-0.4-0.084C2.941,15.027,2,13.589,2,12c0-1.861,1.277-3.429,3.001-3.874
			C5,8.084,5,8.042,5,8c0-3.309,2.691-6,6-6c2.932,0,5.413,2.104,5.902,5.001c0.092,0.544-0.275,1.061-0.82,1.152
			c-0.544,0.083-1.06-0.276-1.152-0.82C14.604,5.402,12.951,4,11,4C8.794,4,7,5.794,7,8c0,0.272,0.027,0.546,0.081,0.812l0.259,1.27
			L5.909,9.994C4.897,10,4,10.897,4,12c0,0.795,0.471,1.515,1.2,1.834c0.506,0.222,0.736,0.812,0.515,1.317
			C5.551,15.526,5.184,15.75,4.798,15.75z"/>
	</g>
	<g>
		<path d="M19,7c-0.553,0-1,0.447-1,1s0.447,1,1,1c0.552,0,1,0.448,1,1s-0.448,1-1,1H9.4c-0.553,0-1,0.447-1,1s0.447,1,1,1H14
			c0.552,0,1,0.448,1,1s-0.448,1-1,1H9c-1.654,0-3,1.346-3,3s1.346,3,3,3c0.553,0,1-0.447,1-1s-0.447-1-1-1c-0.552,0-1-0.448-1-1
			s0.448-1,1-1h5c1.654,0,3-1.346,3-3c0-0.353-0.072-0.686-0.185-1H19c1.654,0,3-1.346,3-3S20.654,7,19,7z"/>
	</g>
</g>
<g id="nyt_x5F_exporter_x5F_info" display="none">
</g>
</svg>
