<?xml version="1.0" encoding="iso-8859-1"?>
<!-- Generator: Adobe Illustrator 16.2.1, SVG Export Plug-In . SVG Version: 6.00 Build 0)  -->
<!DOCTYPE svg PUBLIC "-//W3C//DTD SVG 1.1//EN" "http://www.w3.org/Graphics/SVG/1.1/DTD/svg11.dtd">
<svg version="1.1" id="Layer_1" xmlns="http://www.w3.org/2000/svg" xmlns:xlink="http://www.w3.org/1999/xlink" x="0px" y="0px"
	 width="24px" height="24px" viewBox="0 0 24 24" style="enable-background:new 0 0 24 24;" xml:space="preserve">
<g>
	<path d="M13.5,6l1-3c0.07-0.209,0.075-0.441,0-0.667c-0.184-0.552-0.781-0.851-1.333-0.666C12.614,1.851,12.316,2.447,12.5,3
		L13.5,6z"/>
	<path d="M20.335,5.579c0.26-0.521,0.049-1.154-0.471-1.415c-0.521-0.26-1.154-0.049-1.414,0.472l-1.415,2.829l2.829-1.415
		C20.062,5.951,20.229,5.791,20.335,5.579z"/>
	<path d="M22.833,10.667C22.649,10.114,22.052,9.815,21.5,10l-3,1l3,1c0.209,0.069,0.441,0.075,0.667,0
		C22.719,11.815,23.018,11.219,22.833,10.667z"/>
	<path d="M7.136,6.05l2.829,1.415L8.55,4.636C8.452,4.438,8.291,4.271,8.079,4.164c-0.521-0.26-1.154-0.049-1.414,0.472
		S6.615,5.789,7.136,6.05z"/>
	<path d="M17.776,12.342C17.915,11.918,18,11.471,18,11c0-2.481-2.019-4.5-4.5-4.5c-1.34,0-2.537,0.594-3.358,1.528
		C10.094,8.021,10.05,8,10,8c-1.776,0-3.369,0.78-4.469,2.011L5.5,10c-0.209-0.069-0.441-0.075-0.667,0
		c-0.552,0.185-0.851,0.781-0.667,1.333c0.056,0.167,0.158,0.299,0.277,0.411C4.16,12.441,4,13.202,4,14
		c0,0.042,0,0.084,0.001,0.126C2.277,14.571,1,16.139,1,18c0,2.206,1.794,4,4,4h11c2.757,0,5-2.243,5-5
		C21,14.871,19.656,13.061,17.776,12.342z M13.5,8.5c1.378,0,2.5,1.121,2.5,2.5c0,0.366-0.096,0.706-0.238,1.019
		c-0.354,0.021-0.72,0.074-1.118,0.188c-0.521-1.353-1.604-2.415-2.967-2.905C12.133,8.812,12.779,8.5,13.5,8.5z M16,20H5
		c-1.103,0-2-0.897-2-2s0.897-2,1.908-2.006L6.33,16.01l-0.248-1.202C6.027,14.545,6,14.272,6,14c0-2.206,1.794-4,4-4
		c0.024,0,0.045-0.013,0.069-0.014l0.017,0.015c1.888,0.04,3.479,1.392,3.83,3.255l0.025,0.023c0.006,0.055-0.003,0.107,0.013,0.162
		c0.123,0.436,0.517,0.706,0.946,0.712l0.016,0.015v-0.016c0.091,0,0.182,0.004,0.273-0.022C15.501,14.041,15.758,14,16,14
		c1.654,0,3,1.346,3,3S17.654,20,16,20z"/>
</g>
</svg>
