<?xml version="1.0" encoding="iso-8859-1"?>
<!-- Generator: Adobe Illustrator 16.2.1, SVG Export Plug-In . SVG Version: 6.00 Build 0)  -->
<svg version="1.2" baseProfile="tiny" xmlns="http://www.w3.org/2000/svg" xmlns:xlink="http://www.w3.org/1999/xlink" x="0px"
	 y="0px" width="24px" height="24px" viewBox="0 0 24 24" xml:space="preserve">
<g id="Layer_1">
	<g>
		<g>
			<path d="M10.5,20c-0.861,0-1.71-0.151-2.523-0.451l-1.317-0.485l0.89-1.087C8.825,16.417,9.5,14.523,9.5,12.5
				S8.825,8.583,7.549,7.023l-0.89-1.087l1.317-0.485C8.79,5.151,9.639,5,10.5,5c4.136,0,7.5,3.364,7.5,7.5S14.636,20,10.5,20z
				 M9.991,17.976C10.16,17.992,10.33,18,10.5,18c3.032,0,5.5-2.468,5.5-5.5S13.532,7,10.5,7c-0.17,0-0.34,0.008-0.509,0.024
				C10.982,8.669,11.5,10.535,11.5,12.5S10.982,16.331,9.991,17.976z"/>
		</g>
	</g>
</g>
<g id="nyt_x5F_exporter_x5F_info" display="none">
</g>
</svg>
