<?xml version="1.0" encoding="iso-8859-1"?>
<!-- Generator: Adobe Illustrator 16.2.1, SVG Export Plug-In . SVG Version: 6.00 Build 0)  -->
<svg version="1.2" baseProfile="tiny" xmlns="http://www.w3.org/2000/svg" xmlns:xlink="http://www.w3.org/1999/xlink" x="0px"
	 y="0px" width="24px" height="24px" viewBox="0 0 24 24" xml:space="preserve">
<g id="Layer_1">
	<g>
		<path d="M17,18c-0.552,0-1-0.447-1-1s0.448-1,1-1c1.654,0,3-1.346,3-3s-1.346-3-3-3c-0.243,0-0.5,0.041-0.81,0.13l-1.075,0.307
			L14.93,9.334C14.604,7.402,12.952,6,11,6c-2.206,0-4,1.794-4,4c0,0.272,0.027,0.545,0.082,0.811l0.244,1.199l-1.42-0.016
			C4.897,12,4,12.897,4,14s0.897,2,2,2c0.552,0,1,0.447,1,1s-0.448,1-1,1c-2.206,0-4-1.794-4-4c0-1.861,1.277-3.429,3.001-3.874
			C5,10.084,5,10.042,5,10c0-3.309,2.691-6,6-6c2.587,0,4.824,1.638,5.65,4.015C19.589,7.771,22,10.128,22,13
			C22,15.757,19.757,18,17,18z"/>
	</g>
	<g>
		<path d="M10.5,18l1-3l1,3c0.184,0.553-0.114,1.149-0.667,1.333c-0.552,0.185-1.149-0.114-1.333-0.666
			C10.425,18.441,10.43,18.209,10.5,18z"/>
	</g>
	<g>
		<path d="M13.5,20l1-3l1,3c0.184,0.553-0.114,1.149-0.667,1.333c-0.552,0.185-1.149-0.114-1.333-0.666
			C13.425,20.441,13.43,20.209,13.5,20z"/>
	</g>
	<g>
		<path d="M7.5,20l1-3l1,3c0.184,0.553-0.114,1.149-0.667,1.333c-0.552,0.185-1.149-0.114-1.333-0.666
			C7.425,20.441,7.43,20.209,7.5,20z"/>
	</g>
</g>
<g id="nyt_x5F_exporter_x5F_info" display="none">
</g>
</svg>
