<?xml version="1.0" encoding="iso-8859-1"?>
<!-- Generator: Adobe Illustrator 16.2.1, SVG Export Plug-In . SVG Version: 6.00 Build 0)  -->
<svg version="1.2" baseProfile="tiny" xmlns="http://www.w3.org/2000/svg" xmlns:xlink="http://www.w3.org/1999/xlink" x="0px"
	 y="0px" width="24px" height="24px" viewBox="0 0 24 24" xml:space="preserve">
<g id="Layer_1">
	<g>
		<path d="M15,22c-0.552,0-1-0.447-1-1v-6c0-0.553,0.448-1,1-1s1,0.447,1,1v6C16,21.553,15.552,22,15,22z"/>
	</g>
	<g>
		<path d="M9,22c-0.552,0-1-0.447-1-1v-6c0-0.553,0.448-1,1-1s1,0.447,1,1v6C10,21.553,9.552,22,9,22z"/>
	</g>
	<g>
		<path d="M12,24c-0.552,0-1-0.447-1-1v-6c0-0.553,0.448-1,1-1s1,0.447,1,1v6C13,23.553,12.552,24,12,24z"/>
	</g>
	<g>
		<path d="M6,18c-2.206,0-4-1.794-4-4c0-1.861,1.277-3.429,3.001-3.874C5,10.084,5,10.042,5,10c0-3.309,2.691-6,6-6
			c2.587,0,4.824,1.639,5.65,4.015C19.586,7.771,22,10.128,22,13c0,2.241-1.507,4.223-3.666,4.819
			c-0.535,0.146-1.083-0.166-1.23-0.697c-0.147-0.532,0.165-1.083,0.698-1.23C19.096,15.534,20,14.345,20,13c0-1.654-1.346-3-3-3
			c-0.242,0-0.499,0.041-0.811,0.13l-1.074,0.306L14.93,9.334C14.604,7.402,12.952,6,11,6c-2.206,0-4,1.794-4,4
			c0,0.272,0.027,0.545,0.082,0.808L7.33,12.01l-1.422-0.016C4.897,12,4,12.897,4,14s0.897,2,2,2c0.552,0,1,0.447,1,1S6.552,18,6,18
			z"/>
	</g>
</g>
<g id="nyt_x5F_exporter_x5F_info" display="none">
</g>
</svg>
