<?xml version="1.0" encoding="iso-8859-1"?>
<!-- Generator: Adobe Illustrator 16.2.1, SVG Export Plug-In . SVG Version: 6.00 Build 0)  -->
<svg version="1.2" baseProfile="tiny" xmlns="http://www.w3.org/2000/svg" xmlns:xlink="http://www.w3.org/1999/xlink" x="0px"
	 y="0px" width="24px" height="24px" viewBox="0 0 24 24" xml:space="preserve">
<g id="Layer_1">
	<g>
		<path d="M17,19H6c-2.206,0-4-1.794-4-4c0-1.861,1.277-3.429,3.001-3.874C5,11.084,5,11.042,5,11c0-3.309,2.691-6,6-6
			c2.587,0,4.824,1.638,5.65,4.015C19.592,8.769,22,11.128,22,14C22,16.757,19.757,19,17,19z M5.905,12.994C4.897,13,4,13.897,4,15
			s0.897,2,2,2h11c1.654,0,3-1.346,3-3s-1.346-3-3-3c-0.243,0-0.5,0.041-0.81,0.13l-1.075,0.307l-0.186-1.103
			C14.604,8.402,12.952,7,11,7c-2.206,0-4,1.794-4,4c0,0.272,0.027,0.545,0.082,0.811l0.244,1.199L5.905,12.994z"/>
	</g>
</g>
<g id="nyt_x5F_exporter_x5F_info" display="none">
</g>
</svg>
