<?xml version="1.0" encoding="iso-8859-1"?>
<!-- Generator: Adobe Illustrator 16.2.1, SVG Export Plug-In . SVG Version: 6.00 Build 0)  -->
<svg version="1.2" baseProfile="tiny" xmlns="http://www.w3.org/2000/svg" xmlns:xlink="http://www.w3.org/1999/xlink" x="0px"
	 y="0px" width="24px" height="24px" viewBox="0 0 24 24" xml:space="preserve">
<g id="Layer_1">
	<path d="M20.5,15.134l-2.457-0.503l1.483-0.396c0.533-0.143,0.85-0.69,0.707-1.225c-0.142-0.533-0.689-0.85-1.225-0.707
		l-1.508,0.403c0.037-0.231,0.071-0.464,0.071-0.706s-0.034-0.476-0.071-0.707l1.51,0.404c0.087,0.023,0.174,0.034,0.26,0.034
		c0.441,0,0.846-0.295,0.965-0.741c0.143-0.533-0.174-1.082-0.707-1.225l-1.483-0.397L20.5,8.866
		c0.216-0.044,0.42-0.156,0.577-0.333c0.386-0.436,0.347-1.102-0.089-1.488c-0.436-0.386-1.102-0.347-1.488,0.089l-1.663,1.874
		l0.398-1.479c0.144-0.533-0.173-1.082-0.706-1.226c-0.531-0.142-1.082,0.173-1.226,0.706l-0.407,1.517
		c-0.366-0.299-0.771-0.544-1.219-0.717l1.102-1.102c0.391-0.391,0.391-1.023,0-1.414s-1.023-0.391-1.414,0l-1.086,1.086L14.072,4
		c0.069-0.209,0.075-0.441,0-0.667c-0.184-0.552-0.781-0.851-1.333-0.666C12.187,2.851,11.889,3.447,12.072,4l0.793,2.379
		l-1.086-1.086c-0.391-0.391-1.023-0.391-1.414,0s-0.391,1.023,0,1.414l1.102,1.102c-0.447,0.173-0.853,0.419-1.219,0.717
		L9.843,7.011C9.7,6.477,9.146,6.159,8.619,6.303c-0.534,0.143-0.851,0.69-0.708,1.224l0.396,1.485L6.645,7.135
		C6.499,6.971,6.3,6.85,6.067,6.802c-0.57-0.117-1.127,0.25-1.244,0.82S5.074,8.75,5.645,8.867L8.099,9.37l-1.48,0.396
		c-0.533,0.143-0.85,0.691-0.707,1.225c0.119,0.447,0.523,0.741,0.965,0.741c0.086,0,0.173-0.011,0.26-0.034l1.508-0.404
		C8.606,11.525,8.572,11.759,8.572,12c0,0.242,0.034,0.475,0.071,0.707l-1.508-0.404c-0.532-0.142-1.081,0.173-1.225,0.707
		c-0.144,0.533,0.174,1.082,0.707,1.225L8.1,14.632l-2.455,0.502c-0.216,0.044-0.42,0.156-0.577,0.334
		c-0.387,0.436-0.347,1.102,0.089,1.487c0.436,0.387,1.103,0.347,1.488-0.089l1.665-1.878l-0.398,1.484
		c-0.144,0.533,0.173,1.082,0.707,1.225c0.087,0.023,0.174,0.034,0.26,0.034c0.441,0,0.845-0.294,0.965-0.741l0.406-1.515
		c0.366,0.298,0.771,0.544,1.22,0.716l-1.104,1.102c-0.391,0.39-0.391,1.023,0,1.414s1.023,0.391,1.414,0L12.486,18h0.252
		l-0.666,1.999c-0.069,0.209-0.075,0.441,0,0.667c0.184,0.552,0.781,0.851,1.333,0.666c0.553-0.184,0.851-0.78,0.667-1.333
		L13.406,18h0.252l0.707,0.707C14.561,18.902,14.816,19,15.072,19s0.512-0.098,0.707-0.293c0.391-0.39,0.391-1.023,0-1.414
		l-1.102-1.103c0.448-0.172,0.854-0.418,1.22-0.717l0.406,1.517c0.12,0.447,0.523,0.741,0.965,0.741c0.086,0,0.173-0.011,0.26-0.034
		c0.533-0.143,0.851-0.691,0.707-1.225l-0.397-1.48l1.662,1.874c0.146,0.165,0.345,0.285,0.577,0.333
		c0.57,0.117,1.128-0.251,1.244-0.821C21.438,15.808,21.07,15.251,20.5,15.134z M13.072,14.5c-1.379,0-2.5-1.121-2.5-2.5
		s1.121-2.5,2.5-2.5s2.5,1.121,2.5,2.5S14.451,14.5,13.072,14.5z"/>
</g>
<g id="nyt_x5F_exporter_x5F_info" display="none">
</g>
</svg>
