<?xml version="1.0" encoding="iso-8859-1"?>
<!-- Generator: Adobe Illustrator 16.2.1, SVG Export Plug-In . SVG Version: 6.00 Build 0)  -->
<!DOCTYPE svg PUBLIC "-//W3C//DTD SVG 1.1//EN" "http://www.w3.org/Graphics/SVG/1.1/DTD/svg11.dtd">
<svg version="1.1" id="Layer_1" xmlns="http://www.w3.org/2000/svg" xmlns:xlink="http://www.w3.org/1999/xlink" x="0px" y="0px"
	 width="24px" height="24px" viewBox="0 0 24 24" style="enable-background:new 0 0 24 24;" xml:space="preserve">
<path d="M21.157,11.764c0-0.785-0.268-1.464-0.706-2.048l0.034-0.015c-0.079-0.079-0.164-0.135-0.244-0.211
	c-0.163-0.179-0.34-0.338-0.536-0.48C15.255,5.271,8.74,5.275,4.291,9.016C4.098,9.158,3.549,9.754,3.549,9.754
	c-0.437,0.584-0.706,1.305-0.706,2.09c0,0.816,0.362,1.758,0.759,2.155s5.775,5.796,5.775,5.796C10.019,20.528,10.949,21,11.999,21
	c0.996,0,1.709-0.167,2.527-1h0.003l5.562-5.645C20.796,13.65,21.157,12.655,21.157,11.764z M12.001,18.998
	C11.172,19,10.5,18.33,10.5,17.5c-0.002-0.828,0.67-1.502,1.501-1.502c0.829-0.002,1.501,0.67,1.499,1.502
	C13.502,18.328,12.83,19,12.001,18.998z M15.889,15.73c-0.293,0.293-0.677,0.439-1.061,0.439s-0.768-0.146-1.061-0.439
	c-0.975-0.975-2.561-0.975-3.535,0c-0.586,0.586-1.536,0.585-2.122,0c-0.586-0.586-0.586-1.536,0-2.122
	c2.144-2.144,5.632-2.144,7.778,0C16.475,14.194,16.475,15.144,15.889,15.73z M18.718,12.902c-0.293,0.293-0.677,0.439-1.061,0.439
	s-0.768-0.146-1.061-0.439c-2.534-2.534-6.658-2.534-9.192,0c-0.586,0.585-1.536,0.585-2.122,0c-0.585-0.586-0.585-1.536,0-2.122
	c3.704-3.702,9.73-3.702,13.435,0C19.303,11.367,19.303,12.316,18.718,12.902z"/>
</svg>
