<?xml version="1.0" encoding="iso-8859-1"?>
<!-- Generator: Adobe Illustrator 16.2.1, SVG Export Plug-In . SVG Version: 6.00 Build 0)  -->
<svg version="1.2" baseProfile="tiny" id="Layer_1" xmlns="http://www.w3.org/2000/svg" xmlns:xlink="http://www.w3.org/1999/xlink"
	 x="0px" y="0px" width="24px" height="24px" viewBox="0 0 24 24" xml:space="preserve">
<path d="M21.157,10.764c0-0.785-0.269-1.464-0.706-2.048c-0.045-0.094-0.131-0.149-0.21-0.226c-0.163-0.18-0.341-0.338-0.536-0.48
	C15.255,4.271,8.74,4.275,4.291,8.016C4.098,8.158,3.549,8.754,3.549,8.754c-0.437,0.584-0.706,1.305-0.706,2.09
	c0,0.816,0.362,1.758,0.759,2.155s5.775,5.796,5.775,5.796c0.642,0.732,1.572,1.204,2.622,1.204c0.996,0,1.709-0.167,2.526-1
	c0.004,0,5.565-5.646,5.565-5.646C20.796,12.65,21.157,11.654,21.157,10.764z M12.001,17.998C11.172,18,10.5,17.33,10.5,16.5
	c-0.002-0.828,0.67-1.502,1.501-1.502c0.829-0.002,1.501,0.67,1.499,1.502C13.502,17.328,12.83,18,12.001,17.998z M15.889,14.73
	c-0.293,0.293-0.677,0.438-1.061,0.438c-0.385,0-0.768-0.146-1.061-0.438c-0.976-0.976-2.562-0.976-3.536,0
	c-0.586,0.586-1.536,0.584-2.122,0c-0.586-0.586-0.586-1.537,0-2.123c2.144-2.144,5.632-2.144,7.779,0
	C16.475,13.193,16.475,14.145,15.889,14.73z M18.718,11.902c-0.293,0.293-0.677,0.438-1.061,0.438s-0.769-0.146-1.062-0.438
	c-2.533-2.534-6.658-2.534-9.192,0c-0.586,0.584-1.536,0.584-2.122,0c-0.585-0.586-0.585-1.536,0-2.123
	c3.704-3.701,9.729-3.701,13.435,0C19.303,10.367,19.303,11.316,18.718,11.902z"/>
</svg>
