<?xml version="1.0" encoding="iso-8859-1"?>
<!-- Generator: Adobe Illustrator 16.2.1, SVG Export Plug-In . SVG Version: 6.00 Build 0)  -->
<!DOCTYPE svg PUBLIC "-//W3C//DTD SVG 1.1//EN" "http://www.w3.org/Graphics/SVG/1.1/DTD/svg11.dtd">
<svg version="1.1" id="Layer_1" xmlns="http://www.w3.org/2000/svg" xmlns:xlink="http://www.w3.org/1999/xlink" x="0px" y="0px"
	 width="24px" height="24px" viewBox="0 0 24 24" style="enable-background:new 0 0 24 24;" xml:space="preserve">
<path d="M18.137,9.432c0-2.55-0.906-5.592-0.944-5.72C17.064,3.289,16.676,3,16.234,3H8.902c-0.441,0-0.83,0.289-0.958,0.712
	C7.906,3.84,7,6.882,7,9.432c0,2.735,1.984,5.011,4.587,5.477c-0.003,0.031-0.019,0.06-0.019,0.092v4h-1c-0.553,0-1,0.447-1,1
	s0.447,1,1,1h4c0.553,0,1-0.447,1-1s-0.447-1-1-1h-1v-4c0-0.032-0.016-0.061-0.019-0.092C16.152,14.442,18.137,12.167,18.137,9.432z
	 M15.47,5c0.231,0.907,0.591,2.532,0.653,4H9.014c0.062-1.468,0.422-3.093,0.653-4H15.47z M12.568,13c-1.773,0-3.236-1.303-3.511-3
	h7.021C15.805,11.697,14.342,13,12.568,13z"/>
</svg>
