<?xml version="1.0" encoding="iso-8859-1"?>
<!-- Generator: Adobe Illustrator 16.2.1, SVG Export Plug-In . SVG Version: 6.00 Build 0)  -->
<svg version="1.2" baseProfile="tiny" xmlns="http://www.w3.org/2000/svg" xmlns:xlink="http://www.w3.org/1999/xlink" x="0px"
	 y="0px" width="24px" height="24px" viewBox="0 0 24 24" xml:space="preserve">
<g id="Layer_1">
	<path d="M17.568,9.432c0-2.55-0.906-5.592-0.944-5.72C16.496,3.289,16.107,3,15.666,3H8.334c-0.441,0-0.83,0.289-0.958,0.712
		c-0.038,0.128-0.944,3.17-0.944,5.72c0,2.735,1.984,5.011,4.587,5.477C11.016,14.939,11,14.968,11,15v4h-1c-0.553,0-1,0.447-1,1
		s0.447,1,1,1h4c0.553,0,1-0.447,1-1s-0.447-1-1-1h-1v-4c0-0.032-0.016-0.061-0.019-0.092C15.584,14.442,17.568,12.167,17.568,9.432
		z M12,13c-1.773,0-3.236-1.303-3.511-3h7.021C15.236,11.697,13.773,13,12,13z M8.445,9c0.062-1.468,0.422-3.093,0.653-4h5.803
		c0.231,0.907,0.591,2.532,0.653,4H8.445z"/>
</g>
<g id="nyt_x5F_exporter_x5F_info" display="none">
</g>
</svg>
