<?xml version="1.0" encoding="iso-8859-1"?>
<!-- Generator: Adobe Illustrator 16.2.1, SVG Export Plug-In . SVG Version: 6.00 Build 0)  -->
<svg version="1.2" baseProfile="tiny" id="Layer_1" xmlns="http://www.w3.org/2000/svg" xmlns:xlink="http://www.w3.org/1999/xlink"
	 x="0px" y="0px" width="24px" height="24px" viewBox="0 0 24 24" xml:space="preserve">
<path d="M12,2c-4.971,0-9,4.029-9,9s4.029,9,9,9s9-4.029,9-9S16.971,2,12,2z M14,4c0,1-0.5,2-1.5,2S11,7,11,8s0,3,0,3s1,0,1-3
	c0-0.553,0.447-1,1-1s1,0.447,1,1v3c-0.552,0-1,0.448-1,1s0.448,1,1,1c0.553,0,1-0.448,1-1h1v-2l1,1l-1,1c0,3,0,3-2,4c0-1-1-1-3-1
	v-2l-2-2V9c-1,0-1,1-1,1L7.439,9.439L5.049,7.049c0.11-0.192,0.225-0.382,0.35-0.564l0.523-0.678C7.39,4.091,9.566,3,12,3
	c0.691,0,1.359,0.098,2,0.262V4z"/>
</svg>
