<svg height="1000px" width="700.1953125px" xmlns="http://www.w3.org/2000/svg">
  <g>
    <path d="M0 704.1015625c0 -38.737 12.533 -67.871 37.598 -87.402c0 0 287.597 -233.399 287.597 -233.399c0 -166.666 62.5 -250 187.5 -250c13.998 0 32.064 2.767 54.2 8.301c0 0 -116.7 116.699 -116.7 116.699c0 0 20.996 104.004 20.996 104.004c0 0 104.004 20.996 104.004 20.996c0 0 116.7 -116.699 116.7 -116.699c5.533 22.135 8.3 40.202 8.3 54.199c0 125 -83.333 187.5 -250 187.5c0 0 -233.398 287.598 -233.398 287.598c-13.998 13.997 -26.53 22.298 -37.598 24.902c-16.601 8.464 -33.203 12.696 -49.804 12.696c-36.133 0 -66.732 -12.533 -91.797 -37.598c-25.065 -25.065 -37.598 -55.664 -37.598 -91.797c0 0 0 0 0 0" />
  </g>
</svg>