<?xml version="1.0" encoding="iso-8859-1"?>
<!-- Generator: Adobe Illustrator 16.2.1, SVG Export Plug-In . SVG Version: 6.00 Build 0)  -->
<svg version="1.2" baseProfile="tiny" id="Layer_1" xmlns="http://www.w3.org/2000/svg" xmlns:xlink="http://www.w3.org/1999/xlink"
	 x="0px" y="0px" width="24px" height="24px" viewBox="0 0 24 24" xml:space="preserve">
<path d="M13,4c-3.859,0-7,3.141-7,7c0,0.763,0.127,1.495,0.354,2.183l-0.749,0.75l-0.511,0.512l-1.008,1.045
	c-0.562,0.557-0.891,1.345-0.891,2.185c0,1.727,1.404,3.131,3.13,3.131c0.757,0,1.504-0.278,2.104-0.784l0.064-0.055l0.061-0.061
	l1.512-1.51l0.75-0.749C11.504,17.873,12.237,18,13,18c3.859,0,7-3.141,7-7S16.859,4,13,4z M13,16c-2.757,0-5-2.243-5-5s2.243-5,5-5
	s5,2.243,5,5S15.757,16,13,16z"/>
<path d="M13,7c-2.205,0-4,1.794-4,4s1.795,4,4,4s4-1.794,4-4S15.205,7,13,7z M13,14c-1.656,0-3-1.344-3-3s1.344-3,3-3s3,1.344,3,3
	S14.656,14,13,14z"/>
</svg>
