<?xml version="1.0" encoding="iso-8859-1"?>
<!-- Generator: Adobe Illustrator 16.2.1, SVG Export Plug-In . SVG Version: 6.00 Build 0)  -->
<!DOCTYPE svg PUBLIC "-//W3C//DTD SVG 1.1//EN" "http://www.w3.org/Graphics/SVG/1.1/DTD/svg11.dtd">
<svg version="1.1" id="Layer_1" xmlns="http://www.w3.org/2000/svg" xmlns:xlink="http://www.w3.org/1999/xlink" x="0px" y="0px"
	 width="24px" height="24px" viewBox="0 0 24 24" style="enable-background:new 0 0 24 24;" xml:space="preserve">
<g>
	<path d="M13,12H8c-0.276,0-0.5-0.224-0.5-0.5S7.724,11,8,11h5c0.276,0,0.5,0.224,0.5,0.5S13.276,12,13,12z"/>
</g>
<path d="M19.381,15.956l-2.245-2.283c0.228-0.686,0.364-1.412,0.364-2.173c0-3.859-3.14-7-7-7s-7,3.141-7,7s3.14,7,7,7
	c0.761,0,1.488-0.137,2.173-0.364l2.397,2.385c0.601,0.506,1.348,0.784,2.104,0.784c1.726,0,3.13-1.404,3.13-3.131
	C20.305,17.334,19.977,16.546,19.381,15.956z M15.48,14.846l2.493,2.531c0.205,0.203,0.331,0.486,0.331,0.797
	c0,0.625-0.506,1.131-1.13,1.131c-0.312,0-0.594-0.127-0.816-0.314l-2.512-2.51C14.491,16.045,15.046,15.49,15.48,14.846z M5.5,11.5
	c0-2.757,2.243-5,5-5s5,2.243,5,5s-2.243,5-5,5S5.5,14.257,5.5,11.5z"/>
</svg>
