<?xml version="1.0" encoding="iso-8859-1"?>
<!-- Generator: Adobe Illustrator 16.2.1, SVG Export Plug-In . SVG Version: 6.00 Build 0)  -->
<svg version="1.2" baseProfile="tiny" id="Layer_1" xmlns="http://www.w3.org/2000/svg" xmlns:xlink="http://www.w3.org/1999/xlink"
	 x="0px" y="0px" width="24px" height="24px" viewBox="0 0 24 24" xml:space="preserve">
<path d="M13,11h-2V9c0-0.275-0.225-0.5-0.5-0.5S10,8.725,10,9v2H8c-0.275,0-0.5,0.225-0.5,0.5S7.725,12,8,12h2v2
	c0,0.275,0.225,0.5,0.5,0.5S11,14.275,11,14v-2h2c0.275,0,0.5-0.225,0.5-0.5S13.275,11,13,11z"/>
<path d="M19.381,15.956l-2.244-2.283c0.227-0.687,0.363-1.412,0.363-2.173c0-3.859-3.141-7-7-7s-7,3.141-7,7s3.141,7,7,7
	c0.762,0,1.488-0.137,2.173-0.364l2.397,2.386c0.601,0.506,1.348,0.783,2.104,0.783c1.727,0,3.131-1.404,3.131-3.131
	C20.305,17.334,19.977,16.546,19.381,15.956z M15.48,14.846l2.492,2.531c0.205,0.203,0.332,0.486,0.332,0.797
	c0,0.625-0.507,1.131-1.131,1.131c-0.312,0-0.594-0.127-0.816-0.313l-2.512-2.511C14.491,16.045,15.046,15.49,15.48,14.846z
	 M5.5,11.5c0-2.757,2.243-5,5-5s5,2.243,5,5s-2.243,5-5,5S5.5,14.257,5.5,11.5z"/>
</svg>
