<?xml version="1.0" encoding="iso-8859-1"?>
<!-- Generator: Adobe Illustrator 16.2.1, SVG Export Plug-In . SVG Version: 6.00 Build 0)  -->
<svg version="1.2" baseProfile="tiny" id="Layer_1" xmlns="http://www.w3.org/2000/svg" xmlns:xlink="http://www.w3.org/1999/xlink"
	 x="0px" y="0px" width="24px" height="24px" viewBox="0 0 24 24" xml:space="preserve">
<path d="M13,11h-2V9c0-0.276-0.224-0.5-0.5-0.5S10,8.724,10,9v2H8c-0.276,0-0.5,0.224-0.5,0.5S7.724,12,8,12h2v2
	c0,0.276,0.224,0.5,0.5,0.5S11,14.276,11,14v-2h2c0.276,0,0.5-0.224,0.5-0.5S13.276,11,13,11z"/>
<path d="M18.432,14.97l-0.536-0.537l-0.749-0.75c0.227-0.688,0.354-1.42,0.354-2.183c0-3.859-3.141-7-7-7s-7,3.141-7,7s3.141,7,7,7
	c0.763,0,1.496-0.127,2.184-0.354l0.75,0.749l1.512,1.51l0.061,0.061l0.064,0.055c0.601,0.506,1.348,0.784,2.104,0.784
	c1.726,0,3.13-1.404,3.13-3.131c0-0.84-0.328-1.628-0.924-2.218L18.432,14.97z M5.5,11.5c0-2.757,2.243-5,5-5s5,2.243,5,5
	s-2.243,5-5,5S5.5,14.257,5.5,11.5z"/>
</svg>
