<?xml version="1.0" encoding="iso-8859-1"?>
<!-- Generator: Adobe Illustrator 16.2.1, SVG Export Plug-In . SVG Version: 6.00 Build 0)  -->
<svg version="1.2" baseProfile="tiny" id="Layer_1" xmlns="http://www.w3.org/2000/svg" xmlns:xlink="http://www.w3.org/1999/xlink"
	 x="0px" y="0px" width="24px" height="24px" viewBox="0 0 24 24" xml:space="preserve">
<g>
	<path d="M14,8c1.656,0,3,1.344,3,3s-1.344,3-3,3s-3-1.344-3-3S12.344,8,14,8 M14,7c-2.206,0-4,1.794-4,4s1.794,4,4,4s4-1.794,4-4
		S16.206,7,14,7z"/>
</g>
<path d="M4.195,17.674c0,1.727,1.404,3.131,3.131,3.131c0.756,0,1.503-0.277,2.104-0.783l2.397-2.386C12.512,17.863,13.239,18,14,18
	c3.86,0,7-3.141,7-7s-3.14-7-7-7c-3.859,0-7,3.141-7,7c0,0.761,0.136,1.486,0.364,2.173l-2.245,2.283
	C4.523,16.046,4.195,16.834,4.195,17.674z M10.654,15.98l-2.512,2.511c-0.223,0.187-0.504,0.313-0.816,0.313
	c-0.624,0-1.131-0.506-1.131-1.131c0-0.311,0.127-0.594,0.332-0.797l2.492-2.531C9.454,14.99,10.009,15.545,10.654,15.98z M14,16
	c-2.757,0-5-2.243-5-5s2.243-5,5-5s5,2.243,5,5S16.757,16,14,16z"/>
</svg>
